<svg width="233" height="233" viewBox="0 0 233 233" fill="none" xmlns="http://www.w3.org/2000/svg">
<circle cx="116.5" cy="116.5" r="116.5" fill="white"/>
<circle cx="78.5" cy="85.5" r="44.5" fill="#36B4FC"/>
<path d="M89.7576 97.9916C86.4033 101.314 82.3211 102.976 77.5112 102.976C72.7012 102.976 68.6191 101.314 65.2648 97.9916C61.9421 94.6373 60.2808 90.5393 60.2808 85.6977C60.2808 80.8561 61.9421 76.774 65.2648 73.4513C68.6191 70.097 72.7012 68.4198 77.5112 68.4198C82.3211 68.4198 86.4033 70.097 89.7576 73.4513C93.1119 76.774 94.789 80.8561 94.789 85.6977C94.789 90.5393 93.1119 94.6373 89.7576 97.9916ZM69.869 93.5297C71.9259 95.555 74.4733 96.5676 77.5112 96.5676C80.549 96.5676 83.0964 95.555 85.1533 93.5297C87.2102 91.4728 88.2386 88.8622 88.2386 85.6977C88.2386 82.5333 87.2102 79.9226 85.1533 77.8657C83.0964 75.8088 80.549 74.7804 77.5112 74.7804C74.4733 74.7804 71.9259 75.8088 69.869 77.8657C67.8121 79.9226 66.7837 82.5333 66.7837 85.6977C66.7837 88.8622 67.8121 91.4728 69.869 93.5297Z" fill="white"/>
<path d="M92.6593 72.6444V69.7924L99.2769 62.981C100.754 61.4304 101.492 60.1382 101.492 59.1045C101.492 58.3477 101.252 57.7385 100.772 57.277C100.311 56.8156 99.7107 56.5848 98.9723 56.5848C97.5141 56.5848 96.4342 57.3417 95.7327 58.8553L92.5208 56.9725C93.13 55.6434 94.0068 54.6281 95.1513 53.9267C96.2957 53.2252 97.551 52.8745 98.917 52.8745C100.671 52.8745 102.175 53.4283 103.43 54.5358C104.685 55.6249 105.313 57.1017 105.313 58.9661C105.313 60.9781 104.252 63.0456 102.129 65.1684L98.3355 68.9618H105.618V72.6444H92.6593Z" fill="white"/>
<circle cx="153.5" cy="147.5" r="44.5" fill="#C1C1C1"/>
<path d="M143.344 155.688C140.64 155.688 138.407 154.79 136.644 152.993C134.881 151.196 134 148.98 134 146.344C134 143.691 134.881 141.475 136.644 139.695C138.407 137.898 140.64 137 143.344 137C144.97 137 146.467 137.385 147.836 138.155C149.223 138.908 150.301 139.935 151.071 141.236L148.016 143.007C147.571 142.203 146.938 141.578 146.116 141.133C145.295 140.671 144.371 140.44 143.344 140.44C141.598 140.44 140.187 140.987 139.108 142.083C138.047 143.178 137.517 144.598 137.517 146.344C137.517 148.073 138.047 149.484 139.108 150.58C140.187 151.675 141.598 152.223 143.344 152.223C144.371 152.223 145.295 152 146.116 151.555C146.955 151.093 147.588 150.468 148.016 149.681L151.071 151.452C150.301 152.753 149.231 153.788 147.862 154.559C146.493 155.312 144.987 155.688 143.344 155.688Z" fill="white"/>
<path d="M168.191 152.993C166.377 154.79 164.17 155.688 161.568 155.688C158.967 155.688 156.76 154.79 154.945 152.993C153.149 151.179 152.25 148.962 152.25 146.344C152.25 143.726 153.149 141.518 154.945 139.721C156.76 137.907 158.967 137 161.568 137C164.17 137 166.377 137.907 168.191 139.721C170.006 141.518 170.913 143.726 170.913 146.344C170.913 148.962 170.006 151.179 168.191 152.993ZM157.436 150.58C158.548 151.675 159.926 152.223 161.568 152.223C163.211 152.223 164.589 151.675 165.701 150.58C166.814 149.467 167.37 148.055 167.37 146.344C167.37 144.633 166.814 143.221 165.701 142.108C164.589 140.996 163.211 140.44 161.568 140.44C159.926 140.44 158.548 140.996 157.436 142.108C156.323 143.221 155.767 144.633 155.767 146.344C155.767 148.055 156.323 149.467 157.436 150.58Z" fill="white"/>
<path d="M172.691 158.996V157.409L176.397 153.619C177.224 152.756 177.637 152.037 177.637 151.462C177.637 151.04 177.503 150.701 177.234 150.445C176.975 150.188 176.639 150.059 176.226 150.059C175.409 150.059 174.805 150.481 174.412 151.323L172.613 150.275C172.954 149.535 173.445 148.97 174.086 148.58C174.727 148.19 175.43 147.995 176.195 147.995C177.177 147.995 178.02 148.303 178.722 148.919C179.425 149.525 179.777 150.347 179.777 151.384C179.777 152.504 179.182 153.655 177.994 154.836L175.869 156.947H179.947V158.996H172.691Z" fill="white"/>
</svg>
