<svg width="62" height="42" viewBox="0 0 62 42" fill="none" xmlns="http://www.w3.org/2000/svg">
<path d="M35.2038 41.1543H26.6847C26.6847 41.1543 22.0284 9.94729 26.6847 3.3411C31.3409 -3.2651 41.1278 -0.988891 35.2038 41.1543Z" fill="#FFD200"/>
<path d="M23.9267 41.1545H16.327C16.327 41.1545 6.35464 38.0404 1.57979 30.4407C-3.19506 22.841 3.89308 19.6232 9.0683 22.8706C14.2435 26.1181 23.9267 41.1545 23.9267 41.1545Z" fill="#FFD200"/>
<path d="M26.6843 41.1545H22.0503C22.0503 41.1545 10.9955 30.2331 9.60897 17.043C8.22249 3.85283 18.7657 8.14576 23.4293 19.7196C26.2169 26.5663 27.9662 33.791 28.6194 41.1545H26.6843Z" fill="#91B31E"/>
<path d="M37.9619 41.1545H45.5616C45.5616 41.1545 55.534 38.0404 60.3088 30.4407C65.0837 22.841 58.0029 19.6232 52.8203 22.8706C47.6377 26.1181 37.9619 41.1545 37.9619 41.1545Z" fill="#FFD200"/>
<path d="M35.2032 41.1545H39.8446C39.8446 41.1545 50.8994 30.2331 52.2785 17.043C53.6576 3.85283 43.1218 8.14576 38.4581 19.7196C35.6706 26.5663 33.9212 33.791 33.2681 41.1545H35.2032Z" fill="#91B31E"/>
</svg>
