<svg width="75" height="42" viewBox="0 0 75 42" fill="none" xmlns="http://www.w3.org/2000/svg">
<path d="M21.9695 28.894L20.8721 33.7652C30.2955 38.8138 40.8406 41.4022 51.5305 41.2908L53.0134 38.1026L53.6733 41.1722C54.9041 41.0783 56.1052 40.93 57.2766 40.7273L58.5297 34.2694L60.539 40.0081C63.885 39.1827 66.986 37.5713 69.5845 35.3074C71.9285 33.1741 73.4546 30.2897 73.8997 27.1516C74.317 24.4763 73.9939 21.7378 72.9654 19.2331C72.4564 17.9932 71.8097 16.8143 71.0377 15.7187C70.2145 14.5563 69.2809 13.4762 68.2499 12.4934C64.0237 8.40812 57.7363 5.16064 50.4554 3.04755L46.7927 7.77049L46.2737 1.9873C44.5833 1.62399 42.8409 1.30516 41.0837 1.0679L40.3422 4.43403L38.674 0.778752C37.9919 0.704608 37.3023 0.645293 36.6054 0.593393C24.1567 -0.325988 15.1038 2.38026 9.11295 5.35342C3.12214 8.32658 0.28244 11.537 0.28244 11.537C0.28244 11.537 3.3594 23.0515 18.0769 32.1193L21.9695 28.894Z" fill="#FFD200"/>
<path d="M5.47877 12.9958L5.33957 13.8145L61.2934 23.3286L61.4326 22.5099L5.47877 12.9958Z" fill="white"/>
<path d="M52.2198 27.7445C52.153 27.6852 45.8657 21.6425 42.3587 20.1003L42.6923 19.3589C46.3402 20.9604 52.5312 26.9215 52.7981 27.1736L52.2198 27.7445Z" fill="white"/>
<path d="M34.6186 18.5805L34.2553 17.839C34.3146 17.839 40.0014 15.0883 41.8476 12.3746L42.5371 12.8492C40.5575 15.7334 34.8558 18.4618 34.6186 18.5805Z" fill="white"/>
<path d="M26.8113 24.9867C26.8113 24.92 24.0013 18.7586 20.2867 16.3267L20.7464 15.6298C24.6612 18.1951 27.4193 24.3787 27.575 24.6456L26.8113 24.9867Z" fill="white"/>
</svg>
