<svg width="20" height="20" viewBox="0 0 20 20" fill="none" xmlns="http://www.w3.org/2000/svg">
<path d="M19.7879 10.2252C19.7879 9.56683 19.7296 8.94183 19.6296 8.3335H10.2129V12.0918H15.6046C15.3629 13.3252 14.6546 14.3668 13.6046 15.0752V17.5752H16.8212C18.7046 15.8335 19.7879 13.2668 19.7879 10.2252Z" fill="#4285F4"/>
<path d="M10.2131 19.9999C12.9131 19.9999 15.1714 19.0999 16.8214 17.5749L13.6048 15.0749C12.7048 15.6749 11.5631 16.0415 10.2131 16.0415C7.60475 16.0415 5.39642 14.2832 4.60475 11.9082H1.28809V14.4832C2.92975 17.7499 6.30475 19.9999 10.2131 19.9999Z" fill="#34A853"/>
<path d="M4.60456 11.9083C4.39622 11.3083 4.28789 10.6666 4.28789 9.99993C4.28789 9.33327 4.40456 8.6916 4.60456 8.0916V5.5166H1.28789C0.604557 6.8666 0.212891 8.38327 0.212891 9.99993C0.212891 11.6166 0.604557 13.1333 1.28789 14.4833L4.60456 11.9083Z" fill="#FBBC05"/>
<path d="M10.2131 3.95833C11.6881 3.95833 13.0048 4.46667 14.0464 5.45834L16.8964 2.60833C15.1714 0.991668 12.9131 0 10.2131 0C6.30475 0 2.92975 2.25 1.28809 5.51667L4.60475 8.09167C5.39642 5.71667 7.60475 3.95833 10.2131 3.95833Z" fill="#EA4335"/>
</svg>
