<svg width="48" height="48" viewBox="0 0 48 48" fill="none" xmlns="http://www.w3.org/2000/svg">
<path d="M13.6578 34.1612L12.8003 34.6757C12.8848 34.8164 13.0026 34.9342 13.1433 35.0187L13.6578 34.1612ZM37.6995 10.1196L38.6973 10.0531C38.664 9.55323 38.2659 9.15515 37.766 9.12183L37.6995 10.1196ZM14.5153 33.6467C12.4733 30.2433 11.6667 27.085 11.8493 24.3052C12.0312 21.5367 13.1983 19.0644 15.2488 17.0139C19.3811 12.8816 27.1709 10.4199 37.633 11.1174L37.766 9.12183C27.0149 8.40506 18.5412 10.8931 13.8346 15.5996C11.4657 17.9685 10.0695 20.8879 9.85365 24.174C9.63852 27.4488 10.5997 31.008 12.8003 34.6757L14.5153 33.6467ZM36.7017 10.1861C37.3991 20.6481 34.9374 28.4379 30.8051 32.5702C28.7546 34.6207 26.2823 35.7878 23.5139 35.9697C20.734 36.1523 17.5757 35.3458 14.1723 33.3037L13.1433 35.0187C16.811 37.2193 20.3702 38.1805 23.645 37.9654C26.9311 37.7495 29.8505 36.3533 32.2194 33.9844C36.9259 29.2778 39.414 20.8042 38.6973 10.0531L36.7017 10.1861Z" fill="white"/>
<path d="M10 37.8186L21.3137 26.5049" stroke="white" stroke-width="2" stroke-linecap="round" stroke-linejoin="round"/>
</svg>
