<svg width="49" height="51" viewBox="0 0 49 51" fill="none" xmlns="http://www.w3.org/2000/svg">
<path d="M28.0471 49.1773C28.0471 49.1773 26.1825 41.3968 27.3319 36.6021C28.4844 31.8105 30.3053 30.8027 30.1272 30.0735C29.9492 29.3443 29.0278 29.6854 28.7311 30.3614C28.4375 31.0374 27.2319 32.4959 26.1232 32.2611C25.0144 32.0264 24.7177 27.4664 23.9056 27.0095C23.0967 26.5525 23.3778 28.662 23.6901 30.4866C24.0056 32.3144 22.4533 31.2972 21.4851 29.1064C20.5169 26.9156 19.9516 27.5572 19.8454 27.867C19.7392 28.1769 21.9723 32.0859 21.8068 32.2737C21.6413 32.4614 18.8428 29.2191 18.5711 29.313C18.2993 29.4068 17.834 29.6635 18.5023 30.6838C19.1707 31.7041 21.2696 33.4223 21.1384 33.7071C21.0041 33.995 19.2676 32.4333 18.6335 32.3957C17.9995 32.3582 18.2587 33.2533 19.3925 34.0701C20.5294 34.8838 23.3091 35.7758 23.3965 38.8555C23.4871 41.9351 22.6844 49.1679 22.6844 49.1679C22.6844 49.1679 24.6583 51.8719 28.044 49.1804L28.0471 49.1773Z" fill="#86B738"/>
<path fill-rule="evenodd" clip-rule="evenodd" d="M26.2431 28.5364C26.2431 28.5364 19.1189 18.0331 31.2154 6.71289C31.2154 6.71289 42.2905 19.7795 28.1202 28.6553C28.1202 28.6553 28.4544 20.2301 30.0441 16.7968C30.0441 16.7968 25.784 24.2643 26.2431 28.5333V28.5364Z" fill="#86B738"/>
<path fill-rule="evenodd" clip-rule="evenodd" d="M31.0537 29.5472C31.0537 29.5472 35.4294 20.3114 48.2037 24.1203C48.2037 24.1203 43.6593 37.1493 31.7346 30.9023C31.7346 30.9023 37.7126 27.7069 40.7359 27.4158C40.7359 27.4158 33.8241 27.4941 31.0537 29.5503V29.5472Z" fill="#86B738"/>
<path fill-rule="evenodd" clip-rule="evenodd" d="M17.7434 29.7325C17.7434 29.7325 9.32614 35.6633 0 25.9643C0 25.9643 10.4443 16.788 17.8184 28.2052C17.8184 28.2052 10.9877 28.0393 8.18614 26.7905C8.18614 26.7905 14.289 30.1612 17.7434 29.7325Z" fill="#86B738"/>
<path fill-rule="evenodd" clip-rule="evenodd" d="M19.859 26.9467C19.859 26.9467 8.95563 23.2224 11.5698 8.375C11.5698 8.375 26.7396 11.7989 21.2864 26.0078C21.2864 26.0078 16.9388 19.7046 16.2204 16.3401C16.2204 16.3401 17.2011 24.0987 19.8622 26.9467H19.859Z" fill="#86B738"/>
<path fill-rule="evenodd" clip-rule="evenodd" d="M36.9583 21.0195C36.9583 21.0195 36.6522 14.1435 45.4474 12.3721C45.4474 12.3721 46.8467 21.5547 37.7891 21.6079C37.7891 21.6079 40.3377 17.8178 42.043 16.6879C42.043 16.6879 37.9578 18.9194 36.9583 21.0195Z" fill="#86B738"/>
<path fill-rule="evenodd" clip-rule="evenodd" d="M9.95162 21.2946C9.95162 21.2946 3.54263 22.3055 0.956543 14.2183C0.956543 14.2183 9.41441 11.9367 10.417 20.4495C10.417 20.4495 6.5972 18.4528 5.36038 16.9662C5.36038 16.9662 7.87775 20.5747 9.95162 21.2946Z" fill="#86B738"/>
<path fill-rule="evenodd" clip-rule="evenodd" d="M22.4884 13.0822C22.4884 13.0822 17.41 7.65841 23.3786 0C23.3786 0 30.9744 6.54737 23.5816 12.9789C23.5816 12.9789 23.01 8.07467 23.6191 5.94333C23.6191 5.94333 21.8325 10.6567 22.4884 13.0822Z" fill="#86B738"/>
<path fill-rule="evenodd" clip-rule="evenodd" d="M31.3678 33.7724C31.3678 33.7724 37.8892 31.6191 41.9714 39.6218C41.9714 39.6218 33.526 43.4557 31.0273 34.7332C31.0273 34.7332 35.3562 36.1666 36.9054 37.5092C36.9054 37.5092 33.6572 34.1698 31.3709 33.7755L31.3678 33.7724Z" fill="#86B738"/>
<path fill-rule="evenodd" clip-rule="evenodd" d="M18.0525 35.0183C18.0525 35.0183 15.5102 41.7816 6.28711 39.8506C6.28711 39.8506 8.7264 30.4051 17.4935 34.1044C17.4935 34.1044 13.4707 36.7084 11.3562 37.0933C11.3562 37.0933 16.2192 36.6333 18.0525 35.0183Z" fill="#86B738"/>
<path d="M28.0471 49.1773C28.0471 49.1773 26.1825 41.3968 27.3319 36.6021C28.4844 31.8105 30.3053 30.8027 30.1272 30.0735C29.9492 29.3443 29.0278 29.6854 28.7311 30.3614C28.4375 31.0374 27.2319 32.4959 26.1232 32.2611C25.0144 32.0264 24.7177 27.4664 23.9056 27.0095C23.0967 26.5525 23.3778 28.662 23.6901 30.4866C24.0056 32.3144 22.4533 31.2972 21.4851 29.1064C20.5169 26.9156 19.9516 27.5572 19.8454 27.867C19.7392 28.1769 21.9723 32.0859 21.8068 32.2737C21.6413 32.4614 18.8428 29.2191 18.5711 29.313C18.2993 29.4068 17.834 29.6635 18.5023 30.6838C19.1707 31.7041 21.2696 33.4223 21.1384 33.7071C21.0041 33.995 19.2676 32.4333 18.6335 32.3957C17.9995 32.3582 18.2587 33.2533 19.3925 34.0701C20.5294 34.8838 23.3091 35.7758 23.3965 38.8555C23.4871 41.9351 22.6844 49.1679 22.6844 49.1679C22.6844 49.1679 24.6583 51.8719 28.044 49.1804L28.0471 49.1773Z" fill="#86B738"/>
<path fill-rule="evenodd" clip-rule="evenodd" d="M26.2431 28.5364C26.2431 28.5364 19.1189 18.0331 31.2154 6.71289C31.2154 6.71289 42.2905 19.7795 28.1202 28.6553C28.1202 28.6553 28.4544 20.2301 30.0441 16.7968C30.0441 16.7968 25.784 24.2643 26.2431 28.5333V28.5364Z" fill="#86B738"/>
<path fill-rule="evenodd" clip-rule="evenodd" d="M31.0537 29.5472C31.0537 29.5472 35.4294 20.3114 48.2037 24.1203C48.2037 24.1203 43.6593 37.1493 31.7346 30.9023C31.7346 30.9023 37.7126 27.7069 40.7359 27.4158C40.7359 27.4158 33.8241 27.4941 31.0537 29.5503V29.5472Z" fill="#86B738"/>
<path fill-rule="evenodd" clip-rule="evenodd" d="M17.7434 29.7325C17.7434 29.7325 9.32614 35.6633 0 25.9643C0 25.9643 10.4443 16.788 17.8184 28.2052C17.8184 28.2052 10.9877 28.0393 8.18614 26.7905C8.18614 26.7905 14.289 30.1612 17.7434 29.7325Z" fill="#86B738"/>
<path fill-rule="evenodd" clip-rule="evenodd" d="M19.859 26.9467C19.859 26.9467 8.95563 23.2224 11.5698 8.375C11.5698 8.375 26.7396 11.7989 21.2864 26.0078C21.2864 26.0078 16.9388 19.7046 16.2204 16.3401C16.2204 16.3401 17.2011 24.0987 19.8622 26.9467H19.859Z" fill="#86B738"/>
<path fill-rule="evenodd" clip-rule="evenodd" d="M36.9583 21.0195C36.9583 21.0195 36.6522 14.1435 45.4474 12.3721C45.4474 12.3721 46.8467 21.5547 37.7891 21.6079C37.7891 21.6079 40.3377 17.8178 42.043 16.6879C42.043 16.6879 37.9578 18.9194 36.9583 21.0195Z" fill="#86B738"/>
<path fill-rule="evenodd" clip-rule="evenodd" d="M9.95162 21.2946C9.95162 21.2946 3.54263 22.3055 0.956543 14.2183C0.956543 14.2183 9.41441 11.9367 10.417 20.4495C10.417 20.4495 6.5972 18.4528 5.36038 16.9662C5.36038 16.9662 7.87775 20.5747 9.95162 21.2946Z" fill="#86B738"/>
<path fill-rule="evenodd" clip-rule="evenodd" d="M22.4884 13.0822C22.4884 13.0822 17.41 7.65841 23.3786 0C23.3786 0 30.9744 6.54737 23.5816 12.9789C23.5816 12.9789 23.01 8.07467 23.6191 5.94333C23.6191 5.94333 21.8325 10.6567 22.4884 13.0822Z" fill="#86B738"/>
<path fill-rule="evenodd" clip-rule="evenodd" d="M31.3678 33.7724C31.3678 33.7724 37.8892 31.6191 41.9714 39.6218C41.9714 39.6218 33.526 43.4557 31.0273 34.7332C31.0273 34.7332 35.3562 36.1666 36.9054 37.5092C36.9054 37.5092 33.6572 34.1698 31.3709 33.7755L31.3678 33.7724Z" fill="#86B738"/>
<path fill-rule="evenodd" clip-rule="evenodd" d="M18.0525 35.0183C18.0525 35.0183 15.5102 41.7816 6.28711 39.8506C6.28711 39.8506 8.7264 30.4051 17.4935 34.1044C17.4935 34.1044 13.4707 36.7084 11.3562 37.0933C11.3562 37.0933 16.2192 36.6333 18.0525 35.0183Z" fill="#86B738"/>
<path d="M28.0471 49.1773C28.0471 49.1773 26.1825 41.3968 27.3319 36.6021C28.4844 31.8105 30.3053 30.8027 30.1272 30.0735C29.9492 29.3443 29.0278 29.6854 28.7311 30.3614C28.4375 31.0374 27.2319 32.4959 26.1232 32.2611C25.0144 32.0264 24.7177 27.4664 23.9056 27.0095C23.0967 26.5525 23.3778 28.662 23.6901 30.4866C24.0056 32.3144 22.4533 31.2972 21.4851 29.1064C20.5169 26.9156 19.9516 27.5572 19.8454 27.867C19.7392 28.1769 21.9723 32.0859 21.8068 32.2737C21.6413 32.4614 18.8428 29.2191 18.5711 29.313C18.2993 29.4068 17.834 29.6635 18.5023 30.6838C19.1707 31.7041 21.2696 33.4223 21.1384 33.7071C21.0041 33.995 19.2676 32.4333 18.6335 32.3957C17.9995 32.3582 18.2587 33.2533 19.3925 34.0701C20.5294 34.8838 23.3091 35.7758 23.3965 38.8555C23.4871 41.9351 22.6844 49.1679 22.6844 49.1679C22.6844 49.1679 24.6583 51.8719 28.044 49.1804L28.0471 49.1773Z" fill="#86B738"/>
<path fill-rule="evenodd" clip-rule="evenodd" d="M26.2431 28.5364C26.2431 28.5364 19.1189 18.0331 31.2154 6.71289C31.2154 6.71289 42.2905 19.7795 28.1202 28.6553C28.1202 28.6553 28.4544 20.2301 30.0441 16.7968C30.0441 16.7968 25.784 24.2643 26.2431 28.5333V28.5364Z" fill="#86B738"/>
<path fill-rule="evenodd" clip-rule="evenodd" d="M31.0537 29.5472C31.0537 29.5472 35.4294 20.3114 48.2037 24.1203C48.2037 24.1203 43.6593 37.1493 31.7346 30.9023C31.7346 30.9023 37.7126 27.7069 40.7359 27.4158C40.7359 27.4158 33.8241 27.4941 31.0537 29.5503V29.5472Z" fill="#86B738"/>
<path fill-rule="evenodd" clip-rule="evenodd" d="M17.7434 29.7325C17.7434 29.7325 9.32614 35.6633 0 25.9643C0 25.9643 10.4443 16.788 17.8184 28.2052C17.8184 28.2052 10.9877 28.0393 8.18614 26.7905C8.18614 26.7905 14.289 30.1612 17.7434 29.7325Z" fill="#86B738"/>
<path fill-rule="evenodd" clip-rule="evenodd" d="M19.859 26.9467C19.859 26.9467 8.95563 23.2224 11.5698 8.375C11.5698 8.375 26.7396 11.7989 21.2864 26.0078C21.2864 26.0078 16.9388 19.7046 16.2204 16.3401C16.2204 16.3401 17.2011 24.0987 19.8622 26.9467H19.859Z" fill="#86B738"/>
<path fill-rule="evenodd" clip-rule="evenodd" d="M36.9583 21.0195C36.9583 21.0195 36.6522 14.1435 45.4474 12.3721C45.4474 12.3721 46.8467 21.5547 37.7891 21.6079C37.7891 21.6079 40.3377 17.8178 42.043 16.6879C42.043 16.6879 37.9578 18.9194 36.9583 21.0195Z" fill="#86B738"/>
<path fill-rule="evenodd" clip-rule="evenodd" d="M9.95162 21.2946C9.95162 21.2946 3.54263 22.3055 0.956543 14.2183C0.956543 14.2183 9.41441 11.9367 10.417 20.4495C10.417 20.4495 6.5972 18.4528 5.36038 16.9662C5.36038 16.9662 7.87775 20.5747 9.95162 21.2946Z" fill="#86B738"/>
<path fill-rule="evenodd" clip-rule="evenodd" d="M22.4884 13.0822C22.4884 13.0822 17.41 7.65841 23.3786 0C23.3786 0 30.9744 6.54737 23.5816 12.9789C23.5816 12.9789 23.01 8.07467 23.6191 5.94333C23.6191 5.94333 21.8325 10.6567 22.4884 13.0822Z" fill="#86B738"/>
<path fill-rule="evenodd" clip-rule="evenodd" d="M31.3678 33.7724C31.3678 33.7724 37.8892 31.6191 41.9714 39.6218C41.9714 39.6218 33.526 43.4557 31.0273 34.7332C31.0273 34.7332 35.3562 36.1666 36.9054 37.5092C36.9054 37.5092 33.6572 34.1698 31.3709 33.7755L31.3678 33.7724Z" fill="#86B738"/>
<path fill-rule="evenodd" clip-rule="evenodd" d="M18.0525 35.0183C18.0525 35.0183 15.5102 41.7816 6.28711 39.8506C6.28711 39.8506 8.7264 30.4051 17.4935 34.1044C17.4935 34.1044 13.4707 36.7084 11.3562 37.0933C11.3562 37.0933 16.2192 36.6333 18.0525 35.0183Z" fill="#86B738"/>
<path d="M28.0471 49.1773C28.0471 49.1773 26.1825 41.3968 27.3319 36.6021C28.4844 31.8105 30.3053 30.8027 30.1272 30.0735C29.9492 29.3443 29.0278 29.6854 28.7311 30.3614C28.4375 31.0374 27.2319 32.4959 26.1232 32.2611C25.0144 32.0264 24.7177 27.4664 23.9056 27.0095C23.0967 26.5525 23.3778 28.662 23.6901 30.4866C24.0056 32.3144 22.4533 31.2972 21.4851 29.1064C20.5169 26.9156 19.9516 27.5572 19.8454 27.867C19.7392 28.1769 21.9723 32.0859 21.8068 32.2737C21.6413 32.4614 18.8428 29.2191 18.5711 29.313C18.2993 29.4068 17.834 29.6635 18.5023 30.6838C19.1707 31.7041 21.2696 33.4223 21.1384 33.7071C21.0041 33.995 19.2676 32.4333 18.6335 32.3957C17.9995 32.3582 18.2587 33.2533 19.3925 34.0701C20.5294 34.8838 23.3091 35.7758 23.3965 38.8555C23.4871 41.9351 22.6844 49.1679 22.6844 49.1679C22.6844 49.1679 24.6583 51.8719 28.044 49.1804L28.0471 49.1773Z" fill="#86B738"/>
<path fill-rule="evenodd" clip-rule="evenodd" d="M26.2431 28.5364C26.2431 28.5364 19.1189 18.0331 31.2154 6.71289C31.2154 6.71289 42.2905 19.7795 28.1202 28.6553C28.1202 28.6553 28.4544 20.2301 30.0441 16.7968C30.0441 16.7968 25.784 24.2643 26.2431 28.5333V28.5364Z" fill="#86B738"/>
<path fill-rule="evenodd" clip-rule="evenodd" d="M31.0537 29.5472C31.0537 29.5472 35.4294 20.3114 48.2037 24.1203C48.2037 24.1203 43.6593 37.1493 31.7346 30.9023C31.7346 30.9023 37.7126 27.7069 40.7359 27.4158C40.7359 27.4158 33.8241 27.4941 31.0537 29.5503V29.5472Z" fill="#86B738"/>
<path fill-rule="evenodd" clip-rule="evenodd" d="M17.7434 29.7325C17.7434 29.7325 9.32614 35.6633 0 25.9643C0 25.9643 10.4443 16.788 17.8184 28.2052C17.8184 28.2052 10.9877 28.0393 8.18614 26.7905C8.18614 26.7905 14.289 30.1612 17.7434 29.7325Z" fill="#86B738"/>
<path fill-rule="evenodd" clip-rule="evenodd" d="M19.859 26.9467C19.859 26.9467 8.95563 23.2224 11.5698 8.375C11.5698 8.375 26.7396 11.7989 21.2864 26.0078C21.2864 26.0078 16.9388 19.7046 16.2204 16.3401C16.2204 16.3401 17.2011 24.0987 19.8622 26.9467H19.859Z" fill="#86B738"/>
<path fill-rule="evenodd" clip-rule="evenodd" d="M36.9583 21.0195C36.9583 21.0195 36.6522 14.1435 45.4474 12.3721C45.4474 12.3721 46.8467 21.5547 37.7891 21.6079C37.7891 21.6079 40.3377 17.8178 42.043 16.6879C42.043 16.6879 37.9578 18.9194 36.9583 21.0195Z" fill="#86B738"/>
<path fill-rule="evenodd" clip-rule="evenodd" d="M9.95162 21.2946C9.95162 21.2946 3.54263 22.3055 0.956543 14.2183C0.956543 14.2183 9.41441 11.9367 10.417 20.4495C10.417 20.4495 6.5972 18.4528 5.36038 16.9662C5.36038 16.9662 7.87775 20.5747 9.95162 21.2946Z" fill="#86B738"/>
<path fill-rule="evenodd" clip-rule="evenodd" d="M22.4884 13.0822C22.4884 13.0822 17.41 7.65841 23.3786 0C23.3786 0 30.9744 6.54737 23.5816 12.9789C23.5816 12.9789 23.01 8.07467 23.6191 5.94333C23.6191 5.94333 21.8325 10.6567 22.4884 13.0822Z" fill="#86B738"/>
<path fill-rule="evenodd" clip-rule="evenodd" d="M31.3678 33.7724C31.3678 33.7724 37.8892 31.6191 41.9714 39.6218C41.9714 39.6218 33.526 43.4557 31.0273 34.7332C31.0273 34.7332 35.3562 36.1666 36.9054 37.5092C36.9054 37.5092 33.6572 34.1698 31.3709 33.7755L31.3678 33.7724Z" fill="#86B738"/>
<path fill-rule="evenodd" clip-rule="evenodd" d="M18.0525 35.0183C18.0525 35.0183 15.5102 41.7816 6.28711 39.8506C6.28711 39.8506 8.7264 30.4051 17.4935 34.1044C17.4935 34.1044 13.4707 36.7084 11.3562 37.0933C11.3562 37.0933 16.2192 36.6333 18.0525 35.0183Z" fill="#86B738"/>
</svg>
