<svg width="24" height="24" viewBox="0 0 24 24" fill="none" xmlns="http://www.w3.org/2000/svg">
<path d="M13.4975 4.91031L14.4634 5.16913V5.16913L13.4975 4.91031ZM9.88161 18.4049L10.8475 18.6637V18.6637L9.88161 18.4049ZM3.12013 16.5931L4.08605 16.8519L3.12013 16.5931ZM6.73598 3.09858L7.70191 3.35739V3.35739L6.73598 3.09858ZM7.38438 2.72423L7.12556 3.69015V3.69015L7.38438 2.72423ZM13.1231 4.26191L13.3819 3.29599L13.3819 3.29599L13.1231 4.26191ZM12.5315 4.65149L8.91568 18.146L10.8475 18.6637L14.4634 5.16913L12.5315 4.65149ZM4.08605 16.8519L7.70191 3.35739L5.77006 2.83976L2.1542 16.3343L4.08605 16.8519ZM7.12556 3.69015L12.8643 5.22784L13.3819 3.29599L7.6432 1.7583L7.12556 3.69015ZM7.70191 3.35739C7.63464 3.60844 7.3766 3.75742 7.12556 3.69015L7.6432 1.7583C6.82731 1.53968 5.98867 2.02387 5.77006 2.83976L7.70191 3.35739ZM5.85382 19.9138C4.52016 19.5565 3.7287 18.1856 4.08605 16.8519L2.1542 16.3343C1.51096 18.7349 2.93559 21.2024 5.33618 21.8457L5.85382 19.9138ZM8.91568 18.146C8.55833 19.4797 7.18749 20.2712 5.85382 19.9138L5.33618 21.8457C7.73678 22.4889 10.2043 21.0643 10.8475 18.6637L8.91568 18.146ZM14.4634 5.16913C14.682 4.35324 14.1978 3.51461 13.3819 3.29599L12.8643 5.22784C12.6132 5.16057 12.4643 4.90253 12.5315 4.65149L14.4634 5.16913Z" fill="#010101"/>
<path d="M20.4706 20.9999V21.9999V20.9999ZM6.5 19.9999C5.94772 19.9999 5.5 20.4476 5.5 20.9999C5.5 21.5522 5.94772 21.9999 6.5 21.9999L6.5 19.9999ZM22 14.5293C22 13.977 21.5523 13.5293 21 13.5293C20.4477 13.5293 20 13.977 20 14.5293H22ZM20.4706 19.9999L6.5 19.9999L6.5 21.9999L20.4706 21.9999V19.9999ZM20 14.5293V20.4705H22V14.5293H20ZM20.4706 21.9999C21.3153 21.9999 22 21.3151 22 20.4705H20C20 20.2106 20.2107 19.9999 20.4706 19.9999V21.9999Z" fill="#010101"/>
<path d="M6.5 17.6H6.502V17.602H6.5V17.6Z" stroke="#010101" stroke-width="2" stroke-linecap="round" stroke-linejoin="round"/>
<path d="M20.6416 14.7671L20.219 13.8607L20.6416 14.7671ZM7.55736 19.765C7.05682 19.9984 6.84027 20.5934 7.07367 21.0939C7.30708 21.5944 7.90206 21.811 8.4026 21.5776L7.55736 19.765ZM18.3869 8.67897L17.4805 9.10159V9.10159L18.3869 8.67897ZM20.8977 14.0635L21.804 13.6409V13.6409L20.8977 14.0635ZM17.6833 8.4229L17.2607 7.51659V7.51659L17.6833 8.4229ZM11.6073 10.1528C11.1068 10.3862 10.8902 10.9812 11.1236 11.4817C11.3571 11.9823 11.952 12.1988 12.4526 11.9654L11.6073 10.1528ZM20.219 13.8607L7.55736 19.765L8.4026 21.5776L21.0643 15.6734L20.219 13.8607ZM17.4805 9.10159L19.9914 14.4861L21.804 13.6409L19.2932 8.25635L17.4805 9.10159ZM18.1059 9.3292C17.8704 9.43904 17.5904 9.33713 17.4805 9.10159L19.2932 8.25635C18.9362 7.49082 18.0262 7.15962 17.2607 7.51659L18.1059 9.3292ZM21.0643 15.6734C21.8298 15.3164 22.161 14.4064 21.804 13.6409L19.9914 14.4861C19.8816 14.2506 19.9835 13.9706 20.219 13.8607L21.0643 15.6734ZM12.4526 11.9654L18.1059 9.3292L17.2607 7.51659L11.6073 10.1528L12.4526 11.9654Z" fill="#010101"/>
</svg>
