<svg width="22" height="22" viewBox="0 0 22 22" fill="none" xmlns="http://www.w3.org/2000/svg">
<path d="M12.2475 21.4728C12.2475 21.4728 11.4333 18.0754 11.9352 15.9818C12.4384 13.8896 13.2335 13.4495 13.1557 13.1311C13.078 12.8127 12.6757 12.9617 12.5461 13.2568C12.4179 13.552 11.8915 14.1888 11.4074 14.0864C10.9232 13.9839 10.7937 11.9927 10.4391 11.7932C10.0859 11.5937 10.2086 12.5148 10.345 13.3115C10.4827 14.1096 9.80493 13.6654 9.38216 12.7088C8.95938 11.7522 8.71254 12.0324 8.66617 12.1677C8.6198 12.303 9.59491 14.0098 9.52263 14.0918C9.45034 14.1738 8.2284 12.758 8.10975 12.799C7.9911 12.84 7.7879 12.9521 8.07974 13.3976C8.37159 13.8431 9.28805 14.5934 9.23078 14.7177C9.17213 14.8434 8.41387 14.1615 8.13702 14.1451C7.86018 14.1287 7.97337 14.5196 8.46842 14.8762C8.96484 15.2316 10.1786 15.621 10.2168 16.9658C10.2563 18.3105 9.90585 21.4687 9.90585 21.4687C9.90585 21.4687 10.7678 22.6494 12.2461 21.4741L12.2475 21.4728Z" fill="#9298A0"/>
<path fill-rule="evenodd" clip-rule="evenodd" d="M11.4568 12.4609C11.4568 12.4609 8.34602 7.87459 13.628 2.93164C13.628 2.93164 18.4639 8.63714 12.2764 12.5128C12.2764 12.5128 12.4224 8.83393 13.1165 7.33479C13.1165 7.33479 11.2563 10.5955 11.4568 12.4595V12.4609Z" fill="#9298A0"/>
<path fill-rule="evenodd" clip-rule="evenodd" d="M13.5605 12.9027C13.5605 12.9027 15.4712 8.86989 21.0491 10.533C21.0491 10.533 19.0648 16.2221 13.8579 13.4944C13.8579 13.4944 16.4681 12.0991 17.7883 11.972C17.7883 11.972 14.7702 12.0062 13.5605 12.9041V12.9027Z" fill="#9298A0"/>
<path fill-rule="evenodd" clip-rule="evenodd" d="M7.74765 12.9826C7.74765 12.9826 4.07225 15.5723 0 11.3373C0 11.3373 4.56049 7.33043 7.78038 12.3157C7.78038 12.3157 4.79778 12.2433 3.57447 11.698C3.57447 11.698 6.2393 13.1699 7.74765 12.9826Z" fill="#9298A0"/>
<path fill-rule="evenodd" clip-rule="evenodd" d="M8.66927 11.7666C8.66927 11.7666 3.90831 10.1403 5.0498 3.65723C5.0498 3.65723 11.6737 5.15227 9.29252 11.3566C9.29252 11.3566 7.39414 8.60427 7.08047 7.13519C7.08047 7.13519 7.50869 10.523 8.67064 11.7666H8.66927Z" fill="#9298A0"/>
<path fill-rule="evenodd" clip-rule="evenodd" d="M16.1373 9.17823C16.1373 9.17823 16.0036 6.17583 19.844 5.40234C19.844 5.40234 20.455 9.41191 16.5 9.43514C16.5 9.43514 17.6129 7.78021 18.3575 7.28687C18.3575 7.28687 16.5737 8.26125 16.1373 9.17823Z" fill="#9298A0"/>
<path fill-rule="evenodd" clip-rule="evenodd" d="M4.34566 9.29711C4.34566 9.29711 1.54718 9.73852 0.417969 6.20726C0.417969 6.20726 4.11109 5.21102 4.54886 8.92814C4.54886 8.92814 2.88096 8.05625 2.3409 7.40712C2.3409 7.40712 3.44011 8.9828 4.34566 9.29711Z" fill="#9298A0"/>
<path fill-rule="evenodd" clip-rule="evenodd" d="M9.81921 5.71234C9.81921 5.71234 7.6017 3.34404 10.2079 0C10.2079 0 13.5246 2.8589 10.2965 5.66724C10.2965 5.66724 10.047 3.5258 10.3129 2.59515C10.3129 2.59515 9.53282 4.65323 9.81921 5.71234Z" fill="#9298A0"/>
<path fill-rule="evenodd" clip-rule="evenodd" d="M13.6975 14.7469C13.6975 14.7469 16.5451 13.8067 18.3275 17.3011C18.3275 17.3011 14.6399 18.9751 13.5488 15.1665C13.5488 15.1665 15.439 15.7924 16.1155 16.3786C16.1155 16.3786 14.6971 14.9205 13.6988 14.7483L13.6975 14.7469Z" fill="#9298A0"/>
<path fill-rule="evenodd" clip-rule="evenodd" d="M7.88346 15.2908C7.88346 15.2908 6.77334 18.244 2.74609 17.4008C2.74609 17.4008 3.81121 13.2764 7.63934 14.8917C7.63934 14.8917 5.88279 16.0287 4.95951 16.1968C4.95951 16.1968 7.08292 15.9959 7.88346 15.2908Z" fill="#9298A0"/>
</svg>
