<svg width="15" height="15" viewBox="0 0 15 15" fill="none" xmlns="http://www.w3.org/2000/svg">
<path fill-rule="evenodd" clip-rule="evenodd" d="M0.43934 11.753C-0.146447 12.3388 -0.146447 13.2886 0.43934 13.8744C1.02513 14.4602 1.97487 14.4602 2.56066 13.8744L7.15686 9.27817L11.7531 13.8744C12.3389 14.4602 13.2886 14.4602 13.8744 13.8744C14.4602 13.2886 14.4602 12.3388 13.8744 11.753L9.27818 7.15685L13.8744 2.56066C14.4602 1.97487 14.4602 1.02513 13.8744 0.43934C13.2886 -0.146447 12.3388 -0.146447 11.753 0.43934L7.15686 5.03553L2.56068 0.43934C1.97489 -0.146446 1.02514 -0.146446 0.439357 0.43934C-0.146429 1.02513 -0.146429 1.97487 0.439357 2.56066L5.03554 7.15685L0.43934 11.753Z" fill="white"/>
</svg>
