<svg width="223" height="234" viewBox="0 0 223 234" fill="none" xmlns="http://www.w3.org/2000/svg">
<path d="M129.749 227.566C129.749 227.566 121.123 191.562 126.44 169.374C131.771 147.202 140.195 142.538 139.371 139.164C138.548 135.789 134.286 137.368 132.913 140.496C131.555 143.624 125.978 150.373 120.848 149.287C115.719 148.201 114.346 127.1 110.59 124.985C106.848 122.871 108.148 132.632 109.593 141.075C111.052 149.533 103.871 144.826 99.3921 134.689C94.913 124.551 92.2978 127.52 91.8066 128.954C91.3153 130.387 101.646 148.476 100.88 149.345C100.115 150.214 87.1686 135.21 85.9116 135.644C84.6545 136.079 82.5017 137.267 85.5937 141.988C88.6857 146.709 98.3952 154.66 97.7883 155.978C97.167 157.31 89.1336 150.084 86.2005 149.91C83.2675 149.736 84.4667 153.878 89.7115 157.658C94.9708 161.424 107.83 165.551 108.235 179.802C108.654 194.053 104.94 227.522 104.94 227.522C104.94 227.522 114.072 240.035 129.734 227.58L129.749 227.566Z" fill="#FEFEFE"/>
<path fill-rule="evenodd" clip-rule="evenodd" d="M121.397 132.053C121.397 132.053 88.4399 83.4495 144.399 31.0659C144.399 31.0659 195.634 91.5307 130.081 132.603C130.081 132.603 131.627 93.6162 138.981 77.7288C138.981 77.7288 119.273 112.284 121.397 132.039V132.053Z" fill="#FEFEFE"/>
<path fill-rule="evenodd" clip-rule="evenodd" d="M143.663 136.731C143.663 136.731 163.905 93.9927 223 111.618C223 111.618 201.977 171.909 146.812 143.002C146.812 143.002 174.467 128.215 188.453 126.868C188.453 126.868 156.479 127.23 143.663 136.745V136.731Z" fill="#FEFEFE"/>
<path fill-rule="evenodd" clip-rule="evenodd" d="M82.0826 137.585C82.0826 137.585 43.1436 165.03 0 120.148C0 120.148 48.3162 77.685 82.4294 130.517C82.4294 130.517 50.8302 129.75 37.8698 123.971C37.8698 123.971 66.1024 139.569 82.0826 137.585Z" fill="#FEFEFE"/>
<path fill-rule="evenodd" clip-rule="evenodd" d="M91.8642 124.696C91.8642 124.696 41.4241 107.461 53.5176 38.7559C53.5176 38.7559 123.695 54.5998 98.4672 120.351C98.4672 120.351 78.3548 91.1829 75.0316 75.6141C75.0316 75.6141 79.5684 111.516 91.8787 124.696H91.8642Z" fill="#FEFEFE"/>
<path fill-rule="evenodd" clip-rule="evenodd" d="M170.97 97.2654C170.97 97.2654 169.554 65.4471 210.242 57.25C210.242 57.25 216.715 99.7419 174.814 99.9881C174.814 99.9881 186.604 82.4497 194.493 77.2215C194.493 77.2215 175.594 87.5476 170.97 97.2654Z" fill="#FEFEFE"/>
<path fill-rule="evenodd" clip-rule="evenodd" d="M46.0334 98.5401C46.0334 98.5401 16.3848 103.218 4.42139 65.795C4.42139 65.795 43.5482 55.2372 48.1863 94.6298C48.1863 94.6298 30.5156 85.39 24.7939 78.5107C24.7939 78.5107 36.4395 95.2092 46.0334 98.5401Z" fill="#FEFEFE"/>
<path fill-rule="evenodd" clip-rule="evenodd" d="M104.03 60.5377C104.03 60.5377 80.5366 35.4394 108.148 0.000488281C108.148 0.000488281 143.287 30.2981 109.087 60.0598C109.087 60.0598 106.443 37.3656 109.26 27.5029C109.26 27.5029 100.996 49.3137 104.03 60.5377Z" fill="#FEFEFE"/>
<path fill-rule="evenodd" clip-rule="evenodd" d="M145.108 156.282C145.108 156.282 175.276 146.318 194.161 183.35C194.161 183.35 155.092 201.091 143.533 160.728C143.533 160.728 163.559 167.361 170.725 173.574C170.725 173.574 155.698 158.121 145.122 156.297L145.108 156.282Z" fill="#FEFEFE"/>
<path fill-rule="evenodd" clip-rule="evenodd" d="M83.5129 162.046C83.5129 162.046 71.7517 193.343 29.085 184.407C29.085 184.407 40.3693 140.699 80.9266 157.817C80.9266 157.817 62.3168 169.867 52.5351 171.648C52.5351 171.648 75.0316 169.519 83.5129 162.046Z" fill="#FEFEFE"/>
<path d="M129.749 227.566C129.749 227.566 121.123 191.562 126.44 169.374C131.771 147.202 140.195 142.538 139.371 139.164C138.548 135.789 134.286 137.368 132.913 140.496C131.555 143.624 125.978 150.373 120.848 149.287C115.719 148.201 114.346 127.1 110.59 124.985C106.848 122.871 108.148 132.632 109.593 141.075C111.052 149.533 103.871 144.826 99.3921 134.689C94.913 124.551 92.2978 127.52 91.8066 128.954C91.3153 130.387 101.646 148.476 100.88 149.345C100.115 150.214 87.1686 135.21 85.9116 135.644C84.6545 136.079 82.5017 137.267 85.5937 141.988C88.6857 146.709 98.3952 154.66 97.7883 155.978C97.167 157.31 89.1336 150.084 86.2005 149.91C83.2675 149.736 84.4667 153.878 89.7115 157.658C94.9708 161.424 107.83 165.551 108.235 179.802C108.654 194.053 104.94 227.522 104.94 227.522C104.94 227.522 114.072 240.035 129.734 227.58L129.749 227.566Z" fill="#FEFEFE"/>
<path fill-rule="evenodd" clip-rule="evenodd" d="M121.397 132.053C121.397 132.053 88.4399 83.4495 144.399 31.0659C144.399 31.0659 195.634 91.5307 130.081 132.603C130.081 132.603 131.627 93.6162 138.981 77.7288C138.981 77.7288 119.273 112.284 121.397 132.039V132.053Z" fill="#FEFEFE"/>
<path fill-rule="evenodd" clip-rule="evenodd" d="M143.663 136.731C143.663 136.731 163.905 93.9927 223 111.618C223 111.618 201.977 171.909 146.812 143.002C146.812 143.002 174.467 128.215 188.453 126.868C188.453 126.868 156.479 127.23 143.663 136.745V136.731Z" fill="#FEFEFE"/>
<path fill-rule="evenodd" clip-rule="evenodd" d="M82.0826 137.585C82.0826 137.585 43.1436 165.03 0 120.148C0 120.148 48.3162 77.685 82.4294 130.517C82.4294 130.517 50.8302 129.75 37.8698 123.971C37.8698 123.971 66.1024 139.569 82.0826 137.585Z" fill="#FEFEFE"/>
<path fill-rule="evenodd" clip-rule="evenodd" d="M91.8642 124.696C91.8642 124.696 41.4241 107.461 53.5176 38.7559C53.5176 38.7559 123.695 54.5998 98.4672 120.351C98.4672 120.351 78.3548 91.1829 75.0316 75.6141C75.0316 75.6141 79.5684 111.516 91.8787 124.696H91.8642Z" fill="#FEFEFE"/>
<path fill-rule="evenodd" clip-rule="evenodd" d="M170.97 97.2654C170.97 97.2654 169.554 65.4471 210.242 57.25C210.242 57.25 216.715 99.7419 174.814 99.9881C174.814 99.9881 186.604 82.4497 194.493 77.2215C194.493 77.2215 175.594 87.5476 170.97 97.2654Z" fill="#FEFEFE"/>
<path fill-rule="evenodd" clip-rule="evenodd" d="M46.0334 98.5401C46.0334 98.5401 16.3848 103.218 4.42139 65.795C4.42139 65.795 43.5482 55.2372 48.1863 94.6298C48.1863 94.6298 30.5156 85.39 24.7939 78.5107C24.7939 78.5107 36.4395 95.2092 46.0334 98.5401Z" fill="#FEFEFE"/>
<path fill-rule="evenodd" clip-rule="evenodd" d="M104.03 60.5377C104.03 60.5377 80.5366 35.4394 108.148 0.000488281C108.148 0.000488281 143.287 30.2981 109.087 60.0598C109.087 60.0598 106.443 37.3656 109.26 27.5029C109.26 27.5029 100.996 49.3137 104.03 60.5377Z" fill="#FEFEFE"/>
<path fill-rule="evenodd" clip-rule="evenodd" d="M145.108 156.282C145.108 156.282 175.276 146.318 194.161 183.35C194.161 183.35 155.092 201.091 143.533 160.728C143.533 160.728 163.559 167.361 170.725 173.574C170.725 173.574 155.698 158.121 145.122 156.297L145.108 156.282Z" fill="#FEFEFE"/>
<path fill-rule="evenodd" clip-rule="evenodd" d="M83.5129 162.046C83.5129 162.046 71.7517 193.343 29.085 184.407C29.085 184.407 40.3693 140.699 80.9266 157.817C80.9266 157.817 62.3168 169.867 52.5351 171.648C52.5351 171.648 75.0316 169.519 83.5129 162.046Z" fill="#FEFEFE"/>
<path d="M129.749 227.566C129.749 227.566 121.123 191.562 126.44 169.374C131.771 147.202 140.195 142.538 139.371 139.164C138.548 135.789 134.286 137.368 132.913 140.496C131.555 143.624 125.978 150.373 120.848 149.287C115.719 148.201 114.346 127.1 110.59 124.985C106.848 122.871 108.148 132.632 109.593 141.075C111.052 149.533 103.871 144.826 99.3921 134.689C94.913 124.551 92.2978 127.52 91.8066 128.954C91.3153 130.387 101.646 148.476 100.88 149.345C100.115 150.214 87.1686 135.21 85.9116 135.644C84.6545 136.079 82.5017 137.267 85.5937 141.988C88.6857 146.709 98.3952 154.66 97.7883 155.978C97.167 157.31 89.1336 150.084 86.2005 149.91C83.2675 149.736 84.4667 153.878 89.7115 157.658C94.9708 161.424 107.83 165.551 108.235 179.802C108.654 194.053 104.94 227.522 104.94 227.522C104.94 227.522 114.072 240.035 129.734 227.58L129.749 227.566Z" fill="#FEFEFE"/>
<path fill-rule="evenodd" clip-rule="evenodd" d="M121.397 132.053C121.397 132.053 88.4399 83.4495 144.399 31.0659C144.399 31.0659 195.634 91.5307 130.081 132.603C130.081 132.603 131.627 93.6162 138.981 77.7288C138.981 77.7288 119.273 112.284 121.397 132.039V132.053Z" fill="#FEFEFE"/>
<path fill-rule="evenodd" clip-rule="evenodd" d="M143.663 136.731C143.663 136.731 163.905 93.9927 223 111.618C223 111.618 201.977 171.909 146.812 143.002C146.812 143.002 174.467 128.215 188.453 126.868C188.453 126.868 156.479 127.23 143.663 136.745V136.731Z" fill="#FEFEFE"/>
<path fill-rule="evenodd" clip-rule="evenodd" d="M82.0826 137.585C82.0826 137.585 43.1436 165.03 0 120.148C0 120.148 48.3162 77.685 82.4294 130.517C82.4294 130.517 50.8302 129.75 37.8698 123.971C37.8698 123.971 66.1024 139.569 82.0826 137.585Z" fill="#FEFEFE"/>
<path fill-rule="evenodd" clip-rule="evenodd" d="M91.8642 124.696C91.8642 124.696 41.4241 107.461 53.5176 38.7559C53.5176 38.7559 123.695 54.5998 98.4672 120.351C98.4672 120.351 78.3548 91.1829 75.0316 75.6141C75.0316 75.6141 79.5684 111.516 91.8787 124.696H91.8642Z" fill="#FEFEFE"/>
<path fill-rule="evenodd" clip-rule="evenodd" d="M170.97 97.2654C170.97 97.2654 169.554 65.4471 210.242 57.25C210.242 57.25 216.715 99.7419 174.814 99.9881C174.814 99.9881 186.604 82.4497 194.493 77.2215C194.493 77.2215 175.594 87.5476 170.97 97.2654Z" fill="#FEFEFE"/>
<path fill-rule="evenodd" clip-rule="evenodd" d="M46.0334 98.5401C46.0334 98.5401 16.3848 103.218 4.42139 65.795C4.42139 65.795 43.5482 55.2372 48.1863 94.6298C48.1863 94.6298 30.5156 85.39 24.7939 78.5107C24.7939 78.5107 36.4395 95.2092 46.0334 98.5401Z" fill="#FEFEFE"/>
<path fill-rule="evenodd" clip-rule="evenodd" d="M104.03 60.5377C104.03 60.5377 80.5366 35.4394 108.148 0.000488281C108.148 0.000488281 143.287 30.2981 109.087 60.0598C109.087 60.0598 106.443 37.3656 109.26 27.5029C109.26 27.5029 100.996 49.3137 104.03 60.5377Z" fill="#FEFEFE"/>
<path fill-rule="evenodd" clip-rule="evenodd" d="M145.108 156.282C145.108 156.282 175.276 146.318 194.161 183.35C194.161 183.35 155.092 201.091 143.533 160.728C143.533 160.728 163.559 167.361 170.725 173.574C170.725 173.574 155.698 158.121 145.122 156.297L145.108 156.282Z" fill="#FEFEFE"/>
<path fill-rule="evenodd" clip-rule="evenodd" d="M83.5129 162.046C83.5129 162.046 71.7517 193.343 29.085 184.407C29.085 184.407 40.3693 140.699 80.9266 157.817C80.9266 157.817 62.3168 169.867 52.5351 171.648C52.5351 171.648 75.0316 169.519 83.5129 162.046Z" fill="#FEFEFE"/>
<path d="M129.749 227.566C129.749 227.566 121.123 191.562 126.44 169.374C131.771 147.202 140.195 142.538 139.371 139.164C138.548 135.789 134.286 137.368 132.913 140.496C131.555 143.624 125.978 150.373 120.848 149.287C115.719 148.201 114.346 127.1 110.59 124.985C106.848 122.871 108.148 132.632 109.593 141.075C111.052 149.533 103.871 144.826 99.3921 134.689C94.913 124.551 92.2978 127.52 91.8066 128.954C91.3153 130.387 101.646 148.476 100.88 149.345C100.115 150.214 87.1686 135.21 85.9116 135.644C84.6545 136.079 82.5017 137.267 85.5937 141.988C88.6857 146.709 98.3952 154.66 97.7883 155.978C97.167 157.31 89.1336 150.084 86.2005 149.91C83.2675 149.736 84.4667 153.878 89.7115 157.658C94.9708 161.424 107.83 165.551 108.235 179.802C108.654 194.053 104.94 227.522 104.94 227.522C104.94 227.522 114.072 240.035 129.734 227.58L129.749 227.566Z" fill="#FEFEFE"/>
<path fill-rule="evenodd" clip-rule="evenodd" d="M121.397 132.053C121.397 132.053 88.4399 83.4495 144.399 31.0659C144.399 31.0659 195.634 91.5307 130.081 132.603C130.081 132.603 131.627 93.6162 138.981 77.7288C138.981 77.7288 119.273 112.284 121.397 132.039V132.053Z" fill="#FEFEFE"/>
<path fill-rule="evenodd" clip-rule="evenodd" d="M143.663 136.731C143.663 136.731 163.905 93.9927 223 111.618C223 111.618 201.977 171.909 146.812 143.002C146.812 143.002 174.467 128.215 188.453 126.868C188.453 126.868 156.479 127.23 143.663 136.745V136.731Z" fill="#FEFEFE"/>
<path fill-rule="evenodd" clip-rule="evenodd" d="M82.0826 137.585C82.0826 137.585 43.1436 165.03 0 120.148C0 120.148 48.3162 77.685 82.4294 130.517C82.4294 130.517 50.8302 129.75 37.8698 123.971C37.8698 123.971 66.1024 139.569 82.0826 137.585Z" fill="#FEFEFE"/>
<path fill-rule="evenodd" clip-rule="evenodd" d="M91.8642 124.696C91.8642 124.696 41.4241 107.461 53.5176 38.7559C53.5176 38.7559 123.695 54.5998 98.4672 120.351C98.4672 120.351 78.3548 91.1829 75.0316 75.6141C75.0316 75.6141 79.5684 111.516 91.8787 124.696H91.8642Z" fill="#FEFEFE"/>
<path fill-rule="evenodd" clip-rule="evenodd" d="M170.97 97.2654C170.97 97.2654 169.554 65.4471 210.242 57.25C210.242 57.25 216.715 99.7419 174.814 99.9881C174.814 99.9881 186.604 82.4497 194.493 77.2215C194.493 77.2215 175.594 87.5476 170.97 97.2654Z" fill="#FEFEFE"/>
<path fill-rule="evenodd" clip-rule="evenodd" d="M46.0334 98.5401C46.0334 98.5401 16.3848 103.218 4.42139 65.795C4.42139 65.795 43.5482 55.2372 48.1863 94.6298C48.1863 94.6298 30.5156 85.39 24.7939 78.5107C24.7939 78.5107 36.4395 95.2092 46.0334 98.5401Z" fill="#FEFEFE"/>
<path fill-rule="evenodd" clip-rule="evenodd" d="M104.03 60.5377C104.03 60.5377 80.5366 35.4394 108.148 0.000488281C108.148 0.000488281 143.287 30.2981 109.087 60.0598C109.087 60.0598 106.443 37.3656 109.26 27.5029C109.26 27.5029 100.996 49.3137 104.03 60.5377Z" fill="#FEFEFE"/>
<path fill-rule="evenodd" clip-rule="evenodd" d="M145.108 156.282C145.108 156.282 175.276 146.318 194.161 183.35C194.161 183.35 155.092 201.091 143.533 160.728C143.533 160.728 163.559 167.361 170.725 173.574C170.725 173.574 155.698 158.121 145.122 156.297L145.108 156.282Z" fill="#FEFEFE"/>
<path fill-rule="evenodd" clip-rule="evenodd" d="M83.5129 162.046C83.5129 162.046 71.7517 193.343 29.085 184.407C29.085 184.407 40.3693 140.699 80.9266 157.817C80.9266 157.817 62.3168 169.867 52.5351 171.648C52.5351 171.648 75.0316 169.519 83.5129 162.046Z" fill="#FEFEFE"/>
</svg>
