<svg width="34" height="34" viewBox="0 0 34 34" fill="none" xmlns="http://www.w3.org/2000/svg">
<path d="M17.0596 0.000488281C23.4357 0.000488281 28.6283 3.9349 28.7829 8.83424C27.7293 8.17826 26.5522 7.74554 25.3246 7.56289C24.097 7.38024 22.8449 7.45155 21.646 7.7724C20.4471 8.09325 19.3267 8.65681 18.3544 9.42819C17.3821 10.1996 16.5785 11.1623 15.9934 12.2569L15.988 12.2675C14.7785 11.9086 13.5232 11.7273 12.2615 11.7291C6.59451 11.7291 1.96705 15.2583 1.62586 19.7258H1.5992C0.834629 18.7063 0.324775 17.5189 0.112125 16.2624C-0.100525 15.0059 -0.00981382 13.7168 0.3767 12.5025C0.763214 11.2882 1.43434 10.1839 2.33415 9.28148C3.23396 8.3791 4.3364 7.70483 5.5496 7.31486C6.60517 3.14588 11.3552 0.000488281 17.0596 0.000488281Z" fill="#5D802B"/>
<path d="M28.7835 8.83444C30.6771 10.0103 32.0711 11.8428 32.6988 13.9817C33.3265 16.1205 33.1439 18.4157 32.1861 20.4284C31.2282 22.4412 29.5621 24.0303 27.5064 24.8921C25.4507 25.7539 23.1494 25.8279 21.0426 25.0999C22.2366 23.7682 22.9055 22.0476 22.9245 20.2591C22.9245 16.5966 20.0403 13.4726 15.9886 12.2677L15.994 12.2571C16.5791 11.1625 17.3827 10.1998 18.355 9.42838C19.3273 8.657 20.4477 8.09344 21.6466 7.77259C22.8455 7.45174 24.0976 7.38044 25.3252 7.56308C26.5528 7.74573 27.7299 8.17845 28.7835 8.83444Z" fill="#6C9137"/>
<path d="M21.0428 25.1001C20.2216 26.0359 19.2325 26.8098 18.1266 27.3818C17.1192 27.9104 16.0424 28.2945 14.9279 28.5227C14.0507 28.7016 13.1576 28.7909 12.2623 28.7893C6.37138 28.7893 1.59998 24.9721 1.59998 20.2594C1.59809 20.0813 1.60699 19.9033 1.62664 19.7263C1.96783 15.2587 6.59529 11.7295 12.2623 11.7295C13.524 11.7277 14.7793 11.9091 15.9888 12.268C20.0405 13.4728 22.9247 16.5969 22.9247 20.2594C22.9057 22.0479 22.2368 23.7684 21.0428 25.1001Z" fill="#8BBA47"/>
<path d="M23.4571 33.0542L19.6613 32.5531L17.5928 33.0542H15.4603L13.3918 32.5531L9.59601 33.0542L11.7231 31.2789C12.0736 31.0454 12.4855 30.9211 12.9067 30.9217H13.8609C14.1435 30.9209 14.4142 30.8083 14.614 30.6085C14.8137 30.4087 14.9263 30.138 14.9272 29.8555V28.5227C16.0417 28.2945 17.1185 27.9104 18.1259 27.3818V29.8555C18.1267 30.138 18.2393 30.4087 18.4391 30.6085C18.6389 30.8083 18.9096 30.9209 19.1921 30.9217H20.1464C20.5676 30.9211 20.9794 31.0454 21.3299 31.2789L23.4571 33.0542Z" fill="#92563A"/>
<path d="M15.311 31.5913C15.5035 31.5528 15.6766 31.4487 15.801 31.2969C15.9254 31.1451 15.9934 30.9549 15.9934 30.7586C15.9934 30.5062 16.0829 30.262 16.246 30.0694C16.4091 29.8768 16.6353 29.7483 16.8843 29.7068L18.1259 29.4999V27.3818C17.1185 27.9104 16.0417 28.2945 14.9272 28.5227V29.8555C14.9263 30.138 14.8137 30.4087 14.614 30.6085C14.4142 30.8083 14.1435 30.9209 13.8609 30.9217H12.9067C12.4855 30.9211 12.0736 31.0454 11.7231 31.2789L9.59601 33.0542L13.3278 32.5616V32.5211L15.311 31.5913Z" fill="#5D241D"/>
<path d="M21.3304 31.2789C20.9799 31.0454 20.568 30.9211 20.1469 30.9217H19.1926C18.9101 30.9209 18.6393 30.8083 18.4396 30.6085C18.2398 30.4087 18.1272 30.138 18.1263 29.8555V30.3886C18.1263 30.6714 18.2387 30.9426 18.4386 31.1425C18.6386 31.3425 18.9098 31.4548 19.1926 31.4548H19.9032C20.1339 31.4548 20.3584 31.5296 20.543 31.6681L22.1636 32.8836L23.4575 33.0542L21.3304 31.2789Z" fill="#C47952"/>
<path d="M5.52012 15.6744C5.69445 15.8262 5.91096 15.921 6.14067 15.9463C6.76821 16.0633 7.41361 16.0433 8.03271 15.8877C7.98706 16.3897 8.09391 16.8939 8.33929 17.3342C8.58468 17.7746 8.95719 18.1307 9.40815 18.356C9.87122 18.6007 10.4048 18.6771 10.9179 18.5725C11.1664 18.5224 11.3978 18.4095 11.5902 18.2446C11.7827 18.0797 11.9297 17.8683 12.0172 17.6305C12.5903 18.3736 13.6475 18.653 14.6295 18.6588C14.9815 18.6851 15.3336 18.608 15.6424 18.4371C15.8902 18.2554 16.07 17.996 16.1532 17.7003C16.2576 17.3821 16.2978 17.0462 16.2712 16.7124C16.2447 16.3785 16.152 16.0532 15.9985 15.7555C16.3653 15.8056 16.7383 15.7821 17.0959 15.6863C17.4534 15.5906 17.7883 15.4245 18.0809 15.1978C18.3168 14.9714 18.4897 14.6875 18.5825 14.3739C18.6753 14.0604 18.6849 13.7281 18.6103 13.4098C17.7864 12.9228 16.9056 12.5393 15.9879 12.2678C14.7783 11.9089 13.5231 11.7276 12.2614 11.7294C10.0421 11.7123 7.85851 12.2889 5.93702 13.3996C5.68329 13.8107 5.49667 14.2595 5.38418 14.7292C5.32704 14.8858 5.30956 15.054 5.33328 15.2189C5.357 15.3839 5.42119 15.5404 5.52012 15.6744Z" fill="#ACD949"/>
<path d="M3.291 17.423C3.38398 17.5967 3.51602 17.7464 3.67671 17.8604C3.8374 17.9744 4.02237 18.0495 4.21703 18.0798C4.60994 18.1391 5.00961 18.1378 5.40215 18.0761C5.15407 18.3362 4.99199 18.6663 4.93792 19.0217C4.88385 19.377 4.94039 19.7404 5.09987 20.0625C5.27214 20.3834 5.5183 20.6586 5.81801 20.8655C6.11771 21.0724 6.46234 21.205 6.82344 21.2524C7.55682 21.3432 8.29879 21.1734 8.91966 20.7726C9.38134 21.9252 10.7392 22.566 12.0117 22.5255C12.829 22.4999 13.7428 22.1342 13.9757 21.3713C14.6888 21.7853 15.4969 22.0077 16.3215 22.0169C16.609 22.0341 16.8965 21.9831 17.1606 21.8682C17.4009 21.7114 17.6025 21.5021 17.7503 21.2561C17.898 21.0101 17.988 20.7338 18.0136 20.4479C18.1233 19.8845 18.1656 19.31 18.1394 18.7366C18.5222 18.8117 18.9182 18.7807 19.2847 18.647C19.6511 18.5133 19.974 18.2819 20.2185 17.978C20.325 17.8217 20.3959 17.644 20.4262 17.4574C20.4566 17.2707 20.4457 17.0797 20.3944 16.8977C20.343 16.7158 20.2524 16.5473 20.1289 16.4041C20.0054 16.2609 19.852 16.1465 19.6796 16.0689C19.924 16.0043 20.1475 15.8777 20.3286 15.7012C20.5096 15.5248 20.6419 15.3045 20.7127 15.0619C20.0903 14.4194 19.3844 13.8636 18.6139 13.4092C18.6885 13.7275 18.6789 14.0598 18.5861 14.3734C18.4932 14.6869 18.3204 14.9708 18.0845 15.1973C17.7919 15.424 17.457 15.59 17.0995 15.6858C16.7419 15.7815 16.3689 15.805 16.0021 15.7549C16.155 16.053 16.2471 16.3784 16.273 16.7124C16.2989 17.0464 16.2581 17.3822 16.153 17.7003C16.0699 17.9955 15.8905 18.2544 15.6433 18.436C15.3345 18.6069 14.9824 18.684 14.6304 18.6577C13.6495 18.6519 12.5923 18.3725 12.0181 17.6293C11.9306 17.8672 11.7836 18.0786 11.5911 18.2435C11.3987 18.4084 11.1673 18.5213 10.9188 18.5714C10.4057 18.676 9.87213 18.5996 9.40906 18.3549C8.9581 18.1296 8.58559 17.7735 8.3402 17.3331C8.09482 16.8928 7.98797 16.3886 8.03361 15.8866C7.41452 16.0422 6.76912 16.0622 6.14158 15.9452C5.91187 15.9199 5.69536 15.8251 5.52103 15.6733C5.42192 15.5391 5.35763 15.3825 5.3339 15.2173C5.31018 15.0522 5.32776 14.8837 5.38509 14.7271C5.49758 14.2573 5.6842 13.8085 5.93793 13.3975C5.12296 13.8739 4.37998 14.4639 3.73136 15.1498C3.45672 15.613 3.28151 16.1282 3.2169 16.6628C3.17342 16.9183 3.19901 17.1808 3.291 17.423Z" fill="#82BD00"/>
<path d="M21.6787 16.2646C21.6428 16.4201 21.5745 16.5663 21.4782 16.6935C21.3819 16.8207 21.2599 16.9262 21.12 17.003C21.5346 17.4305 21.7944 17.9842 21.8584 18.5762C21.8841 18.87 21.8122 19.1641 21.6537 19.4128C21.4952 19.6615 21.2591 19.8509 20.9819 19.9517C21.3057 20.4547 21.5034 21.0284 21.5582 21.6241C21.5839 21.9213 21.5447 22.2206 21.4434 22.5012C21.3422 22.7818 21.1813 23.0371 20.9718 23.2496C20.4632 23.7219 19.8613 23.3919 19.3815 23.7064C18.9582 23.9837 18.6639 24.9966 18.4219 25.4391C18.3389 25.6221 18.2135 25.7827 18.0562 25.9077C17.8555 25.9956 17.6335 26.0234 17.4173 25.9877C17.2011 25.952 16.9999 25.8544 16.838 25.7067C16.6261 25.5117 16.3517 25.3983 16.0639 25.3868C15.5895 25.4444 15.4141 26.0484 15.0633 26.3795C14.9016 26.5275 14.6975 26.6208 14.4798 26.6464C14.2621 26.6719 14.042 26.6284 13.8504 26.5218C13.4357 26.2798 13.1041 25.728 12.6392 25.8405C12.4386 25.9278 12.253 26.046 12.089 26.1908C11.4749 26.5741 10.6682 26.1406 10.2012 25.5809C10.0875 25.4087 9.93097 25.2691 9.74702 25.1757C9.60847 25.1359 9.46279 25.1273 9.32052 25.1506C8.41422 25.237 7.42316 25.3676 6.65494 24.8638C6.23424 24.5467 5.89312 24.136 5.65854 23.6643C5.61446 23.5654 5.54165 23.482 5.44956 23.4249C5.34135 23.3893 5.22457 23.3893 5.11636 23.4249C4.86714 23.5051 4.60342 23.5298 4.34365 23.4974C4.08387 23.465 3.83432 23.3762 3.61244 23.2373C2.91938 22.6818 3.11877 21.8816 3.44664 21.2114C3.23921 21.3231 2.99923 21.3585 2.76841 21.3115C2.53759 21.2646 2.33051 21.1382 2.18315 20.9545C1.89173 20.5729 1.71761 20.1149 1.68202 19.6361C1.67349 19.5764 1.67136 19.5167 1.66389 19.457C1.65376 19.546 1.63457 19.6329 1.62764 19.7235C1.60753 19.9014 1.59827 20.0803 1.59992 20.2593C1.59992 24.9721 6.37132 28.7892 12.2623 28.7892C13.1575 28.7908 14.0506 28.7015 14.9279 28.5226C16.0424 28.2944 17.1192 27.9103 18.1266 27.3817C19.2324 26.8098 20.2215 26.0359 21.0427 25.1C22.2367 23.7683 22.9056 22.0478 22.9246 20.2593C22.9151 18.8336 22.4814 17.443 21.6787 16.2646Z" fill="#5C8500"/>
<path d="M2.1813 20.9582C2.32866 21.1419 2.53574 21.2682 2.76657 21.3152C2.99739 21.3621 3.23736 21.3267 3.44479 21.2151C3.11693 21.8847 2.91647 22.6849 3.61059 23.241C3.83247 23.3799 4.08203 23.4687 4.34181 23.5011C4.60158 23.5335 4.8653 23.5088 5.11452 23.4286C5.22273 23.393 5.3395 23.393 5.44772 23.4286C5.5398 23.4856 5.61262 23.569 5.6567 23.668C5.89127 24.1397 6.2324 24.5504 6.65309 24.8675C7.41918 25.3713 8.40972 25.2407 9.31868 25.1543C9.46095 25.131 9.60662 25.1395 9.74518 25.1794C9.92913 25.2728 10.0857 25.4124 10.1994 25.5845C10.6664 26.1443 11.473 26.5777 12.0872 26.1944C12.2511 26.0496 12.4368 25.9315 12.6373 25.8442C13.1022 25.7317 13.4338 26.2835 13.8486 26.5255C14.0401 26.632 14.2603 26.6756 14.478 26.6501C14.6956 26.6245 14.8998 26.5311 15.0614 26.3832C15.4122 26.0521 15.5876 25.4481 16.0621 25.3905C16.3499 25.402 16.6242 25.5154 16.8362 25.7104C16.998 25.8581 17.1993 25.9557 17.4155 25.9914C17.6317 26.0271 17.8536 25.9993 18.0543 25.9114C18.2117 25.7864 18.337 25.6257 18.4201 25.4427C18.6637 25.0003 18.958 23.9873 19.3797 23.7101C19.8595 23.3956 20.4614 23.7256 20.97 23.2532C21.1794 23.0408 21.3404 22.7855 21.4416 22.5049C21.5429 22.2242 21.582 21.925 21.5564 21.6278C21.5015 21.0321 21.3038 20.4584 20.9801 19.9554C21.2581 19.8546 21.495 19.6647 21.6537 19.4152C21.8124 19.1657 21.8841 18.8707 21.8576 18.5762C21.7941 17.9844 21.5348 17.4307 21.1208 17.003C21.2607 16.9261 21.3827 16.8207 21.479 16.6934C21.5753 16.5662 21.6436 16.4201 21.6795 16.2646C21.3935 15.8358 21.0693 15.4338 20.7109 15.0635C20.64 15.3061 20.5077 15.5264 20.3267 15.7028C20.1457 15.8793 19.9221 16.006 19.6777 16.0705C19.8501 16.1481 20.0035 16.2625 20.127 16.4057C20.2505 16.5489 20.3411 16.7174 20.3925 16.8994C20.4439 17.0813 20.4547 17.2724 20.4244 17.459C20.394 17.6456 20.3231 17.8233 20.2167 17.9796C19.9722 18.2836 19.6492 18.5149 19.2828 18.6486C18.9163 18.7823 18.5203 18.8133 18.1375 18.7383C18.1637 19.3117 18.1214 19.8861 18.0117 20.4496C17.9862 20.7354 17.8961 21.0117 17.7484 21.2577C17.6007 21.5037 17.399 21.713 17.1587 21.8698C16.8946 21.9847 16.6071 22.0357 16.3196 22.0185C15.4951 22.0094 14.6869 21.787 13.9739 21.3729C13.7409 22.1358 12.8271 22.5015 12.0099 22.5271C10.7389 22.5676 9.38106 21.9268 8.91778 20.7742C8.29691 21.175 7.55494 21.3448 6.82156 21.254C6.46037 21.2068 6.11563 21.0742 5.81583 20.8673C5.51603 20.6604 5.26978 20.385 5.09746 20.0641C4.93797 19.742 4.88143 19.3786 4.93551 19.0233C4.98958 18.6679 5.15165 18.3378 5.39973 18.0777C5.0072 18.1395 4.60753 18.1407 4.21461 18.0815C4.02028 18.0506 3.83575 17.975 3.67554 17.8608C3.51532 17.7466 3.38378 17.5967 3.29126 17.4231C3.19854 17.181 3.17222 16.9185 3.21502 16.6628C3.28029 16.1281 3.45622 15.6128 3.73161 15.1498C2.59507 16.3257 1.86912 17.8374 1.66205 19.4596C1.66951 19.5193 1.67164 19.579 1.68017 19.6387C1.71556 20.1178 1.88969 20.5763 2.1813 20.9582Z" fill="#6D9E00"/>
<path d="M18.5891 11.7829C19.0246 12.0358 19.5275 12.1481 20.0292 12.1045C20.5309 12.0609 21.0069 11.8635 21.3922 11.5393C21.8691 12.1938 22.5283 12.6934 23.2875 12.9755C23.8333 13.2075 24.4457 13.2295 25.0068 13.0373C25.2826 12.9343 25.5166 12.7429 25.6722 12.4929C25.8277 12.2429 25.8961 11.9485 25.8667 11.6555C26.773 12.2345 27.8611 12.7105 28.9017 12.437C29.2549 12.3412 29.5808 12.1643 29.8536 11.9203C30.1264 11.6764 30.3384 11.3721 30.4728 11.0317C30.5552 10.813 30.6032 10.5828 30.6152 10.3494C29.7797 9.45234 28.7708 8.73433 27.6496 8.23885C26.5284 7.74337 25.3182 7.48075 24.0925 7.46689C22.8668 7.45303 21.651 7.68823 20.5189 8.15824C19.3868 8.62824 18.3619 9.32325 17.5063 10.2011C17.5701 10.5245 17.699 10.8314 17.8851 11.1033C18.0713 11.3753 18.3108 11.6065 18.5891 11.7829Z" fill="#6D9E00"/>
<path d="M23.9731 16.4504C24.1182 16.464 24.2547 16.5253 24.3613 16.6247C24.7632 16.9499 25.2713 17.1146 25.7875 17.087C26.3037 17.0595 26.7914 16.8416 27.1564 16.4755C27.6188 16.0529 28.0206 15.5685 28.3506 15.0361C28.3797 14.9856 28.4198 14.9425 28.4679 14.9097C28.5555 14.8742 28.6527 14.8702 28.7429 14.8985C29.5602 15.0824 30.4145 15.0068 31.1868 14.6821C31.7697 14.4148 32.2295 13.9361 32.4732 13.3429C32.0564 12.2327 31.4253 11.2154 30.6158 10.3489C30.6038 10.5823 30.5558 10.8125 30.4734 11.0313C30.339 11.3716 30.127 11.6759 29.8542 11.9199C29.5815 12.1638 29.2555 12.3408 28.9024 12.4366C27.8617 12.7101 26.7741 12.234 25.8673 11.655C25.8967 11.948 25.8283 12.2425 25.6728 12.4925C25.5172 12.7424 25.2832 12.9339 25.0074 13.0369C24.4463 13.229 23.8339 13.207 23.2881 12.975C22.5289 12.6929 21.8698 12.1934 21.3929 11.5388C21.0801 11.8164 20.6991 12.0058 20.289 12.0876C19.8789 12.1695 19.4545 12.1409 19.0591 12.0048C18.6637 11.8686 18.3116 11.6298 18.0388 11.3128C17.7661 10.9958 17.5826 10.612 17.507 10.2007C16.9081 10.8114 16.3987 11.5039 15.994 12.2575L15.9886 12.2681C17.2747 12.6089 18.4795 13.2034 19.5324 14.0167C20.5853 14.83 21.4649 15.8456 22.1195 17.0038C22.6697 16.9856 23.2073 16.8349 23.6869 16.5645C23.7718 16.5041 23.87 16.4649 23.9731 16.4504Z" fill="#5C8500"/>
<path d="M31.0543 18.8684C30.8736 18.8503 30.6992 18.8823 30.5979 18.7314C30.6396 18.9993 30.6114 19.2735 30.5163 19.5274C30.4211 19.7813 30.2621 20.0064 30.0547 20.1809C29.6336 20.5254 29.1203 20.7381 28.579 20.7924C28.1386 20.8595 27.6889 20.8326 27.2596 20.7135C26.864 20.5957 26.575 20.2252 26.1965 20.455C25.8089 20.689 25.5109 21.0489 25.0978 21.268C24.7165 21.4733 24.3032 21.6123 23.8753 21.679C23.5109 21.7328 23.14 21.7249 22.7782 21.6556C22.5045 22.9337 21.9065 24.1198 21.0418 25.1C22.2508 25.5147 23.5339 25.669 24.8068 25.5529C26.0797 25.4368 27.3136 25.0529 28.4277 24.4263C29.5418 23.7998 30.5108 22.9448 31.2711 21.9173C32.0315 20.8899 32.566 19.7134 32.8397 18.4648L32.8221 18.4755C32.285 18.7793 31.6695 18.9161 31.0543 18.8684Z" fill="#3C5619"/>
<path d="M32.4727 13.3413C32.2293 13.9344 31.77 14.413 31.1874 14.6805C30.4151 15.0052 29.5608 15.0809 28.7436 14.8969C28.6533 14.8687 28.5561 14.8726 28.4685 14.9081C28.4204 14.9409 28.3803 14.9841 28.3512 15.0345C28.0213 15.567 27.6194 16.0513 27.157 16.4739C26.792 16.84 26.3043 17.0579 25.7881 17.0855C25.2719 17.113 24.7638 16.9483 24.3619 16.6232C24.2553 16.5238 24.1189 16.4624 23.9738 16.4489C23.8706 16.4634 23.7724 16.5025 23.6875 16.5629C23.208 16.8333 22.6703 16.984 22.1201 17.0022C22.646 18.0074 22.9218 19.1246 22.9241 20.259C22.9232 20.7285 22.8744 21.1967 22.7785 21.6563C23.1403 21.7257 23.5112 21.7336 23.8757 21.6798C24.3035 21.613 24.7169 21.4741 25.0981 21.2688C25.5113 21.0497 25.8093 20.6898 26.1969 20.4558C26.5754 20.226 26.8643 20.5965 27.2599 20.7143C27.6893 20.833 28.139 20.8596 28.5794 20.7922C29.1208 20.7375 29.6341 20.5245 30.055 20.1796C30.2628 20.0054 30.4222 19.7806 30.5178 19.5269C30.6134 19.2732 30.6421 18.9991 30.601 18.7311C30.7022 18.882 30.8766 18.85 31.0573 18.8681C31.6727 18.9159 32.2884 18.7791 32.8257 18.4752L32.8432 18.4646C33.2213 16.7574 33.0935 14.977 32.4754 13.3413H32.4727Z" fill="#4C6D00"/>
<path d="M21.5546 9.19383C21.6031 9.44312 21.7402 9.66641 21.9406 9.82237C22.5897 10.3906 23.4305 10.6911 24.2927 10.6631C24.65 10.6747 25.0013 10.5685 25.2923 10.3608C25.4358 10.2081 25.547 10.0279 25.6191 9.83113C25.6912 9.63434 25.7228 9.42499 25.7119 9.21569C26.2625 9.4299 26.8588 9.49965 27.444 9.41827C27.7946 9.38177 28.1295 9.25402 28.4153 9.04775C28.5127 8.96798 28.5952 8.8716 28.6589 8.76307C27.2826 7.93261 25.7096 7.48451 24.1023 7.46502C22.4949 7.44553 20.9115 7.85535 19.5154 8.65218C19.633 8.74776 19.762 8.82851 19.8993 8.89262C20.4178 9.12786 20.9865 9.23133 21.5546 9.19383Z" fill="#82BD00"/>
<path d="M8.89622 7.13598C8.87809 7.11252 8.8637 7.08693 8.84291 7.064C8.8621 7.08693 8.8765 7.11252 8.89622 7.13598C8.94313 7.11465 8.99058 7.09439 9.03643 7.07147C9.1267 7.01546 9.23036 6.98471 9.33658 6.98244C9.46628 7.01089 9.58431 7.078 9.67511 7.17489C10.3975 7.76772 11.4083 7.82316 12.3407 7.83596C13.2896 7.87913 14.2404 7.81457 15.1747 7.6435C16.1148 7.46926 16.9791 7.01163 17.6516 6.33204C18.5814 6.89927 19.7414 6.88328 20.8295 6.8369C21.4083 6.83626 21.9845 6.761 22.544 6.61299C23.108 6.4615 23.5953 6.10506 23.9104 5.61339C24.5422 6.01699 25.2514 6.28409 25.9924 6.39756C26.7335 6.51103 27.4901 6.46838 28.2137 6.27233C27.3437 4.35105 25.8645 2.77017 24.0053 1.77441C23.9123 1.9694 23.7998 2.15445 23.6694 2.32672C23.3586 2.69612 22.9748 2.99741 22.5422 3.21179C22.1096 3.42616 21.6375 3.54899 21.1553 3.57262C20.1881 3.61332 19.2238 3.4421 18.3297 3.07096C18.3199 3.45669 18.2068 3.83272 18.0022 4.15987C17.7976 4.48702 17.509 4.75331 17.1665 4.931C16.4752 5.27599 15.7116 5.45125 14.9391 5.44226C13.6634 5.49078 12.2266 5.27806 11.4536 4.26247C11.3073 4.68246 11.0387 5.04906 10.6823 5.31508C10.3259 5.58111 9.8981 5.7344 9.45386 5.7552C8.56292 5.77925 7.68268 5.55656 6.91036 5.11173C6.81226 5.06215 6.71417 5.0083 6.61714 4.95179C6.18441 5.6024 5.8521 6.31445 5.63141 7.064C5.89119 7.27248 6.19371 7.42119 6.51745 7.49956C7.32874 7.6464 8.16583 7.51846 8.89622 7.13598Z" fill="#4C6D00"/>
<path d="M9.45204 5.75311C9.89628 5.7323 10.3241 5.57902 10.6805 5.31299C11.0369 5.04696 11.3055 4.68036 11.4518 4.26038C12.2248 5.2733 13.6615 5.48655 14.9373 5.44017C15.7098 5.44915 16.4734 5.27389 17.1647 4.92891C17.5074 4.75159 17.7963 4.48558 18.0013 4.15862C18.2063 3.83165 18.3198 3.45569 18.33 3.06993C19.2241 3.44107 20.1884 3.61229 21.1556 3.57159C21.6379 3.54824 22.1102 3.42564 22.543 3.21145C22.9758 2.99726 23.3597 2.69609 23.6708 2.32676C23.8012 2.15448 23.9137 1.96943 24.0067 1.77445C22.6787 1.02709 21.2335 0.510629 19.7327 0.24707C19.4673 0.560314 19.1394 0.814552 18.7699 0.993435C18.1112 1.3011 17.3623 1.35538 16.6662 1.14591C16.6608 1.3377 16.6102 1.52551 16.5185 1.69403C16.4268 1.86256 16.2966 2.00702 16.1384 2.11565C15.8188 2.32998 15.446 2.45142 15.0615 2.46644C14.4237 2.51026 13.787 2.36606 13.2302 2.05167C13.1762 2.01191 13.1102 1.99179 13.0431 1.99463C12.9865 2.01194 12.9356 2.04438 12.896 2.08846C12.5419 2.34562 12.105 2.46226 11.6698 2.41579C11.0983 2.40289 10.5314 2.31085 9.98516 2.1423C9.87881 2.10949 9.77434 2.07087 9.67222 2.02662C8.45676 2.7717 7.41423 3.76751 6.61426 4.94757C6.71129 5.00408 6.80938 5.05792 6.90747 5.1075C7.67989 5.55326 8.56054 5.7767 9.45204 5.75311Z" fill="#5C8500"/>
<path d="M11.6701 2.41796C12.1053 2.46443 12.5422 2.34779 12.8963 2.09062C12.9359 2.04655 12.9868 2.01411 13.0434 1.99679C13.1105 1.99396 13.1765 2.01408 13.2306 2.05384C13.7873 2.36822 14.424 2.51243 15.0618 2.4686C15.4463 2.45358 15.8191 2.33214 16.1387 2.11781C16.2969 2.00919 16.4271 1.86472 16.5188 1.6962C16.6106 1.52768 16.6612 1.33986 16.6665 1.14807C17.3626 1.35755 18.1115 1.30327 18.7702 0.9956C19.1397 0.816718 19.4677 0.562479 19.733 0.249236C18.851 0.0869114 17.9562 0.00376958 17.0594 0.000803231C14.4562 -0.0271429 11.8973 0.674651 9.67255 2.02665C9.77467 2.0709 9.87914 2.10952 9.98549 2.14234C10.5316 2.3116 11.0986 2.40436 11.6701 2.41796Z" fill="#6D9E00"/>
<path d="M23.913 5.61328C23.5975 6.10435 23.1104 6.46019 22.5466 6.61128C21.9871 6.75929 21.4109 6.83454 20.8321 6.83519C19.744 6.88157 18.5839 6.89756 17.6542 6.33032C16.9817 7.00992 16.1174 7.46755 15.1773 7.64179C14.243 7.81286 13.2922 7.87742 12.3433 7.83425C11.4082 7.82145 10.3974 7.76601 9.67769 7.17318C9.58689 7.07629 9.46886 7.00918 9.33916 6.98073C9.23294 6.983 9.12928 7.01375 9.03901 7.06976C8.99316 7.09268 8.94571 7.11294 8.8988 7.13427C9.09343 7.43969 9.22378 7.78157 9.28189 8.13904C9.34 8.49651 9.32466 8.86208 9.2368 9.21342C9.13455 10.0445 8.74962 10.8151 8.14657 11.396C7.81669 11.66 7.44923 11.8733 7.05635 12.0288C6.45001 12.2937 5.82665 12.5177 5.19044 12.6995C4.87057 12.7906 4.5443 12.8482 4.22763 12.9399C3.9552 13.0188 3.95734 13.1803 3.80646 13.4107C3.516 13.8154 3.12949 14.1416 2.68169 14.3599C2.2339 14.5782 1.73886 14.6818 1.2411 14.6614C0.809032 14.654 0.38785 14.5246 0.026127 14.2882C0.00960032 14.5014 4.19512e-06 14.7147 4.19512e-06 14.9279C-0.00177056 16.6585 0.559608 18.3426 1.59936 19.726H1.62601C1.96721 15.2584 6.59467 11.7292 12.2617 11.7292C13.5234 11.7274 14.7786 11.9088 15.9882 12.2677L15.9935 12.257C16.5787 11.1625 17.3823 10.1997 18.3546 9.42832C19.3269 8.65695 20.4472 8.09338 21.6461 7.77254C22.8451 7.45168 24.0971 7.38038 25.3247 7.56302C26.5524 7.74567 27.7294 8.17839 28.783 8.83438C28.7525 7.95284 28.5604 7.08439 28.2163 6.27221C27.4927 6.46826 26.7361 6.51092 25.995 6.39745C25.254 6.28397 24.5448 6.01688 23.913 5.61328Z" fill="#324D11"/>
<path d="M3.80314 13.4145C3.95401 13.1842 3.95188 13.0226 4.2243 12.9437C4.54097 12.852 4.86884 12.7944 5.18711 12.7033C5.82332 12.5215 6.44668 12.2975 7.05302 12.0326C7.4459 11.8771 7.81336 11.6638 8.14325 11.3998C8.74629 10.8189 9.13123 10.0483 9.23347 9.21723C9.32133 8.86588 9.33667 8.50032 9.27856 8.14284C9.22045 7.78537 9.0901 7.44349 8.89548 7.13807C8.16423 7.5203 7.32631 7.64751 6.51457 7.49952C6.19083 7.42115 5.88832 7.27244 5.62853 7.06396C5.60348 7.14873 5.57096 7.23136 5.5491 7.3172C5.2659 7.41007 4.98823 7.519 4.71743 7.64346C4.8592 7.73868 4.99488 7.84266 5.12367 7.9548C5.57817 8.32749 5.87815 8.85563 5.96546 9.43687C5.9841 9.84335 5.88723 10.2468 5.68608 10.6005C5.48493 10.9542 5.18772 11.2437 4.82886 11.4355C4.09963 11.8079 3.26265 11.9119 2.46448 11.7293C2.47208 11.9772 2.38688 12.2189 2.22555 12.4073C2.06423 12.5956 1.8384 12.717 1.5923 12.7475C1.17292 12.794 0.748595 12.7339 0.358666 12.5727C0.184684 13.1314 0.0731159 13.7076 0.026001 14.2909C0.387724 14.5273 0.808905 14.6567 1.24098 14.6641C1.73811 14.6841 2.23244 14.5804 2.67962 14.3623C3.12681 14.1442 3.51286 13.8185 3.80314 13.4145Z" fill="#5C8500"/>
<path d="M1.59252 12.7475C1.83862 12.717 2.06445 12.5956 2.22577 12.4073C2.3871 12.2189 2.4723 11.9772 2.4647 11.7293C3.26275 11.9122 4.09972 11.8086 4.82908 11.4366C5.18811 11.2447 5.48544 10.955 5.6866 10.6011C5.88776 10.2472 5.98452 9.84353 5.96568 9.43688C5.87963 8.85398 5.57976 8.32397 5.12442 7.95001C4.99563 7.83787 4.85995 7.73389 4.71819 7.63867C3.68366 8.10487 2.76002 8.78561 2.00848 9.63577C1.25693 10.4859 0.69465 11.4861 0.358887 12.57C0.748582 12.7321 1.17292 12.7932 1.59252 12.7475Z" fill="#6D9E00"/>
<path d="M7.91309 13.1156C8.33817 13.3435 8.81265 13.4636 9.29493 13.4654C9.27364 13.7221 9.32269 13.9798 9.43681 14.2108C9.55093 14.4417 9.72581 14.6372 9.94267 14.7763C10.1946 14.972 10.4868 15.1094 10.7981 15.1787C11.1095 15.2481 11.4324 15.2475 11.7435 15.1772C12.0532 15.0992 12.3332 14.9323 12.5491 14.6971C12.765 14.4619 12.9073 14.1686 12.9585 13.8535C13.3832 14.142 13.9003 14.2616 14.4086 14.1888C14.6598 14.1454 14.8893 14.0196 15.0611 13.8313C15.2328 13.643 15.3369 13.4028 15.357 13.1487C15.6867 13.2047 16.0256 13.1505 16.3214 12.9946C16.4893 12.8708 16.61 12.6935 16.6637 12.4919C16.4424 12.4114 16.2175 12.3362 15.9882 12.268C14.7787 11.9091 13.5234 11.7277 12.2617 11.7295C10.644 11.7252 9.04023 12.0282 7.53564 12.6225C7.54036 12.7032 7.56275 12.7818 7.60122 12.8528C7.67876 12.9677 7.78675 13.0587 7.91309 13.1156Z" fill="#CCF27A"/>
<path d="M27.2149 10.5764C27.4105 11.0757 27.6902 11.5378 28.0417 11.9427C28.1539 12.1221 28.2494 12.3115 28.3269 12.5084C28.5212 12.5076 28.7147 12.4836 28.9032 12.4369C29.2564 12.3411 29.5824 12.1642 29.8551 11.9202C30.1279 11.6763 30.3399 11.372 30.4743 11.0316C30.5234 10.9001 30.5591 10.764 30.581 10.6254C30.2211 10.2836 29.8334 9.97222 29.422 9.69458C29.1141 9.42291 28.7555 9.21474 28.3669 9.08203C28.1259 9.245 27.8517 9.35226 27.564 9.39604C27.4184 9.55232 27.3111 9.74028 27.2505 9.9451C27.1899 10.1499 27.1777 10.366 27.2149 10.5764Z" fill="#97DB00"/>
<path d="M30.5798 10.6235C30.5579 10.7622 30.5222 10.8983 30.4732 11.0298C30.3388 11.3701 30.1267 11.6744 29.854 11.9184C29.5812 12.1623 29.2553 12.3393 28.9021 12.4351C28.7135 12.4817 28.5201 12.5057 28.3258 12.5065C28.5827 13.2922 28.7676 14.0997 28.8781 14.9189C29.6541 15.0725 30.4583 14.9895 31.1865 14.6806C31.6905 14.4436 32.1034 14.0486 32.3626 13.5557C32.275 13.1953 32.15 12.8451 31.9894 12.5108C31.6361 11.8025 31.1587 11.1633 30.5798 10.6235Z" fill="#89C700"/>
<path d="M31.1872 14.6805C30.459 14.9895 29.6547 15.0725 28.8788 14.9188C28.8868 14.9567 28.8932 14.9951 28.9012 15.0329C29.1288 16.0842 29.6801 17.215 30.7415 17.5333C30.8708 17.5809 31.0085 17.6015 31.146 17.5937C31.2836 17.5859 31.4181 17.5499 31.5412 17.4879C31.6817 17.3916 31.7978 17.2638 31.8802 17.1148C32.1951 16.5841 32.4001 15.9957 32.4832 15.3843C32.5662 14.7729 32.5256 14.1511 32.3638 13.5557C32.1045 14.0487 31.6914 14.4436 31.1872 14.6805Z" fill="#7FB800"/>
<path d="M27.9058 9.13875C27.7763 9.20144 27.6599 9.2883 27.563 9.39465C27.8506 9.35087 28.1249 9.24361 28.3659 9.08065C28.2102 9.05022 28.049 9.07059 27.9058 9.13875Z" fill="#BDFF2B"/>
<path d="M18.0807 15.1997C18.3608 14.9432 18.5482 14.6014 18.6139 14.2273C17.9145 13.9211 17.1465 13.8058 16.3881 13.8931C16.1013 13.902 15.8293 14.0225 15.63 14.2289C15.5374 14.3707 15.4804 14.5328 15.4637 14.7013C15.447 14.8698 15.4711 15.0398 15.534 15.1971C15.6321 15.4428 15.879 15.5878 16.0672 15.7606C16.786 15.8465 17.5098 15.6449 18.0807 15.1997Z" fill="#BDFF2B"/>
<path d="M19.0002 14.4035C18.876 14.3347 18.7438 14.2835 18.6137 14.2275C18.548 14.6016 18.3606 14.9434 18.0806 15.1999C17.5093 15.6454 16.7852 15.847 16.0659 15.7608L16.0894 15.781C16.571 16.262 17.0231 16.7717 17.443 17.3074C17.8423 17.7973 18.2458 18.299 18.6857 18.759C18.9828 18.7527 19.2746 18.6793 19.5394 18.5443C19.8041 18.4094 20.035 18.2163 20.2146 17.9796C20.3211 17.8233 20.392 17.6456 20.4223 17.459C20.4527 17.2723 20.4418 17.0813 20.3905 16.8994C20.3391 16.7174 20.2485 16.5489 20.125 16.4057C20.0015 16.2625 19.8481 16.1481 19.6757 16.0705C19.9889 15.9929 20.2636 15.8047 20.4492 15.5406C20.0315 15.085 19.542 14.7009 19.0002 14.4035Z" fill="#9FDE14"/>
<path d="M19.6764 16.0704C19.8489 16.148 20.0022 16.2624 20.1257 16.4056C20.2492 16.5488 20.3398 16.7173 20.3912 16.8993C20.4426 17.0812 20.4535 17.2723 20.4231 17.4589C20.3927 17.6455 20.3218 17.8232 20.2154 17.9795C20.0357 18.2162 19.8049 18.4093 19.5401 18.5442C19.2753 18.6792 18.9835 18.7526 18.6864 18.759C19.1623 19.2796 19.7206 19.7184 20.3391 20.0576C20.5841 20.1975 20.8638 20.2648 21.1457 20.2517C21.0924 20.1504 21.039 20.0491 20.9815 19.9515C21.24 19.8598 21.4632 19.6893 21.6197 19.4641C21.7763 19.2389 21.8583 18.9703 21.8542 18.696C21.8421 18.4988 21.8149 18.3027 21.7726 18.1096C21.6354 17.6987 21.4134 17.3211 21.1211 17.0013C21.1953 16.9664 21.2639 16.9208 21.3248 16.8659C21.0994 16.3839 20.8049 15.9374 20.4505 15.5405C20.2648 15.8047 19.9899 15.9929 19.6764 16.0704Z" fill="#87BD11"/>
<path d="M26.2742 5.53925C27.4935 4.55031 25.4591 3.05705 24.806 2.54526C24.5233 2.32464 24.2285 2.11979 23.9232 1.93164C23.8502 2.06982 23.7662 2.20192 23.6721 2.32668C23.3609 2.69639 22.9768 2.99788 22.5437 3.21226C22.1106 3.42665 21.6379 3.54931 21.1552 3.57258C20.1881 3.61328 19.2237 3.44206 18.3297 3.07091C18.3352 3.24675 18.3129 3.42235 18.2636 3.59124L18.3068 3.61896C19.9606 4.71908 21.8298 5.45438 23.7899 5.77595C23.8341 5.72385 23.8752 5.6692 23.9131 5.61228C24.0362 5.69385 24.1652 5.76529 24.2942 5.83513C24.5608 5.85538 24.8274 5.86711 25.0987 5.86232C25.5157 5.88991 25.9299 5.77609 26.2742 5.53925Z" fill="#7DB500"/>
<path d="M21.1552 3.57281C21.6376 3.54933 22.11 3.42656 22.5428 3.21218C22.9756 2.99781 23.3595 2.69643 23.6705 2.32691C23.7646 2.20216 23.8486 2.07005 23.9216 1.93187C23.0799 1.40717 22.1604 1.01905 21.1973 0.78194C20.6206 0.642161 20.0311 0.561598 19.4381 0.541504C19.2377 0.724557 19.0117 0.877557 18.7674 0.99572C18.2998 1.21212 17.7837 1.30254 17.2704 1.25801C17.1634 1.41337 17.0933 1.59118 17.0657 1.7778C17.0481 1.98013 17.0705 2.18394 17.1317 2.37759C17.1929 2.57124 17.2917 2.75094 17.4223 2.90641C17.6613 3.18018 17.9444 3.41208 18.2599 3.59253C18.3091 3.42365 18.3314 3.24805 18.326 3.07221C19.2212 3.44353 20.1869 3.6144 21.1552 3.57281Z" fill="#90D100"/>
<path d="M18.7714 0.995818C19.0158 0.877655 19.2417 0.724655 19.4421 0.541602C19.2821 0.535738 19.1222 0.532539 18.9623 0.536271C18.5614 0.524102 18.1632 0.605129 17.799 0.772975C17.5862 0.888139 17.4058 1.05497 17.2744 1.25811C17.7877 1.30264 18.3038 1.21222 18.7714 0.995818Z" fill="#99DE00"/>
<path d="M23.7901 5.77695C23.958 5.79881 24.126 5.82333 24.2944 5.83612C24.1654 5.76629 24.0364 5.69485 23.9132 5.61328C23.8754 5.67019 23.8343 5.72484 23.7901 5.77695Z" fill="#4C6D00"/>
</svg>
