<svg width="32" height="35" viewBox="0 0 32 35" fill="none" xmlns="http://www.w3.org/2000/svg">
<path d="M21.9921 24.1914V27.2263C21.9923 27.8077 21.8389 28.3789 21.5473 28.8819C21.2557 29.385 20.8363 29.802 20.3317 30.0908L18.1435 31.3388L17.0439 29.1396L19.1001 28.3149C19.3038 28.2338 19.4787 28.0936 19.6021 27.9123C19.7255 27.7311 19.792 27.5171 19.7929 27.2978V25.291L19.7599 25.2635C20.0769 24.9487 20.3357 24.5801 20.5241 24.1749C20.6451 24.1804 20.766 24.1914 20.8925 24.1914C21.25 24.1917 21.6062 24.1492 21.9536 24.0649L21.9921 24.1914Z" fill="#9A6948"/>
<path d="M14.3995 28.0069L17.044 29.1395L18.1436 31.3387L19.2433 34.0877H14.8448V30.2391L12.9975 29.4474C12.4047 29.1912 11.8996 28.7676 11.5441 28.2285C11.1886 27.6894 10.9982 27.0582 10.9962 26.4125V24.7411L11.0017 24.6971C11.1814 24.7285 11.3636 24.7433 11.546 24.7411C12.1167 24.7399 12.68 24.6122 13.1954 24.3672V26.7643C13.1961 26.9793 13.2594 27.1895 13.3775 27.3691C13.4957 27.5488 13.6636 27.6901 13.8607 27.776L14.3995 28.0069Z" fill="#9A6948"/>
<path d="M13.1295 15.2022C12.6002 15.7064 12.2523 16.3713 12.1399 17.0935C11.9433 17.0632 11.7449 17.0466 11.5461 17.0441C10.721 17.0434 9.91758 17.3079 9.25426 17.7985C8.59095 18.2892 8.10286 18.98 7.862 19.7691C7.62114 20.5582 7.64024 21.4039 7.9165 22.1813C8.19276 22.9588 8.71155 23.6268 9.39635 24.087L9.34687 24.1915C8.94138 24.7328 8.34993 25.1049 7.68646 25.2361C7.5094 25.274 7.32872 25.2924 7.14766 25.2911C6.58943 25.29 6.04478 25.1189 5.58613 24.8007C5.12748 24.4825 4.77657 24.0322 4.58008 23.5097C4.34511 23.5931 4.09813 23.6377 3.84884 23.6417C3.26557 23.6417 2.7062 23.41 2.29377 22.9975C1.88133 22.5851 1.64963 22.0257 1.64963 21.4425C1.64963 21.3655 1.66613 21.294 1.67162 21.2226C1.17573 21.0113 0.752883 20.6589 0.455672 20.2093C0.15846 19.7596 0 19.2325 0 18.6935C0 18.1544 0.15846 17.6273 0.455672 17.1777C0.752883 16.728 1.17573 16.3756 1.67162 16.1644C1.66613 16.0929 1.64963 16.0214 1.64963 15.9444C1.64591 15.473 1.76447 15.0086 1.99374 14.5966C2.22302 14.1846 2.55517 13.839 2.95781 13.5937C3.36044 13.3484 3.8198 13.2116 4.29106 13.1967C4.76232 13.1818 5.22939 13.2894 5.6467 13.5088C5.80603 13.0939 6.08718 12.7368 6.4532 12.4847C6.81922 12.2325 7.25297 12.0969 7.69746 12.0958L7.74144 12.0903C7.87015 13.0075 8.32618 13.8472 9.02543 14.4544C9.72467 15.0617 10.6199 15.3957 11.5461 15.3946C12.0456 15.3938 12.5403 15.2968 13.0031 15.1087C13.0429 15.143 13.0851 15.1742 13.1295 15.2022Z" fill="#2F5224"/>
<path d="M26.9407 8.24715C26.9411 8.81949 26.8134 9.38467 26.567 9.90125C26.3206 10.4178 25.9618 10.8727 25.5167 11.2326C25.0927 11.075 24.6439 10.995 24.1917 10.9962C23.1709 10.9962 22.192 11.4016 21.4703 12.1234C20.7485 12.8451 20.343 13.8241 20.343 14.8448C20.3456 15.04 20.3622 15.2347 20.3925 15.4276C19.6669 15.5072 18.973 15.7681 18.3748 16.1863C18.1533 15.7145 17.8228 15.3021 17.4106 14.9831C16.9985 14.6641 16.5164 14.4476 16.0041 14.3515C15.4919 14.2554 14.9641 14.2824 14.4643 14.4303C13.9646 14.5782 13.5071 14.8427 13.1296 15.2021C13.0853 15.1741 13.043 15.1429 13.0032 15.1087C12.5404 15.2967 12.0457 15.3938 11.5462 15.3946C10.6201 15.3956 9.7248 15.0617 9.02556 14.4544C8.32632 13.8471 7.87028 13.0074 7.74157 12.0903C7.71011 11.9106 7.69539 11.7284 7.69759 11.546C7.69835 11.36 7.71306 11.1744 7.74157 10.9907C7.72508 10.9907 7.71408 10.9962 7.69759 10.9962C6.96851 10.9962 6.26928 10.7065 5.75374 10.191C5.23821 9.67545 4.94858 8.97623 4.94858 8.24715C4.94858 7.51807 5.23821 6.81884 5.75374 6.3033C6.26928 5.78776 6.96851 5.49814 7.69759 5.49814C7.71958 5.49814 7.73608 5.50363 7.75257 5.50363C7.71741 5.32059 7.699 5.13472 7.69759 4.94833C7.69759 4.21925 7.98722 3.52003 8.50276 3.00449C9.0183 2.48895 9.71752 2.19932 10.4466 2.19932C10.8235 2.19881 11.1962 2.27748 11.5407 2.43024C12.046 1.57902 12.8604 0.955753 13.8141 0.690443C14.7678 0.425134 15.7871 0.538269 16.6594 1.00625C17.2097 0.503067 17.8946 0.170965 18.6305 0.0504742C19.3664 -0.070017 20.1215 0.0263135 20.8036 0.32771C21.4856 0.629106 22.0652 1.12253 22.4716 1.74777C22.878 2.37302 23.0936 3.10303 23.0921 3.84873C23.0915 4.03285 23.0768 4.21666 23.0481 4.39853H23.0921C24.1128 4.39853 25.0917 4.80401 25.8134 5.52577C26.5352 6.24752 26.9407 7.22643 26.9407 8.24715Z" fill="#5CB34F"/>
<path d="M15.9443 26.2311C15.4246 26.0734 14.9437 25.8084 14.5327 25.4532C14.1216 25.0981 13.7897 24.6607 13.5582 24.1694C13.4409 24.2418 13.3198 24.3079 13.1953 24.3673C12.6799 24.6123 12.1166 24.74 11.5459 24.7412C11.3635 24.7434 11.1813 24.7286 11.0016 24.6972C10.4258 24.6233 9.87566 24.4142 9.39618 24.0869C8.71138 23.6267 8.1926 22.9586 7.91634 22.1812C7.64008 21.4038 7.62097 20.5581 7.86183 19.769C8.1027 18.9799 8.59078 18.2891 9.2541 17.7984C9.91742 17.3078 10.7209 17.0433 11.5459 17.0439C11.7448 17.0465 11.9432 17.0631 12.1397 17.0934C12.2522 16.3711 12.6001 15.7063 13.1293 15.2021C13.5068 14.8427 13.9643 14.5781 14.464 14.4302C14.9638 14.2823 15.4916 14.2553 16.0038 14.3514C16.5161 14.4476 16.9982 14.664 17.4103 14.983C17.8225 15.3021 18.153 15.7144 18.3745 16.1862C18.9727 15.768 19.6666 15.5071 20.3922 15.4275C20.3619 15.2347 20.3453 15.0399 20.3428 14.8447C20.3428 13.824 20.7482 12.8451 21.47 12.1233C22.1917 11.4016 23.1707 10.9961 24.1914 10.9961C24.6436 10.9949 25.0924 11.075 25.5164 11.2325C25.6121 11.2653 25.7057 11.3039 25.7968 11.348C26.2577 11.1032 26.7741 10.9818 27.2958 10.9957C27.8175 11.0096 28.3267 11.1583 28.7739 11.4273C29.2211 11.6962 29.5911 12.0764 29.8479 12.5307C30.1046 12.9851 30.2395 13.4981 30.2392 14.02C30.2381 14.646 30.0442 15.2565 29.6839 15.7684C30.2152 16.0176 30.6825 16.3851 31.05 16.8427C31.4176 17.3002 31.6756 17.8358 31.8043 18.4084C31.9331 18.981 31.9292 19.5754 31.7929 20.1463C31.6566 20.7172 31.3916 21.2493 31.0181 21.702C30.6446 22.1547 30.1725 22.516 29.6379 22.7582C29.1034 23.0004 28.5205 23.1172 27.9339 23.0996C27.3472 23.082 26.7724 22.9304 26.2534 22.6565C25.7343 22.3826 25.2847 21.9936 24.9391 21.5193C24.7532 21.9483 24.5008 22.3454 24.1914 22.6959C23.6034 23.3708 22.8223 23.8487 21.9537 24.0649C21.6063 24.1492 21.25 24.1916 20.8926 24.1914C20.7661 24.1914 20.6451 24.1804 20.5242 24.1749C20.2142 24.8364 19.7223 25.3961 19.106 25.7885C18.4898 26.1808 17.7745 26.3897 17.0439 26.3906C16.6716 26.3908 16.3012 26.3371 15.9443 26.2311Z" fill="#7BC24F"/>
<path d="M28.0396 20.3428C27.4356 20.3424 26.8402 20.1998 26.3015 19.9267C25.7628 19.6535 25.2959 19.2574 24.9387 18.7703C24.7528 19.1993 24.5005 19.5964 24.191 19.9469C23.603 20.6218 22.8219 21.0997 21.9533 21.3159C21.6059 21.4002 21.2497 21.4426 20.8922 21.4424C20.7657 21.4424 20.6448 21.4314 20.5238 21.4259C20.2138 22.0874 19.722 22.6471 19.1057 23.0395C18.4894 23.4318 17.7741 23.6407 17.0436 23.6416C16.3112 23.6425 15.5938 23.4338 14.9762 23.0403C14.3585 22.6467 13.8664 22.0846 13.5578 21.4204C13.4405 21.4928 13.3194 21.5589 13.1949 21.6183C12.6795 21.8633 12.1162 21.991 11.5455 21.9922C11.3631 21.9944 11.1809 21.9796 11.0012 21.9482C10.4254 21.8743 9.87528 21.6652 9.39581 21.3379C8.73964 20.8957 8.23555 20.2622 7.95202 19.5235C7.64078 20.3353 7.61411 21.2287 7.87636 22.0576C8.13861 22.8865 8.67428 23.6019 9.39581 24.0869C9.87528 24.4142 10.4254 24.6233 11.0012 24.6972C11.1809 24.7287 11.3631 24.7434 11.5455 24.7412C12.1162 24.74 12.6795 24.6123 13.1949 24.3673C13.3194 24.3079 13.4405 24.2419 13.5578 24.1694C13.8664 24.8336 14.3585 25.3957 14.9762 25.7893C15.5938 26.1829 16.3112 26.3915 17.0436 26.3906C17.7741 26.3897 18.4894 26.1808 19.1057 25.7885C19.722 25.3961 20.2138 24.8364 20.5238 24.1749C20.6448 24.1804 20.7657 24.1914 20.8922 24.1914C21.2497 24.1917 21.6059 24.1492 21.9533 24.0649C22.8219 23.8487 23.603 23.3708 24.191 22.6959C24.5005 22.3454 24.7528 21.9483 24.9387 21.5193C25.4862 22.2752 26.2902 22.8059 27.2005 23.012C28.1107 23.2182 29.0649 23.0857 29.8846 22.6395C30.7043 22.1932 31.3335 21.4636 31.6543 20.5872C31.9752 19.7108 31.9659 18.7475 31.6282 17.8774C31.3496 18.6031 30.8574 19.2272 30.2167 19.6674C29.576 20.1075 28.8169 20.343 28.0396 20.3428Z" fill="#44853B"/>
<path d="M29.6973 15.7754L29.6725 15.7792C29.5575 16.5394 29.1647 17.23 28.5701 17.7174C27.9756 18.2048 27.2214 18.4546 26.4534 18.4183C25.9589 18.4248 25.469 18.3226 25.0184 18.1188C24.5677 17.915 24.1674 17.6146 23.8457 17.239C23.6857 17.5655 23.4733 17.8636 23.2167 18.1214C22.702 18.6384 22.0485 18.9951 21.3353 19.1484C21.0421 19.2115 20.7429 19.2432 20.443 19.243C20.3363 19.243 20.2346 19.2347 20.1329 19.2303C19.9707 19.5396 19.753 19.8163 19.4907 20.0468C18.86 20.5996 18.0477 20.9006 17.209 20.8924C16.8971 20.8928 16.5864 20.8525 16.2848 20.7725C15.8624 20.6658 15.4663 20.4735 15.1211 20.2076C14.7759 19.9417 14.489 19.6078 14.2781 19.2265C14.1807 19.2815 14.079 19.3293 13.9729 19.3749C13.5338 19.5598 13.0622 19.6551 12.5858 19.6553C12.4326 19.657 12.2796 19.646 12.1283 19.6224C11.6504 19.569 11.1897 19.4128 10.778 19.1644C10.1881 18.8186 9.73742 18.2779 9.50357 17.6354C8.79668 18.0797 8.25331 18.7418 7.95532 19.5217C8.23884 20.2604 8.74294 20.8939 9.3991 21.3361C9.87858 21.6634 10.4287 21.8725 11.0045 21.9464C11.1833 21.9782 11.3645 21.9935 11.5461 21.992C12.1168 21.9909 12.6801 21.8632 13.1955 21.6181C13.3199 21.5588 13.4411 21.4927 13.5584 21.4202C13.8669 22.0844 14.3591 22.6465 14.9767 23.0401C15.5944 23.4337 16.3117 23.6423 17.0441 23.6414C17.7747 23.6405 18.4899 23.4317 19.1062 23.0393C19.7225 22.6469 20.2144 22.0873 20.5244 21.4257C20.6453 21.4312 20.7663 21.4422 20.8927 21.4422C21.2502 21.4425 21.6064 21.4 21.9538 21.3158C22.8224 21.0996 23.6036 20.6216 24.1915 19.9467C24.501 19.5962 24.7533 19.1992 24.9393 18.7702C25.347 19.3269 25.897 19.7636 26.5317 20.0344C27.1663 20.3052 27.8622 20.4002 28.5462 20.3094C29.2303 20.2186 29.8772 19.9453 30.4192 19.5182C30.9612 19.0911 31.3782 18.526 31.6265 17.8822C31.279 16.9575 30.5879 16.2028 29.6973 15.7754Z" fill="#5CB34F"/>
<path d="M11.392 27.9741C11.2693 27.7463 11.1741 27.5047 11.1083 27.2544L8.58303 26.1708C8.48413 26.128 8.39978 26.0574 8.34016 25.9676C8.28054 25.8779 8.24821 25.7727 8.2471 25.665V25.0547C8.06736 25.1355 7.8793 25.1963 7.6863 25.2361C7.50923 25.274 7.32856 25.2924 7.14749 25.2911V25.665C7.14817 25.9875 7.24302 26.3028 7.42039 26.5722C7.59776 26.8415 7.84993 27.0533 8.14593 27.1813L11.1759 28.48C11.2351 28.5055 11.2984 28.5204 11.3628 28.5239L11.7911 28.5465C11.638 28.3705 11.5042 28.1786 11.392 27.9741Z" fill="#5D241D"/>
<path d="M15.3949 26.0117V27.0943L14.2254 27.4857C14.1521 27.5105 14.0848 27.5505 14.0279 27.6031C13.9711 27.6557 13.926 27.7197 13.8956 27.7909L14.3992 28.007L15.1596 28.3324L16.1184 28.0114C16.2279 27.9749 16.3231 27.905 16.3905 27.8114C16.458 27.7179 16.4944 27.6055 16.4945 27.4901V26.3509C16.1118 26.2993 15.7402 26.1846 15.3949 26.0117Z" fill="#5D241D"/>
<path d="M24.7263 21.9204C24.5765 22.1976 24.3971 22.4577 24.1913 22.6962C24.0238 22.886 23.8398 23.0606 23.6415 23.2179V25.1593C23.6418 25.2622 23.6132 25.3632 23.559 25.4506C23.5048 25.5381 23.4271 25.6086 23.3347 25.6541L21.9921 26.3254V27.2266C21.9921 27.3156 21.9817 27.4025 21.9745 27.4905H21.9921C22.0776 27.4906 22.162 27.4706 22.2384 27.4322L23.8268 26.635C24.1019 26.499 24.3334 26.2887 24.495 26.0279C24.6566 25.767 24.7419 25.4661 24.7411 25.1593V21.9924C24.7381 21.9681 24.7332 21.944 24.7263 21.9204Z" fill="#5D241D"/>
<path d="M17.9457 32.9881C17.6914 32.9882 17.4449 32.9001 17.2483 32.739C17.0516 32.5778 16.9169 32.3534 16.867 32.104L16.4942 30.2391L12.5186 28.251C12.3916 28.1876 12.2848 28.0901 12.2101 27.9693C12.1355 27.8486 12.0959 27.7095 12.0958 27.5676V27.1552C12.0958 26.9524 12.1764 26.7579 12.3198 26.6145C12.4632 26.471 12.6578 26.3905 12.8606 26.3905H13.1954V24.3672C12.68 24.6122 12.1167 24.7399 11.546 24.7411C11.3636 24.7433 11.1814 24.7285 11.0017 24.6971L10.9962 24.7411V26.4125C10.9982 27.0582 11.1886 27.6894 11.5441 28.2285C11.8996 28.7676 12.4047 29.1912 12.9975 29.4474L14.8448 30.2391V34.0877H19.2433L18.8034 32.9881H17.9457Z" fill="#714226"/>
<path d="M21.9536 24.0649C21.6062 24.1492 21.25 24.1917 20.8925 24.1914C20.766 24.1914 20.6451 24.1804 20.5241 24.1749C20.3357 24.5801 20.0769 24.9487 19.7599 25.2635L19.7929 25.291V27.2978C19.792 27.5171 19.7255 27.7311 19.6021 27.9123C19.4787 28.0936 19.3038 28.2338 19.1001 28.3149L17.0439 29.1396L18.1435 31.3388L19.3387 30.6571L19.27 30.5548C19.1142 30.3209 19.0539 30.0362 19.1014 29.7592C19.149 29.4822 19.3008 29.234 19.5257 29.0654L20.2327 28.5348C20.4376 28.3812 20.6038 28.182 20.7183 27.9529C20.8329 27.7239 20.8925 27.4714 20.8925 27.2153V26.3906C20.8925 26.099 21.0083 25.8193 21.2145 25.6131C21.4208 25.4069 21.7004 25.291 21.9921 25.291V24.1914L21.9536 24.0649Z" fill="#714226"/>
<path d="M27.2148 10.9962C26.7203 10.9952 26.2331 11.1161 25.7964 11.3481C25.7053 11.3039 25.6117 11.2654 25.516 11.2326C25.092 11.0751 24.6432 10.995 24.1909 10.9962C23.1702 10.9962 22.1913 11.4017 21.4695 12.1234C20.7478 12.8452 20.3423 13.8241 20.3423 14.8448C20.3449 15.04 20.3614 15.2348 20.3918 15.4276C19.6662 15.5072 18.9723 15.7681 18.374 16.1863C18.0729 15.5482 17.5748 15.0237 16.9532 14.6899C16.3315 14.3562 15.6191 14.2309 14.9209 14.3325C14.2227 14.4341 13.5755 14.7572 13.0748 15.2543C12.574 15.7513 12.2461 16.396 12.1393 17.0935L12.0953 17.088V18.7374L12.1393 18.7429C12.2517 18.0206 12.5996 17.3558 13.1289 16.8516C13.5064 16.4922 13.9638 16.2276 14.4636 16.0797C14.9634 15.9318 15.4911 15.9048 16.0034 16.0009C16.5157 16.0971 16.9977 16.3135 17.4099 16.6325C17.8221 16.9515 18.1525 17.3639 18.374 17.8357C18.9723 17.4175 19.6662 17.1566 20.3918 17.077C20.3614 16.8842 20.3449 16.6894 20.3423 16.4942C20.3423 15.4735 20.7478 14.4946 21.4695 13.7728C22.1913 13.0511 23.1702 12.6456 24.1909 12.6456C24.6432 12.6444 25.092 12.7245 25.516 12.882C25.6117 12.9148 25.7053 12.9533 25.7964 12.9975C26.194 12.7866 26.6337 12.6672 27.0833 12.6479C27.533 12.6286 27.9813 12.7099 28.3956 12.8859C28.8098 13.0619 29.1795 13.3282 29.4778 13.6653C29.776 14.0024 29.9952 14.4018 30.1195 14.8344C30.2501 14.3854 30.2739 13.9121 30.1891 13.4522C30.1043 12.9924 29.9132 12.5587 29.631 12.1859C29.3488 11.813 28.9834 11.5112 28.5639 11.3047C28.1444 11.0981 27.6824 10.9925 27.2148 10.9962Z" fill="#8EE05B"/>
<path d="M22.5874 9.56689C21.9583 9.09139 21.2277 8.76813 20.4527 8.62248C19.6777 8.47683 18.8795 8.51275 18.1207 8.72742C17.362 8.9421 16.6633 9.32968 16.0795 9.85977C15.4957 10.3899 15.0427 11.048 14.756 11.7826C14.7769 11.0426 13.9665 10.573 13.2451 10.4048C12.1054 10.1478 10.9158 10.2241 9.81822 10.6247C9.58312 10.7373 9.33695 10.8252 9.08368 10.887C8.80109 10.9271 8.50914 10.8925 8.22269 10.9419C8.05825 10.9714 7.89575 11.0109 7.73612 11.0602C7.71257 11.2211 7.69971 11.3835 7.69763 11.5462C7.69543 11.7286 7.71016 11.9108 7.74162 12.0905C7.87032 13.0076 8.32636 13.8473 9.0256 14.4546C9.72484 15.0619 10.6201 15.3958 11.5463 15.3948C12.0458 15.394 12.5404 15.2969 13.0032 15.1089C13.043 15.1431 13.0853 15.1743 13.1297 15.2024C13.5071 14.843 13.9646 14.5784 14.4644 14.4305C14.9642 14.2826 15.4919 14.2556 16.0042 14.3517C16.5164 14.4478 16.9985 14.6643 17.4107 14.9833C17.8228 15.3023 18.1533 15.7147 18.3748 16.1865C18.9731 15.7683 19.667 15.5074 20.3926 15.4278C20.3622 15.235 20.3457 15.0402 20.3431 14.845C20.3431 13.8243 20.7486 12.8454 21.4703 12.1236C22.1921 11.4019 23.171 10.9964 24.1917 10.9964C24.644 10.9952 25.0928 11.0753 25.5167 11.2328C26.2369 10.6478 26.7206 9.82151 26.878 8.90713C26.1682 8.62912 25.3974 8.54371 24.6439 8.65958C23.8904 8.77544 23.1809 9.08846 22.5874 9.56689Z" fill="#44853B"/>
<path d="M25.8897 5.60821C25.7083 5.60821 25.5268 5.59997 25.3448 5.61206C24.1442 5.65083 23.0048 6.15148 22.1642 7.00966C21.7648 6.61241 21.2877 6.30185 20.7628 6.0974C20.2378 5.89295 19.6764 5.79901 19.1135 5.82146C18.5506 5.84391 17.9984 5.98226 17.4914 6.22786C16.9844 6.47346 16.5335 6.82103 16.167 7.24882C15.7522 6.90318 15.2678 6.65095 14.7467 6.50931C14.2257 6.36767 13.6803 6.33994 13.1476 6.428C12.6149 6.51607 12.1074 6.71786 11.6596 7.01965C11.2119 7.32144 10.8345 7.71614 10.553 8.17689C10.2443 7.91311 9.88671 7.71279 9.50056 7.58741C9.11442 7.46203 8.70733 7.41404 8.30261 7.4462C7.49232 7.51582 6.71475 7.79802 6.04842 8.26431C5.70269 8.50189 5.38214 8.77417 5.09177 9.07692C5.26623 9.63201 5.61279 10.1172 6.0813 10.4623C6.54982 10.8073 7.11597 10.9943 7.69783 10.9963C7.71432 10.9963 7.72532 10.9908 7.74181 10.9908C7.73852 11.0133 7.74181 11.0364 7.73632 11.059C7.89595 11.0097 8.05844 10.9702 8.22289 10.9407C8.50934 10.8913 8.80128 10.9259 9.08388 10.8858C9.33715 10.824 9.58331 10.7361 9.81842 10.6235C10.916 10.2229 12.1056 10.1466 13.2453 10.4036C13.9667 10.5685 14.7771 11.0414 14.7562 11.7814C15.043 11.0469 15.4961 10.3888 16.0799 9.85888C16.6638 9.32892 17.3625 8.94145 18.1212 8.72689C18.88 8.51232 19.6781 8.4765 20.4531 8.62223C21.228 8.76795 21.9586 9.09126 22.5876 9.56679C23.1809 9.08875 23.89 8.77596 24.6431 8.66011C25.3962 8.54425 26.1665 8.62943 26.876 8.90703C26.9848 8.31809 26.9518 7.71171 26.7797 7.13807C26.6076 6.56442 26.3014 6.04 25.8864 5.60821H25.8897Z" fill="#52A147"/>
<path d="M2.79377 21.9033C2.91206 21.4055 3.06248 20.9159 3.24406 20.4376C2.94743 20.3655 2.6862 20.1901 2.50732 19.9427C2.28614 19.6666 2.13819 19.3392 2.07716 18.9907C2.01614 18.6422 2.04401 18.284 2.1582 17.9491C2.28436 17.6134 2.50371 17.3206 2.79047 17.1052C2.93186 16.9974 3.08818 16.9107 3.25451 16.8479C3.36447 16.8067 3.70424 16.7885 3.74273 16.6912C3.77682 16.6049 3.50741 16.2206 3.46783 16.1282C3.36793 15.9121 3.28341 15.6893 3.21492 15.4613C3.0747 15.0103 3.02646 14.5358 3.07307 14.0659C3.09748 13.8653 3.14318 13.6679 3.20942 13.4771C2.74343 13.6997 2.3498 14.0494 2.07385 14.486C1.7979 14.9225 1.65085 15.4281 1.64963 15.9446C1.64963 16.0215 1.66613 16.093 1.67162 16.1645C1.17573 16.3757 0.752883 16.7281 0.455672 17.1778C0.15846 17.6274 0 18.1546 0 18.6936C0 19.2326 0.15846 19.7597 0.455672 20.2094C0.752883 20.659 1.17573 21.0114 1.67162 21.2227C1.66613 21.2941 1.64963 21.3656 1.64963 21.4426C1.64961 21.8179 1.74602 22.1869 1.92962 22.5143C2.11321 22.8416 2.37784 23.1163 2.69811 23.3119C2.66567 22.8402 2.69786 22.3663 2.79377 21.9033Z" fill="#39632C"/>
<path d="M13.0026 15.1087C12.5398 15.2968 12.0451 15.3938 11.5456 15.3946C10.6194 15.3957 9.72417 15.0617 9.02493 14.4544C8.32569 13.8472 7.86965 13.0075 7.74094 12.0903L7.69696 12.0958C7.2619 12.0972 6.83703 12.2276 6.4761 12.4705C6.11517 12.7134 5.83439 13.0579 5.66929 13.4604C5.84138 14.0251 6.0646 14.5754 6.28892 15.1219C6.36149 15.3001 6.43461 15.4782 6.52203 15.6498C6.65811 15.9418 6.83774 16.2116 7.05479 16.4497C6.83608 16.5906 6.63004 16.7503 6.43901 16.9269C6.2537 17.1153 6.09164 17.3252 5.95629 17.5521C5.68604 18.0066 5.51235 18.5119 5.44607 19.0365C5.34824 20.0894 5.52814 21.1494 5.96783 22.111C5.36759 22.4956 4.91782 23.0748 4.69394 23.7516C4.91809 24.2119 5.26676 24.6001 5.70039 24.8722C6.13401 25.1443 6.63523 25.2894 7.14716 25.2911C7.32823 25.2924 7.5089 25.274 7.68596 25.2361C8.34944 25.1049 8.94088 24.7328 9.34637 24.1915L9.39585 24.087C8.71105 23.6268 8.19226 22.9588 7.916 22.1813C7.63974 21.4039 7.62064 20.5582 7.8615 19.7691C8.10236 18.98 8.59045 18.2892 9.25376 17.7985C9.91708 17.3079 10.7205 17.0434 11.5456 17.0441C11.7444 17.0466 11.9428 17.0632 12.1394 17.0935C12.2518 16.3713 12.5997 15.7064 13.129 15.2022C13.0846 15.1742 13.0424 15.143 13.0026 15.1087Z" fill="#233D1B"/>
<path d="M5.96868 22.1133C5.52899 21.1517 5.34909 20.0917 5.44692 19.0388C5.51321 18.5142 5.68689 18.0089 5.95714 17.5544C6.09249 17.3275 6.25455 17.1176 6.43986 16.9292C6.63089 16.7526 6.83693 16.5929 7.05564 16.452C6.83859 16.2139 6.65896 15.9441 6.52288 15.6521C6.43546 15.4805 6.36234 15.3024 6.28977 15.1242C6.06545 14.5777 5.84223 14.0246 5.67014 13.4627C5.66299 13.4792 5.65365 13.4946 5.64705 13.5111C5.27279 13.3108 4.85586 13.2034 4.43141 13.198C4.00695 13.1925 3.58741 13.2892 3.20812 13.4798C3.14189 13.6707 3.09618 13.8681 3.07177 14.0686C3.02516 14.5386 3.0734 15.0131 3.21362 15.464C3.28211 15.692 3.36663 15.9149 3.46653 16.1309C3.50887 16.2233 3.77827 16.6076 3.74143 16.6939C3.70295 16.7912 3.36317 16.8094 3.25321 16.8506C3.08688 16.9135 2.93057 17.0001 2.78917 17.1079C2.50241 17.3234 2.28306 17.6161 2.1569 17.9519C2.04271 18.2867 2.01484 18.645 2.07587 18.9934C2.13689 19.3419 2.28484 19.6694 2.50603 19.9455C2.6849 20.1928 2.94613 20.3683 3.24276 20.4403C3.06081 20.9186 2.91003 21.4082 2.79137 21.9061C2.69663 22.3683 2.66537 22.8412 2.69846 23.3119C3.04375 23.5271 3.44235 23.6413 3.84919 23.6418C4.09849 23.6378 4.34546 23.5932 4.58043 23.5098C4.61287 23.5945 4.6552 23.6748 4.69479 23.7539C4.91867 23.0771 5.36844 22.4979 5.96868 22.1133Z" fill="#2F5224"/>
<path d="M6.04818 8.26419C6.55364 7.91933 7.11868 7.6712 7.71463 7.53241C7.75486 6.83462 8.06005 6.17853 8.56783 5.69824C9.07562 5.21794 9.74766 4.9497 10.4466 4.94834C10.8235 4.94782 11.1962 5.0265 11.5407 5.17925C12.046 4.32803 12.8604 3.70477 13.8141 3.43946C14.7678 3.17415 15.7871 3.28728 16.6594 3.75526C17.0929 3.35801 17.612 3.06572 18.1764 2.90096C18.7409 2.73619 19.3357 2.70337 19.9149 2.80502C20.494 2.90666 21.0421 3.14006 21.5167 3.48719C21.9914 3.83432 22.3799 4.28589 22.6522 4.80704C22.9205 4.56897 23.0921 4.39853 23.0921 4.39853H23.0481C23.0768 4.21666 23.0915 4.03285 23.0921 3.84873C23.0936 3.10303 22.878 2.37302 22.4716 1.74778C22.0652 1.12253 21.4856 0.629106 20.8036 0.32771C20.1215 0.0263135 19.3664 -0.070017 18.6305 0.0504742C17.8946 0.170965 17.2097 0.503067 16.6594 1.00625C15.7871 0.538269 14.7678 0.425134 13.8141 0.690443C12.8604 0.955753 12.046 1.57902 11.5407 2.43024C11.1962 2.27748 10.8235 2.19881 10.4466 2.19932C9.71752 2.19932 9.0183 2.48895 8.50276 3.00449C7.98722 3.52003 7.69759 4.21925 7.69759 4.94834C7.699 5.13472 7.71741 5.32059 7.75257 5.50364C7.73608 5.50364 7.71958 5.49814 7.69759 5.49814C6.96851 5.49814 6.26928 5.78777 5.75374 6.3033C5.23821 6.81884 4.94858 7.51807 4.94858 8.24715C4.95131 8.66051 5.04993 9.06759 5.23667 9.43637C5.17952 9.32004 5.13047 9.19989 5.08988 9.0768C5.38077 8.77397 5.70188 8.50168 6.04818 8.26419Z" fill="#7BC24F"/>
</svg>
