<svg width="21" height="30" viewBox="0 0 21 30" fill="none" xmlns="http://www.w3.org/2000/svg">
<path d="M13.5122 26.2476V28.9548C13.5115 29.2106 13.4095 29.4556 13.2287 29.6365C13.0479 29.8173 12.8028 29.9192 12.5471 29.92H7.72126C7.46552 29.9192 7.22047 29.8173 7.03964 29.6365C6.8588 29.4556 6.75687 29.2106 6.7561 28.9548V26.2476C6.93525 26.5276 7.15294 26.781 7.40276 27.0004C8.1638 27.6493 9.13408 28.0007 10.1342 27.9897C10.7979 28.0045 11.4548 27.8528 12.0449 27.5485C12.6349 27.2442 13.1394 26.7969 13.5122 26.2476Z" fill="#915041"/>
<path d="M7.91931 1.43326L6.50053 4.0778C6.34991 4.36332 6.27201 4.68156 6.27372 5.00436C6.2677 5.47447 6.4362 5.93011 6.74664 6.2832C6.87541 6.42949 7.03341 6.54716 7.21046 6.62862C7.38751 6.71008 7.57967 6.75352 7.77454 6.75612H8.24264C8.53623 6.74439 8.8199 6.64666 9.05841 6.47507C9.29692 6.30348 9.47976 6.06559 9.58422 5.79096L10.1344 4.50247V0C9.6695 0.0140082 9.21735 0.154975 8.82689 0.407623C8.43643 0.660271 8.12257 1.01496 7.91931 1.43326Z" fill="#007145"/>
<path d="M13.768 4.0778L12.3492 1.43326C12.1459 1.01496 11.8321 0.660271 11.4416 0.407623C11.0512 0.154975 10.599 0.0140082 10.1342 0V4.50247L10.6843 5.79096C10.7887 6.06559 10.9716 6.30348 11.2101 6.47507C11.4486 6.64666 11.7323 6.74439 12.0259 6.75612H12.494C12.6888 6.75352 12.881 6.71008 13.0581 6.62862C13.2351 6.54716 13.3931 6.42949 13.5219 6.2832C13.5315 6.26872 13.546 6.25907 13.5556 6.24459C13.8443 5.89623 13.9999 5.45673 13.9948 5.00436C13.9965 4.68156 13.9186 4.36332 13.768 4.0778Z" fill="#009E60"/>
<path d="M12.0259 6.75634C11.7323 6.74461 11.4487 6.64687 11.2102 6.47528C10.9716 6.30369 10.7888 6.0658 10.6844 5.79118L10.1342 4.50269L9.58407 5.79118C9.47962 6.0658 9.29678 6.30369 9.05827 6.47528C8.81976 6.64687 8.53609 6.74461 8.2425 6.75634H8.20389L7.72131 10.617L8.22802 11.6545C8.36166 12.0545 8.61755 12.4025 8.95957 12.6493C9.30159 12.896 9.71247 13.0292 10.1342 13.0299C10.5556 13.03 10.9662 12.8965 11.3069 12.6486C11.6484 12.4012 11.9047 12.0538 12.0404 11.6545L12.5471 10.617L12.0645 6.75634H12.0259Z" fill="#009E60"/>
<path d="M7.77444 6.75613C7.57957 6.75352 7.38741 6.71009 7.21036 6.62863C7.03331 6.54717 6.87531 6.4295 6.74655 6.2832L4.32399 9.61301C4.0257 9.94787 3.86083 10.3807 3.86072 10.8291V11.2007C3.86141 11.6594 4.03442 12.1012 4.34546 12.4384C4.6565 12.7756 5.08286 12.9836 5.54005 13.0212C5.99724 13.0589 6.45189 12.9234 6.8139 12.6416C7.1759 12.3598 7.41883 11.9523 7.49455 11.4999L7.72136 10.6168L8.20394 6.75613H7.77444Z" fill="#007145"/>
<path d="M15.9444 9.61301L13.5218 6.2832C13.3931 6.4295 13.2351 6.54717 13.058 6.62863C12.881 6.71009 12.6888 6.75352 12.4939 6.75613H12.0645L12.547 10.6168L12.7738 11.4999C12.8139 11.7431 12.9028 11.9757 13.0352 12.1836C13.1675 12.3915 13.3406 12.5706 13.5439 12.7099C13.7472 12.8492 13.9766 12.9459 14.2183 12.9942C14.46 13.0426 14.709 13.0415 14.9503 12.9911C15.2816 12.8745 15.5926 12.7068 15.872 12.494C16.0424 12.3246 16.1776 12.1231 16.2695 11.9011C16.3615 11.679 16.4084 11.441 16.4077 11.2007V10.8291C16.4076 10.3807 16.2427 9.94787 15.9444 9.61301Z" fill="#00C477"/>
<path d="M7.49446 11.4998C7.45436 11.743 7.36546 11.9756 7.23313 12.1835C7.10079 12.3915 6.92775 12.5705 6.72441 12.7098C6.52108 12.8491 6.29166 12.9458 6.04996 12.9942C5.80827 13.0425 5.55929 13.0414 5.31802 12.991L5.30837 13.0296L2.32602 17.286C2.069 17.6576 1.93099 18.0985 1.93031 18.5503C1.92951 18.8393 1.98628 19.1255 2.09731 19.3923C2.20834 19.6591 2.37139 19.9011 2.57696 20.1042C2.68225 20.2094 2.79694 20.3047 2.9196 20.389C3.27946 20.6251 3.70047 20.7509 4.13087 20.7509H4.20326C4.66553 20.7511 5.11614 20.6058 5.49119 20.3355C5.86624 20.0653 6.14671 19.6838 6.29283 19.2452L6.75611 18.338L7.72127 10.6167L7.49446 11.4998Z" fill="#007145"/>
<path d="M12.0404 11.6542C11.9046 12.0535 11.6483 12.4009 11.3068 12.6484C10.9661 12.8963 10.5555 13.0297 10.1342 13.0296C9.71242 13.0289 9.30154 12.8958 8.95952 12.649C8.6175 12.4022 8.36161 12.0543 8.22797 11.6542L7.72126 10.6167L6.7561 18.338L6.95879 18.946C7.41241 20.3117 8.69125 20.7509 10.1342 20.7509C10.8086 20.7729 11.4791 20.6391 12.0934 20.36C12.3818 20.2197 12.6385 20.0218 12.8476 19.7787C13.0567 19.5355 13.2139 19.2522 13.3095 18.946L13.5122 18.338L12.5471 10.6167L12.0404 11.6542Z" fill="#009E60"/>
<path d="M17.9424 17.286L14.96 13.0296L14.9504 12.991C14.7091 13.0414 14.4601 13.0425 14.2184 12.9942C13.9767 12.9458 13.7473 12.8491 13.544 12.7098C13.3406 12.5705 13.1676 12.3915 13.0353 12.1835C12.9029 11.9756 12.814 11.743 12.7739 11.4998L12.5471 10.6167L13.5123 18.338L13.9756 19.2452C14.1217 19.6838 14.4021 20.0653 14.7772 20.3355C15.1523 20.6058 15.6029 20.7511 16.0651 20.7509H16.1375C16.5401 20.7502 16.9348 20.6393 17.2788 20.4303C17.6228 20.2212 17.903 19.9219 18.089 19.5649C18.2749 19.2078 18.3596 18.8067 18.3338 18.4049C18.3079 18.0032 18.1726 17.6162 17.9424 17.286Z" fill="#00C477"/>
<path d="M6.29296 19.2454C6.14684 19.684 5.86637 20.0654 5.49132 20.3357C5.11627 20.6059 4.66566 20.7512 4.20339 20.751H4.131C3.7006 20.751 3.27958 20.6252 2.91972 20.3891L0.608163 23.4342C0.29728 23.7892 0.0952817 24.2263 0.026344 24.6931C-0.0425937 25.1599 0.0244495 25.6367 0.21945 26.0664C0.414451 26.4961 0.729147 26.8606 1.12588 27.1161C1.5226 27.3716 1.98456 27.5074 2.45645 27.5072H2.85699C3.67697 27.5067 4.47024 27.2155 5.0958 26.6854C5.72136 26.1552 6.13871 25.4205 6.27366 24.6117L6.75624 18.3381L6.29296 19.2454Z" fill="#00613B"/>
<path d="M19.6603 23.4342L17.3487 20.3891C16.9889 20.6252 16.5678 20.751 16.1374 20.751H16.0651C15.6028 20.7512 15.1522 20.6059 14.7771 20.3357C14.4021 20.0654 14.1216 19.684 13.9755 19.2454L13.5122 18.3381L13.9948 24.6117C14.1289 25.4209 14.546 26.1561 15.1718 26.6864C15.7975 27.2167 16.5912 27.5076 17.4115 27.5072H17.812C18.2839 27.5074 18.7458 27.3716 19.1426 27.1161C19.5393 26.8606 19.854 26.4961 20.049 26.0664C20.244 25.6367 20.311 25.1599 20.2421 24.6931C20.1732 24.2263 19.9712 23.7892 19.6603 23.4342Z" fill="#00C477"/>
<path d="M13.3096 18.9462C13.214 19.2523 13.0568 19.5357 12.8476 19.7788C12.6385 20.022 12.3819 20.2198 12.0935 20.3601C11.4791 20.6392 10.8087 20.773 10.1342 20.751C8.69129 20.751 7.41245 20.3119 6.95882 18.9462L6.75614 18.3381L6.27356 24.6117C6.27394 25.192 6.44148 25.76 6.75614 26.2476C6.93529 26.5277 7.15298 26.7811 7.4028 27.0005C8.16384 27.6494 9.13411 28.0008 10.1342 27.9897C10.798 28.0045 11.4548 27.8528 12.0449 27.5485C12.635 27.2442 13.1394 26.797 13.5123 26.2476C13.8269 25.76 13.9945 25.192 13.9948 24.6117L13.5123 18.3381L13.3096 18.9462Z" fill="#007145"/>
<path d="M12.0404 10.2067C11.9047 10.606 11.6484 10.9534 11.3069 11.2008C10.9662 11.4488 10.5556 11.5822 10.1342 11.5821C9.71247 11.5814 9.30159 11.4482 8.95957 11.2015C8.61755 10.9547 8.36166 10.6067 8.22802 10.2067L7.82748 9.76807L7.72131 10.6169L8.22802 11.6545C8.36166 12.0545 8.61755 12.4024 8.95957 12.6492C9.30159 12.896 9.71247 13.0291 10.1342 13.0298C10.5556 13.03 10.9662 12.8965 11.3069 12.6486C11.6484 12.4011 11.9047 12.0538 12.0404 11.6545L12.5471 10.6169L12.4409 9.76807L12.0404 10.2067Z" fill="#00824F"/>
<path d="M7.72136 9.65186L7.49455 10.0524C7.42794 10.4587 7.22597 10.8305 6.92143 11.1075C6.61689 11.3845 6.22766 11.5505 5.81692 11.5784C5.40619 11.6064 4.99807 11.4946 4.65881 11.2614C4.31956 11.0282 4.06909 10.6872 3.94806 10.2937C3.89238 10.4669 3.86294 10.6474 3.86072 10.8294V11.2009C3.86141 11.6597 4.03442 12.1014 4.34546 12.4386C4.6565 12.7758 5.08286 12.9838 5.54005 13.0215C5.99724 13.0591 6.45189 12.9236 6.8139 12.6418C7.1759 12.3601 7.41883 11.9526 7.49455 11.5001L7.72136 10.617L7.82753 9.76816L7.72136 9.65186Z" fill="#004A2D"/>
<path d="M14.9505 11.5436C14.7092 11.594 14.4602 11.5951 14.2185 11.5467C13.9768 11.4984 13.7474 11.4017 13.5441 11.2624C13.3407 11.1231 13.1677 10.944 13.0354 10.7361C12.903 10.5282 12.8141 10.2956 12.774 10.0524L12.5472 9.65186L12.441 9.76816L12.5472 10.617L12.774 11.5001C12.8141 11.7433 12.903 11.9759 13.0354 12.1838C13.1677 12.3918 13.3407 12.5708 13.5441 12.7101C13.7474 12.8494 13.9768 12.9462 14.2185 12.9945C14.4602 13.0428 14.7092 13.0417 14.9505 12.9913C15.2818 12.8748 15.5928 12.7071 15.8722 12.4943C16.0426 12.3249 16.1777 12.1233 16.2697 11.9013C16.3616 11.6793 16.4086 11.4412 16.4079 11.2009V10.8294C16.4057 10.6459 16.3757 10.4638 16.3191 10.2893C16.2343 10.5745 16.0809 10.8345 15.8722 11.0465C15.5928 11.2593 15.2818 11.427 14.9505 11.5436Z" fill="#009E60"/>
<path d="M12.0258 6.75634C11.7322 6.74461 11.4485 6.64687 11.21 6.47528C10.9715 6.30369 10.7887 6.0658 10.6842 5.79118L10.1341 4.50269L9.58392 5.79118C9.47947 6.0658 9.29663 6.30369 9.05811 6.47528C8.8196 6.64687 8.53593 6.74461 8.24234 6.75634H8.20374L7.96631 8.65481C8.23584 8.60722 8.49083 8.4983 8.71157 8.33647C8.93231 8.17464 9.11289 7.96423 9.23936 7.7215L9.89277 6.43301L10.5462 7.7215C10.6976 8.01293 10.9263 8.25712 11.2071 8.42734C11.488 8.59757 11.8103 8.68727 12.1387 8.68666H12.3057L12.0644 6.75634H12.0258Z" fill="#00824F"/>
<path d="M7.09056 8.68645H7.6465C7.75388 8.68539 7.86096 8.67473 7.96645 8.6546L8.20388 6.75613H7.77438C7.57951 6.75352 7.38735 6.71009 7.2103 6.62863C7.03325 6.54717 6.87525 6.4295 6.74648 6.2832L5.59119 7.87089C5.66935 7.9964 5.76307 8.11153 5.87012 8.21352C6.20317 8.51873 6.63882 8.68754 7.09056 8.68645Z" fill="#004A2D"/>
<path d="M12.4939 6.75613H12.0645L12.3057 8.68645H12.6952C13.1469 8.68754 13.5826 8.51873 13.9156 8.21352C13.9272 8.19905 13.9446 8.1894 13.9557 8.17492C14.1527 7.97686 14.2996 7.73465 14.3842 7.46842L13.5218 6.2832C13.3931 6.4295 13.2351 6.54717 13.058 6.62863C12.881 6.71009 12.6888 6.75352 12.4939 6.75613Z" fill="#009E60"/>
<path d="M10.1342 4.34331C10.1342 4.87656 9.27091 5.30847 8.20392 5.30847C7.83478 5.30823 7.47349 5.20188 7.16308 5.0021C6.85267 4.80232 6.60624 4.51753 6.45312 4.18164C6.33484 4.43982 6.27361 4.72046 6.2736 5.00444C6.27189 5.26605 6.32277 5.52534 6.4232 5.76692C6.4232 5.77174 6.42803 5.77657 6.42803 5.78139C6.53128 6.05856 6.7142 6.299 6.95378 6.47246C7.19335 6.64591 7.47888 6.74464 7.77443 6.75621H8.24253C8.53612 6.74448 8.81979 6.64674 9.0583 6.47515C9.29681 6.30356 9.47965 6.06567 9.5841 5.79105L9.65166 5.63179C9.69168 5.537 9.75886 5.45616 9.84474 5.39949C9.93061 5.34281 10.0313 5.31281 10.1342 5.31329V4.34331Z" fill="#009E60"/>
<path d="M13.8153 4.18164C13.6622 4.51753 13.4157 4.80232 13.1053 5.0021C12.7949 5.20188 12.4336 5.30823 12.0645 5.30847C10.9975 5.30847 10.1342 4.87656 10.1342 4.34331V5.31329C10.2371 5.31281 10.3378 5.34281 10.4237 5.39949C10.5095 5.45616 10.5767 5.537 10.6167 5.63179L10.6843 5.79105C10.7887 6.06567 10.9716 6.30356 11.2101 6.47515C11.4486 6.64674 11.7323 6.74448 12.0259 6.75621H12.494C12.6976 6.754 12.8983 6.70703 13.0818 6.61863C13.2652 6.53023 13.427 6.40256 13.5556 6.24467C13.6727 6.10498 13.7686 5.9489 13.8404 5.78139C13.8404 5.77657 13.8452 5.77174 13.8452 5.76692C13.9456 5.52534 13.9965 5.26605 13.9948 5.00444C13.9948 4.72046 13.9336 4.43982 13.8153 4.18164Z" fill="#00C477"/>
<path d="M3.37806 26.0595C1.93515 26.0595 0.707464 25.5065 0.222954 24.052C0.0540585 24.425 -0.0185176 24.8344 0.0118776 25.2427C0.0422727 25.651 0.174667 26.0451 0.396925 26.389C0.619183 26.7328 0.924194 27.0154 1.284 27.2108C1.64381 27.4062 2.0469 27.5081 2.45634 27.5073H2.85688C3.66402 27.5066 4.44558 27.224 5.06657 26.7084C5.68756 26.1928 6.109 25.4765 6.2581 24.6832C5.66549 25.7951 4.60044 26.0595 3.37806 26.0595Z" fill="#004A2D"/>
<path d="M10.2012 26.5372C9.44017 26.5663 8.68444 26.3993 8.00664 26.052C7.32885 25.7047 6.75177 25.1889 6.3309 24.5542C6.31449 24.588 6.29374 24.6179 6.27637 24.6507C6.2833 25.2175 6.44952 25.7709 6.75605 26.2476C6.9352 26.5277 7.15289 26.7811 7.40271 27.0004C8.16375 27.6494 9.13402 28.0008 10.1341 27.9897C10.7979 28.0045 11.4548 27.8528 12.0448 27.5485C12.6349 27.2442 13.1394 26.797 13.5122 26.2476C13.8187 25.771 13.9849 25.2178 13.9919 24.6512C13.9716 24.6121 13.947 24.5759 13.9277 24.5359C13.5208 25.152 12.9674 25.6574 12.3169 26.0067C11.6665 26.356 10.9395 26.5383 10.2012 26.5372Z" fill="#00613B"/>
<path d="M16.8902 26.0595C15.6722 26.0595 14.611 25.8004 14.0165 24.6958C14.1649 25.4871 14.5857 26.2015 15.2058 26.7151C15.826 27.2286 16.6063 27.5089 17.4114 27.5073H17.812C18.2223 27.5105 18.6268 27.4101 18.9879 27.2154C19.3491 27.0206 19.6552 26.7378 19.878 26.3932C20.1007 26.0486 20.2328 25.6534 20.2621 25.2441C20.2914 24.8348 20.2168 24.4248 20.0454 24.052C19.5608 25.5065 18.3332 26.0595 16.8902 26.0595Z" fill="#008F57"/>
<path d="M7.72126 29.2975C7.71982 29.2056 7.73907 29.1146 7.77758 29.0311C7.8161 28.9477 7.87289 28.874 7.94376 28.8155C8.01463 28.757 8.09775 28.7153 8.18696 28.6933C8.27617 28.6713 8.36919 28.6696 8.45913 28.6885C10.1487 29.0854 11.9214 28.9249 13.5122 28.231V26.2524C13.1389 26.8009 12.6342 27.2472 12.0441 27.5506C11.4541 27.854 10.7975 28.005 10.1342 27.9897C9.13408 28.0007 8.1638 27.6493 7.40276 27.0004C7.15294 26.781 6.93525 26.5276 6.7561 26.2476V28.9548C6.7561 29.2108 6.85779 29.4563 7.03879 29.6373C7.2198 29.8183 7.46529 29.92 7.72126 29.92H8.34379C8.26202 29.9201 8.18104 29.904 8.10549 29.8727C8.02993 29.8415 7.96128 29.7956 7.90346 29.7378C7.84564 29.68 7.79978 29.6113 7.76852 29.5358C7.73726 29.4602 7.7212 29.3792 7.72126 29.2975Z" fill="#61362B"/>
<path d="M7.72123 10.6167L7.49442 11.4998C7.45432 11.743 7.36543 11.9756 7.23309 12.1835C7.10075 12.3915 6.92771 12.5705 6.72438 12.7098C6.52104 12.8491 6.29162 12.9458 6.04993 12.9942C5.80823 13.0425 5.55925 13.0414 5.31798 12.991L5.30833 13.0296L3.28149 15.9212C4.57134 15.9095 5.85615 15.7587 7.11366 15.4715L7.72123 10.6167Z" fill="#00613B"/>
<path d="M7.76382 15.3127C9.04362 14.9749 10.2935 14.5077 11.5912 14.2563C12.0499 14.1689 12.5128 14.1055 12.9781 14.0662L12.5472 10.6167L12.0404 11.6542C11.9047 12.0535 11.6484 12.4009 11.3069 12.6484C10.9662 12.8963 10.5556 13.0297 10.1343 13.0296C9.7125 13.0289 9.30162 12.8958 8.95961 12.649C8.61759 12.4022 8.3617 12.0543 8.22806 11.6542L7.72135 10.6167L7.11475 15.4715C7.33191 15.4218 7.5481 15.3696 7.76382 15.3127Z" fill="#008F57"/>
<path d="M15.6448 14.0068L14.96 13.0296L14.9504 12.991C14.7091 13.0414 14.4601 13.0425 14.2184 12.9942C13.9767 12.9458 13.7473 12.8491 13.544 12.7098C13.3406 12.5705 13.1676 12.3915 13.0353 12.1835C12.9029 11.9756 12.814 11.743 12.7739 11.4998L12.5471 10.6167L12.9781 14.0662C13.8652 13.9964 14.7555 13.9766 15.6448 14.0068Z" fill="#009E60"/>
<path d="M7.3912 13.2554L7.72129 10.6167L7.49448 11.4998C7.45438 11.743 7.36548 11.9756 7.23314 12.1835C7.10081 12.3915 6.92776 12.5705 6.72443 12.7098C6.5211 12.8491 6.29168 12.9458 6.04998 12.9942C5.80828 13.0425 5.55931 13.0414 5.31804 12.991L5.30839 13.0296L4.82581 13.7182C5.26115 13.8344 5.71674 13.8531 6.16015 13.7731C6.60356 13.6931 7.02389 13.5164 7.3912 13.2554Z" fill="#004A2D"/>
<path d="M7.72156 13.0296C7.72156 13.0296 8.20414 13.9948 10.1345 13.9948C12.0648 13.9948 12.5474 13.0296 12.5474 13.0296C12.6593 13.1136 12.7689 13.1874 12.8775 13.2554L12.5474 10.6167L12.0407 11.6542C11.9049 12.0535 11.6486 12.4009 11.3071 12.6484C10.9664 12.8963 10.5558 13.0297 10.1345 13.0296C9.71272 13.0289 9.30184 12.8958 8.95982 12.649C8.6178 12.4022 8.36191 12.0543 8.22827 11.6542L7.72156 10.6167L7.39148 13.2554C7.50006 13.1874 7.60961 13.1136 7.72156 13.0296Z" fill="#00613B"/>
<path d="M15.4426 13.7182L14.96 13.0296L14.9504 12.991C14.7091 13.0414 14.4601 13.0425 14.2184 12.9942C13.9767 12.9458 13.7473 12.8491 13.544 12.7098C13.3406 12.5705 13.1676 12.3915 13.0353 12.1835C12.9029 11.9756 12.814 11.743 12.7739 11.4998L12.5471 10.6167L12.8772 13.2554C13.2445 13.5164 13.6648 13.6931 14.1083 13.7731C14.5517 13.8531 15.0073 13.8344 15.4426 13.7182Z" fill="#007145"/>
<path d="M6.7728 18.1147C6.5446 18.506 6.23983 18.8472 5.8767 19.118C5.51358 19.3887 5.09957 19.5835 4.65945 19.6905C4.21933 19.7976 3.76214 19.8147 3.31523 19.741C2.86832 19.6672 2.44088 19.5041 2.05847 19.2614C2.16408 19.5786 2.34163 19.8672 2.57725 20.1044C2.68253 20.2096 2.79722 20.3049 2.91988 20.3891C3.27974 20.6253 3.70075 20.7511 4.13115 20.7511H4.20354C4.66581 20.7513 5.11642 20.6059 5.49147 20.3357C5.86653 20.0655 6.14699 19.684 6.29311 19.2454L6.75639 18.3382L6.7839 18.1244L6.7728 18.1147Z" fill="#00613B"/>
<path d="M13.422 17.6406C13.0051 18.1748 12.4685 18.6036 11.8555 18.8923C11.2425 19.1811 10.5702 19.3218 9.89288 19.3031C8.74385 19.3221 7.63121 18.9002 6.78361 18.1242L6.7561 18.338L6.95879 18.946C7.41241 20.3117 8.69125 20.7509 10.1342 20.7509C10.8086 20.7728 11.4791 20.6391 12.0934 20.36C12.3818 20.2196 12.6385 20.0218 12.8476 19.7786C13.0567 19.5355 13.2139 19.2521 13.3095 18.946L13.5122 18.338L13.4258 17.645L13.422 17.6406Z" fill="#008F57"/>
<path d="M13.426 17.645L13.5124 18.338L13.9757 19.2453C14.1218 19.6838 14.4023 20.0653 14.7773 20.3355C15.1524 20.6058 15.603 20.7511 16.0653 20.7509H16.1376C16.4267 20.7513 16.7131 20.6946 16.9802 20.5842C17.2474 20.4737 17.4901 20.3116 17.6945 20.1072C17.8989 19.9028 18.061 19.6601 18.1715 19.3929C18.2819 19.1258 18.3386 18.8394 18.3382 18.5503C18.3374 18.4208 18.3249 18.2916 18.3011 18.1643C17.8556 19.3032 16.9658 19.3032 16.1666 19.3032C15.0702 19.3032 14.0915 18.3636 13.426 17.645Z" fill="#009E60"/>
<path d="M5.039 21.7828C5.52091 21.8287 6.00011 21.8996 6.47468 21.9951L6.75602 18.3381L6.29275 19.2454C6.14663 19.684 5.86616 20.0654 5.4911 20.3357C5.11605 20.6059 4.66545 20.7512 4.20317 20.751H4.13078C3.70038 20.751 3.27937 20.6252 2.91951 20.3891L1.57214 22.1635C2.69243 21.8144 3.86964 21.6851 5.039 21.7828Z" fill="#004A2D"/>
<path d="M15.9077 22.8261C16.7928 22.6394 17.6175 22.2354 18.3076 21.6506L17.3487 20.3891C16.9889 20.6252 16.5678 20.751 16.1374 20.751H16.0651C15.6028 20.7512 15.1522 20.6059 14.7771 20.3357C14.4021 20.0654 14.1216 19.684 13.9755 19.2454L13.5122 18.3381L13.8717 23.0139C14.5554 23.03 15.2386 22.967 15.9077 22.8261Z" fill="#008F57"/>
<path d="M7.33035 22.1626C8.8635 22.4652 10.4082 22.7103 11.9631 22.8807C12.5963 22.9502 13.2362 23.0057 13.8732 23.0139L13.5122 18.3381L13.3095 18.9462C13.2139 19.2523 13.0567 19.5357 12.8476 19.7788C12.6384 20.022 12.3818 20.2198 12.0934 20.3601C11.479 20.6392 10.8086 20.773 10.1341 20.751C8.69122 20.751 7.41239 20.3119 6.95876 18.9462L6.75608 18.3381L6.47473 21.9951C6.76042 22.0492 7.04562 22.1061 7.33035 22.1626Z" fill="#00613B"/>
</svg>
