<svg width="97" height="22" viewBox="0 0 97 22" fill="none" xmlns="http://www.w3.org/2000/svg">
<path d="M16.67 15.6462H22.964V17.866H14.4297V3.80733H22.964V6.02712H16.7766V9.62107H22.4306V11.8409H16.7766V15.6462H16.67ZM31.7118 7.8241H34.0587L30.1116 17.866H27.5513L23.6041 7.8241H25.9511L28.8314 15.4348L31.6051 7.8241H31.7118ZM39.8194 18.0774C38.3259 18.0774 37.0457 17.5489 36.0856 16.5976C35.0188 15.5405 34.4854 14.3778 34.4854 12.8979C34.4854 11.418 35.0188 10.1496 36.0856 9.19825C37.1524 8.14121 38.4326 7.71839 39.8194 7.71839C41.3129 7.71839 42.5931 8.24691 43.6599 9.19825C44.7267 10.2553 45.1534 11.418 45.1534 12.8979C45.1534 14.3778 44.62 15.6462 43.6599 16.5976C42.5931 17.6546 41.4196 18.0774 39.8194 18.0774ZM37.5791 15.1177C38.2192 15.7519 38.966 16.069 39.8194 16.069C40.6728 16.069 41.4196 15.7519 42.0597 15.1177C42.6997 14.4835 43.0198 13.7435 43.0198 12.8979C43.0198 11.9466 42.6997 11.2066 42.0597 10.6781C41.4196 10.0439 40.6728 9.72678 39.8194 9.72678C38.966 9.72678 38.2192 10.0439 37.5791 10.6781C36.9391 11.3123 36.619 12.0523 36.619 12.8979C36.619 13.8492 36.9391 14.5892 37.5791 15.1177ZM47.1803 17.866V3.27881H49.3139V17.866H47.1803ZM58.7017 7.8241H60.8353V17.866H58.7017V16.5976C58.0616 17.6546 56.9948 18.1831 55.608 18.1831C54.4345 18.1831 53.4744 17.866 52.8343 17.1261C52.0875 16.3862 51.7675 15.4348 51.7675 14.0607V7.9298H53.9011V13.8492C53.9011 14.5892 54.1145 15.2234 54.5412 15.5405C54.9679 15.9633 55.5013 16.1747 56.248 16.1747C56.9948 16.1747 57.6349 15.9633 58.0616 15.4348C58.4883 15.012 58.8083 14.2721 58.8083 13.215V7.8241H58.7017ZM69.0496 9.93818H66.596V14.6949C66.596 15.1177 66.7026 15.4348 66.916 15.5405C67.1293 15.7519 67.3427 15.8576 67.7694 15.8576C68.0895 15.8576 68.6229 15.8576 69.1563 15.8576V17.7603C67.4494 17.9717 66.2759 17.866 65.5292 17.3375C64.7824 16.809 64.4624 15.9633 64.4624 14.6949V9.93818H62.6488V7.8241H64.4624V5.71001L66.596 5.07578V7.9298H69.0496V10.0439V9.93818ZM73.1034 5.92142C72.7834 6.23853 72.4633 6.34424 72.1433 6.34424C71.7166 6.34424 71.3965 6.23853 71.1832 5.92142C70.8631 5.6043 70.7565 5.28719 70.7565 4.97008C70.7565 4.54726 70.8631 4.23015 71.1832 4.01874C71.5032 3.70163 71.8232 3.59592 72.1433 3.59592C72.57 3.59592 72.89 3.70163 73.1034 4.01874C73.4234 4.33585 73.5301 4.65297 73.5301 4.97008C73.5301 5.3929 73.4234 5.71001 73.1034 5.92142ZM71.0765 17.866V7.8241H73.2101V17.866H71.0765ZM80.571 18.0774C79.0775 18.0774 77.7973 17.5489 76.8372 16.5976C75.7704 15.5405 75.237 14.3778 75.237 12.8979C75.237 11.418 75.7704 10.1496 76.8372 9.19825C77.904 8.14121 79.1841 7.71839 80.571 7.71839C82.0645 7.71839 83.3446 8.24691 84.4114 9.19825C85.4782 10.2553 85.9049 11.418 85.9049 12.8979C85.9049 14.3778 85.3715 15.6462 84.4114 16.5976C83.3446 17.6546 82.0645 18.0774 80.571 18.0774ZM78.3307 15.1177C78.9708 15.7519 79.7175 16.069 80.571 16.069C81.4244 16.069 82.1712 15.7519 82.8112 15.1177C83.4513 14.4835 83.7713 13.7435 83.7713 12.8979C83.7713 11.9466 83.4513 11.2066 82.8112 10.6781C82.1712 10.0439 81.4244 9.72678 80.571 9.72678C79.7175 9.72678 78.9708 10.0439 78.3307 10.6781C77.6906 11.3123 77.3706 12.0523 77.3706 12.8979C77.3706 13.8492 77.6906 14.5892 78.3307 15.1177ZM93.1591 7.61269C94.3326 7.61269 95.2927 7.9298 95.9328 8.66973C96.6796 9.40966 96.9996 10.361 96.9996 11.7352V17.866H94.866V11.9466C94.866 11.2066 94.6527 10.5724 94.2259 10.2553C93.7992 9.83248 93.2658 9.62107 92.5191 9.62107C91.7723 9.62107 91.1322 9.83248 90.7055 10.361C90.2788 10.7838 89.9588 11.5237 89.9588 12.5808V17.9717H87.8252V7.9298H89.9588V9.19825C90.5988 8.14121 91.6656 7.61269 93.0525 7.61269H93.1591Z" fill="#86B738"/>
<path fill-rule="evenodd" clip-rule="evenodd" d="M0.405985 0.0135904C-0.0277211 0.0135904 -0.0277211 0.332379 0.189132 0.651167C1.2734 1.92632 2.24924 3.09521 3.11665 4.15784C3.44193 4.58289 3.76721 5.00794 4.09249 5.32673C4.5262 5.85804 4.85148 6.38936 5.17676 6.92067H2.8998C3.11665 6.49562 3.44193 6.07057 3.87564 5.53925L2.8998 4.37036C0.948119 6.92067 0.189132 8.8334 0.0807055 10.5336C0.0807055 12.2338 0.948119 14.1465 2.8998 16.6968L3.87564 15.528C3.55036 14.9966 3.22508 14.5716 2.8998 14.1465H5.17676C4.85148 14.6779 4.5262 15.2092 4.09249 15.7405C3.76721 16.1655 3.55036 16.4843 3.11665 16.9094C2.24924 17.972 1.38183 19.0346 0.189132 20.416C-0.136148 20.7348 -0.0277211 21.0536 0.405985 21.0536C1.70711 21.1599 3.22508 18.9284 3.98406 18.0783C4.30934 17.6532 4.63462 17.3344 4.9599 16.9094C7.02001 14.2528 7.88742 12.2338 7.88742 10.5336C7.88742 8.8334 7.02001 6.81441 4.9599 4.15784C4.63462 3.83905 4.41777 3.414 3.98406 2.98895C3.22508 2.13885 1.59868 -0.198935 0.405985 0.0135904ZM5.17676 17.2282C5.93574 18.1845 6.80316 19.2472 7.88742 20.5223C8.2127 20.9474 7.99585 21.1599 7.67057 21.1599C6.47788 21.2661 5.06833 19.3534 4.20092 18.397L5.06833 17.2282H5.17676ZM1.70711 11.1712H6.36945C6.26102 11.7025 6.1526 12.2338 5.93574 12.7651H2.24924C2.03239 12.2338 1.81553 11.7025 1.81553 11.1712H1.70711ZM5.17676 3.94531C5.93574 2.98895 6.80316 1.92632 7.88742 0.651167C8.2127 0.226116 7.99585 0.0135904 7.67057 0.0135904C6.47788 -0.0926723 5.06833 1.82006 4.20092 2.77642L5.06833 3.94531H5.17676ZM1.70711 10.0023H6.36945C6.26102 9.47098 6.1526 8.93966 5.93574 8.40835H2.24924C2.03239 8.93966 1.81553 9.47098 1.81553 10.0023H1.70711Z" fill="#86B738"/>
</svg>
