<svg width="153" height="203" viewBox="0 0 153 203" fill="none" xmlns="http://www.w3.org/2000/svg">
<path d="M89.0234 155.277C89.0234 155.277 83.0977 130.715 86.7464 115.562C90.3951 100.436 96.1837 97.2632 95.6076 94.9382C95.0315 92.6407 92.1235 93.7074 91.1907 95.8409C90.258 97.9743 86.4172 102.569 82.9056 101.831C79.3941 101.092 78.4339 86.7053 75.8551 85.2556C73.2763 83.806 74.1816 90.4799 75.1692 96.2511C76.1568 102.022 71.2461 98.8222 68.1735 91.9022C65.1009 84.9821 63.2902 87.0062 62.961 87.9908C62.6318 88.9755 69.7098 101.311 69.1886 101.913C68.6673 102.515 59.7787 92.2578 58.9008 92.5586C58.0229 92.8595 56.5689 93.6527 58.6813 96.8802C60.7937 100.108 67.4602 105.523 67.0487 106.426C66.6372 107.329 61.123 102.405 59.0928 102.296C57.0901 102.187 57.8857 105.004 61.507 107.575C65.1009 110.146 73.9347 112.963 74.209 122.673C74.4834 132.41 71.9594 155.222 71.9594 155.222C71.9594 155.222 78.2144 163.756 88.9686 155.249L89.0234 155.277Z" fill="white"/>
<path fill-rule="evenodd" clip-rule="evenodd" d="M83.2901 90.0979C83.2901 90.0979 60.6844 56.9473 99.0647 21.1982C99.0647 21.1982 134.208 62.445 89.2433 90.4808C89.2433 90.4808 90.3132 63.8673 95.3611 53.0359C95.3611 53.0359 81.8361 76.6133 83.2901 90.0979Z" fill="white"/>
<path fill-rule="evenodd" clip-rule="evenodd" d="M98.5708 93.2976C98.5708 93.2976 112.452 64.1404 153 76.148C153 76.148 138.57 117.285 100.711 97.5645C100.711 97.5645 119.695 87.4717 129.297 86.5417C129.297 86.5417 107.35 86.7879 98.5708 93.2703V93.2976Z" fill="white"/>
<path fill-rule="evenodd" clip-rule="evenodd" d="M56.3222 93.8719C56.3222 93.8719 29.6014 112.608 0 81.9738C0 81.9738 33.1678 53.0081 56.5691 89.0579C56.5691 89.0579 34.8962 88.5383 26.0075 84.5996C26.0075 84.5996 45.376 95.2395 56.3497 93.8992L56.3222 93.8719Z" fill="white"/>
<path fill-rule="evenodd" clip-rule="evenodd" d="M64.0863 84.9825C64.0863 84.9825 29.4644 73.2211 37.777 26.3398C37.777 26.3398 85.9238 37.1439 68.6129 82.0011C68.6129 82.0011 54.8135 62.0889 52.5365 51.4763C52.5365 51.4763 55.6366 75.9837 64.0863 84.9551V84.9825Z" fill="white"/>
<path fill-rule="evenodd" clip-rule="evenodd" d="M117.308 66.3559C117.308 66.3559 116.348 44.6384 144.248 39.0586C144.248 39.0586 148.693 68.0517 119.942 68.2158C119.942 68.2158 128.035 56.263 133.439 52.6799C133.439 52.6799 120.463 59.7367 117.308 66.3559Z" fill="white"/>
<path fill-rule="evenodd" clip-rule="evenodd" d="M31.6043 67.2315C31.6043 67.2315 11.2482 70.4317 3.04541 44.885C3.04541 44.885 29.876 37.6914 33.0858 64.551C33.0858 64.551 20.9599 58.2327 17.0368 53.5556C17.0368 53.5556 25.0201 64.9613 31.6043 67.2315Z" fill="white"/>
<path fill-rule="evenodd" clip-rule="evenodd" d="M71.3836 41.3015C71.3836 41.3015 55.2524 24.1791 74.2093 0C74.2093 0 98.3239 20.6781 74.8677 40.9732C74.8677 40.9732 73.0571 25.492 74.9775 18.7635C74.9775 18.7635 69.2986 33.6429 71.3836 41.3015Z" fill="white"/>
<path fill-rule="evenodd" clip-rule="evenodd" d="M99.5587 106.618C99.5587 106.618 120.271 99.8074 133.22 125.081C133.22 125.081 106.417 137.17 98.4888 109.654C98.4888 109.654 112.233 114.167 117.144 118.407C117.144 118.407 106.829 107.876 99.5861 106.618H99.5587Z" fill="white"/>
<path fill-rule="evenodd" clip-rule="evenodd" d="M57.31 110.557C57.31 110.557 49.2444 131.919 19.9722 125.819C19.9722 125.819 27.7086 96.0056 55.5542 107.685C55.5542 107.685 42.7973 115.918 36.076 117.121C36.076 117.121 51.5214 115.672 57.3374 110.584L57.31 110.557Z" fill="white"/>
<path fill-rule="evenodd" clip-rule="evenodd" d="M57.31 110.557C57.31 110.557 49.2444 131.919 19.9722 125.819C19.9722 125.819 27.7086 96.0056 55.5542 107.685C55.5542 107.685 42.7973 115.918 36.076 117.121C36.076 117.121 51.5214 115.672 57.3374 110.584L57.31 110.557Z" fill="white"/>
<path d="M37.0931 181.307H36.2871V187.915H37.3675C38.8651 187.915 40.0084 187.63 40.7973 187.061C41.5861 186.48 41.9806 185.649 41.9806 184.568C41.9806 183.441 41.5918 182.616 40.8144 182.092C40.037 181.568 38.7966 181.307 37.0931 181.307ZM30.3535 201.524V176.764H36.7501C38.7165 176.764 40.2771 176.907 41.4318 177.191C42.5865 177.476 43.6097 177.954 44.5015 178.626C45.4275 179.297 46.1421 180.14 46.6451 181.153C47.1596 182.155 47.4168 183.219 47.4168 184.346C47.4168 186.85 46.5193 188.837 44.7244 190.305C42.9409 191.774 40.5172 192.508 37.4532 192.508C37.1331 192.508 36.893 192.508 36.733 192.508C36.5729 192.497 36.4243 192.485 36.2871 192.474V201.524H30.3535Z" fill="white"/>
<path d="M55.6655 201.524H50.2292V177.157L55.6655 176.423V201.524Z" fill="white"/>
<path d="M69.6591 190.049C69.339 189.867 69.0303 189.736 68.733 189.657C68.4472 189.577 68.1614 189.537 67.8756 189.537C66.8581 189.537 66.0006 189.964 65.3032 190.818C64.6058 191.66 64.2571 192.725 64.2571 194.011C64.2571 195.218 64.5601 196.225 65.166 197.033C65.7834 197.83 66.5322 198.229 67.4126 198.229C67.767 198.229 68.1271 198.138 68.4929 197.955C68.8702 197.762 69.2589 197.472 69.6591 197.085V190.049ZM75.0439 186.139V195.753C75.0439 196.959 75.0667 197.973 75.1125 198.792C75.1582 199.612 75.2268 200.312 75.3183 200.892L70.3279 202.259L69.8477 200.79C69.1732 201.291 68.5101 201.661 67.8584 201.9C67.2182 202.139 66.5437 202.259 65.8348 202.259C63.8456 202.259 62.1707 201.467 60.8102 199.885C59.4611 198.303 58.7866 196.333 58.7866 193.977C58.7866 191.495 59.5469 189.446 61.0674 187.829C62.588 186.213 64.5087 185.405 66.8295 185.405C67.3668 185.405 67.927 185.479 68.5101 185.627C69.0932 185.775 69.7391 186.002 70.4479 186.31L75.0439 186.139Z" fill="white"/>
<path d="M84.5444 201.524H79.1768V186.139H84.1329V188.717C84.956 187.704 85.8306 186.953 86.7567 186.463C87.6827 185.963 88.6888 185.712 89.7749 185.712C91.4098 185.712 92.6502 186.179 93.4962 187.112C94.3422 188.046 94.7653 189.412 94.7653 191.21V201.524H89.4319V192.713C89.4319 191.905 89.2661 191.296 88.9346 190.886C88.603 190.476 88.1114 190.271 87.4598 190.271C86.5223 190.271 85.802 190.584 85.299 191.21C84.796 191.837 84.5444 192.747 84.5444 193.943V201.524Z" fill="white"/>
<path d="M99.6013 196.35V190.186H97.3548V186.139H99.6013V181.529L105.089 180.794V186.139H108.742V190.186H105.089V196.726C105.089 198.115 105.278 199.122 105.655 199.748C106.032 200.363 106.741 200.932 107.781 201.456L101.676 201.866C100.91 201.502 100.373 200.961 100.064 200.244C99.7556 199.515 99.6013 198.217 99.6013 196.35Z" fill="white"/>
<path d="M111.108 200.824V196.589C112.469 197.455 113.526 198.041 114.281 198.348C115.035 198.644 115.733 198.792 116.373 198.792C116.933 198.792 117.385 198.673 117.728 198.434C118.071 198.183 118.242 197.859 118.242 197.46C118.242 197.119 118.122 196.834 117.882 196.606C117.642 196.379 117.23 196.162 116.647 195.958L114.658 195.257C113.355 194.813 112.366 194.193 111.691 193.396C111.017 192.588 110.68 191.637 110.68 190.545C110.68 188.996 111.223 187.755 112.309 186.822C113.395 185.877 114.841 185.405 116.647 185.405C117.482 185.405 118.362 185.524 119.288 185.763C120.226 185.991 121.266 186.35 122.409 186.839L121.741 190.579C121.055 189.998 120.306 189.543 119.494 189.213C118.682 188.882 117.922 188.717 117.213 188.717C116.687 188.717 116.259 188.843 115.927 189.093C115.596 189.332 115.43 189.64 115.43 190.015C115.43 190.334 115.521 190.59 115.704 190.784C115.899 190.966 116.322 191.165 116.973 191.381L118.825 192.047C120.277 192.559 121.312 193.18 121.929 193.908C122.558 194.637 122.873 195.588 122.873 196.76C122.873 198.456 122.312 199.8 121.192 200.79C120.071 201.769 118.545 202.259 116.613 202.259C115.676 202.259 114.75 202.139 113.835 201.9C112.932 201.672 112.023 201.314 111.108 200.824Z" fill="white"/>
<path d="M130.171 179.484V181.128H130.856C131.261 181.128 131.559 181.063 131.747 180.935C131.936 180.807 132.031 180.605 132.031 180.33C132.031 180.041 131.93 179.828 131.727 179.69C131.524 179.552 131.211 179.484 130.787 179.484H130.171ZM128.789 178.61H131.022C131.833 178.61 132.441 178.748 132.847 179.023C133.257 179.293 133.462 179.699 133.462 180.24C133.462 180.616 133.351 180.937 133.13 181.203C132.909 181.469 132.602 181.65 132.211 181.747L133.49 184.285H131.941L130.856 181.96H130.171V184.285H128.789V178.61ZM130.925 177.269C130.34 177.269 129.796 177.372 129.293 177.578C128.791 177.78 128.339 178.081 127.938 178.479C127.519 178.897 127.196 179.371 126.971 179.903C126.745 180.431 126.632 180.976 126.632 181.54C126.632 182.109 126.738 182.65 126.95 183.164C127.162 183.673 127.468 184.127 127.869 184.525C128.28 184.943 128.747 185.264 129.273 185.488C129.798 185.709 130.344 185.819 130.911 185.819C131.464 185.819 132.001 185.711 132.522 185.495C133.047 185.28 133.524 184.97 133.953 184.567C134.354 184.182 134.665 183.732 134.886 183.219C135.107 182.705 135.218 182.173 135.218 181.623C135.218 181.013 135.114 180.451 134.907 179.938C134.704 179.424 134.4 178.963 133.994 178.555C133.579 178.129 133.112 177.808 132.591 177.592C132.075 177.377 131.519 177.269 130.925 177.269ZM130.911 176.423C131.621 176.423 132.289 176.556 132.916 176.822C133.547 177.083 134.109 177.464 134.602 177.964C135.077 178.44 135.439 178.986 135.688 179.601C135.937 180.215 136.061 180.866 136.061 181.554C136.061 182.251 135.932 182.911 135.674 183.535C135.416 184.154 135.04 184.7 134.547 185.172C134.054 185.654 133.492 186.023 132.86 186.279C132.234 186.536 131.584 186.665 130.911 186.665C130.224 186.665 129.568 186.532 128.941 186.266C128.314 186 127.754 185.617 127.261 185.117C126.782 184.636 126.415 184.09 126.162 183.48C125.913 182.866 125.789 182.224 125.789 181.554C125.789 181.086 125.851 180.632 125.975 180.192C126.1 179.747 126.286 179.314 126.535 178.892C127.001 178.113 127.616 177.507 128.381 177.076C129.146 176.641 129.989 176.423 130.911 176.423Z" fill="white"/>
</svg>
