<svg width="21" height="21" viewBox="0 0 21 21" fill="none" xmlns="http://www.w3.org/2000/svg">
<mask id="path-1-inside-1_3761_1634" fill="white">
<path d="M6 1C6 0.447715 6.44772 0 7 0H20C20.5523 0 21 0.447715 21 1V14C21 14.5523 20.5523 15 20 15H7C6.44772 15 6 14.5523 6 14V1Z"/>
</mask>
<path d="M7 2H20V-2H7V2ZM19 1V14H23V1H19ZM20 13H7V17H20V13ZM8 14V1H4V14H8ZM7 13C7.55228 13 8 13.4477 8 14H4C4 15.6569 5.34315 17 7 17V13ZM19 14C19 13.4477 19.4477 13 20 13V17C21.6569 17 23 15.6569 23 14H19ZM20 2C19.4477 2 19 1.55228 19 1H23C23 -0.656854 21.6569 -2 20 -2V2ZM7 -2C5.34315 -2 4 -0.656855 4 1H8C8 1.55228 7.55228 2 7 2V-2Z" fill="#404040" mask="url(#path-1-inside-1_3761_1634)"/>
<mask id="path-3-inside-2_3761_1634" fill="white">
<path d="M0 7C0 6.44772 0.447715 6 1 6H14C14.5523 6 15 6.44772 15 7V20C15 20.5523 14.5523 21 14 21H1C0.447715 21 0 20.5523 0 20V7Z"/>
</mask>
<path d="M1 8H14V4H1V8ZM13 7V20H17V7H13ZM14 19H1V23H14V19ZM2 20V7H-2V20H2ZM1 19C1.55228 19 2 19.4477 2 20H-2C-2 21.6569 -0.656855 23 1 23V19ZM13 20C13 19.4477 13.4477 19 14 19V23C15.6569 23 17 21.6569 17 20H13ZM14 8C13.4477 8 13 7.55228 13 7H17C17 5.34315 15.6569 4 14 4V8ZM1 4C-0.656854 4 -2 5.34315 -2 7H2C2 7.55228 1.55228 8 1 8V4Z" fill="#404040" mask="url(#path-3-inside-2_3761_1634)"/>
<path d="M1 7L7 1M14 20L20 14M7 14L1 20M14 7L20 1" stroke="#404040" stroke-width="2"/>
</svg>
