<svg width="42" height="47" viewBox="0 0 42 47" fill="none" xmlns="http://www.w3.org/2000/svg">
<g filter="url(#filter0_d_1464:4847)">
<mask id="path-1-inside-1_1464:4847" fill="white">
<path fill-rule="evenodd" clip-rule="evenodd" d="M24.0173 39.7739C33.6314 38.3191 41 30.0201 41 20C41 8.9543 32.0457 0 21 0C9.9543 0 1 8.9543 1 20C1 30.0201 8.36863 38.3191 17.9827 39.7739L21 45L24.0173 39.7739Z"/>
</mask>
<path fill-rule="evenodd" clip-rule="evenodd" d="M24.0173 39.7739C33.6314 38.3191 41 30.0201 41 20C41 8.9543 32.0457 0 21 0C9.9543 0 1 8.9543 1 20C1 30.0201 8.36863 38.3191 17.9827 39.7739L21 45L24.0173 39.7739Z" fill="white"/>
<path d="M24.0173 39.7739L23.5684 36.8077L22.141 37.0237L21.4192 38.2739L24.0173 39.7739ZM17.9827 39.7739L20.5808 38.2739L19.859 37.0237L18.4316 36.8077L17.9827 39.7739ZM21 45L18.4019 46.5L21 51L23.5981 46.5L21 45ZM38 20C38 28.5143 31.7378 35.5715 23.5684 36.8077L24.4661 42.7401C35.525 41.0667 44 31.5258 44 20H38ZM21 3C30.3888 3 38 10.6112 38 20H44C44 7.29745 33.7025 -3 21 -3V3ZM4 20C4 10.6112 11.6112 3 21 3V-3C8.29745 -3 -2 7.29745 -2 20H4ZM18.4316 36.8077C10.2622 35.5715 4 28.5143 4 20H-2C-2 31.5258 6.47503 41.0667 17.5339 42.7401L18.4316 36.8077ZM23.5981 43.5L20.5808 38.2739L15.3846 41.2739L18.4019 46.5L23.5981 43.5ZM21.4192 38.2739L18.4019 43.5L23.5981 46.5L26.6154 41.2739L21.4192 38.2739Z" fill="#75B904" mask="url(#path-1-inside-1_1464:4847)"/>
</g>
<path d="M22.4733 28.5733C22.4733 28.5733 21.7766 25.7927 22.2066 24.0802C22.6368 22.3676 23.3172 22.008 23.2501 21.7468C23.1831 21.4857 22.839 21.6085 22.729 21.85C22.6189 22.0916 22.1686 22.6124 21.7548 22.5285C21.3409 22.4444 21.2297 20.8152 20.927 20.6524C20.6244 20.4896 20.7294 21.2425 20.8469 21.8953C20.9644 22.5481 20.3849 22.1847 20.0234 21.4018C19.6619 20.6189 19.4505 20.8483 19.4106 20.9591C19.3707 21.0699 20.2052 22.4665 20.1436 22.5334C20.0818 22.6004 19.0364 21.4422 18.935 21.4754C18.8333 21.5085 18.6601 21.6001 18.9099 21.9648C19.1596 22.3296 19.9437 22.9429 19.8938 23.0453C19.8438 23.1477 19.1953 22.5897 18.9588 22.5765C18.7223 22.5634 18.8183 22.883 19.2423 23.1743C19.6664 23.4655 20.7048 23.7835 20.7381 24.8842C20.7713 25.9848 20.4727 28.5689 20.4727 28.5689C20.4727 28.5689 21.21 29.5356 22.4735 28.5733L22.4733 28.5733Z" fill="#75B904"/>
<path fill-rule="evenodd" clip-rule="evenodd" d="M21.7989 21.1968C21.7989 21.1968 19.1382 17.4441 23.6553 13.3984C23.6553 13.3984 27.7907 18.0675 22.4991 21.2395C22.4991 21.2395 22.6243 18.2289 23.2181 17.0024C23.2181 17.0024 21.6272 19.6706 21.7989 21.1968V21.1968Z" fill="#75B904"/>
<path fill-rule="evenodd" clip-rule="evenodd" d="M23.5958 21.5588C23.5958 21.5588 25.2297 18.2581 29.9996 19.6191C29.9996 19.6191 28.3026 24.2747 23.8498 22.0422C23.8498 22.0422 26.0816 20.9003 27.2114 20.7959C27.2114 20.7959 24.6301 20.8236 23.5957 21.5588L23.5958 21.5588Z" fill="#75B904"/>
<path fill-rule="evenodd" clip-rule="evenodd" d="M18.6258 21.6244C18.6258 21.6244 15.4825 23.7434 12 20.2784C12 20.2784 15.9004 16.9996 18.6532 21.0788C18.6532 21.0788 16.1027 21.0195 15.0568 20.5729C15.0568 20.5729 17.3359 21.7775 18.6258 21.6244Z" fill="#75B904"/>
<path fill-rule="evenodd" clip-rule="evenodd" d="M19.4147 20.6287C19.4147 20.6287 15.3432 19.2977 16.319 13.9922C16.319 13.9922 21.9833 15.2159 19.9471 20.293C19.9471 20.293 18.3235 18.0403 18.0553 16.8387C18.0553 16.8387 18.4212 19.6113 19.4147 20.6287Z" fill="#75B904"/>
<path fill-rule="evenodd" clip-rule="evenodd" d="M25.8003 18.5102C25.8003 18.5102 25.686 16.0534 28.9697 15.4199C28.9697 15.4199 29.4923 18.7012 26.1103 18.7207C26.1103 18.7207 27.0617 17.3668 27.6991 16.9629C27.6991 16.9629 26.1734 17.7602 25.8003 18.5102V18.5102Z" fill="#75B904"/>
<path fill-rule="evenodd" clip-rule="evenodd" d="M15.716 18.6091C15.716 18.6091 13.323 18.9699 12.3574 16.0807C12.3574 16.0807 15.5152 15.2656 15.8897 18.3077C15.8897 18.3077 14.4638 17.5941 14.0015 17.0625C14.0015 17.0625 14.9419 18.3517 15.716 18.6091Z" fill="#75B904"/>
<path fill-rule="evenodd" clip-rule="evenodd" d="M20.3969 15.6742C20.3969 15.6742 18.5003 13.7356 20.7296 11C20.7296 11 23.5665 13.3397 20.8059 15.6377C20.8059 15.6377 20.5929 13.8848 20.8195 13.1234C20.8195 13.1234 20.1528 14.8072 20.397 15.6742H20.3969Z" fill="#75B904"/>
<path fill-rule="evenodd" clip-rule="evenodd" d="M23.7125 23.0679C23.7125 23.0679 26.1481 22.2981 27.6721 25.1583C27.6721 25.1583 24.5189 26.5279 23.585 23.4111C23.585 23.4111 25.2016 23.9233 25.7794 24.4025C25.7794 24.4025 24.5664 23.2096 23.7125 23.068V23.0679Z" fill="#75B904"/>
<path fill-rule="evenodd" clip-rule="evenodd" d="M18.7407 23.5133C18.7407 23.5133 17.7914 25.9304 14.3477 25.2405C14.3477 25.2405 15.2585 21.8649 18.532 23.1869C18.532 23.1869 17.0299 24.1175 16.24 24.2545C16.24 24.2545 18.0563 24.0901 18.7407 23.5133Z" fill="#75B904"/>
<path fill-rule="evenodd" clip-rule="evenodd" d="M18.7407 23.5133C18.7407 23.5133 17.7914 25.9304 14.3477 25.2405C14.3477 25.2405 15.2585 21.8649 18.532 23.1869C18.532 23.1869 17.0299 24.1175 16.24 24.2545C16.24 24.2545 18.0563 24.0901 18.7407 23.5133Z" fill="#75B904"/>
<defs>
<filter id="filter0_d_1464:4847" x="0" y="0" width="42" height="47" filterUnits="userSpaceOnUse" color-interpolation-filters="sRGB">
<feFlood flood-opacity="0" result="BackgroundImageFix"/>
<feColorMatrix in="SourceAlpha" type="matrix" values="0 0 0 0 0 0 0 0 0 0 0 0 0 0 0 0 0 0 127 0" result="hardAlpha"/>
<feOffset dy="1"/>
<feGaussianBlur stdDeviation="0.5"/>
<feColorMatrix type="matrix" values="0 0 0 0 0 0 0 0 0 0 0 0 0 0 0 0 0 0 0.1 0"/>
<feBlend mode="normal" in2="BackgroundImageFix" result="effect1_dropShadow_1464:4847"/>
<feBlend mode="normal" in="SourceGraphic" in2="effect1_dropShadow_1464:4847" result="shape"/>
</filter>
</defs>
</svg>
