<svg width="139" height="30" viewBox="0 0 139 30" fill="none" xmlns="http://www.w3.org/2000/svg">
<mask id="mask0_3482_1123" style="mask-type:alpha" maskUnits="userSpaceOnUse" x="0" y="0" width="139" height="30">
<path fill-rule="evenodd" clip-rule="evenodd" d="M0.250394 0.935711C-0.138276 0.457347 -0.0984117 0.0985706 0.539407 0.0288092L0.609168 0.00888067C2.04647 -0.160213 3.86392 2.12373 5.03315 3.59308C5.24214 3.85572 5.43043 4.09233 5.59213 4.28425C5.81193 4.56017 6.02076 4.81415 6.2217 5.05854C6.44897 5.33494 6.66616 5.59908 6.87773 5.86884C9.77781 9.62599 10.9837 12.4862 10.9837 14.9279C10.9339 17.3695 9.77781 20.2297 6.87773 23.9869C6.49238 24.4918 6.06385 25.02 5.59213 25.5715C5.50351 25.6858 5.40504 25.8151 5.29794 25.9558C4.20069 27.3974 2.19812 30.0284 0.609168 29.8468C-0.0286506 29.7771 -0.0685152 29.4183 0.320156 28.9399C1.07674 27.9829 1.79301 27.0939 2.46265 26.2628C3.12494 25.4409 3.7416 24.6755 4.30652 23.957C4.35268 23.8968 4.39863 23.8369 4.44436 23.7773C4.85275 23.2449 5.24259 22.7368 5.59213 22.2528C5.76681 21.997 5.94149 21.7471 6.11251 21.5024C6.48787 20.9654 6.84556 20.4536 7.14681 19.9606H4.04741C4.41615 20.6184 4.84468 21.2662 5.34298 21.9538L4.02748 23.648C1.31675 20.0603 0.190601 17.2997 0.190601 14.9279C0.230465 12.556 1.31675 9.7954 4.02748 6.20767L5.32305 7.92181C4.82475 8.64933 4.39622 9.29711 4.02748 9.915H7.07705C6.63855 9.19745 6.12032 8.44005 5.52237 7.62284C5.17278 7.13881 4.78289 6.63059 4.37444 6.09818C4.32877 6.03864 4.28287 5.97881 4.23676 5.91867C3.15048 4.44371 1.80508 2.8093 0.250394 0.935711ZM10.894 28.9599C9.46887 27.2358 8.21316 25.711 7.13684 24.3556L5.86121 25.9402C5.93968 26.0379 6.02235 26.1418 6.10877 26.2503C7.27344 27.7134 9.12058 30.0338 10.605 29.8668C11.0833 29.807 11.3923 29.5678 10.894 28.9599ZM8.80115 15.7949H2.3532C2.45796 16.5905 2.6796 17.3662 3.01095 18.097H8.1434C8.46581 17.3629 8.68708 16.5885 8.80115 15.7949ZM5.86121 4.01518L7.13684 5.56986V5.59975C8.21316 4.24439 9.4589 2.71961 10.894 0.995504C11.3923 0.387583 11.0833 0.148398 10.605 0.0886022C9.12058 -0.0783928 7.27344 2.24197 6.10877 3.70502C6.02235 3.81358 5.93969 3.91742 5.86121 4.01518ZM3.01095 11.8584C2.6796 12.5892 2.45796 13.3649 2.3532 14.1605H8.80115C8.68804 13.3655 8.46324 12.5905 8.13343 11.8584H3.01095ZM33.6561 22.5022H24.8163V22.4823V17.0907H32.7891V13.9813H24.8163V8.84889H33.4967V5.70963H21.5376V25.6415H33.6561V22.5022ZM49.482 11.3802H46.1334L42.1471 22.2132L38.1607 11.3802H34.7922L40.3532 25.6415H43.921L49.482 11.3802ZM54.695 25.4721C55.6116 25.8456 56.5947 26.0287 57.5843 26.0102C58.5755 26.0295 59.5602 25.8468 60.4786 25.4733C61.3969 25.0998 62.2296 24.5433 62.926 23.8376C63.637 23.1469 64.1978 22.3168 64.5733 21.3994C64.9489 20.482 65.1311 19.4969 65.1085 18.5059C65.113 17.0144 64.6742 15.5553 63.8477 14.3137C63.0212 13.0722 61.8445 12.1043 60.4668 11.5329C59.0891 10.9616 57.5727 10.8125 56.1101 11.1048C54.6476 11.397 53.3049 12.1172 52.2525 13.1741C50.8418 14.59 50.0498 16.5072 50.0498 18.5059C50.0498 20.5045 50.8418 22.4218 52.2525 23.8376C52.9474 24.5425 53.7784 25.0986 54.695 25.4721ZM57.5793 23.0213C56.3972 23.0213 55.2618 22.5597 54.4151 21.7348C53.5894 20.8645 53.129 19.7106 53.129 18.5108C53.129 17.3111 53.5894 16.1572 54.4151 15.2869C55.2618 14.462 56.3972 14.0004 57.5793 14.0004C58.7614 14.0004 59.8967 14.462 60.7435 15.2869C61.5692 16.1572 62.0296 17.3111 62.0296 18.5108C62.0296 19.7106 61.5692 20.8645 60.7435 21.7348C59.8967 22.5597 58.7614 23.0213 57.5793 23.0213ZM67.899 4.82266V25.6415H70.9785V4.82266H67.899ZM87.2329 11.3802H84.1534L84.1335 11.4002V19.044C84.1798 19.5993 84.1155 20.1582 83.9445 20.6885C83.7734 21.2188 83.4989 21.7099 83.1369 22.1335C82.792 22.4709 82.3812 22.7336 81.9303 22.905C81.4793 23.0765 80.9978 23.1531 80.5158 23.13C80.0879 23.1518 79.66 23.0872 79.2576 22.9399C78.8552 22.7927 78.4866 22.5658 78.1739 22.273C77.8753 21.9421 77.6464 21.5546 77.5009 21.1334C77.3553 20.7122 77.2961 20.266 77.3267 19.8214V11.3802H74.2373V20.1403C74.1532 21.7192 74.6978 23.2672 75.7521 24.4456C76.2709 24.9697 76.8935 25.3797 77.58 25.6491C78.2665 25.9186 79.0017 26.0416 79.7385 26.0102C80.603 26.0713 81.4681 25.9002 82.2443 25.5147C83.0205 25.1293 83.6796 24.5434 84.1534 23.8177V25.6415H87.2329V11.3802ZM95.2455 14.37H98.7834L98.8232 14.36V11.3703H95.2853V7.3839L92.2059 8.30077V11.4002H89.5848V14.3899H92.2059V21.2266C92.2059 23.0703 92.7241 24.3658 93.7506 25.0634C94.7771 25.761 96.4713 25.9604 98.8232 25.6813V22.9108C98.1593 22.9461 97.494 22.9461 96.8301 22.9108C96.3969 22.9101 95.9776 22.7586 95.6441 22.4823C95.4971 22.3063 95.3862 22.103 95.3177 21.8841C95.2494 21.6653 95.2248 21.435 95.2455 21.2066V14.37ZM103.871 9.11243C104.11 9.013 104.325 8.86563 104.504 8.67947C104.691 8.50066 104.839 8.28559 104.941 8.04742C105.042 7.80924 105.093 7.55295 105.092 7.29421C105.093 7.03644 105.042 6.78109 104.943 6.54319C104.843 6.3053 104.698 6.08966 104.514 5.90895C104.141 5.54374 103.64 5.33918 103.119 5.33918C102.597 5.33918 102.096 5.54374 101.723 5.90895C101.463 6.18914 101.289 6.53828 101.222 6.91472C101.154 7.29116 101.197 7.679 101.344 8.03199C101.491 8.38498 101.736 8.6882 102.051 8.9055C102.366 9.12279 102.736 9.24499 103.119 9.2575C103.377 9.26125 103.633 9.21187 103.871 9.11243ZM101.584 11.3802V25.6215L104.663 25.6415V11.3802H101.584ZM112.069 25.4522C112.985 25.8257 113.968 26.0088 114.958 25.9903C115.949 26.0096 116.934 25.8269 117.852 25.4534C118.771 25.0799 119.603 24.5233 120.3 23.8177C121.011 23.1269 121.572 22.2969 121.947 21.3794C122.323 20.462 122.505 19.477 122.482 18.4859C122.487 16.9945 122.048 15.5353 121.221 14.2938C120.395 13.0523 119.218 12.0844 117.841 11.513C116.463 10.9417 114.946 10.7926 113.484 11.0848C112.021 11.377 110.679 12.0973 109.626 13.1542C108.216 14.57 107.424 16.4873 107.424 18.4859C107.424 20.4846 108.216 22.4018 109.626 23.8177C110.321 24.5226 111.152 25.0787 112.069 25.4522ZM114.953 23.0014C113.771 23.0014 112.636 22.5398 111.789 21.7149C110.963 20.8446 110.503 19.6906 110.503 18.4909C110.503 17.2912 110.963 16.1372 111.789 15.2669C112.636 14.4421 113.771 13.9805 114.953 13.9805C116.135 13.9805 117.271 14.4421 118.117 15.2669C118.943 16.1372 119.403 17.2912 119.403 18.4909C119.403 19.6906 118.943 20.8446 118.117 21.7149C117.271 22.5398 116.135 23.0014 114.953 23.0014ZM134.937 11.3491C134.25 11.0795 133.514 10.9577 132.777 10.9916C131.914 10.9341 131.051 11.109 130.278 11.4981C129.505 11.8872 128.85 12.4762 128.382 13.204V11.3802H125.303V25.6116H128.382V17.9677C128.291 16.8434 128.65 15.729 129.379 14.8683C129.724 14.5314 130.135 14.269 130.586 14.0976C131.037 13.9261 131.518 13.8493 132 13.8717C132.428 13.8476 132.857 13.9112 133.259 14.0585C133.662 14.2059 134.03 14.434 134.342 14.7288C134.64 15.0596 134.869 15.4472 135.015 15.8684C135.16 16.2896 135.219 16.7358 135.189 17.1804V25.6215H138.268V16.8615C138.355 15.2839 137.814 13.7361 136.763 12.5562C136.246 12.03 135.624 11.6187 134.937 11.3491Z" fill="url(#paint0_linear_3482_1123)"/>
</mask>
<g mask="url(#mask0_3482_1123)">
<rect x="-376.711" y="-454.588" width="601.362" height="660.163" fill="#FE8947"/>
<rect x="-376.711" y="-454.588" width="601.362" height="660.163" fill="url(#paint1_linear_3482_1123)"/>
<g style="mix-blend-mode:hue">
<g filter="url(#filter0_bf_3482_1123)">
<ellipse cx="-76.0305" cy="-57.9276" rx="300.681" ry="141.817" fill="#DC3618"/>
</g>
<g filter="url(#filter1_f_3482_1123)">
<ellipse cx="-47.3735" cy="-252.552" rx="182.379" ry="147.395" transform="rotate(-30 -47.3735 -252.552)" fill="#38D0D0" fill-opacity="0.7"/>
</g>
<g filter="url(#filter2_bf_3482_1123)">
<circle cx="64.1299" cy="-0.377505" r="124.427" transform="rotate(-17.2484 64.1299 -0.377505)" fill="#DC3618"/>
</g>
<g filter="url(#filter3_bf_3482_1123)">
<circle cx="7.79874" cy="9.34808" r="124.427" transform="rotate(-17.2484 7.79874 9.34808)" fill="#0071BD" fill-opacity="0.7"/>
</g>
<g filter="url(#filter4_bf_3482_1123)">
<ellipse cx="-36.7469" cy="42.6284" rx="171.465" ry="112.91" fill="#F0C400" fill-opacity="0.3"/>
</g>
<g filter="url(#filter5_bf_3482_1123)">
<circle cx="-9.9581" cy="-133.951" r="124.427" transform="rotate(-17.2484 -9.9581 -133.951)" fill="#F49343" fill-opacity="0.4"/>
</g>
</g>
<g style="mix-blend-mode:overlay">
<rect x="-376.711" y="-364.655" width="601.362" height="517.359" fill="#FE8947"/>
</g>
</g>
<defs>
<filter id="filter0_bf_3482_1123" x="-436.21" y="-259.243" width="720.359" height="402.631" filterUnits="userSpaceOnUse" color-interpolation-filters="sRGB">
<feFlood flood-opacity="0" result="BackgroundImageFix"/>
<feGaussianBlur in="BackgroundImage" stdDeviation="9.91649"/>
<feComposite in2="SourceAlpha" operator="in" result="effect1_backgroundBlur_3482_1123"/>
<feBlend mode="normal" in="SourceGraphic" in2="effect1_backgroundBlur_3482_1123" result="shape"/>
<feGaussianBlur stdDeviation="29.7495" result="effect2_foregroundBlur_3482_1123"/>
</filter>
<filter id="filter1_f_3482_1123" x="-320.872" y="-508.602" width="546.997" height="512.101" filterUnits="userSpaceOnUse" color-interpolation-filters="sRGB">
<feFlood flood-opacity="0" result="BackgroundImageFix"/>
<feBlend mode="normal" in="SourceGraphic" in2="BackgroundImageFix" result="shape"/>
<feGaussianBlur stdDeviation="49.5824" result="effect1_foregroundBlur_3482_1123"/>
</filter>
<filter id="filter2_bf_3482_1123" x="-119.829" y="-184.337" width="367.918" height="367.919" filterUnits="userSpaceOnUse" color-interpolation-filters="sRGB">
<feFlood flood-opacity="0" result="BackgroundImageFix"/>
<feGaussianBlur in="BackgroundImage" stdDeviation="9.91649"/>
<feComposite in2="SourceAlpha" operator="in" result="effect1_backgroundBlur_3482_1123"/>
<feBlend mode="normal" in="SourceGraphic" in2="effect1_backgroundBlur_3482_1123" result="shape"/>
<feGaussianBlur stdDeviation="29.7495" result="effect2_foregroundBlur_3482_1123"/>
</filter>
<filter id="filter3_bf_3482_1123" x="-176.16" y="-174.611" width="367.918" height="367.919" filterUnits="userSpaceOnUse" color-interpolation-filters="sRGB">
<feFlood flood-opacity="0" result="BackgroundImageFix"/>
<feGaussianBlur in="BackgroundImage" stdDeviation="9.91649"/>
<feComposite in2="SourceAlpha" operator="in" result="effect1_backgroundBlur_3482_1123"/>
<feBlend mode="normal" in="SourceGraphic" in2="effect1_backgroundBlur_3482_1123" result="shape"/>
<feGaussianBlur stdDeviation="29.7495" result="effect2_foregroundBlur_3482_1123"/>
</filter>
<filter id="filter4_bf_3482_1123" x="-267.71" y="-129.78" width="461.927" height="344.817" filterUnits="userSpaceOnUse" color-interpolation-filters="sRGB">
<feFlood flood-opacity="0" result="BackgroundImageFix"/>
<feGaussianBlur in="BackgroundImage" stdDeviation="9.91649"/>
<feComposite in2="SourceAlpha" operator="in" result="effect1_backgroundBlur_3482_1123"/>
<feBlend mode="normal" in="SourceGraphic" in2="effect1_backgroundBlur_3482_1123" result="shape"/>
<feGaussianBlur stdDeviation="29.7495" result="effect2_foregroundBlur_3482_1123"/>
</filter>
<filter id="filter5_bf_3482_1123" x="-193.917" y="-317.91" width="367.918" height="367.919" filterUnits="userSpaceOnUse" color-interpolation-filters="sRGB">
<feFlood flood-opacity="0" result="BackgroundImageFix"/>
<feGaussianBlur in="BackgroundImage" stdDeviation="9.91649"/>
<feComposite in2="SourceAlpha" operator="in" result="effect1_backgroundBlur_3482_1123"/>
<feBlend mode="normal" in="SourceGraphic" in2="effect1_backgroundBlur_3482_1123" result="shape"/>
<feGaussianBlur stdDeviation="29.7495" result="effect2_foregroundBlur_3482_1123"/>
</filter>
<linearGradient id="paint0_linear_3482_1123" x1="1.14848" y1="0.766034" x2="40.8712" y2="78.2688" gradientUnits="userSpaceOnUse">
<stop stop-color="#75B904"/>
<stop offset="1" stop-color="#E5E927"/>
</linearGradient>
<linearGradient id="paint1_linear_3482_1123" x1="-76.0305" y1="-454.588" x2="-76.0305" y2="205.576" gradientUnits="userSpaceOnUse">
<stop stop-color="#E9009A"/>
<stop offset="1" stop-color="#56FFF5"/>
</linearGradient>
</defs>
</svg>
