<svg width="48" height="62" viewBox="0 0 48 62" fill="none" xmlns="http://www.w3.org/2000/svg">
<path d="M18.1268 14.7872C16.6722 16.1612 15.6428 17.924 15.161 19.8661C14.7282 21.8021 14.915 23.8252 15.6949 25.6493L14.6939 24.2776C14.0785 23.4694 13.3074 22.3425 12.5586 21.2155L10.4751 18.1163C10.186 17.6936 9.96356 17.3303 9.80785 17.0783L9.57059 16.6779C11.0656 15.2506 12.1445 13.4438 12.692 11.4508C12.9375 10.5126 13.04 9.54274 12.996 8.57398C12.9828 7.57034 12.8356 6.57296 12.5586 5.60824C11.0002 6.84877 9.83172 8.51146 9.19246 10.3979C8.64494 12.2952 8.68371 14.3137 9.30368 16.1885L7.70959 13.6083C7.31663 12.9559 6.90884 12.3182 6.63451 11.8215L6.18223 10.9911C6.3388 8.96071 5.92538 6.92696 4.98852 5.11889C4.06542 3.29004 2.63735 1.76418 0.873544 0.722168C0.518859 2.77274 0.77676 4.88238 1.61498 6.78712C2.5671 8.63844 4.06242 10.1545 5.90048 11.1319L6.14516 11.5916C6.30086 11.8808 6.5307 12.296 6.83469 12.7779L9.0071 16.3294C9.74854 17.6343 10.6383 18.8799 11.2314 19.8216L12.2842 21.3934C10.7946 20.0565 8.97886 19.1359 7.02005 18.7242C5.04042 18.3197 2.98743 18.4711 1.08856 19.1617C1.83628 19.9939 2.69443 20.7199 3.6391 21.3193C4.52751 21.8542 5.49641 22.2423 6.50846 22.4685C8.55479 22.9079 10.6871 22.7006 12.6105 21.8754L13.5595 23.2841L15.7838 26.3091C17.3631 28.5334 19.061 30.654 19.061 30.654C18.2569 30.0239 17.3716 29.5051 16.4289 29.1118C15.5468 28.7174 14.6131 28.4503 13.6559 28.3184C11.6461 28.0754 9.60802 28.3856 7.76149 29.2156C9.29384 30.7154 11.2415 31.7203 13.3519 32.0998C15.4276 32.3941 17.5436 32.0474 19.4169 31.1062L20.4623 32.4482C21.0777 33.2638 21.9452 34.3092 22.8126 35.3547L25.1927 38.2388L26.3122 39.5289C24.6904 38.3342 22.7629 37.6241 20.7536 37.481C18.7443 37.338 16.7356 37.7679 14.9608 38.7208C16.5816 40.1105 18.5742 40.9946 20.6921 41.2639C22.7779 41.4521 24.8713 40.9967 26.6904 39.959L27.8025 41.2491C28.4624 41.9905 29.3595 43.0434 30.2863 44.0443L32.7998 46.8173L33.9638 48.0555C32.2924 46.9356 30.3367 46.3144 28.3254 46.2646C26.314 46.2147 24.33 46.7381 22.605 47.7737C26.3122 50.5541 30.5384 50.7839 34.3568 48.4707L36.3439 50.5763C37.5598 51.8071 39.1539 53.4828 40.7925 55.0991C42.4311 56.7154 44.0919 58.3318 45.3597 59.5477C46.6276 60.7637 47.4802 61.5125 47.4802 61.5125L47.673 61.2975C47.673 61.2975 45.2485 59.1103 42.9204 56.8489C41.7415 55.7145 40.5997 54.5504 39.7248 53.6904L38.2938 52.2075C39.4642 50.497 40.1227 48.4883 40.1919 46.4169C40.2333 44.374 39.6822 42.3628 38.6052 40.6263C37.3619 42.1917 36.6249 44.0988 36.4924 46.0936C36.36 48.0884 36.8383 50.0762 37.8638 51.7923C37.8638 51.7923 35.9583 49.8572 34.1121 47.8627C33.1705 46.884 32.2585 45.8756 31.5764 45.1194L30.4346 43.8589C31.6856 42.2256 32.4292 40.2606 32.5729 38.2083C32.7165 36.1559 32.254 34.1065 31.2428 32.3148C29.9362 33.8271 29.1219 35.7019 28.9086 37.6891C28.6953 39.6762 29.0931 41.6812 30.0491 43.4363L28.9147 42.1685L26.4679 39.3436C25.5634 38.3278 24.7033 37.2824 24.0583 36.4891L22.9758 35.1767C24.2838 33.5775 25.1162 31.643 25.378 29.5937C25.6199 27.5759 25.2641 25.5316 24.3548 23.7141C23.0136 25.1892 22.1256 27.0193 21.7969 28.9857C21.4874 30.9488 21.7876 32.9596 22.6569 34.7467L21.6115 33.4343L19.3131 30.4686C17.6078 28.3407 16.0359 26.1238 16.0359 26.1238C17.4342 24.6029 18.3771 22.7198 18.757 20.689C19.0993 18.7014 18.8811 16.6577 18.1268 14.7872Z" fill="#91B31E"/>
</svg>
