<svg width="15" height="15" viewBox="0 0 15 15" fill="none" xmlns="http://www.w3.org/2000/svg">
<path d="M5 12.5V13C5.13261 13 5.25979 12.9474 5.35355 12.8536L5 12.5ZM2.5 12.5H2C2 12.7762 2.22386 13 2.5 13V12.5ZM2.5 10L2.14645 9.64648C2.05268 9.74024 2 9.86742 2 10H2.5ZM9.55806 2.94197L9.91161 3.29552V3.29552L9.55806 2.94197ZM10.4419 2.94197L10.0884 3.29552L10.0884 3.29552L10.4419 2.94197ZM12.0581 4.55809L12.4116 4.20453V4.20453L12.0581 4.55809ZM12.0581 5.44197L11.7045 5.08842L12.0581 5.44197ZM5 12H2.5V13H5V12ZM3 12.5V10H2V12.5H3ZM2.85355 10.3536L9.91161 3.29552L9.2045 2.58842L2.14645 9.64648L2.85355 10.3536ZM10.0884 3.29552L11.7045 4.91164L12.4116 4.20453L10.7955 2.58842L10.0884 3.29552ZM11.7045 5.08842L4.64645 12.1465L5.35355 12.8536L12.4116 5.79552L11.7045 5.08842ZM11.7045 4.91164C11.7533 4.96045 11.7533 5.0396 11.7045 5.08842L12.4116 5.79552C12.851 5.35618 12.851 4.64387 12.4116 4.20453L11.7045 4.91164ZM9.91161 3.29552C9.96043 3.24671 10.0396 3.24671 10.0884 3.29552L10.7955 2.58842C10.3562 2.14908 9.64384 2.14908 9.2045 2.58842L9.91161 3.29552Z" fill="white"/>
<path d="M7.5 5L10 7.5" stroke="white" stroke-linecap="round" stroke-linejoin="round"/>
</svg>
