<svg width="61" height="78" viewBox="0 0 61 78" fill="none" xmlns="http://www.w3.org/2000/svg">
<path d="M45.8215 56.9201L50.1886 49.9135C48.53 43.0829 45.9483 36.5101 42.5147 30.3766C39.6602 25.3349 36.1166 20.7157 31.9863 16.6527L26.0919 20.7899C26.0919 20.7899 26.8334 19.1142 27.6934 17.446L29.3172 14.1392C25.1836 10.4645 20.6757 7.23388 15.8675 4.50052C13.7396 3.32905 11.8786 2.35035 10.1436 1.58667C8.71093 0.926458 7.22215 0.395459 5.69501 0C4.31766 2.05467 3.25553 4.30388 2.54391 6.67293C2.0037 8.31616 1.58247 9.99615 1.28347 11.6999C0.917944 13.6604 0.670354 15.6411 0.542036 17.6314L4.24922 19.1142L7.90449 20.5452L4.19732 20.6861L0.490135 20.7973C0.463944 33.1577 4.40371 45.2005 11.7303 55.1554C12.8869 56.7495 14.0658 58.2547 15.2818 59.6041L20.4718 59.2778L25.6619 58.9219L19.1373 63.6894C23.4914 67.9433 28.3905 71.6008 33.7065 74.5663C35.6861 75.6636 37.3321 76.4347 38.4887 76.9463C39.6454 77.4579 40.3201 77.6877 40.3201 77.6877L46.4295 73.4541L52.539 69.2205C52.539 69.2205 52.539 68.835 52.539 68.0713C52.539 67.3076 52.539 66.2177 52.4574 64.8164C52.2282 61.0051 51.7327 57.2145 50.9745 53.4724L45.8215 56.9201Z" fill="#91B31E"/>
<path d="M48.2832 72.253C45.9773 68.8794 40.3053 60.5308 33.3581 49.7355C26.4108 38.9402 18.1438 25.7056 10.7813 12.3301C16.1642 26.625 23.5118 40.6085 29.9919 51.7893C36.4721 62.9702 42.1144 71.4151 44.4796 74.8776L46.3777 73.5653L48.2832 72.253Z" fill="white"/>
<path d="M54.4371 63.9858L58.9969 61.2425C60.0534 56.8213 60.495 52.2754 60.3093 47.7335C60.1371 43.977 59.4383 40.2632 58.2332 36.701L53.6363 37.3905L55.527 35.9076L57.4251 34.4247C56.0984 31.0917 54.4102 27.9142 52.3907 24.9492C51.0902 22.9341 49.5268 21.1015 47.7419 19.4996C45.7919 20.5451 42.5519 23.5256 39.7789 28.2486L41.4842 30.1467L43.1969 32.0077L40.9726 31.0364L38.7854 30.0354C35.7948 35.9443 34.4503 42.5493 34.8928 49.1571C35.0562 51.6806 35.4458 54.1843 36.0569 56.6382L42.2182 59.2851L37.0726 60.1081C38.3341 63.8228 40.0791 67.3552 42.2627 70.6143C43.0709 71.8302 43.7901 72.757 44.3016 73.3872C44.8132 74.0174 45.1246 74.3585 45.1246 74.3585L49.8772 73.7357L54.6298 73.1055C55.1012 72.2843 55.527 71.4378 55.9051 70.5698C56.9029 68.3159 57.7403 65.9943 58.4112 63.6225L54.4371 63.9858Z" fill="#BCE13E"/>
<path d="M51.331 73.5056C51.0047 70.8958 50.2114 64.4305 49.3884 56.1931C48.5654 47.9557 47.6683 37.9241 47.2308 28.0927C46.4118 37.5018 46.2879 46.9585 46.8601 56.3859C47.2976 64.7196 48.0464 71.2146 48.3875 73.8986L49.8703 73.7058L51.331 73.5056Z" fill="white"/>
</svg>
