<svg width="64" height="53" viewBox="0 0 64 53" fill="none" xmlns="http://www.w3.org/2000/svg">
<path d="M14.8279 41.7513C14.8279 41.7513 2.80924 35.8198 0.740631 22.726C-1.32798 9.63228 19.499 4.70173 28.1738 26.3368C28.1738 26.3368 26.6093 2.90004 40.882 0.342085C55.1546 -2.21587 52.8488 26.2924 48.5188 30.8299C48.5188 30.8299 54.5096 26.4851 60.3818 30.0885C66.2539 33.6919 64.3633 47.8163 45.4047 51.5902C26.4462 55.3641 14.8279 41.7513 14.8279 41.7513Z" fill="#FFD200"/>
<path d="M27.9292 45.3768C24.5928 38.0143 18.5427 30.1328 18.4834 30.0513L18.817 29.7992C18.8763 29.8808 24.9561 37.7919 28.3074 45.1988L27.9292 45.3768Z" fill="white"/>
<path d="M42.828 15.283L37.8494 44.1058L38.2586 44.1765L43.2371 15.3536L42.828 15.283Z" fill="white"/>
<path d="M50.4244 44.1462C50.2835 39.364 58.2762 31.653 58.6173 31.3342L58.9065 31.6308C58.8249 31.7124 50.7062 39.5345 50.8396 44.1314L50.4244 44.1462Z" fill="white"/>
</svg>
