<svg width="36" height="42" viewBox="0 0 36 42" fill="none" xmlns="http://www.w3.org/2000/svg">
<path d="M11.0307 19.8882L1.1307 29.7882L0.378297 27.0558C0.312985 26.8081 0.279714 26.553 0.279297 26.2968C0.279193 25.9155 0.354345 25.5379 0.500445 25.1857C0.646546 24.8334 0.860721 24.5135 1.1307 24.2442C1.54111 23.8685 2.04641 23.6121 2.59197 23.5028C3.13753 23.3934 3.7026 23.4353 4.2261 23.6238C4.32289 23.661 4.42602 23.6789 4.5297 23.6766C4.71778 23.6759 4.89946 23.6082 5.04223 23.4858C5.18499 23.3633 5.27952 23.1941 5.30889 23.0083C5.33827 22.8225 5.30057 22.6324 5.20255 22.4718C5.10453 22.3113 4.95258 22.1909 4.7739 22.1322C4.16268 21.9675 3.52427 21.9295 2.89781 22.0202C2.27135 22.111 1.67002 22.3288 1.1307 22.6602L1.9227 20.2842C3.2163 18.984 6.1071 19.8156 7.1169 20.1588C7.17854 20.1799 7.24315 20.191 7.3083 20.1918C7.47219 20.1901 7.62877 20.1237 7.7439 20.007C7.81234 19.9394 7.86388 19.8566 7.89433 19.7653C7.92477 19.6741 7.93327 19.5769 7.91912 19.4818C7.90498 19.3866 7.86859 19.2961 7.81291 19.2177C7.75724 19.1392 7.68385 19.075 7.5987 19.0302C6.42486 18.5527 5.16992 18.3062 3.9027 18.3042C3.9027 18.3042 8.2587 14.7402 10.2387 16.7202C12.2187 18.7002 11.0307 19.8882 11.0307 19.8882Z" fill="#009E60"/>
<path d="M16.7796 26.9303C16.3235 26.2532 16.0925 25.4495 16.1196 24.6335C16.1154 24.1453 16.1664 23.6583 16.2714 23.1815C16.363 22.7832 16.5589 22.4165 16.839 22.1189C17.1426 21.7669 17.5565 21.5283 18.0132 21.442C18.47 21.3557 18.9425 21.4268 19.3536 21.6437C19.5486 21.7282 19.7182 21.8621 19.8455 22.0323C19.9728 22.2025 20.0535 22.403 20.0796 22.6139C20.0796 22.6139 22.7196 21.2675 22.7196 23.9603C22.7196 26.6531 18.0996 27.9995 18.0996 27.9995C17.5641 27.7804 17.1051 27.4086 16.7796 26.9303Z" fill="#008F57"/>
<path d="M18.7593 10.8395C18.7634 11.024 18.8203 11.2035 18.9232 11.3567C19.0262 11.5099 19.1708 11.6305 19.3401 11.7041C19.9331 11.9831 20.4384 12.419 20.8014 12.9646C21.1643 13.5102 21.3711 14.1447 21.3993 14.7995C21.3817 15.324 21.2606 15.8399 21.0429 16.3175C21.0099 16.3835 20.9769 16.4495 20.9373 16.5155C20.6369 17.0348 20.2042 17.4652 19.6833 17.7629L16.7793 19.4195V2.91945C16.7793 2.91945 16.7793 0.939453 20.0793 0.939453C23.3793 0.939453 24.0393 7.53945 24.0393 7.53945C24.0393 7.53945 22.1385 5.63865 20.3499 5.06445C20.2419 5.03128 20.1276 5.02401 20.0162 5.04324C19.9049 5.06248 19.7996 5.10767 19.709 5.17516C19.6184 5.24264 19.5449 5.33053 19.4946 5.4317C19.4443 5.53286 19.4185 5.64446 19.4193 5.75745C19.4178 5.89242 19.4549 6.02501 19.5262 6.1396C19.5975 6.2542 19.7001 6.34602 19.8219 6.40425C20.9439 6.95865 24.0393 8.67465 24.0393 10.8395L22.7193 13.4795C22.5459 12.7539 22.2265 12.0713 21.7805 11.4733C21.3346 10.8753 20.7715 10.3744 20.1255 10.0013C19.9822 9.9277 19.8224 9.89228 19.6615 9.8984C19.5006 9.90451 19.344 9.95196 19.2067 10.0362C19.0694 10.1204 18.9562 10.2385 18.8778 10.3792C18.7994 10.5199 18.7586 10.6784 18.7593 10.8395Z" fill="#008F57"/>
<path d="M31.425 17.5121C31.327 17.5481 31.2371 17.603 31.1604 17.6737C31.0837 17.7444 31.0216 17.8295 30.9778 17.9242C30.934 18.0189 30.9093 18.1213 30.905 18.2255C30.9008 18.3298 30.9171 18.4338 30.9531 18.5318C30.989 18.6297 31.0439 18.7196 31.1146 18.7963C31.1854 18.8731 31.2705 18.9351 31.3652 18.9789C31.4599 19.0227 31.5622 19.0475 31.6665 19.0517C31.7707 19.056 31.8748 19.0397 31.9728 19.0037C32.4963 18.8152 33.0613 18.7733 33.6069 18.8827C34.1524 18.992 34.6577 19.2484 35.0682 19.6241C35.3381 19.8934 35.5523 20.2133 35.6984 20.5655C35.8445 20.9178 35.9197 21.2954 35.9196 21.6767C35.9191 21.9329 35.8859 22.188 35.8206 22.4357L35.0682 25.1681L25.1682 15.2681C25.1682 15.2681 23.9802 14.0801 25.9602 12.1001C27.9402 10.1201 32.2962 13.6841 32.2962 13.6841C31.0289 13.6861 29.774 13.9326 28.6002 14.4101C28.515 14.4549 28.4416 14.5191 28.3859 14.5975C28.3303 14.676 28.2939 14.7665 28.2797 14.8616C28.2656 14.9568 28.2741 15.054 28.3045 15.1452C28.335 15.2365 28.3865 15.3193 28.455 15.3869C28.5701 15.5036 28.7267 15.57 28.8906 15.5717C28.9557 15.5709 29.0203 15.5598 29.082 15.5387C30.0918 15.1955 32.9826 14.3639 34.2762 15.6641L35.0682 18.0401C34.5288 17.7087 33.9275 17.4909 33.301 17.4001C32.6746 17.3093 32.0362 17.3474 31.425 17.5121Z" fill="#008F57"/>
<path d="M32.619 26.0195C32.619 29.3195 27.339 31.2995 27.339 31.2995C27.339 29.3195 24.699 29.3195 24.699 27.3395C24.6582 26.821 24.7595 26.3012 24.9921 25.836C25.2247 25.3709 25.5797 24.9779 26.019 24.6995L26.0718 24.5477L27.9396 25.1681C27.6082 24.6288 27.3904 24.0274 27.2997 23.401C27.2089 22.7745 27.247 22.1361 27.4116 21.5249C27.4614 21.3648 27.5615 21.2251 27.6971 21.1264C27.8326 21.0277 27.9964 20.9753 28.164 20.9771C28.2692 20.976 28.3736 20.9958 28.4711 21.0355C28.5685 21.0751 28.6571 21.1338 28.7316 21.2081C28.8397 21.3209 28.9132 21.4622 28.9436 21.6153C28.974 21.7685 28.96 21.9272 28.9032 22.0727C28.7064 22.595 28.6603 23.162 28.7699 23.7093C28.8796 24.2565 29.1408 24.762 29.5236 25.1681C29.8846 25.5298 30.3347 25.7898 30.8283 25.922C31.322 26.0541 31.8418 26.0536 32.3352 25.9205L32.5728 25.8545L32.619 26.0195Z" fill="#003B24"/>
<path d="M24.3102 18.7002C23.8327 19.874 23.5862 21.1289 23.5842 22.3962C23.5842 22.3962 20.3964 18.5022 21.723 16.4034C21.8039 16.2802 21.8968 16.1652 22.0002 16.0602C23.8482 14.2122 25.0032 15.123 25.1484 15.255L25.1682 15.2682L35.0682 25.1682L32.5734 25.8546L32.3358 25.9206C31.8423 26.0536 31.3226 26.0541 30.8289 25.922C30.3352 25.7899 29.8852 25.5299 29.5242 25.1682C29.1413 24.7621 28.8802 24.2566 28.7705 23.7094C28.6608 23.1621 28.707 22.5951 28.9038 22.0728C28.9606 21.9273 28.9746 21.7686 28.9442 21.6154C28.9138 21.4622 28.8402 21.3209 28.7322 21.2082C28.6576 21.1339 28.5691 21.0752 28.4716 21.0355C28.3741 20.9959 28.2698 20.976 28.1646 20.9772C27.9969 20.9754 27.8332 21.0278 27.6976 21.1264C27.5621 21.2251 27.462 21.3649 27.4122 21.525C27.2475 22.1362 27.2094 22.7746 27.3002 23.4011C27.391 24.0275 27.6088 24.6288 27.9402 25.1682L26.0724 24.5478L25.5642 24.3762C24.264 23.0826 25.0956 20.1918 25.4388 19.182C25.469 19.0889 25.4766 18.99 25.461 18.8934C25.4453 18.7968 25.4068 18.7054 25.3488 18.6267C25.2907 18.5479 25.2147 18.4842 25.127 18.4407C25.0393 18.3973 24.9426 18.3753 24.8448 18.3768C24.7344 18.3757 24.6259 18.4054 24.5315 18.4625C24.4371 18.5196 24.3604 18.6019 24.3102 18.7002Z" fill="#00613B"/>
<path d="M14.7993 10.8395C14.7986 10.5905 14.6999 10.3518 14.5244 10.1752C14.349 9.99851 14.111 9.89808 13.8621 9.89565C13.7126 9.89533 13.5653 9.93158 13.4331 10.0013C12.7871 10.3744 12.224 10.8753 11.778 11.4733C11.3321 12.0713 11.0127 12.7539 10.8393 13.4795L9.51929 10.8395C9.51929 8.67465 12.6147 6.95865 13.7367 6.40425C13.8585 6.34602 13.961 6.2542 14.0324 6.1396C14.1037 6.02501 14.1408 5.89242 14.1393 5.75745C14.1405 5.56681 14.0662 5.38343 13.9327 5.24739C13.7991 5.11135 13.6171 5.03372 13.4265 5.03145C13.3525 5.02946 13.2788 5.04063 13.2087 5.06445C11.4201 5.63865 9.51929 7.53945 9.51929 7.53945C9.51929 7.53945 10.1793 0.939453 13.4793 0.939453C16.7793 0.939453 16.7793 2.91945 16.7793 2.91945V19.4195L13.8753 17.7629C13.3532 17.4643 12.9194 17.0328 12.618 16.5124C12.3166 15.9919 12.1583 15.4009 12.1593 14.7995C12.1769 14.3917 12.2639 13.9899 12.4167 13.6115C12.744 12.764 13.391 12.079 14.2185 11.7041C14.3878 11.6305 14.5324 11.5099 14.6354 11.3567C14.7383 11.2035 14.7952 11.024 14.7993 10.8395Z" fill="#00613B"/>
<path d="M14.1986 20.68C16.1786 22.66 12.6146 27.016 12.6146 27.016C12.6126 25.7488 12.3661 24.4939 11.8886 23.32C11.8383 23.2218 11.7617 23.1395 11.6673 23.0824C11.5728 23.0253 11.4644 22.9956 11.354 22.9966C11.2562 22.9952 11.1594 23.0171 11.0718 23.0606C10.9841 23.1041 10.9081 23.1678 10.85 23.2465C10.7919 23.3253 10.7535 23.4167 10.7378 23.5133C10.7222 23.6099 10.7298 23.7088 10.76 23.8018C11.1032 24.8116 11.9348 27.7024 10.6346 28.996L8.25862 29.788C8.59002 29.2487 8.80779 28.6474 8.89858 28.0209C8.98937 27.3945 8.95127 26.7561 8.78662 26.1448C8.7368 25.9848 8.63669 25.845 8.50115 25.7463C8.36561 25.6476 8.20186 25.5953 8.03422 25.597C7.929 25.5959 7.82462 25.6158 7.72717 25.6554C7.62971 25.6951 7.54114 25.7538 7.46662 25.828C7.35856 25.9408 7.28499 26.0821 7.25459 26.2353C7.22419 26.3885 7.23821 26.5472 7.29501 26.6926C7.49179 27.2149 7.53797 27.782 7.42829 28.3292C7.31861 28.8765 7.05747 29.3819 6.67462 29.788C6.31361 30.1498 5.86355 30.4098 5.36988 30.5419C4.87621 30.674 4.35643 30.6735 3.86302 30.5404L1.13062 29.788L11.0306 19.888L11.0504 19.8748C11.1956 19.7428 12.3506 18.832 14.1986 20.68Z" fill="#00613B"/>
<path d="M18.0992 39.2195H24.0392C24.389 39.2205 24.7241 39.3599 24.9714 39.6073C25.2188 39.8546 25.3582 40.1897 25.3592 40.5395C25.3566 40.8888 25.2167 41.223 24.9697 41.47C24.7227 41.717 24.3885 41.8569 24.0392 41.8595H9.51922C9.16945 41.8584 8.83431 41.719 8.58699 41.4717C8.33967 41.2244 8.20026 40.8892 8.19922 40.5395C8.20181 40.1902 8.34171 39.856 8.5887 39.609C8.83569 39.362 9.16993 39.2221 9.51922 39.2195H18.0992Z" fill="#C98C65"/>
<path d="M28.1646 22.9571C28.3704 22.9562 28.5686 23.0355 28.717 23.1782C28.717 23.1564 28.7124 23.1373 28.7124 23.1155C28.7158 22.7595 28.7806 22.4067 28.9038 22.0727C28.9606 21.9272 28.9746 21.7685 28.9442 21.6153C28.9138 21.4622 28.8402 21.3209 28.7322 21.2081C28.6576 21.1338 28.5691 21.0751 28.4716 21.0355C28.3741 20.9958 28.2698 20.976 28.1646 20.9771C27.9969 20.9753 27.8332 21.0277 27.6976 21.1264C27.5621 21.2251 27.462 21.3648 27.4122 21.5249C27.199 22.2394 27.1798 22.9977 27.3567 23.722C27.3739 23.6501 27.3897 23.5782 27.4122 23.5049C27.462 23.3448 27.5621 23.2051 27.6976 23.1064C27.8332 23.0077 27.9969 22.9553 28.1646 22.9571Z" fill="#002617"/>
<path d="M26.0721 26.5276L27.9399 27.148C27.5339 26.4775 27.2953 25.7192 27.2442 24.937L26.0721 24.5476L26.0193 24.6994C25.6346 24.9275 25.3198 25.2566 25.1091 25.6511C25.2121 25.9141 25.3668 26.1538 25.5639 26.356L26.0721 26.5276Z" fill="#002617"/>
<path d="M32.5732 25.8545L32.3356 25.9205C31.8421 26.0536 31.3224 26.0541 30.8287 25.922C30.335 25.7899 29.885 25.5299 29.524 25.1681C29.2454 24.8566 29.0303 24.4936 28.891 24.0996C28.7772 24.4195 28.7167 24.756 28.7122 25.0955C28.7243 25.8557 29.0129 26.5853 29.524 27.1481C29.8405 27.4652 30.226 27.7046 30.6505 27.8479C31.0749 27.9911 31.5267 28.0342 31.9706 27.9738C32.3776 27.402 32.6036 26.7212 32.6194 26.0195L32.5732 25.8545Z" fill="#002617"/>
<path d="M24.9698 40.15C24.8488 40.2741 24.704 40.3725 24.5441 40.4394C24.3843 40.5063 24.2125 40.5403 24.0392 40.5394H9.51922C9.28875 40.5381 9.06263 40.4765 8.86335 40.3607C8.66408 40.2449 8.49859 40.079 8.38336 39.8794C8.26359 40.0788 8.19996 40.3068 8.19922 40.5394C8.20026 40.8892 8.33967 41.2243 8.58699 41.4716C8.83431 41.7189 9.16945 41.8584 9.51922 41.8594H24.0392C24.3885 41.8568 24.7227 41.7169 24.9697 41.4699C25.2167 41.2229 25.3566 40.8887 25.3592 40.5394C25.3577 40.3069 25.2941 40.0791 25.1751 39.8794C25.119 39.9783 25.05 40.0693 24.9698 40.15Z" fill="#9A6948"/>
<path d="M18.7592 39.2195H10.8392C10.4747 39.2195 10.1792 39.515 10.1792 39.8795C10.1792 40.244 10.4747 40.5395 10.8392 40.5395H18.7592C19.1237 40.5395 19.4192 40.244 19.4192 39.8795C19.4192 39.515 19.1237 39.2195 18.7592 39.2195Z" fill="#F2A97A"/>
<path d="M22.7193 39.2195H20.7393C20.3748 39.2195 20.0793 39.515 20.0793 39.8795C20.0793 40.244 20.3748 40.5395 20.7393 40.5395H22.7193C23.0839 40.5395 23.3793 40.244 23.3793 39.8795C23.3793 39.515 23.0839 39.2195 22.7193 39.2195Z" fill="#F2A97A"/>
<path d="M22.6657 8.29712C22.5345 9.32294 22.1362 10.2963 21.5107 11.1199C22.0905 11.8025 22.5041 12.6101 22.7192 13.4794L24.0392 10.8394C23.9945 10.3447 23.8497 9.86427 23.6136 9.42723C23.3775 8.9902 23.055 8.60571 22.6657 8.29712Z" fill="#007145"/>
<path d="M24.0392 7.53937C23.8604 5.93413 23.4142 4.37012 22.7192 2.91211V6.40549C23.1813 6.75703 23.622 7.13565 24.0392 7.53937Z" fill="#007145"/>
<path d="M16.7793 19.4195L19.6833 17.7629C20.2042 17.4653 20.6369 17.0348 20.9373 16.5155C20.9769 16.4495 21.0099 16.3835 21.0429 16.3175C21.2606 15.84 21.3817 15.3241 21.3993 14.7995C21.353 13.8641 20.9518 12.9816 20.2773 12.3318C19.2633 13.0772 18.0378 13.4793 16.7793 13.4795V19.4195Z" fill="#007145"/>
<path d="M9.51929 10.8394L10.8393 13.4794C11.0544 12.6101 11.468 11.8025 12.0477 11.1199C11.4223 10.2963 11.024 9.32294 10.8927 8.29712C10.5035 8.60571 10.181 8.9902 9.94494 9.42723C9.70884 9.86427 9.56402 10.3447 9.51929 10.8394Z" fill="#004A2D"/>
<path d="M9.51929 7.53937C9.93649 7.13565 10.3773 6.75703 10.8393 6.40549V2.91211C10.1443 4.37012 9.69814 5.93413 9.51929 7.53937Z" fill="#004A2D"/>
<path d="M13.2812 12.3323C12.9013 12.6889 12.6059 13.1259 12.4166 13.6114C12.2638 13.9898 12.1767 14.3916 12.1592 14.7994C12.1582 15.4008 12.3165 15.9918 12.6179 16.5123C12.9193 17.0327 13.3531 17.4642 13.8752 17.7628L16.7792 19.4194V13.4794C15.5208 13.4794 14.2952 13.0775 13.2812 12.3323Z" fill="#004A2D"/>
<path d="M35.068 19.6241C34.6264 19.224 34.0803 18.9574 33.4932 18.8552C33.7261 19.5163 33.7677 20.2297 33.6131 20.9133C33.4585 21.5969 33.1141 22.223 32.6194 22.7195L35.068 25.1681L35.8204 22.4357C35.8857 22.188 35.919 21.9329 35.9194 21.6767C35.9195 21.2954 35.8443 20.9178 35.6982 20.5656C35.5521 20.2134 35.338 19.8934 35.068 19.6241Z" fill="#009E60"/>
<path d="M32.296 13.684C32.296 13.684 28.9458 10.9444 26.7856 11.6057L29.3049 14.1249C30.2779 13.8456 31.2838 13.6974 32.296 13.684Z" fill="#009E60"/>
<path d="M35.0681 18.04L34.2761 15.664C33.3593 14.74 31.6427 14.8924 30.3596 15.1795L32.5178 17.3377C33.4165 17.3311 34.2994 17.5742 35.0681 18.04Z" fill="#009E60"/>
<path d="M23.5842 22.3961C23.5975 21.3839 23.7458 20.378 24.0251 19.405L21.5085 16.8884C20.8485 19.0493 23.5842 22.3961 23.5842 22.3961Z" fill="#004A2D"/>
<path d="M25.5643 24.3759L26.0725 24.5475L27.9403 25.1679C27.4745 24.3993 27.2314 23.5164 27.238 22.6177L25.0798 20.4595C24.7927 21.7425 24.6429 23.4592 25.5643 24.3759Z" fill="#004A2D"/>
<path d="M28.7542 23.5933C28.8578 24.1801 29.1245 24.7258 29.5237 25.1681C29.8847 25.5298 30.3348 25.7898 30.8284 25.9219C31.3221 26.0541 31.8419 26.0535 32.3353 25.9205L32.5729 25.8545L35.0677 25.1681L32.6191 22.7195C32.1225 23.2142 31.4963 23.5587 30.8125 23.7133C30.1288 23.8679 29.4153 23.8263 28.7542 23.5933Z" fill="#004A2D"/>
<path d="M4.01292 26.6794C3.5954 26.261 3.28362 25.7491 3.10342 25.1861C2.92322 24.6231 2.87978 24.0253 2.97672 23.4421C2.28937 23.4992 1.63994 23.781 1.12872 24.244C0.8591 24.5135 0.645289 24.8335 0.499532 25.1857C0.353775 25.5379 0.278935 25.9155 0.279298 26.2966C0.279715 26.5528 0.312987 26.8079 0.378298 27.0556L1.1307 29.788L4.13766 26.7811C4.0974 26.7454 4.05186 26.7184 4.01292 26.6794Z" fill="#008F57"/>
<path d="M5.65228 19.7593C4.39366 19.5006 2.79514 19.4068 1.92262 20.284L1.13062 22.66C1.86361 22.2181 2.69976 21.9764 3.55545 21.9591C3.6896 21.7583 3.84276 21.5708 4.01283 21.3994L5.65228 19.7593Z" fill="#008F57"/>
<path d="M3.90283 18.3041C4.85473 18.3167 5.80145 18.4464 6.72169 18.6902L9.22507 16.1855C7.06423 15.7235 3.90283 18.3041 3.90283 18.3041Z" fill="#008F57"/>
<path d="M12.6145 27.0162C12.6145 27.0162 15.4842 23.4978 14.6242 21.3481L12.1162 23.8561C12.4348 24.8797 12.6027 25.9443 12.6145 27.0162Z" fill="#004A2D"/>
<path d="M8.94363 26.9646C9.01081 27.9538 8.7716 28.9397 8.25854 29.7881L10.6345 28.9961C11.6008 28.0351 11.3896 26.1937 11.0767 24.8955L9.29474 26.6775C9.18379 26.7804 9.06652 26.8763 8.94363 26.9646Z" fill="#004A2D"/>
<path d="M4.13758 26.7812L1.13062 29.7882L3.86302 30.5406C4.35643 30.6737 4.87621 30.6742 5.36988 30.5421C5.86355 30.41 6.31361 30.1499 6.67462 29.7882C7.18567 29.2254 7.47426 28.4957 7.48642 27.7356C7.48642 27.7145 7.48113 27.6921 7.48047 27.6696C6.893 27.8037 6.28171 27.793 5.69933 27.6382C5.11695 27.4834 4.58096 27.1893 4.13758 26.7812Z" fill="#004A2D"/>
<path d="M18.5044 25.4823C18.8276 24.4601 19.3643 23.5184 20.0791 22.7195L20.1095 22.5994L20.0791 22.6139C20.0531 22.403 19.9724 22.2025 19.845 22.0323C19.7177 21.8621 19.5481 21.7282 19.3531 21.6437C18.942 21.4268 18.4695 21.3557 18.0128 21.442C17.5561 21.5283 17.1421 21.7669 16.8385 22.1189C16.5584 22.4165 16.3625 22.7832 16.2709 23.1815C16.2557 23.2475 16.2478 23.3293 16.2346 23.4C16.4347 23.8937 16.7422 24.3368 17.1348 24.6969C17.5274 25.0571 17.9952 25.3254 18.5044 25.4823Z" fill="#009E60"/>
<path d="M16.2351 23.3999C16.1577 23.8065 16.1191 24.2195 16.1196 24.6334C16.0925 25.4494 16.3235 26.2531 16.7796 26.9302C17.1051 27.4085 17.5641 27.7804 18.0996 27.9994C18.0995 27.1441 18.2363 26.2943 18.5048 25.4822C17.9957 25.3253 17.5278 25.057 17.1352 24.6969C16.7427 24.3367 16.4352 23.8937 16.2351 23.3999Z" fill="#008F57"/>
<path d="M20.1097 22.5994L20.0794 22.7196C19.3646 23.5185 18.8278 24.4602 18.5046 25.4823C18.2361 26.2944 18.0993 27.1442 18.0994 27.9996C19.4311 27.5939 20.6646 26.9176 21.7228 26.013C22.0196 25.7564 22.261 25.4421 22.4324 25.0892C22.6037 24.7363 22.7014 24.3522 22.7194 23.9604C22.7194 21.4365 20.4008 22.4608 20.1097 22.5994Z" fill="#00613B"/>
<path d="M24.727 27.0095H24.6993C20.8779 27.0095 17.7693 32.4875 17.7693 39.2195H18.4293C18.4293 32.8512 21.2422 27.6695 24.6993 27.6695H24.727C24.7087 27.5605 24.6995 27.4501 24.6993 27.3395C24.6993 27.2201 24.7178 27.1197 24.727 27.0095Z" fill="#285736"/>
<path d="M20.04 22.4105C20.0628 22.4761 20.0762 22.5445 20.0796 22.6138C20.2928 22.512 20.5151 22.4307 20.7436 22.3709C21.0789 21.2951 21.4287 20.282 21.7923 19.3772C21.6685 19.0667 21.5703 18.7466 21.4986 18.4202C20.9366 19.7213 20.4496 21.0536 20.04 22.4105Z" fill="#285736"/>
<path d="M17.1094 35.1274V39.2194H17.1127C17.5021 36.5075 18.2921 31.9535 19.3474 27.5269C19.0577 27.6542 18.7983 27.7572 18.5911 27.8331C17.9674 30.4929 17.4697 33.09 17.1094 35.1274Z" fill="#285736"/>
<path d="M17.1092 27.3215C16.9886 27.2004 16.8782 27.0695 16.7792 26.9301C16.6486 26.7378 16.538 26.5325 16.4492 26.3176V39.2193H17.1092V27.3215Z" fill="#396A49"/>
<path d="M16.4492 19.2314V22.7096C16.5469 22.4933 16.6783 22.2939 16.8386 22.1189C16.922 22.0284 17.0125 21.9448 17.1092 21.8688V19.2288L16.7792 19.4195L16.4492 19.2314Z" fill="#396A49"/>
<path d="M15.1292 39.2194C15.1292 34.641 14.4752 24.7767 14.4692 24.6994C14.461 24.4911 14.4294 24.2843 14.3749 24.083C14.2189 24.4594 14.0402 24.826 13.8396 25.1806C13.9716 27.1837 14.4692 35.2291 14.4692 39.2194H15.1292Z" fill="#285736"/>
<path d="M11.0504 19.8749L11.0306 19.8881C11.2051 19.6861 11.3195 19.4391 11.3606 19.1753C11.2978 19.1863 11.2399 19.216 11.1942 19.2604L10.8365 19.6248C10.8238 19.6338 10.8116 19.6437 10.8002 19.6545L1.03223 29.4225L1.13321 29.7881L1.49885 29.8891L11.2352 20.1488C11.2534 20.1363 11.2704 20.1222 11.286 20.1066L11.6628 19.7231C11.7052 19.6781 11.7334 19.6216 11.744 19.5607C11.4887 19.601 11.249 19.7095 11.0504 19.8749Z" fill="#003B24"/>
<path d="M25.1677 15.2681C25.0898 15.1801 25.0247 15.0814 24.9744 14.9751C24.9482 15.0154 24.9132 15.0492 24.8721 15.0741C24.9716 15.122 25.0643 15.1828 25.1479 15.2549L25.1677 15.2681Z" fill="black"/>
<path d="M25.4008 15.0344C25.3894 15.0236 25.3773 15.0137 25.3645 15.0047L25.0068 14.6403C24.9944 14.6302 24.9811 14.6211 24.9672 14.6133C25.0068 14.6649 25.0289 14.7278 25.0302 14.7929C25.0315 14.858 25.012 14.9218 24.9744 14.975C25.0248 15.0813 25.0899 15.1799 25.1678 15.268L25.148 15.2548C25.0644 15.1827 24.9716 15.1219 24.8721 15.074C24.8468 15.0921 24.819 15.1066 24.7896 15.1169C24.7322 15.1372 24.676 15.161 24.6213 15.1881L34.7022 25.269L35.0678 25.168L35.1688 24.8024L25.4008 15.0344Z" fill="#003B24"/>
<path d="M17.0643 2.10229C16.898 2.34429 16.7996 2.62643 16.7792 2.91937C16.7589 2.62643 16.6604 2.34429 16.4941 2.10229C16.4662 2.15007 16.4508 2.20408 16.4492 2.25937V19.2313L16.7792 19.4194L17.1092 19.2313V2.25937C17.1077 2.20408 17.0922 2.15007 17.0643 2.10229Z" fill="#003B24"/>
</svg>
