<svg width="27" height="30" viewBox="0 0 27 30" fill="none" xmlns="http://www.w3.org/2000/svg">
<path d="M7.88226 13.892L0.624193 21.1501L0.0725808 19.1468C0.0246984 18.9652 0.000305831 18.7782 7.84245e-08 18.5904C-7.58763e-05 18.3108 0.0550209 18.034 0.162132 17.7758C0.269244 17.5175 0.426264 17.283 0.624193 17.0856C0.925082 16.8101 1.29553 16.6221 1.69551 16.542C2.09548 16.4618 2.50975 16.4925 2.89355 16.6307C2.96451 16.658 3.04012 16.6711 3.11613 16.6694C3.25402 16.6689 3.38722 16.6193 3.49188 16.5295C3.59655 16.4398 3.66585 16.3157 3.68739 16.1795C3.70892 16.0433 3.68129 15.9038 3.60942 15.7862C3.53756 15.6685 3.42616 15.5802 3.29516 15.5372C2.84705 15.4164 2.37901 15.3885 1.91973 15.4551C1.46045 15.5216 1.01959 15.6813 0.624193 15.9243L1.20484 14.1823C2.15323 13.2291 4.27258 13.8388 5.0129 14.0904C5.05809 14.1059 5.10546 14.114 5.15322 14.1146C5.27338 14.1133 5.38818 14.0646 5.47258 13.9791C5.52276 13.9295 5.56054 13.8688 5.58286 13.8019C5.60518 13.735 5.61141 13.6638 5.60104 13.594C5.59067 13.5243 5.564 13.4579 5.52318 13.4004C5.48236 13.3429 5.42856 13.2958 5.36613 13.263C4.50554 12.9129 3.5855 12.7322 2.65645 12.7307C2.65645 12.7307 5.85 10.1178 7.30161 11.5694C8.75322 13.021 7.88226 13.892 7.88226 13.892Z" fill="#009E60"/>
<path d="M12.0968 19.0548C11.7624 18.5583 11.593 17.9691 11.6129 17.3709C11.6099 17.013 11.6472 16.6559 11.7242 16.3064C11.7913 16.0144 11.935 15.7455 12.1403 15.5273C12.3629 15.2693 12.6664 15.0944 13.0012 15.0311C13.3361 14.9678 13.6825 15.0199 13.9839 15.179C14.1268 15.2409 14.2512 15.3391 14.3445 15.4639C14.4379 15.5886 14.497 15.7356 14.5161 15.8903C14.5161 15.8903 16.4516 14.9032 16.4516 16.8773C16.4516 18.8515 13.0645 19.8386 13.0645 19.8386C12.672 19.678 12.3354 19.4054 12.0968 19.0548V19.0548Z" fill="#008F57"/>
<path d="M13.5483 7.25806C13.5513 7.39336 13.593 7.52495 13.6685 7.63729C13.7439 7.74962 13.85 7.83799 13.9741 7.89193C14.4088 8.09648 14.7793 8.41607 15.0454 8.81609C15.3115 9.2161 15.4631 9.68129 15.4838 10.1613C15.4709 10.5459 15.3821 10.9241 15.2225 11.2742C15.1983 11.3226 15.1741 11.371 15.1451 11.4194C14.9248 11.8001 14.6076 12.1156 14.2257 12.3339L12.0967 13.5484V1.45161C12.0967 1.45161 12.0967 0 14.516 0C16.9354 0 17.4193 4.83871 17.4193 4.83871C17.4193 4.83871 16.0257 3.44516 14.7144 3.02419C14.6352 2.99987 14.5514 2.99454 14.4698 3.00864C14.3882 3.02275 14.311 3.05588 14.2446 3.10535C14.1781 3.15483 14.1243 3.21927 14.0874 3.29343C14.0505 3.3676 14.0316 3.44942 14.0322 3.53226C14.0311 3.63121 14.0583 3.72842 14.1105 3.81243C14.1628 3.89644 14.2381 3.96376 14.3273 4.00645C15.1499 4.4129 17.4193 5.67097 17.4193 7.25806L16.4515 9.19355C16.3244 8.66161 16.0902 8.16116 15.7633 7.72274C15.4363 7.28431 15.0235 6.91711 14.5499 6.64355C14.4449 6.58962 14.3277 6.56365 14.2097 6.56814C14.0918 6.57262 13.9769 6.60741 13.8763 6.66915C13.7757 6.7309 13.6926 6.81751 13.6352 6.92066C13.5777 7.0238 13.5478 7.14 13.5483 7.25806Z" fill="#008F57"/>
<path d="M22.834 12.15C22.7622 12.1763 22.6963 12.2166 22.6401 12.2684C22.5838 12.3203 22.5383 12.3827 22.5062 12.4521C22.4741 12.5215 22.4559 12.5966 22.4528 12.673C22.4497 12.7494 22.4617 12.8257 22.4881 12.8975C22.5144 12.9693 22.5547 13.0352 22.6065 13.0915C22.6584 13.1477 22.7208 13.1932 22.7902 13.2253C22.8596 13.2575 22.9347 13.2756 23.0111 13.2787C23.0875 13.2818 23.1638 13.2699 23.2356 13.2435C23.6194 13.1053 24.0337 13.0746 24.4337 13.1548C24.8336 13.2349 25.2041 13.4229 25.505 13.6983C25.7029 13.8958 25.8599 14.1303 25.967 14.3886C26.0742 14.6468 26.1293 14.9236 26.1292 15.2032C26.1289 15.391 26.1045 15.578 26.0566 15.7596L25.505 17.7629L18.2469 10.5048C18.2469 10.5048 17.376 9.63383 18.8276 8.18222C20.2792 6.7306 23.4727 9.34351 23.4727 9.34351C22.5437 9.345 21.6236 9.52572 20.7631 9.87576C20.7006 9.90859 20.6468 9.95567 20.606 10.0132C20.5652 10.0707 20.5385 10.1371 20.5281 10.2068C20.5178 10.2766 20.524 10.3478 20.5463 10.4147C20.5686 10.4816 20.6064 10.5423 20.6566 10.5919C20.741 10.6774 20.8558 10.7261 20.976 10.7274C21.0237 10.7268 21.0711 10.7187 21.1163 10.7032C21.8566 10.4516 23.976 9.84189 24.9243 10.7951L25.505 12.5371C25.1096 12.2941 24.6687 12.1344 24.2094 12.0679C23.7502 12.0013 23.2821 12.0292 22.834 12.15V12.15Z" fill="#008F57"/>
<path d="M23.7099 18.3872C23.7099 20.8066 19.8389 22.2582 19.8389 22.2582C19.8389 20.8066 17.9034 20.8066 17.9034 19.355C17.8735 18.9749 17.9478 18.5938 18.1183 18.2527C18.2888 17.9117 18.5491 17.6236 18.8712 17.4195L18.9099 17.3082L20.2793 17.763C20.0363 17.3676 19.8766 16.9268 19.8101 16.4675C19.7435 16.0082 19.7714 15.5402 19.8922 15.0921C19.9287 14.9747 20.0021 14.8723 20.1014 14.7999C20.2008 14.7276 20.3209 14.6892 20.4438 14.6905C20.5209 14.6896 20.5974 14.7042 20.6689 14.7333C20.7403 14.7623 20.8053 14.8054 20.8599 14.8598C20.9391 14.9425 20.9931 15.0461 21.0153 15.1584C21.0376 15.2707 21.0273 15.387 20.9857 15.4937C20.8414 15.8766 20.8076 16.2923 20.888 16.6935C20.9684 17.0947 21.1599 17.4653 21.4405 17.763C21.7052 18.0282 22.0352 18.2189 22.3971 18.3157C22.759 18.4126 23.1401 18.4122 23.5018 18.3147L23.676 18.2663L23.7099 18.3872Z" fill="#003B24"/>
<path d="M17.618 13.021C17.268 13.8816 17.0872 14.8016 17.0857 15.7307C17.0857 15.7307 14.7486 12.8758 15.7212 11.3371C15.7806 11.2468 15.8486 11.1625 15.9244 11.0855C17.2793 9.73066 18.1261 10.3984 18.2325 10.4952L18.247 10.5049L25.5051 17.7629L23.6761 18.2661L23.5019 18.3145C23.1401 18.4121 22.7591 18.4125 22.3971 18.3156C22.0352 18.2188 21.7052 18.0281 21.4406 17.7629C21.1599 17.4652 20.9684 17.0946 20.888 16.6934C20.8076 16.2922 20.8415 15.8765 20.9857 15.4936C21.0274 15.3869 21.0377 15.2706 21.0154 15.1583C20.9931 15.046 20.9391 14.9424 20.8599 14.8597C20.8053 14.8052 20.7404 14.7622 20.6689 14.7331C20.5975 14.7041 20.5209 14.6895 20.4438 14.6903C20.3209 14.6891 20.2008 14.7274 20.1015 14.7998C20.0021 14.8721 19.9287 14.9746 19.8922 15.092C19.7715 15.5401 19.7435 16.0081 19.8101 16.4674C19.8767 16.9267 20.0363 17.3675 20.2793 17.7629L18.9099 17.3081L18.5373 17.1823C17.5841 16.2339 18.1938 14.1145 18.4454 13.3742C18.4676 13.306 18.4732 13.2335 18.4617 13.1627C18.4502 13.0919 18.422 13.0248 18.3794 12.9671C18.3369 12.9094 18.2811 12.8626 18.2169 12.8308C18.1526 12.7989 18.0817 12.7828 18.0099 12.7839C17.929 12.7831 17.8495 12.8049 17.7803 12.8467C17.711 12.8886 17.6548 12.949 17.618 13.021V13.021Z" fill="#00613B"/>
<path d="M10.6454 7.25806C10.6449 7.07554 10.5725 6.90057 10.4439 6.77105C10.3153 6.64153 10.1408 6.56791 9.95828 6.56613C9.8487 6.56589 9.74072 6.59247 9.64377 6.64355C9.1702 6.91711 8.75734 7.28431 8.43039 7.72274C8.10344 8.16116 7.86927 8.66161 7.74216 9.19355L6.77441 7.25806C6.77441 5.67097 9.04377 4.4129 9.86635 4.00645C9.95562 3.96376 10.0308 3.89644 10.0831 3.81243C10.1354 3.72842 10.1626 3.63121 10.1615 3.53226C10.1624 3.39249 10.108 3.25805 10.01 3.15831C9.91211 3.05858 9.77869 3.00166 9.63893 3C9.58469 2.99854 9.53062 3.00673 9.47925 3.02419C8.16796 3.44516 6.77441 4.83871 6.77441 4.83871C6.77441 4.83871 7.25829 0 9.67764 0C12.097 0 12.097 1.45161 12.097 1.45161V13.5484L9.96796 12.3339C9.58519 12.115 9.26716 11.7987 9.0462 11.4171C8.82524 11.0355 8.70921 10.6022 8.7099 10.1613C8.72277 9.86234 8.78659 9.56779 8.89861 9.29032C9.13855 8.66902 9.61294 8.16684 10.2196 7.89193C10.3437 7.83799 10.4497 7.74962 10.5252 7.63729C10.6007 7.52495 10.6424 7.39336 10.6454 7.25806V7.25806Z" fill="#00613B"/>
<path d="M10.2052 14.4722C11.6568 15.9238 9.04387 19.1174 9.04387 19.1174C9.04237 18.1883 8.86165 17.2683 8.51161 16.4077C8.47475 16.3357 8.41856 16.2753 8.34933 16.2335C8.2801 16.1916 8.20058 16.1698 8.11967 16.1706C8.04795 16.1696 7.97701 16.1856 7.91275 16.2175C7.84848 16.2494 7.79275 16.2961 7.75016 16.3538C7.70758 16.4115 7.67938 16.4786 7.66791 16.5494C7.65643 16.6202 7.66202 16.6927 7.68419 16.7609C7.9358 17.5013 8.54548 19.6206 7.59225 20.569L5.85032 21.1496C6.09328 20.7542 6.25293 20.3134 6.3195 19.8541C6.38606 19.3948 6.35813 18.9268 6.23741 18.4787C6.20089 18.3613 6.1275 18.2588 6.02813 18.1865C5.92876 18.1142 5.80871 18.0758 5.6858 18.0771C5.60867 18.0762 5.53214 18.0908 5.46069 18.1199C5.38925 18.1489 5.32431 18.192 5.26967 18.2464C5.19045 18.3291 5.13652 18.4327 5.11423 18.545C5.09194 18.6573 5.10222 18.7736 5.14387 18.8803C5.28813 19.2632 5.32199 19.6789 5.24157 20.0801C5.16116 20.4813 4.96971 20.8519 4.68903 21.1496C4.42436 21.4148 4.0944 21.6055 3.73248 21.7023C3.37055 21.7992 2.98947 21.7988 2.62774 21.7013L0.624512 21.1496L7.88258 13.8916L7.89709 13.8819C8.00354 13.7851 8.85032 13.1174 10.2052 14.4722Z" fill="#00613B"/>
<path d="M13.0642 28.0645H17.4191C17.6755 28.0652 17.9212 28.1674 18.1025 28.3487C18.2838 28.5301 18.386 28.7758 18.3868 29.0322C18.3849 29.2883 18.2823 29.5333 18.1013 29.7144C17.9202 29.8955 17.6751 29.998 17.4191 29.9999H6.77389C6.51747 29.9992 6.27176 29.897 6.09044 29.7156C5.90912 29.5343 5.80692 29.2886 5.80615 29.0322C5.80805 28.7761 5.91062 28.5311 6.0917 28.35C6.27277 28.1689 6.51782 28.0664 6.77389 28.0645H13.0642Z" fill="#C98C65"/>
<path d="M20.4438 16.1421C20.5948 16.1414 20.74 16.1996 20.8488 16.3042C20.8488 16.2882 20.8454 16.2742 20.8454 16.2582C20.848 15.9972 20.8955 15.7386 20.9858 15.4937C21.0274 15.387 21.0377 15.2707 21.0154 15.1584C20.9931 15.0461 20.9392 14.9425 20.86 14.8598C20.8053 14.8054 20.7404 14.7623 20.6689 14.7333C20.5975 14.7042 20.521 14.6896 20.4438 14.6905C20.3209 14.6892 20.2009 14.7276 20.1015 14.7999C20.0021 14.8723 19.9287 14.9747 19.8922 15.0921C19.7359 15.6159 19.7219 16.1719 19.8516 16.7029C19.8642 16.6501 19.8758 16.5974 19.8922 16.5437C19.9287 16.4263 20.0021 16.3239 20.1015 16.2515C20.2009 16.1792 20.3209 16.1408 20.4438 16.1421V16.1421Z" fill="#002617"/>
<path d="M18.9096 18.7597L20.2789 19.2146C19.9813 18.723 19.8064 18.167 19.7689 17.5936L18.9096 17.3081L18.8709 17.4194C18.5888 17.5866 18.358 17.8279 18.2036 18.1171C18.2791 18.3099 18.3925 18.4856 18.537 18.6339L18.9096 18.7597Z" fill="#002617"/>
<path d="M23.6759 18.2661L23.5017 18.3145C23.1399 18.412 22.7589 18.4124 22.3969 18.3156C22.035 18.2187 21.705 18.0281 21.4404 17.7629C21.2361 17.5345 21.0785 17.2684 20.9763 16.9795C20.8929 17.214 20.8486 17.4607 20.8452 17.7097C20.8541 18.2669 21.0657 18.8019 21.4404 19.2145C21.6724 19.4469 21.9551 19.6225 22.2662 19.7275C22.5774 19.8325 22.9087 19.8641 23.2341 19.8198C23.5325 19.4006 23.6982 18.9015 23.7097 18.3871L23.6759 18.2661Z" fill="#002617"/>
<path d="M18.1013 28.7467C18.0126 28.8377 17.9065 28.9099 17.7892 28.9589C17.672 29.008 17.5461 29.0329 17.4191 29.0322H6.77389C6.60493 29.0313 6.43915 28.9861 6.29305 28.9012C6.14696 28.8163 6.02563 28.6947 5.94115 28.5483C5.85334 28.6945 5.8067 28.8617 5.80615 29.0322C5.80692 29.2886 5.90912 29.5343 6.09044 29.7157C6.27176 29.897 6.51747 29.9992 6.77389 30H17.4191C17.6751 29.9981 17.9202 29.8955 18.1013 29.7144C18.2823 29.5333 18.3849 29.2883 18.3868 29.0322C18.3857 28.8618 18.3391 28.6947 18.2518 28.5483C18.2107 28.6209 18.1601 28.6876 18.1013 28.7467Z" fill="#9A6948"/>
<path d="M13.5481 28.0645H7.74168C7.47445 28.0645 7.25781 28.2811 7.25781 28.5483C7.25781 28.8156 7.47445 29.0322 7.74168 29.0322H13.5481C13.8154 29.0322 14.032 28.8156 14.032 28.5483C14.032 28.2811 13.8154 28.0645 13.5481 28.0645Z" fill="#F2A97A"/>
<path d="M16.4516 28.0645H15C14.7327 28.0645 14.5161 28.2811 14.5161 28.5483C14.5161 28.8156 14.7327 29.0322 15 29.0322H16.4516C16.7188 29.0322 16.9355 28.8156 16.9355 28.5483C16.9355 28.2811 16.7188 28.0645 16.4516 28.0645Z" fill="#F2A97A"/>
<path d="M16.4122 5.39453C16.316 6.1466 16.024 6.86023 15.5654 7.46405C15.9904 7.96445 16.2937 8.55656 16.4514 9.19389L17.4191 7.2584C17.3863 6.89571 17.2802 6.54347 17.1071 6.22306C16.934 5.90266 16.6976 5.62077 16.4122 5.39453V5.39453Z" fill="#007145"/>
<path d="M17.4194 4.83871C17.2883 3.66184 16.9612 2.51521 16.4517 1.44629V4.00742C16.7904 4.26514 17.1135 4.54273 17.4194 4.83871V4.83871Z" fill="#007145"/>
<path d="M12.0967 13.5483L14.2257 12.3338C14.6076 12.1156 14.9248 11.8 15.1451 11.4193C15.1741 11.3709 15.1983 11.3225 15.2225 11.2741C15.3821 10.924 15.4709 10.5458 15.4838 10.1612C15.4499 9.47546 15.1557 8.82842 14.6612 8.35205C13.9178 8.89853 13.0193 9.19333 12.0967 9.1935V13.5483Z" fill="#007145"/>
<path d="M6.77441 7.2584L7.74216 9.19389C7.89985 8.55656 8.2031 7.96445 8.62812 7.46405C8.16957 6.86023 7.87758 6.1466 7.78135 5.39453C7.49598 5.62077 7.25957 5.90266 7.08648 6.22306C6.91338 6.54347 6.80721 6.89571 6.77441 7.2584Z" fill="#004A2D"/>
<path d="M6.77441 4.83871C7.08028 4.54273 7.40343 4.26514 7.74216 4.00742V1.44629C7.23263 2.51521 6.90554 3.66184 6.77441 4.83871V4.83871Z" fill="#004A2D"/>
<path d="M9.53254 8.35254C9.25405 8.61401 9.03749 8.93439 8.89867 9.29028C8.78666 9.56775 8.72284 9.8623 8.70996 10.1612C8.70927 10.6022 8.8253 11.0355 9.04627 11.417C9.26723 11.7986 9.58525 12.1149 9.96803 12.3338L12.0971 13.5483V9.19351C11.1745 9.19351 10.276 8.89888 9.53254 8.35254V8.35254Z" fill="#004A2D"/>
<path d="M25.5046 13.6985C25.1809 13.4051 24.7805 13.2096 24.3501 13.1348C24.5209 13.6194 24.5513 14.1424 24.438 14.6436C24.3247 15.1448 24.0721 15.6038 23.7095 15.9678L25.5046 17.763L26.0562 15.7598C26.1041 15.5781 26.1285 15.3911 26.1288 15.2033C26.1289 14.9237 26.0738 14.6469 25.9667 14.3887C25.8596 14.1305 25.7026 13.8959 25.5046 13.6985V13.6985Z" fill="#009E60"/>
<path d="M23.4725 9.34336C23.4725 9.34336 21.0163 7.33481 19.4326 7.81965L21.2796 9.66659C21.9929 9.46185 22.7304 9.35314 23.4725 9.34336V9.34336Z" fill="#009E60"/>
<path d="M25.5052 12.5373L24.9245 10.7954C24.2524 10.1179 22.9939 10.2297 22.0532 10.4402L23.6355 12.0225C24.2944 12.0176 24.9416 12.1958 25.5052 12.5373V12.5373Z" fill="#009E60"/>
<path d="M17.0859 15.7308C17.0957 14.9887 17.2044 14.2512 17.4091 13.5379L15.5641 11.6929C15.0802 13.2771 17.0859 15.7308 17.0859 15.7308Z" fill="#004A2D"/>
<path d="M18.5374 17.1823L18.91 17.3081L20.2794 17.763C19.9379 17.1994 19.7597 16.5522 19.7645 15.8933L18.1823 14.311C17.9718 15.2517 17.8619 16.5102 18.5374 17.1823Z" fill="#004A2D"/>
<path d="M20.876 16.6084C20.952 17.0386 21.1475 17.4387 21.4402 17.7629C21.7048 18.0281 22.0348 18.2188 22.3967 18.3156C22.7586 18.4125 23.1397 18.4121 23.5015 18.3145L23.6757 18.2662L25.5047 17.7629L23.7095 15.9678C23.3454 16.3305 22.8863 16.583 22.3851 16.6964C21.8838 16.8097 21.3607 16.7792 20.876 16.6084V16.6084Z" fill="#004A2D"/>
<path d="M2.73726 18.8709C2.43116 18.5642 2.20258 18.1888 2.07047 17.7761C1.93836 17.3634 1.90652 16.9251 1.97758 16.4976C1.47366 16.5394 0.997539 16.746 0.622743 17.0855C0.425075 17.283 0.268323 17.5176 0.161463 17.7758C0.0546026 18.0341 -0.000265482 18.3108 9.65788e-07 18.5903C0.000306719 18.7781 0.0246993 18.9651 0.0725816 19.1468L0.624194 21.15L2.82871 18.9455C2.79919 18.9193 2.76581 18.8995 2.73726 18.8709Z" fill="#008F57"/>
<path d="M3.93951 13.7978C3.01677 13.6081 1.84483 13.5394 1.20516 14.1824L0.624512 15.9244C1.1619 15.6004 1.77491 15.4232 2.40225 15.4105C2.5006 15.2633 2.61289 15.1259 2.73758 15.0002L3.93951 13.7978Z" fill="#008F57"/>
<path d="M2.65674 12.7305C3.35461 12.7398 4.04869 12.8349 4.72335 13.0136L6.55867 11.1773C4.97448 10.8386 2.65674 12.7305 2.65674 12.7305Z" fill="#008F57"/>
<path d="M9.04355 19.1179C9.04355 19.1179 11.1474 16.5384 10.5169 14.9624L8.67822 16.8011C8.91182 17.5515 9.03488 18.332 9.04355 19.1179Z" fill="#004A2D"/>
<path d="M6.35236 19.0799C6.40161 19.8051 6.22624 20.5279 5.8501 21.1499L7.59203 20.5693C8.30042 19.8648 8.14558 18.5148 7.91623 17.563L6.60977 18.8694C6.52843 18.9449 6.44245 19.0152 6.35236 19.0799Z" fill="#004A2D"/>
<path d="M2.82903 18.9453L0.624512 21.1498L2.62774 21.7014C2.98947 21.799 3.37055 21.7994 3.73248 21.7025C4.0944 21.6057 4.42436 21.415 4.68903 21.1498C5.0637 20.7372 5.27527 20.2023 5.28419 19.645C5.28419 19.6295 5.28032 19.6131 5.27983 19.5966C4.84913 19.6949 4.40098 19.687 3.97401 19.5736C3.54705 19.4601 3.15409 19.2445 2.82903 18.9453V18.9453Z" fill="#004A2D"/>
<path d="M13.3613 17.9932C13.5983 17.2438 13.9918 16.5534 14.5158 15.9677L14.5381 15.8796L14.5158 15.8903C14.4967 15.7356 14.4376 15.5886 14.3442 15.4639C14.2509 15.3391 14.1265 15.2409 13.9836 15.179C13.6822 15.0199 13.3358 14.9678 13.0009 15.0311C12.6661 15.0944 12.3626 15.2693 12.14 15.5273C11.9347 15.7455 11.791 16.0144 11.7239 16.3064C11.7127 16.3548 11.7069 16.4148 11.6973 16.4665C11.844 16.8285 12.0694 17.1533 12.3572 17.4174C12.645 17.6814 12.988 17.8781 13.3613 17.9932V17.9932Z" fill="#009E60"/>
<path d="M11.6976 16.4668C11.6409 16.7649 11.6125 17.0677 11.6129 17.3712C11.593 17.9694 11.7624 18.5586 12.0968 19.055C12.3354 19.4057 12.672 19.6783 13.0645 19.8389C13.0644 19.2118 13.1647 18.5888 13.3616 17.9934C12.9883 17.8784 12.6453 17.6817 12.3575 17.4177C12.0697 17.1536 11.8443 16.8288 11.6976 16.4668V16.4668Z" fill="#008F57"/>
<path d="M14.5383 15.8797L14.5161 15.9678C13.992 16.5535 13.5985 17.2439 13.3615 17.9932C13.1647 18.5886 13.0644 19.2117 13.0645 19.8387C14.0408 19.5413 14.9451 19.0455 15.7209 18.3823C15.9385 18.1942 16.1155 17.9638 16.2411 17.7051C16.3668 17.4463 16.4383 17.1647 16.4515 16.8774C16.4515 15.0271 14.7517 15.7781 14.5383 15.8797Z" fill="#00613B"/>
<path d="M17.9237 19.1128H17.9034C15.1018 19.1128 12.8228 23.1289 12.8228 28.0644H13.3066C13.3066 23.3955 15.3689 19.5967 17.9034 19.5967H17.9237C17.9103 19.5167 17.9035 19.4358 17.9034 19.3547C17.9034 19.2671 17.9169 19.1936 17.9237 19.1128Z" fill="#285736"/>
<path d="M14.4873 15.7414C14.504 15.7894 14.5138 15.8396 14.5163 15.8904C14.6726 15.8158 14.8356 15.7562 15.0031 15.7124C15.2489 14.9237 15.5054 14.1809 15.772 13.5175C15.6812 13.2899 15.6092 13.0553 15.5567 12.8159C15.1446 13.7698 14.7876 14.7466 14.4873 15.7414V15.7414Z" fill="#285736"/>
<path d="M12.3384 25.0644V28.0644H12.3408C12.6263 26.0762 13.2055 22.7375 13.9792 19.4922C13.7668 19.5856 13.5766 19.6611 13.4247 19.7167C12.9674 21.6667 12.6026 23.5707 12.3384 25.0644Z" fill="#285736"/>
<path d="M12.3389 19.3419C12.2504 19.2532 12.1695 19.1572 12.0969 19.055C12.0011 18.914 11.9201 18.7635 11.855 18.606V28.0647H12.3389V19.3419Z" fill="#396A49"/>
<path d="M11.855 13.4106V15.9606C11.9266 15.8021 12.023 15.6559 12.1405 15.5276C12.2016 15.4612 12.2679 15.3999 12.3389 15.3442V13.4087L12.0969 13.5485L11.855 13.4106Z" fill="#396A49"/>
<path d="M10.8874 28.0644C10.8874 24.7078 10.4079 17.4758 10.4035 17.4192C10.3975 17.2665 10.3743 17.1149 10.3343 16.9673C10.22 17.2432 10.089 17.512 9.94189 17.772C10.0387 19.2405 10.4035 25.1389 10.4035 28.0644H10.8874Z" fill="#285736"/>
<path d="M7.89643 13.882L7.88192 13.8917C8.00989 13.7436 8.09371 13.5625 8.12385 13.3691C8.07787 13.3772 8.03538 13.399 8.00192 13.4316L7.73966 13.6987C7.7303 13.7053 7.72141 13.7126 7.71305 13.7204L0.551758 20.8817L0.62579 21.1498L0.893854 21.2238L8.03192 14.0829C8.04528 14.0737 8.05775 14.0633 8.06918 14.0519L8.34547 13.7708C8.37649 13.7377 8.39718 13.6964 8.40498 13.6517C8.2178 13.6812 8.04207 13.7608 7.89643 13.882Z" fill="#003B24"/>
<path d="M18.247 10.5049C18.1899 10.4403 18.1422 10.368 18.1053 10.29C18.0861 10.3196 18.0604 10.3444 18.0303 10.3626C18.1032 10.3978 18.1712 10.4423 18.2325 10.4952L18.247 10.5049Z" fill="black"/>
<path d="M18.4176 10.3336C18.4093 10.3258 18.4004 10.3185 18.391 10.3118L18.1288 10.0447C18.1197 10.0373 18.11 10.0307 18.0997 10.0249C18.1288 10.0627 18.145 10.1089 18.146 10.1566C18.1469 10.2043 18.1326 10.2511 18.1051 10.2901C18.1419 10.368 18.1897 10.4403 18.2468 10.5049L18.2323 10.4952C18.171 10.4424 18.103 10.3978 18.0301 10.3626C18.0115 10.376 17.9911 10.3866 17.9696 10.3941C17.9274 10.409 17.8862 10.4265 17.8462 10.4464L25.2368 17.837L25.5049 17.763L25.5789 17.4949L18.4176 10.3336Z" fill="#003B24"/>
<path d="M12.3059 0.852539C12.184 1.02996 12.1118 1.2368 12.0969 1.45157C12.082 1.2368 12.0098 1.02996 11.8879 0.852539C11.8674 0.887562 11.8561 0.927162 11.855 0.9677V13.4104L12.0969 13.5483L12.3389 13.4104V0.9677C12.3377 0.927162 12.3264 0.887562 12.3059 0.852539V0.852539Z" fill="#003B24"/>
</svg>
