<svg width="28" height="29" viewBox="0 0 28 29" fill="none" xmlns="http://www.w3.org/2000/svg">
<path d="M18.6353 20.4988V23.0704C18.6355 23.5631 18.5054 24.0471 18.2584 24.4733C18.0113 24.8996 17.6559 25.2529 17.2283 25.4976L15.3741 26.5552L14.4424 24.6917L16.1848 23.9928C16.3574 23.9241 16.5055 23.8053 16.6101 23.6517C16.7147 23.4981 16.771 23.3168 16.7718 23.131V21.4305L16.7438 21.4072C17.0125 21.1404 17.2317 20.8281 17.3914 20.4848C17.4939 20.4894 17.5964 20.4988 17.7035 20.4988C18.0064 20.499 18.3083 20.463 18.6027 20.3916L18.6353 20.4988Z" fill="#9A6948"/>
<path d="M12.2012 23.7321L14.442 24.6918L15.3738 26.5553L16.3055 28.8847H12.5785V25.6235L11.0132 24.9527C10.5109 24.7356 10.0828 24.3767 9.7816 23.9198C9.48036 23.463 9.31903 22.9282 9.31738 22.381V20.9647L9.32204 20.9275C9.4743 20.9541 9.6287 20.9666 9.78326 20.9647C10.2668 20.9638 10.7442 20.8556 11.1809 20.6479V22.6792C11.1815 22.8614 11.2351 23.0394 11.3352 23.1917C11.4353 23.3439 11.5776 23.4637 11.7446 23.5364L12.2012 23.7321Z" fill="#9A6948"/>
<path d="M11.1253 12.882C10.6769 13.3092 10.3821 13.8726 10.2868 14.4846C10.1202 14.4589 9.95211 14.4449 9.78362 14.4427C9.0845 14.4421 8.4037 14.6662 7.84164 15.082C7.27958 15.4977 6.866 16.0831 6.6619 16.7518C6.4578 17.4204 6.47399 18.137 6.70808 18.7958C6.94217 19.4545 7.38177 20.0206 7.96204 20.4106L7.92011 20.4991C7.57652 20.9577 7.07535 21.273 6.51316 21.3842C6.36312 21.4163 6.21003 21.432 6.0566 21.4308C5.58359 21.4299 5.12207 21.285 4.73343 21.0153C4.34479 20.7457 4.04745 20.3641 3.88095 19.9214C3.68185 19.992 3.47257 20.0298 3.26133 20.0332C2.7671 20.0332 2.29311 19.8369 1.94363 19.4874C1.59416 19.1379 1.39782 18.6639 1.39782 18.1697C1.39782 18.1045 1.4118 18.0439 1.41646 17.9833C0.996261 17.8043 0.637959 17.5058 0.386115 17.1247C0.134272 16.7437 0 16.297 0 15.8403C0 15.3836 0.134272 14.9369 0.386115 14.5559C0.637959 14.1749 0.996261 13.8763 1.41646 13.6973C1.4118 13.6367 1.39782 13.5761 1.39782 13.5109C1.39467 13.1114 1.49513 12.7179 1.68941 12.3688C1.88368 12.0197 2.16514 11.7269 2.50631 11.519C2.84748 11.3111 3.23672 11.1952 3.63605 11.1826C4.03537 11.17 4.43115 11.2611 4.78475 11.4471C4.91976 11.0955 5.158 10.7929 5.46814 10.5792C5.77829 10.3656 6.14584 10.2507 6.52248 10.2498L6.55975 10.2451C6.6688 11.0223 7.05523 11.7338 7.64773 12.2484C8.24024 12.7629 8.99885 13.0459 9.78362 13.045C10.2069 13.0444 10.6261 12.9621 11.0182 12.8028C11.0519 12.8318 11.0877 12.8582 11.1253 12.882V12.882Z" fill="#2F5224"/>
<path d="M22.828 6.98826C22.8283 7.47323 22.7202 7.95214 22.5114 8.38987C22.3026 8.8276 21.9985 9.21306 21.6213 9.51797C21.2621 9.38449 20.8818 9.31663 20.4986 9.31765C19.6337 9.31765 18.8042 9.66123 18.1926 10.2728C17.581 10.8844 17.2374 11.7139 17.2374 12.5788C17.2396 12.7442 17.2537 12.9092 17.2794 13.0726C16.6645 13.1401 16.0766 13.3612 15.5696 13.7155C15.3819 13.3158 15.1019 12.9663 14.7527 12.696C14.4034 12.4257 13.9949 12.2423 13.5608 12.1608C13.1268 12.0794 12.6796 12.1022 12.2561 12.2276C11.8326 12.3529 11.445 12.5771 11.1251 12.8816C11.0875 12.8579 11.0517 12.8314 11.018 12.8024C10.6258 12.9617 10.2067 13.044 9.7834 13.0447C8.99863 13.0455 8.24002 12.7626 7.64752 12.248C7.05501 11.7334 6.66859 11.0219 6.55953 10.2447C6.53287 10.0925 6.52039 9.93808 6.52226 9.78352C6.52291 9.62597 6.53536 9.46868 6.55953 9.31299C6.54555 9.31299 6.53624 9.31765 6.52226 9.31765C5.90447 9.31765 5.31198 9.07223 4.87513 8.63538C4.43829 8.19854 4.19287 7.60605 4.19287 6.98826C4.19287 6.37047 4.43829 5.77798 4.87513 5.34113C5.31198 4.90429 5.90447 4.65887 6.52226 4.65887C6.54089 4.65887 6.55487 4.66353 6.56885 4.66353C6.53905 4.50843 6.52346 4.35093 6.52226 4.19299C6.52226 3.5752 6.76768 2.98271 7.20452 2.54587C7.64137 2.10902 8.23385 1.86361 8.85165 1.86361C9.17097 1.86317 9.48683 1.92984 9.77874 2.05927C10.2069 1.33799 10.897 0.809862 11.7051 0.58505C12.5132 0.360239 13.3769 0.456105 14.1161 0.852651C14.5824 0.426276 15.1628 0.144868 15.7863 0.0427696C16.4099 -0.0593292 17.0497 0.0222969 17.6277 0.277686C18.2056 0.533076 18.6967 0.951184 19.0411 1.48098C19.3854 2.01079 19.5681 2.62937 19.5668 3.26124C19.5664 3.41726 19.5539 3.57301 19.5296 3.72712H19.5668C20.4317 3.72712 21.2612 4.0707 21.8728 4.68228C22.4844 5.29387 22.828 6.12335 22.828 6.98826Z" fill="#5CB34F"/>
<path d="M13.5108 22.2271C13.0704 22.0934 12.6629 21.8689 12.3146 21.568C11.9664 21.2671 11.6851 20.8965 11.4889 20.4801C11.3895 20.5415 11.2869 20.5975 11.1814 20.6478C10.7447 20.8554 10.2674 20.9636 9.7838 20.9646C9.62924 20.9665 9.47484 20.954 9.32258 20.9273C8.83467 20.8647 8.3685 20.6875 7.96222 20.4102C7.38195 20.0203 6.94235 19.4542 6.70826 18.7954C6.47417 18.1366 6.45798 17.4201 6.66208 16.7514C6.86618 16.0827 7.27976 15.4974 7.84182 15.0816C8.40388 14.6659 9.08468 14.4417 9.7838 14.4423C9.95229 14.4445 10.1204 14.4585 10.2869 14.4842C10.3823 13.8722 10.677 13.3088 11.1255 12.8816C11.4454 12.5771 11.833 12.3529 12.2565 12.2276C12.68 12.1023 13.1272 12.0794 13.5612 12.1608C13.9953 12.2423 14.4038 12.4257 14.753 12.696C15.1023 12.9663 15.3823 13.3158 15.57 13.7155C16.077 13.3612 16.6649 13.1401 17.2798 13.0726C17.2541 12.9092 17.24 12.7442 17.2378 12.5788C17.2378 11.7139 17.5814 10.8844 18.193 10.2728C18.8046 9.66124 19.6341 9.31765 20.499 9.31765C20.8822 9.31664 21.2625 9.3845 21.6217 9.51798C21.7029 9.54576 21.7822 9.57843 21.8593 9.61581C22.2499 9.40838 22.6875 9.30554 23.1295 9.31731C23.5716 9.32909 24.0031 9.45507 24.382 9.683C24.761 9.91093 25.0745 10.2331 25.292 10.618C25.5096 11.003 25.6239 11.4378 25.6236 11.88C25.6227 12.4104 25.4584 12.9277 25.1531 13.3615C25.6033 13.5727 25.9993 13.884 26.3107 14.2718C26.6221 14.6595 26.8407 15.1133 26.9498 15.5985C27.0589 16.0837 27.0556 16.5874 26.9402 17.0711C26.8247 17.5548 26.6001 18.0057 26.2836 18.3893C25.9672 18.7729 25.5671 19.0791 25.1142 19.2843C24.6612 19.4896 24.1673 19.5885 23.6702 19.5736C23.1731 19.5587 22.686 19.4302 22.2462 19.1981C21.8064 18.9661 21.4255 18.6365 21.1326 18.2345C20.975 18.5981 20.7612 18.9345 20.499 19.2315C20.0008 19.8034 19.3389 20.2084 18.6029 20.3916C18.3085 20.463 18.0066 20.499 17.7037 20.4987C17.5966 20.4987 17.4941 20.4894 17.3916 20.4847C17.1289 21.0453 16.7121 21.5196 16.1899 21.852C15.6677 22.1845 15.0616 22.3615 14.4426 22.3622C14.1271 22.3624 13.8132 22.3169 13.5108 22.2271V22.2271Z" fill="#7BC24F"/>
<path d="M23.76 17.2374C23.2482 17.2371 22.7437 17.1163 22.2872 16.8848C21.8307 16.6534 21.4351 16.3177 21.1324 15.905C20.9749 16.2685 20.7611 16.605 20.4989 16.902C20.0006 17.4739 19.3387 17.8788 18.6027 18.062C18.3084 18.1335 18.0065 18.1694 17.7036 18.1692C17.5964 18.1692 17.4939 18.1599 17.3914 18.1552C17.1288 18.7158 16.712 19.19 16.1898 19.5225C15.6676 19.855 15.0615 20.0319 14.4424 20.0327C13.8218 20.0335 13.214 19.8567 12.6906 19.5232C12.1672 19.1897 11.7502 18.7134 11.4888 18.1506C11.3894 18.212 11.2867 18.268 11.1813 18.3183C10.7446 18.5259 10.2672 18.6341 9.78367 18.6351C9.62911 18.6369 9.4747 18.6245 9.32245 18.5978C8.83453 18.5352 8.36837 18.358 7.96208 18.0807C7.40608 17.706 6.97893 17.1692 6.73869 16.5433C6.47496 17.2311 6.45235 17.9881 6.67457 18.6905C6.89679 19.3929 7.35069 19.9991 7.96208 20.4101C8.36837 20.6874 8.83453 20.8646 9.32245 20.9272C9.4747 20.9538 9.62911 20.9663 9.78367 20.9645C10.2672 20.9635 10.7446 20.8553 11.1813 20.6477C11.2867 20.5973 11.3894 20.5414 11.4888 20.4799C11.7502 21.0428 12.1672 21.5191 12.6906 21.8526C13.214 22.1861 13.8218 22.3629 14.4424 22.3621C15.0615 22.3613 15.6676 22.1844 16.1898 21.8519C16.712 21.5194 17.1288 21.0452 17.3914 20.4846C17.4939 20.4893 17.5964 20.4986 17.7036 20.4986C18.0065 20.4988 18.3084 20.4628 18.6027 20.3914C19.3387 20.2082 20.0006 19.8033 20.4989 19.2314C20.7611 18.9344 20.9749 18.5979 21.1324 18.2344C21.5963 18.8749 22.2776 19.3246 23.0489 19.4992C23.8203 19.6739 24.6288 19.5617 25.3234 19.1836C26.018 18.8054 26.5511 18.1872 26.823 17.4446C27.0949 16.7019 27.087 15.8857 26.8008 15.1484C26.5647 15.7633 26.1477 16.2922 25.6048 16.6651C25.0619 17.0381 24.4187 17.2377 23.76 17.2374V17.2374Z" fill="#44853B"/>
<path d="M25.1643 13.3677L25.1434 13.3709C25.0459 14.0151 24.7131 14.6002 24.2093 15.0133C23.7055 15.4263 23.0664 15.6379 22.4157 15.6071C21.9966 15.6127 21.5815 15.526 21.1997 15.3533C20.8178 15.1807 20.4786 14.9261 20.206 14.6078C20.0705 14.8846 19.8904 15.1372 19.673 15.3556C19.2369 15.7937 18.6832 16.0959 18.0788 16.2258C17.8303 16.2793 17.5769 16.3061 17.3227 16.306C17.2323 16.306 17.1461 16.299 17.0599 16.2953C16.9225 16.5573 16.738 16.7918 16.5158 16.9871C15.9813 17.4555 15.293 17.7105 14.5824 17.7036C14.318 17.7039 14.0548 17.6698 13.7993 17.602C13.4413 17.5116 13.1057 17.3487 12.8132 17.1233C12.5207 16.898 12.2776 16.6151 12.0988 16.292C12.0163 16.3386 11.9302 16.3791 11.8402 16.4178C11.4681 16.5744 11.0685 16.6552 10.6648 16.6554C10.5351 16.6568 10.4054 16.6474 10.2772 16.6274C9.87227 16.5822 9.48191 16.4498 9.13303 16.2393C8.6332 15.9464 8.25128 15.4882 8.05312 14.9437C7.45414 15.3203 6.99372 15.8813 6.74121 16.5422C6.98145 17.1681 7.4086 17.7049 7.96461 18.0796C8.37089 18.3569 8.83705 18.5341 9.32497 18.5967C9.47641 18.6237 9.63003 18.6366 9.78386 18.6354C10.2674 18.6344 10.7448 18.5262 11.1815 18.3186C11.2869 18.2682 11.3896 18.2123 11.489 18.1508C11.7504 18.7137 12.1674 19.19 12.6908 19.5235C13.2142 19.857 13.822 20.0338 14.4426 20.033C15.0617 20.0322 15.6678 19.8553 16.19 19.5228C16.7122 19.1903 17.129 18.7161 17.3916 18.1555C17.4941 18.1602 17.5966 18.1695 17.7038 18.1695C18.0067 18.1697 18.3085 18.1337 18.6029 18.0623C19.3389 17.8791 20.0008 17.4742 20.499 16.9023C20.7613 16.6053 20.9751 16.2688 21.1326 15.9053C21.4781 16.377 21.9442 16.7471 22.482 16.9766C23.0197 17.2061 23.6094 17.2866 24.189 17.2096C24.7686 17.1326 25.3168 16.9011 25.7761 16.5392C26.2353 16.1773 26.5887 15.6985 26.7991 15.1529C26.5046 14.3694 25.919 13.7298 25.1643 13.3677V13.3677Z" fill="#5CB34F"/>
<path d="M9.65273 23.7043C9.54882 23.5112 9.46813 23.3065 9.41233 23.0944L7.27256 22.1762C7.18876 22.1399 7.11728 22.0801 7.06676 22.004C7.01624 21.928 6.98885 21.8389 6.98791 21.7476V21.2305C6.83561 21.2989 6.67626 21.3505 6.51271 21.3842C6.36267 21.4163 6.20958 21.4319 6.05615 21.4308V21.7476C6.05673 22.0209 6.1371 22.2881 6.28739 22.5163C6.43769 22.7446 6.65136 22.924 6.90219 23.0325L9.46964 24.1329C9.51984 24.1545 9.57346 24.1671 9.62804 24.1702L9.99095 24.1893C9.86123 24.0401 9.74784 23.8775 9.65273 23.7043V23.7043Z" fill="#5D241D"/>
<path d="M13.0449 22.0415V22.9588L12.0539 23.2905C11.9918 23.3115 11.9347 23.3454 11.8866 23.3899C11.8384 23.4345 11.8002 23.4887 11.7744 23.5491L12.2012 23.7322L12.8455 24.008L13.658 23.7359C13.7507 23.705 13.8314 23.6457 13.8885 23.5665C13.9457 23.4872 13.9765 23.392 13.9766 23.2942V22.329C13.6523 22.2852 13.3375 22.188 13.0449 22.0415Z" fill="#5D241D"/>
<path d="M20.9523 18.5742C20.8254 18.8091 20.6734 19.0295 20.499 19.2316C20.3571 19.3924 20.2012 19.5403 20.0331 19.6737V21.3187C20.0334 21.4059 20.0092 21.4915 19.9632 21.5656C19.9173 21.6397 19.8514 21.6994 19.7732 21.738L18.6355 22.3068V23.0704C18.6355 23.1459 18.6267 23.2195 18.6206 23.294H18.6355C18.708 23.2941 18.7795 23.2772 18.8442 23.2446L20.1901 22.5691C20.4232 22.4539 20.6194 22.2757 20.7563 22.0547C20.8933 21.8337 20.9655 21.5787 20.9649 21.3187V18.6352C20.9624 18.6146 20.9582 18.5942 20.9523 18.5742V18.5742Z" fill="#5D241D"/>
<path d="M15.2061 27.9529C14.9906 27.953 14.7817 27.8784 14.6151 27.7418C14.4484 27.6052 14.3343 27.4151 14.292 27.2038L13.9762 25.6235L10.6074 23.9389C10.4998 23.8852 10.4093 23.8025 10.346 23.7003C10.2827 23.598 10.2492 23.4801 10.2491 23.3598V23.0104C10.2491 22.8385 10.3174 22.6737 10.4389 22.5522C10.5605 22.4307 10.7253 22.3624 10.8972 22.3624H11.1809V20.6479C10.7442 20.8556 10.2668 20.9638 9.78326 20.9647C9.6287 20.9666 9.4743 20.9541 9.32204 20.9275L9.31738 20.9647V22.381C9.31903 22.9282 9.48036 23.463 9.7816 23.9198C10.0828 24.3767 10.5109 24.7356 11.0132 24.9527L12.5785 25.6235V28.8847H16.3055L15.9328 27.9529H15.2061Z" fill="#714226"/>
<path d="M18.6027 20.3916C18.3083 20.463 18.0064 20.499 17.7035 20.4988C17.5964 20.4988 17.4939 20.4894 17.3914 20.4848C17.2317 20.8281 17.0125 21.1404 16.7438 21.4072L16.7718 21.4305V23.131C16.771 23.3168 16.7147 23.4981 16.6101 23.6517C16.5055 23.8053 16.3574 23.9241 16.1848 23.9928L14.4424 24.6917L15.3741 26.5552L16.387 25.9775L16.3287 25.8908C16.1967 25.6926 16.1456 25.4514 16.1859 25.2167C16.2262 24.982 16.3548 24.7716 16.5454 24.6288L17.1445 24.1792C17.3181 24.049 17.4589 23.8802 17.556 23.6861C17.653 23.4921 17.7035 23.2781 17.7035 23.0611V22.3623C17.7035 22.1151 17.8017 21.8782 17.9764 21.7034C18.1512 21.5287 18.3882 21.4305 18.6353 21.4305V20.4988L18.6027 20.3916Z" fill="#714226"/>
<path d="M23.0611 9.31746C22.6421 9.31664 22.2293 9.41904 21.8592 9.61562C21.782 9.57824 21.7027 9.54557 21.6216 9.51779C21.2623 9.3843 20.8821 9.31645 20.4988 9.31746C19.6339 9.31746 18.8044 9.66105 18.1928 10.2726C17.5813 10.8842 17.2377 11.7137 17.2377 12.5786C17.2399 12.744 17.2539 12.909 17.2796 13.0724C16.6648 13.1399 16.0768 13.361 15.5698 13.7153C15.3147 13.1747 14.8926 12.7302 14.3659 12.4474C13.8391 12.1646 13.2355 12.0584 12.6438 12.1445C12.0522 12.2306 11.5038 12.5044 11.0795 12.9256C10.6551 13.3467 10.3773 13.8931 10.2868 14.484L10.2495 14.4794V15.877L10.2868 15.8817C10.3821 15.2697 10.6769 14.7063 11.1254 14.2791C11.4452 13.9745 11.8328 13.7503 12.2563 13.625C12.6798 13.4997 13.127 13.4768 13.5611 13.5583C13.9951 13.6397 14.4036 13.8231 14.7529 14.0935C15.1021 14.3638 15.3821 14.7132 15.5698 15.113C16.0768 14.7586 16.6648 14.5375 17.2796 14.4701C17.2539 14.3067 17.2399 14.1416 17.2377 13.9762C17.2377 13.1113 17.5813 12.2818 18.1928 11.6703C18.8044 11.0587 19.6339 10.7151 20.4988 10.7151C20.8821 10.7141 21.2623 10.7819 21.6216 10.9154C21.7027 10.9432 21.782 10.9759 21.8592 11.0133C22.1961 10.8346 22.5687 10.7334 22.9497 10.717C23.3307 10.7007 23.7106 10.7696 24.0616 10.9187C24.4126 11.0679 24.7259 11.2935 24.9786 11.5791C25.2313 11.8647 25.4171 12.2032 25.5224 12.5698C25.633 12.1893 25.6533 11.7882 25.5814 11.3986C25.5095 11.0089 25.3476 10.6415 25.1085 10.3255C24.8694 10.0096 24.5597 9.7539 24.2043 9.57887C23.8488 9.40384 23.4574 9.31433 23.0611 9.31746V9.31746Z" fill="#8EE05B"/>
<path d="M19.1395 8.10611C18.6065 7.70319 17.9874 7.42927 17.3307 7.30585C16.674 7.18243 15.9977 7.21287 15.3547 7.39478C14.7118 7.57668 14.1197 7.9051 13.625 8.35427C13.1304 8.80344 12.7465 9.36114 12.5036 9.98359C12.5213 9.35652 11.8346 8.95866 11.2233 8.8161C10.2576 8.59834 9.24955 8.66303 8.31953 9.00245C8.12031 9.09788 7.91172 9.17235 7.69712 9.22468C7.45766 9.25869 7.21028 9.22934 6.96756 9.27127C6.82821 9.29622 6.69052 9.32967 6.55525 9.37143C6.5353 9.50784 6.52441 9.64542 6.52264 9.78327C6.52078 9.93783 6.53325 10.0922 6.55991 10.2445C6.66897 11.0216 7.0554 11.7331 7.6479 12.2477C8.24041 12.7623 8.99902 13.0453 9.78379 13.0444C10.2071 13.0437 10.6262 12.9615 11.0184 12.8022C11.0521 12.8311 11.0879 12.8576 11.1255 12.8814C11.4454 12.5768 11.833 12.3526 12.2565 12.2273C12.68 12.102 13.1272 12.0791 13.5612 12.1606C13.9953 12.242 14.4038 12.4254 14.753 12.6957C15.1023 12.9661 15.3823 13.3155 15.57 13.7153C16.0769 13.3609 16.6649 13.1398 17.2798 13.0724C17.254 12.909 17.24 12.7439 17.2378 12.5785C17.2378 11.7136 17.5814 10.8841 18.193 10.2726C18.8046 9.66097 19.6341 9.31739 20.499 9.31739C20.8822 9.31638 21.2625 9.38423 21.6217 9.51772C22.232 9.022 22.6418 8.32186 22.7752 7.54705C22.1737 7.31148 21.5206 7.23911 20.8822 7.33729C20.2437 7.43547 19.6425 7.7007 19.1395 8.10611V8.10611Z" fill="#44853B"/>
<path d="M21.9377 4.75233C21.7839 4.75233 21.6302 4.74534 21.476 4.75559C20.4586 4.78844 19.4932 5.21267 18.7809 5.93985C18.4424 5.60324 18.0381 5.34008 17.5933 5.16684C17.1485 4.9936 16.6728 4.914 16.1958 4.93302C15.7188 4.95204 15.2509 5.06928 14.8213 5.27739C14.3917 5.4855 14.0097 5.78001 13.6991 6.1425C13.3476 5.84962 12.9371 5.6359 12.4956 5.51588C12.0541 5.39586 11.592 5.37236 11.1406 5.44698C10.6892 5.5216 10.2592 5.69259 9.87977 5.94831C9.50039 6.20403 9.18055 6.53848 8.94201 6.92891C8.6805 6.70539 8.37747 6.53565 8.05027 6.42941C7.72306 6.32316 7.37812 6.2825 7.03518 6.30975C6.34858 6.36874 5.6897 6.60787 5.12508 7.00298C4.83212 7.20429 4.5605 7.43501 4.31445 7.69155C4.46229 8.16191 4.75595 8.57303 5.15294 8.86542C5.54994 9.1578 6.02967 9.31628 6.52271 9.31793C6.53669 9.31793 6.54601 9.31327 6.55998 9.31327C6.55719 9.33237 6.55998 9.35194 6.55532 9.37104C6.69059 9.32928 6.82828 9.29583 6.96763 9.27087C7.21035 9.22894 7.45773 9.25829 7.69719 9.22428C7.91179 9.17196 8.12038 9.09748 8.3196 9.00206C9.24962 8.66264 10.2576 8.59795 11.2234 8.81571C11.8346 8.95547 12.5214 9.35613 12.5036 9.9832C12.7467 9.36082 13.1306 8.80322 13.6253 8.35415C14.1201 7.90508 14.7121 7.57676 15.355 7.39495C15.998 7.21314 16.6743 7.18278 17.3309 7.30626C17.9876 7.42974 18.6066 7.7037 19.1396 8.10664C19.6424 7.70157 20.2432 7.43653 20.8813 7.33836C21.5195 7.24019 22.1722 7.31237 22.7735 7.54759C22.8656 7.04855 22.8377 6.53473 22.6918 6.04865C22.546 5.56257 22.2865 5.11821 21.9349 4.75233H21.9377Z" fill="#52A147"/>
<path d="M2.36731 18.56C2.46755 18.1381 2.595 17.7233 2.74887 17.3179C2.49751 17.2569 2.27616 17.1082 2.12459 16.8986C1.93717 16.6647 1.8118 16.3872 1.76009 16.0919C1.70838 15.7967 1.732 15.4931 1.82876 15.2094C1.93566 14.9249 2.12153 14.6768 2.36452 14.4942C2.48433 14.4029 2.61678 14.3295 2.75772 14.2762C2.85089 14.2413 3.13881 14.2259 3.17142 14.1434C3.2003 14.0703 2.97202 13.7447 2.93848 13.6664C2.85383 13.4833 2.78221 13.2945 2.72418 13.1013C2.60536 12.7192 2.56448 12.3171 2.60398 11.9189C2.62466 11.7489 2.66339 11.5817 2.71952 11.4199C2.32466 11.6086 1.99111 11.9049 1.75729 12.2748C1.52346 12.6447 1.39885 13.0732 1.39782 13.5108C1.39782 13.576 1.4118 13.6366 1.41646 13.6971C0.996261 13.8761 0.637959 14.1747 0.386115 14.5557C0.134272 14.9368 0 15.3834 0 15.8402C0 16.2969 0.134272 16.7436 0.386115 17.1246C0.637959 17.5056 0.996261 17.8042 1.41646 17.9832C1.4118 18.0438 1.39782 18.1043 1.39782 18.1696C1.3978 18.4876 1.4795 18.8003 1.63507 19.0776C1.79064 19.355 2.01487 19.5877 2.28625 19.7535C2.25877 19.3538 2.28604 18.9523 2.36731 18.56V18.56Z" fill="#39632C"/>
<path d="M11.0179 12.8028C10.6257 12.9621 10.2066 13.0444 9.7833 13.045C8.99854 13.0459 8.23993 12.7629 7.64742 12.2484C7.05492 11.7338 6.66849 11.0223 6.55943 10.2451L6.52216 10.2498C6.15352 10.251 5.7935 10.3614 5.48766 10.5673C5.18182 10.7731 4.94391 11.065 4.80401 11.4061C4.94983 11.8845 5.13897 12.3509 5.32905 12.814C5.39055 12.9649 5.45251 13.1159 5.52658 13.2612C5.64189 13.5087 5.7941 13.7373 5.97802 13.9391C5.79269 14.0585 5.61811 14.1938 5.45623 14.3434C5.29921 14.503 5.16188 14.6809 5.04719 14.8731C4.8182 15.2583 4.67103 15.6865 4.61486 16.131C4.53196 17.0231 4.6844 17.9214 5.05698 18.7362C4.54836 19.0621 4.16724 19.5529 3.97754 20.1264C4.16748 20.5164 4.46293 20.8453 4.83036 21.0759C5.19779 21.3065 5.6225 21.4294 6.05628 21.4308C6.20971 21.432 6.36281 21.4163 6.51284 21.3842C7.07504 21.273 7.5762 20.9577 7.91979 20.4991L7.96172 20.4106C7.38145 20.0206 6.94186 19.4545 6.70777 18.7958C6.47368 18.137 6.45749 17.4204 6.66159 16.7518C6.86568 16.0831 7.27926 15.4977 7.84133 15.082C8.40339 14.6662 9.08419 14.4421 9.7833 14.4427C9.95179 14.4449 10.1199 14.4589 10.2865 14.4846C10.3818 13.8726 10.6766 13.3092 11.125 12.882C11.0874 12.8582 11.0516 12.8318 11.0179 12.8028V12.8028Z" fill="#233D1B"/>
<path d="M5.05724 18.7378C4.68467 17.9229 4.53223 17.0247 4.61512 16.1326C4.67129 15.688 4.81846 15.2598 5.04746 14.8747C5.16215 14.6824 5.29947 14.5046 5.4565 14.345C5.61837 14.1953 5.79295 14.06 5.97828 13.9406C5.79436 13.7388 5.64215 13.5103 5.52684 13.2628C5.45277 13.1174 5.39081 12.9665 5.32931 12.8155C5.13924 12.3524 4.95009 11.8838 4.80427 11.4076C4.79821 11.4216 4.79029 11.4347 4.7847 11.4486C4.46757 11.2789 4.11429 11.1879 3.75462 11.1833C3.39496 11.1787 3.03946 11.2606 2.71807 11.4221C2.66194 11.5838 2.62321 11.7511 2.60253 11.921C2.56304 12.3192 2.60391 12.7213 2.72273 13.1034C2.78077 13.2966 2.85238 13.4855 2.93703 13.6685C2.9729 13.7468 3.20118 14.0725 3.16997 14.1456C3.13736 14.2281 2.84945 14.2434 2.75627 14.2784C2.61533 14.3316 2.48288 14.4051 2.36307 14.4964C2.12008 14.679 1.93422 14.927 1.82731 15.2115C1.73055 15.4953 1.70694 15.7988 1.75865 16.0941C1.81036 16.3894 1.93572 16.6668 2.12314 16.9008C2.27472 17.1104 2.49607 17.2591 2.74742 17.3201C2.59324 17.7254 2.46548 18.1403 2.36493 18.5621C2.28465 18.9538 2.25817 19.3546 2.2862 19.7534C2.57879 19.9357 2.91654 20.0325 3.26128 20.0329C3.47252 20.0295 3.6818 19.9917 3.8809 19.9211C3.90839 19.9928 3.94426 20.0609 3.9778 20.1279C4.16751 19.5545 4.54862 19.0636 5.05724 18.7378V18.7378Z" fill="#2F5224"/>
<path d="M5.12463 7.0027C5.55293 6.71048 6.03172 6.50022 6.5367 6.38262C6.57078 5.79134 6.82939 5.2354 7.25966 4.82842C7.68993 4.42144 8.25939 4.19415 8.85165 4.19299C9.17097 4.19256 9.48683 4.25922 9.77874 4.38866C10.2069 3.66738 10.897 3.13925 11.7051 2.91444C12.5132 2.68963 13.3769 2.78549 14.1161 3.18204C14.4834 2.84543 14.9233 2.59775 15.4016 2.45814C15.8799 2.31853 16.3839 2.29071 16.8746 2.37684C17.3654 2.46297 17.8298 2.66075 18.232 2.95489C18.6341 3.24903 18.9633 3.63167 19.1941 4.07326C19.4215 3.87154 19.5668 3.72712 19.5668 3.72712H19.5296C19.5539 3.57301 19.5664 3.41726 19.5668 3.26124C19.5681 2.62937 19.3854 2.01079 19.0411 1.48098C18.6967 0.951184 18.2056 0.533076 17.6277 0.277686C17.0497 0.0222969 16.4099 -0.0593292 15.7863 0.0427696C15.1628 0.144868 14.5824 0.426276 14.1161 0.852651C13.3769 0.456105 12.5132 0.360239 11.7051 0.58505C10.897 0.809862 10.2069 1.33799 9.77874 2.05927C9.48683 1.92984 9.17097 1.86317 8.85165 1.86361C8.23385 1.86361 7.64137 2.10902 7.20452 2.54587C6.76768 2.98271 6.52226 3.5752 6.52226 4.19299C6.52346 4.35093 6.53905 4.50843 6.56885 4.66353C6.55487 4.66353 6.54089 4.65887 6.52226 4.65887C5.90447 4.65887 5.31198 4.90429 4.87513 5.34113C4.43829 5.77798 4.19287 6.37047 4.19287 6.98826C4.19519 7.33852 4.27875 7.68346 4.43699 7.99595C4.38856 7.89737 4.347 7.79557 4.3126 7.69127C4.55909 7.43466 4.83118 7.20394 5.12463 7.0027V7.0027Z" fill="#7BC24F"/>
</svg>
