<svg width="235" height="245" viewBox="0 0 235 245" fill="none" xmlns="http://www.w3.org/2000/svg">
<path d="M136.735 239.193C136.735 239.193 127.639 201.345 133.253 178.036C138.869 154.727 147.753 149.832 146.876 146.277C146.002 142.723 141.509 144.394 140.073 147.682C138.636 150.969 132.757 158.058 127.354 156.916C121.951 155.772 120.499 133.596 116.547 131.38C112.596 129.164 113.967 139.413 115.501 148.297C117.035 157.183 109.469 152.237 104.75 141.581C100.031 130.924 97.2698 134.047 96.7492 135.555C96.2277 137.063 107.123 156.072 106.319 156.983C105.512 157.894 91.8638 142.13 90.5395 142.582C89.2127 143.033 86.9515 144.279 90.2118 149.244C93.4721 154.209 103.709 162.556 103.057 163.95C102.405 165.344 93.9379 157.748 90.8504 157.569C87.7636 157.391 89.0164 161.741 94.5521 165.706C100.089 169.67 113.646 173.998 114.08 188.98C114.514 203.961 110.616 239.133 110.616 239.133C110.616 239.133 120.242 252.291 136.738 239.192L136.735 239.193Z" fill="white"/>
<path fill-rule="evenodd" clip-rule="evenodd" d="M127.931 138.796C127.931 138.796 93.1941 87.7163 152.168 32.6509C152.168 32.6509 206.157 96.2024 137.073 139.377C137.073 139.377 138.707 98.3989 146.459 81.7046C146.459 81.7046 125.69 118.022 127.931 138.795V138.796Z" fill="white"/>
<path fill-rule="evenodd" clip-rule="evenodd" d="M151.394 143.718C151.394 143.718 172.727 98.7923 235 117.318C235 117.318 212.845 180.686 154.711 150.298C154.711 150.298 183.849 134.756 198.599 133.335C198.599 133.335 164.898 133.712 151.394 143.719L151.394 143.718Z" fill="white"/>
<path fill-rule="evenodd" clip-rule="evenodd" d="M86.5034 144.61C86.5034 144.61 45.4662 173.451 0.000244141 126.289C0.000244141 126.289 50.9227 81.6615 86.8615 137.183C86.8615 137.183 53.5638 136.377 39.9086 130.297C39.9086 130.297 69.6638 146.693 86.5034 144.61Z" fill="white"/>
<path fill-rule="evenodd" clip-rule="evenodd" d="M98.4143 130.904C98.4143 130.904 45.2585 112.788 57.9988 40.5732C57.9988 40.5732 131.95 57.2288 105.365 126.334C105.365 126.334 84.1685 95.6732 80.6673 79.3175C80.6673 79.3175 85.444 117.056 98.4143 130.904Z" fill="white"/>
<path fill-rule="evenodd" clip-rule="evenodd" d="M180.168 102.226C180.168 102.226 178.676 68.7866 221.547 60.1641C221.547 60.1641 228.369 104.827 184.216 105.092C184.216 105.092 196.637 86.6634 204.958 81.1663C204.958 81.1663 185.039 92.0182 180.168 102.227V102.226Z" fill="white"/>
<path fill-rule="evenodd" clip-rule="evenodd" d="M48.5174 103.572C48.5174 103.572 17.2745 108.482 4.66895 69.1563C4.66895 69.1563 45.8949 58.0618 50.7853 99.4683C50.7853 99.4683 32.1689 89.7551 26.1336 82.5196C26.1336 82.5196 38.4106 100.068 48.5174 103.572Z" fill="white"/>
<path fill-rule="evenodd" clip-rule="evenodd" d="M109.63 63.6215C109.63 63.6215 84.8683 37.2341 113.973 0C113.973 0 151.01 31.8457 114.97 63.1246C114.97 63.1246 112.188 39.2656 115.147 28.9013C115.147 28.9013 106.443 51.8196 109.631 63.6215H109.63Z" fill="white"/>
<path fill-rule="evenodd" clip-rule="evenodd" d="M152.917 164.256C152.917 164.256 184.715 153.778 204.611 192.709C204.611 192.709 163.444 211.35 151.251 168.927C151.251 168.927 172.357 175.899 179.901 182.421C179.901 182.421 164.065 166.184 152.917 164.256V164.256Z" fill="white"/>
<path fill-rule="evenodd" clip-rule="evenodd" d="M88.0105 170.316C88.0105 170.316 75.6164 203.216 30.6567 193.825C30.6567 193.825 42.5479 147.879 85.286 165.873C85.286 165.873 65.6747 178.54 55.3623 180.404C55.3623 180.404 79.0755 178.167 88.0105 170.316Z" fill="white"/>
<path fill-rule="evenodd" clip-rule="evenodd" d="M88.0105 170.316C88.0105 170.316 75.6164 203.216 30.6567 193.825C30.6567 193.825 42.5479 147.879 85.286 165.873C85.286 165.873 65.6747 178.54 55.3623 180.404C55.3623 180.404 79.0755 178.167 88.0105 170.316Z" fill="white"/>
</svg>
