<svg width="89" height="89" viewBox="0 0 89 89" fill="none" xmlns="http://www.w3.org/2000/svg">
<circle cx="44.5" cy="44.5" r="44.5" fill="white"/>
<path fill-rule="evenodd" clip-rule="evenodd" d="M57.8018 66H59C62.866 66 66 62.866 66 59V58.2454H68V59C68 63.9706 63.9706 68 59 68H57.8018V66ZM23 58.2454V59C23 62.866 26.134 66 30 66H31.198V68H30C25.0294 68 21 63.9706 21 59V58.2454H23ZM31.198 23H30C26.134 23 23 26.134 23 30V31.6416H21V30C21 25.0294 25.0294 21 30 21H31.198V23ZM57.8018 23H59C62.866 23 66 26.134 66 30V31.6416H68V30C68 25.0294 63.9706 21 59 21H57.8018V23Z" fill="#75B904"/>
</svg>
