<svg width="30" height="30" viewBox="0 0 30 30" fill="none" xmlns="http://www.w3.org/2000/svg">
<path d="M14.9963 0.000488281C20.6011 0.000488281 25.1655 3.45894 25.3014 7.7656C24.3753 7.18897 23.3406 6.8086 22.2615 6.64805C21.1824 6.48749 20.0818 6.55017 19.0279 6.83221C17.974 7.11425 16.9892 7.60963 16.1345 8.28769C15.2798 8.96575 14.5734 9.81204 14.0591 10.7742L14.0544 10.7835C12.9912 10.4681 11.8878 10.3086 10.7787 10.3102C5.79724 10.3102 1.72958 13.4125 1.42966 17.3396H1.40623C0.734149 16.4434 0.285975 15.3996 0.0990494 14.2952C-0.0878759 13.1907 -0.00813833 12.0575 0.331618 10.9901C0.671374 9.9227 1.26131 8.95194 2.05227 8.15873C2.84322 7.36551 3.8123 6.77281 4.87874 6.43002C5.80661 2.76537 9.98206 0.000488281 14.9963 0.000488281Z" fill="#5D802B"/>
<path d="M25.3012 7.76586C26.9658 8.79949 28.1911 10.4103 28.7429 12.2904C29.2946 14.1705 29.1342 16.188 28.2922 17.9573C27.4502 19.7266 25.9857 21.1235 24.1786 21.881C22.3716 22.6385 20.3487 22.7035 18.4968 22.0636C19.5464 20.893 20.1343 19.3806 20.151 17.8085C20.151 14.589 17.6157 11.8429 14.0542 10.7838L14.0589 10.7744C14.5732 9.8123 15.2796 8.96601 16.1343 8.28795C16.989 7.60989 17.9738 7.11451 19.0277 6.83247C20.0816 6.55044 21.1822 6.48776 22.2613 6.64831C23.3404 6.80886 24.375 7.18923 25.3012 7.76586Z" fill="#6C9137"/>
<path d="M18.4967 22.0637C17.7749 22.8863 16.9054 23.5666 15.9333 24.0694C15.0478 24.534 14.1013 24.8716 13.1216 25.0722C12.3505 25.2295 11.5654 25.308 10.7785 25.3065C5.60017 25.3065 1.40598 21.9512 1.40598 17.8086C1.40432 17.652 1.41214 17.4955 1.42941 17.3399C1.72933 13.4129 5.79699 10.3106 10.7785 10.3106C11.8875 10.309 12.9909 10.4684 14.0542 10.7839C17.6157 11.843 20.151 14.5891 20.151 17.8086C20.1343 19.3807 19.5463 20.8931 18.4967 22.0637Z" fill="#8BBA47"/>
<path d="M20.6193 29.0555L17.2827 28.615L15.4644 29.0555H13.5899L11.7717 28.615L8.43506 29.0555L10.3049 27.495C10.613 27.2897 10.975 27.1804 11.3452 27.181H12.1841C12.4324 27.1803 12.6704 27.0813 12.846 26.9057C13.0216 26.7301 13.1206 26.4921 13.1213 26.2438V25.0722C14.101 24.8716 15.0475 24.534 15.9331 24.0693V26.2438C15.9338 26.4921 16.0328 26.7301 16.2084 26.9057C16.384 27.0813 16.622 27.1803 16.8703 27.181H17.7091C18.0793 27.1804 18.4414 27.2897 18.7495 27.495L20.6193 29.0555Z" fill="#92563A"/>
<path d="M13.4587 27.7696C13.6279 27.7357 13.7801 27.6442 13.8894 27.5108C13.9988 27.3773 14.0586 27.2101 14.0586 27.0376C14.0585 26.8157 14.1372 26.6011 14.2806 26.4318C14.424 26.2625 14.6228 26.1495 14.8416 26.113L15.9331 25.9312V24.0693C15.0475 24.534 14.101 24.8716 13.1213 25.0722V26.2438C13.1206 26.4921 13.0216 26.7301 12.846 26.9057C12.6704 27.0813 12.4324 27.1803 12.1841 27.181H11.3452C10.975 27.1804 10.613 27.2897 10.3049 27.495L8.43506 29.0555L11.7154 28.6225V28.5869L13.4587 27.7696Z" fill="#5D241D"/>
<path d="M18.7495 27.4949C18.4415 27.2896 18.0794 27.1803 17.7092 27.1809H16.8704C16.622 27.1802 16.384 27.0812 16.2084 26.9056C16.0328 26.73 15.9338 26.492 15.9331 26.2437V26.7123C15.9331 26.9609 16.0319 27.1992 16.2076 27.375C16.3834 27.5508 16.6218 27.6495 16.8704 27.6495H17.495C17.6978 27.6495 17.8951 27.7153 18.0574 27.837L19.482 28.9054L20.6194 29.0554L18.7495 27.4949Z" fill="#C47952"/>
<path d="M4.85248 13.7782C5.00572 13.9116 5.19603 13.995 5.39796 14.0172C5.94958 14.12 6.5169 14.1024 7.06111 13.9657C7.02098 14.407 7.1149 14.8501 7.3306 15.2372C7.5463 15.6243 7.87375 15.9373 8.27016 16.1354C8.67721 16.3504 9.14623 16.4177 9.5973 16.3256C9.81566 16.2816 10.0191 16.1824 10.1883 16.0374C10.3574 15.8925 10.4866 15.7066 10.5636 15.4976C11.0674 16.1509 11.9967 16.3964 12.8599 16.4016C13.1693 16.4247 13.4788 16.3569 13.7503 16.2066C13.9681 16.047 14.1261 15.819 14.1992 15.559C14.291 15.2793 14.3263 14.984 14.303 14.6906C14.2797 14.3971 14.1982 14.1111 14.0633 13.8494C14.3857 13.8935 14.7136 13.8728 15.0279 13.7887C15.3422 13.7045 15.6365 13.5585 15.8937 13.3593C16.1011 13.1602 16.2531 12.9106 16.3346 12.635C16.4162 12.3594 16.4247 12.0673 16.3591 11.7875C15.6349 11.3595 14.8606 11.0223 14.0539 10.7837C12.9907 10.4682 11.8873 10.3088 10.7782 10.3104C8.82738 10.2953 6.90798 10.8022 5.21894 11.7786C4.9959 12.1399 4.83186 12.5344 4.73298 12.9473C4.68275 13.0849 4.66738 13.2328 4.68823 13.3778C4.70909 13.5228 4.76551 13.6603 4.85248 13.7782Z" fill="#ACD949"/>
<path d="M2.89331 15.3154C2.97504 15.4681 3.09111 15.5997 3.23236 15.6999C3.37362 15.8001 3.5362 15.8661 3.70732 15.8928C4.0527 15.9449 4.40402 15.9438 4.74907 15.8895C4.531 16.1181 4.38853 16.4083 4.341 16.7207C4.29347 17.033 4.34317 17.3525 4.48336 17.6356C4.63479 17.9176 4.85117 18.1596 5.11462 18.3415C5.37806 18.5234 5.68101 18.6399 5.99842 18.6816C6.64308 18.7614 7.29529 18.6121 7.84105 18.2598C8.24688 19.273 9.44047 19.8363 10.5591 19.8006C11.2775 19.7782 12.0807 19.4567 12.2855 18.7861C12.9123 19.15 13.6227 19.3455 14.3474 19.3536C14.6002 19.3687 14.8529 19.3239 15.0851 19.2228C15.2963 19.085 15.4735 18.901 15.6034 18.6848C15.7333 18.4685 15.8124 18.2257 15.8349 17.9744C15.9313 17.4792 15.9684 16.9742 15.9454 16.4701C16.2819 16.5361 16.63 16.5089 16.9522 16.3913C17.2743 16.2738 17.5582 16.0705 17.7731 15.8033C17.8666 15.6659 17.929 15.5097 17.9557 15.3456C17.9824 15.1816 17.9728 15.0137 17.9276 14.8537C17.8825 14.6937 17.8028 14.5456 17.6943 14.4197C17.5857 14.2939 17.4509 14.1933 17.2993 14.1251C17.5141 14.0684 17.7107 13.957 17.8698 13.8019C18.0289 13.6468 18.1452 13.4532 18.2075 13.2399C17.6604 12.6752 17.0398 12.1866 16.3625 11.7872C16.4281 12.067 16.4197 12.3591 16.3381 12.6347C16.2565 12.9103 16.1045 13.1599 15.8972 13.3589C15.64 13.5582 15.3456 13.7042 15.0313 13.7883C14.717 13.8725 14.3891 13.8932 14.0667 13.8491C14.2011 14.1111 14.2821 14.3972 14.3049 14.6908C14.3276 14.9844 14.2918 15.2795 14.1994 15.5591C14.1263 15.8186 13.9686 16.0463 13.7513 16.2058C13.4799 16.3561 13.1704 16.4239 12.861 16.4008C11.9987 16.3956 11.0694 16.1501 10.5647 15.4968C10.4877 15.7058 10.3585 15.8917 10.1894 16.0366C10.0202 16.1816 9.81676 16.2808 9.59839 16.3249C9.14732 16.4169 8.6783 16.3496 8.27125 16.1346C7.87484 15.9365 7.5474 15.6235 7.3317 15.2364C7.116 14.8493 7.02207 14.4062 7.0622 13.9649C6.518 14.1016 5.95068 14.1192 5.39905 14.0164C5.19712 13.9942 5.00681 13.9108 4.85357 13.7774C4.76645 13.6594 4.70993 13.5217 4.68908 13.3766C4.66822 13.2314 4.68368 13.0833 4.73407 12.9456C4.83295 12.5327 4.997 12.1382 5.22004 11.7769C4.50365 12.1956 3.85055 12.7143 3.2804 13.3172C3.03898 13.7244 2.88497 14.1773 2.82818 14.6472C2.78996 14.8718 2.81245 15.1025 2.89331 15.3154Z" fill="#82BD00"/>
<path d="M19.0557 14.2974C19.0242 14.434 18.9641 14.5625 18.8795 14.6743C18.7948 14.7862 18.6876 14.8789 18.5646 14.9464C18.929 15.3222 19.1575 15.8089 19.2137 16.3293C19.2363 16.5876 19.173 16.846 19.0337 17.0647C18.8944 17.2833 18.6869 17.4498 18.4432 17.5384C18.7278 17.9806 18.9016 18.4848 18.9498 19.0084C18.9723 19.2697 18.9379 19.5328 18.8489 19.7794C18.7599 20.0261 18.6185 20.2506 18.4343 20.4373C17.9873 20.8525 17.4582 20.5624 17.0364 20.8389C16.6643 21.0826 16.4057 21.973 16.1929 22.3619C16.1199 22.5228 16.0097 22.664 15.8714 22.7738C15.695 22.8511 15.4999 22.8756 15.3098 22.8442C15.1198 22.8128 14.9429 22.727 14.8006 22.5972C14.6143 22.4258 14.3732 22.3261 14.1202 22.316C13.7031 22.3666 13.5489 22.8976 13.2406 23.1886C13.0985 23.3187 12.919 23.4007 12.7277 23.4232C12.5364 23.4457 12.3428 23.4073 12.1745 23.3137C11.8099 23.1009 11.5184 22.6159 11.1097 22.7148C10.9334 22.7915 10.7702 22.8954 10.6261 23.0227C10.0863 23.3596 9.37723 22.9786 8.96672 22.4866C8.86674 22.3353 8.72915 22.2125 8.56745 22.1304C8.44566 22.0954 8.3176 22.0879 8.19255 22.1084C7.39589 22.1843 6.52471 22.2991 5.84942 21.8563C5.47962 21.5775 5.17976 21.2165 4.97356 20.8019C4.93482 20.7149 4.87081 20.6416 4.78986 20.5915C4.69474 20.5602 4.5921 20.5602 4.49697 20.5915C4.2779 20.6619 4.04609 20.6837 3.81774 20.6552C3.58939 20.6267 3.37002 20.5486 3.17498 20.4265C2.56577 19.9382 2.74104 19.2348 3.02924 18.6457C2.84691 18.7438 2.63596 18.775 2.43306 18.7337C2.23016 18.6924 2.04813 18.5814 1.9186 18.4199C1.66244 18.0845 1.50938 17.6818 1.47809 17.2609C1.4706 17.2085 1.46872 17.156 1.46216 17.1035C1.45326 17.1817 1.43639 17.2581 1.43029 17.3378C1.41262 17.4941 1.40448 17.6514 1.40593 17.8088C1.40593 21.9514 5.60012 25.3068 10.7784 25.3068C11.5654 25.3082 12.3505 25.2297 13.1215 25.0724C14.1012 24.8718 15.0478 24.5342 15.9333 24.0696C16.9054 23.5668 17.7748 22.8865 18.4967 22.0639C19.5463 20.8933 20.1342 19.3809 20.1509 17.8088C20.1426 16.5555 19.7613 15.3331 19.0557 14.2974Z" fill="#5C8500"/>
<path d="M1.91787 18.4228C2.0474 18.5843 2.22943 18.6954 2.43233 18.7366C2.63523 18.7779 2.84617 18.7468 3.02851 18.6487C2.7403 19.2373 2.5641 19.9407 3.17425 20.4294C3.36929 20.5516 3.58866 20.6296 3.817 20.6581C4.04535 20.6866 4.27717 20.6649 4.49624 20.5944C4.59136 20.5631 4.69401 20.5631 4.78913 20.5944C4.87008 20.6445 4.93408 20.7178 4.97283 20.8048C5.17903 21.2195 5.47889 21.5805 5.84869 21.8592C6.5221 22.3021 7.39281 22.1873 8.19181 22.1113C8.31687 22.0908 8.44492 22.0983 8.56671 22.1334C8.72842 22.2155 8.866 22.3382 8.96598 22.4895C9.37649 22.9816 10.0855 23.3626 10.6254 23.0256C10.7695 22.8983 10.9327 22.7945 11.109 22.7177C11.5176 22.6189 11.8091 23.1039 12.1737 23.3166C12.3421 23.4103 12.5356 23.4486 12.727 23.4261C12.9183 23.4037 13.0977 23.3216 13.2398 23.1915C13.5482 22.9005 13.7024 22.3695 14.1194 22.3189C14.3724 22.329 14.6136 22.4287 14.7999 22.6001C14.9422 22.73 15.119 22.8158 15.3091 22.8471C15.4992 22.8785 15.6942 22.8541 15.8707 22.7768C16.009 22.6669 16.1192 22.5257 16.1922 22.3649C16.4063 21.9759 16.665 21.0855 17.0357 20.8418C17.4575 20.5653 17.9865 20.8554 18.4336 20.4402C18.6177 20.2535 18.7592 20.0291 18.8482 19.7824C18.9372 19.5357 18.9716 19.2727 18.9491 19.0114C18.9008 18.4878 18.7271 17.9835 18.4425 17.5413C18.6869 17.4527 18.8951 17.2858 19.0346 17.0665C19.1742 16.8472 19.2372 16.5879 19.2139 16.329C19.158 15.8087 18.9301 15.322 18.5662 14.9461C18.6892 14.8785 18.7965 14.7858 18.8811 14.674C18.9657 14.5621 19.0258 14.4337 19.0573 14.297C18.8059 13.9201 18.5209 13.5668 18.2059 13.2412C18.1436 13.4545 18.0273 13.6481 17.8681 13.8032C17.709 13.9583 17.5125 14.0697 17.2977 14.1264C17.4492 14.1946 17.5841 14.2952 17.6926 14.421C17.8012 14.5469 17.8808 14.695 17.926 14.855C17.9711 15.015 17.9807 15.1829 17.954 15.3469C17.9273 15.511 17.865 15.6672 17.7714 15.8046C17.5565 16.0718 17.2726 16.2751 16.9505 16.3926C16.6284 16.5102 16.2803 16.5374 15.9438 16.4714C15.9668 16.9755 15.9297 17.4805 15.8332 17.9757C15.8108 18.227 15.7316 18.4699 15.6018 18.6861C15.4719 18.9023 15.2947 19.0863 15.0834 19.2241C14.8513 19.3252 14.5985 19.37 14.3458 19.3549C13.621 19.3468 12.9107 19.1513 12.2838 18.7874C12.0791 19.458 11.2758 19.7795 10.5574 19.802C9.44023 19.8376 8.24664 19.2743 7.83941 18.2611C7.29365 18.6134 6.64144 18.7627 5.99677 18.6829C5.67928 18.6413 5.37624 18.5248 5.11271 18.3429C4.84918 18.161 4.63272 17.919 4.48124 17.6369C4.34105 17.3538 4.29135 17.0343 4.33888 16.722C4.38642 16.4096 4.52888 16.1194 4.74695 15.8908C4.40191 15.9451 4.05058 15.9462 3.7052 15.8941C3.53437 15.8669 3.37217 15.8006 3.23134 15.7001C3.0905 15.5997 2.97488 15.468 2.89354 15.3153C2.81205 15.1025 2.78891 14.8718 2.82653 14.6471C2.8839 14.177 3.03855 13.7241 3.28063 13.3171C2.28157 14.3507 1.64344 15.6796 1.46143 17.1055C1.46799 17.158 1.46986 17.2105 1.47736 17.2629C1.50847 17.6841 1.66153 18.0871 1.91787 18.4228Z" fill="#6D9E00"/>
<path d="M16.3404 10.3574C16.7232 10.5797 17.1653 10.6784 17.6063 10.6401C18.0473 10.6018 18.4658 10.4282 18.8045 10.1432C19.2237 10.7186 19.8031 11.1577 20.4704 11.4057C20.9503 11.6096 21.4885 11.629 21.9818 11.4601C22.2242 11.3695 22.4299 11.2013 22.5666 10.9815C22.7034 10.7618 22.7635 10.5029 22.7376 10.2454C23.5343 10.7543 24.4908 11.1728 25.4055 10.9324C25.716 10.8482 26.0025 10.6927 26.2422 10.4782C26.482 10.2637 26.6684 9.99628 26.7866 9.6971C26.859 9.50481 26.9012 9.30247 26.9117 9.09726C26.1773 8.30877 25.2904 7.67762 24.3049 7.24208C23.3193 6.80654 22.2555 6.57568 21.1781 6.5635C20.1006 6.55132 19.0319 6.75806 18.0368 7.17121C17.0416 7.58436 16.1407 8.19529 15.3887 8.96698C15.4447 9.25118 15.558 9.521 15.7216 9.76003C15.8853 9.99906 16.0958 10.2023 16.3404 10.3574Z" fill="#6D9E00"/>
<path d="M21.0728 14.46C21.2003 14.4719 21.3203 14.5258 21.4139 14.6132C21.7672 14.899 22.2139 15.0438 22.6677 15.0196C23.1214 14.9954 23.5501 14.8038 23.8709 14.482C24.2774 14.1106 24.6306 13.6848 24.9207 13.2167C24.9462 13.1724 24.9815 13.1345 25.0238 13.1057C25.1008 13.0745 25.1863 13.071 25.2656 13.0958C25.984 13.2575 26.7349 13.191 27.4137 12.9056C27.9262 12.6706 28.3304 12.2499 28.5445 11.7284C28.1782 10.7525 27.6234 9.85827 26.9119 9.09659C26.9013 9.30179 26.8591 9.50413 26.7867 9.69643C26.6686 9.9956 26.4822 10.2631 26.2424 10.4775C26.0027 10.692 25.7161 10.8475 25.4057 10.9317C24.4909 11.1721 23.5349 10.7536 22.7378 10.2447C22.7637 10.5022 22.7036 10.7611 22.5668 10.9808C22.4301 11.2006 22.2244 11.3689 21.9819 11.4594C21.4887 11.6283 20.9504 11.6089 20.4706 11.405C19.8033 11.157 19.2239 10.7179 18.8046 10.1426C18.5297 10.3865 18.1948 10.553 17.8343 10.625C17.4739 10.697 17.1007 10.6718 16.7532 10.5521C16.4056 10.4325 16.0961 10.2225 15.8564 9.94388C15.6166 9.66522 15.4553 9.32784 15.3888 8.96631C14.8624 9.50318 14.4147 10.1119 14.0589 10.7743L14.0542 10.7836C15.1846 11.0832 16.2438 11.6058 17.1693 12.3207C18.0948 13.0356 18.868 13.9283 19.4434 14.9464C19.927 14.9304 20.3996 14.7979 20.8211 14.5603C20.8958 14.5072 20.9821 14.4728 21.0728 14.46Z" fill="#5C8500"/>
<path d="M27.2978 16.5857C27.139 16.5698 26.9857 16.5979 26.8967 16.4653C26.9333 16.7008 26.9085 16.9418 26.8249 17.1649C26.7412 17.3881 26.6015 17.586 26.4191 17.7395C26.049 18.0423 25.5978 18.2292 25.122 18.277C24.7348 18.3359 24.3395 18.3123 23.9621 18.2076C23.6144 18.1041 23.3604 17.7784 23.0277 17.9803C22.687 18.1861 22.4251 18.5024 22.0619 18.695C21.7268 18.8754 21.3634 18.9976 20.9873 19.0563C20.667 19.1036 20.3409 19.0966 20.0229 19.0357C19.7823 20.1592 19.2567 21.2018 18.4966 22.0635C19.5594 22.428 20.6872 22.5636 21.8061 22.4616C22.925 22.3595 24.0097 22.022 24.989 21.4713C25.9683 20.9205 26.8201 20.1689 27.4884 19.2658C28.1568 18.3627 28.6267 17.3285 28.8672 16.231L28.8518 16.2403C28.3796 16.5073 27.8386 16.6276 27.2978 16.5857Z" fill="#3C5619"/>
<path d="M28.5446 11.7275C28.3306 12.2489 27.9268 12.6696 27.4147 12.9047C26.7359 13.1901 25.9849 13.2567 25.2665 13.095C25.1872 13.0701 25.1017 13.0736 25.0247 13.1048C24.9824 13.1336 24.9472 13.1716 24.9216 13.2159C24.6316 13.6839 24.2784 14.1097 23.8719 14.4812C23.5511 14.803 23.1224 14.9945 22.6686 15.0187C22.2148 15.043 21.7682 14.8982 21.4149 14.6124C21.3213 14.525 21.2013 14.4711 21.0737 14.4592C20.983 14.4719 20.8967 14.5063 20.8221 14.5594C20.4006 14.7971 19.928 14.9296 19.4443 14.9456C19.9066 15.8292 20.149 16.8112 20.151 17.8084C20.1502 18.2211 20.1074 18.6327 20.0231 19.0367C20.3411 19.0976 20.6672 19.1046 20.9875 19.0573C21.3636 18.9986 21.7269 18.8764 22.0621 18.696C22.4253 18.5034 22.6872 18.1871 23.0279 17.9813C23.3606 17.7794 23.6146 18.1051 23.9623 18.2086C24.3398 18.313 24.7351 18.3363 25.1222 18.277C25.5981 18.229 26.0493 18.0417 26.4193 17.7386C26.602 17.5855 26.7421 17.3879 26.8261 17.1648C26.9102 16.9418 26.9354 16.7009 26.8992 16.4653C26.9883 16.598 27.1415 16.5698 27.3004 16.5858C27.8413 16.6277 28.3825 16.5075 28.8548 16.2404L28.8703 16.231C29.2026 14.7303 29.0902 13.1653 28.5469 11.7275H28.5446Z" fill="#4C6D00"/>
<path d="M18.9473 8.08178C18.9899 8.30091 19.1104 8.49719 19.2866 8.63428C19.8572 9.13377 20.5962 9.39792 21.3541 9.37331C21.6682 9.38348 21.977 9.29012 22.2328 9.1076C22.359 8.97335 22.4567 8.81497 22.5201 8.64198C22.5835 8.469 22.6112 8.28497 22.6016 8.10099C23.0856 8.28929 23.6098 8.3506 24.1242 8.27907C24.4324 8.24698 24.7267 8.13469 24.978 7.95337C25.0636 7.88325 25.1361 7.79853 25.1922 7.70313C23.9823 6.97314 22.5996 6.57924 21.1867 6.56211C19.7738 6.54497 18.382 6.90522 17.1548 7.60565C17.2582 7.68967 17.3715 7.76065 17.4922 7.817C17.948 8.02379 18.4478 8.11475 18.9473 8.08178Z" fill="#82BD00"/>
<path d="M7.82005 6.27253C7.80412 6.25191 7.79147 6.22941 7.77319 6.20926C7.79006 6.22941 7.80271 6.25191 7.82005 6.27253C7.86129 6.25378 7.903 6.23597 7.9433 6.21582C8.02265 6.16659 8.11377 6.13956 8.20714 6.13756C8.32115 6.16258 8.4249 6.22156 8.50471 6.30674C9.1397 6.82785 10.0282 6.87659 10.8478 6.88783C11.682 6.92578 12.5177 6.86903 13.339 6.71866C14.1654 6.56549 14.9251 6.16322 15.5163 5.56584C16.3336 6.06446 17.3533 6.0504 18.3097 6.00963C18.8185 6.00907 19.325 5.94291 19.8168 5.81281C20.3126 5.67964 20.7409 5.36633 21.0179 4.93414C21.5733 5.28891 22.1967 5.52369 22.8481 5.62344C23.4995 5.72319 24.1646 5.68569 24.8007 5.51336C24.0359 3.8245 22.7357 2.43486 21.1013 1.55957C21.0196 1.73097 20.9207 1.89363 20.8061 2.04507C20.5328 2.36977 20.1955 2.63462 19.8153 2.82306C19.435 3.0115 19.02 3.11947 18.5961 3.14024C17.7459 3.17602 16.8982 3.02551 16.1124 2.69927C16.1037 3.03833 16.0043 3.36888 15.8244 3.65645C15.6446 3.94402 15.3909 4.1781 15.0898 4.3343C14.4822 4.63755 13.811 4.79161 13.1319 4.78371C12.0105 4.82635 10.7476 4.63937 10.068 3.74664C9.93947 4.11582 9.70336 4.43807 9.39009 4.67192C9.07682 4.90576 8.70073 5.0405 8.31023 5.05879C7.52708 5.07993 6.75332 4.88418 6.07443 4.49316C5.9882 4.44958 5.90197 4.40225 5.81668 4.35257C5.4363 4.92447 5.14419 5.55038 4.9502 6.20926C5.17855 6.39252 5.44447 6.52324 5.72905 6.59213C6.4422 6.72121 7.17802 6.60874 7.82005 6.27253Z" fill="#4C6D00"/>
<path d="M8.30845 5.05724C8.69895 5.03895 9.07504 4.90421 9.38831 4.67037C9.70158 4.43652 9.93769 4.11427 10.0663 3.74509C10.7458 4.63548 12.0087 4.82293 13.1301 4.78216C13.8092 4.79006 14.4804 4.636 15.088 4.33275C15.3893 4.17688 15.6433 3.94305 15.8235 3.65564C16.0037 3.36823 16.1035 3.03775 16.1125 2.69865C16.8983 3.0249 17.746 3.17541 18.5962 3.13963C19.0201 3.11911 19.4353 3.01133 19.8158 2.82306C20.1962 2.63478 20.5337 2.37004 20.8071 2.04539C20.9217 1.89395 21.0206 1.73129 21.1024 1.55989C19.9351 0.902948 18.6647 0.44896 17.3454 0.217285C17.1122 0.492634 16.8239 0.716117 16.4991 0.87336C15.9201 1.14381 15.2618 1.19152 14.6499 1.00739C14.6452 1.17598 14.6007 1.34107 14.5201 1.4892C14.4395 1.63734 14.325 1.76433 14.1859 1.85981C13.905 2.04822 13.5773 2.15496 13.2393 2.16817C12.6786 2.20669 12.119 2.07993 11.6296 1.80358C11.5821 1.76863 11.524 1.75094 11.4651 1.75344C11.4153 1.76865 11.3706 1.79717 11.3358 1.83591C11.0245 2.06197 10.6404 2.1645 10.2579 2.12365C9.75558 2.11231 9.25722 2.0314 8.77708 1.88325C8.6836 1.8544 8.59176 1.82045 8.502 1.78155C7.43357 2.4365 6.51716 3.31185 5.81396 4.34915C5.89925 4.39882 5.98548 4.44615 6.07171 4.48974C6.75068 4.88157 7.5248 5.07798 8.30845 5.05724Z" fill="#5C8500"/>
<path d="M10.2584 2.12545C10.6409 2.1663 11.025 2.06377 11.3362 1.83771C11.371 1.79897 11.4157 1.77045 11.4656 1.75524C11.5245 1.75274 11.5825 1.77043 11.63 1.80538C12.1194 2.08173 12.6791 2.20849 13.2398 2.16997C13.5778 2.15676 13.9055 2.05002 14.1864 1.86161C14.3254 1.76613 14.4399 1.63914 14.5205 1.491C14.6011 1.34287 14.6456 1.17778 14.6503 1.00919C15.2622 1.19332 15.9205 1.14561 16.4995 0.87516C16.8243 0.717917 17.1126 0.494434 17.3459 0.219085C16.5705 0.0763975 15.784 0.00331356 14.9957 0.000706062C12.7074 -0.0238594 10.458 0.593036 8.50244 1.78148C8.59221 1.82038 8.68404 1.85432 8.77752 1.88317C9.25758 2.03196 9.75594 2.1135 10.2584 2.12545Z" fill="#6D9E00"/>
<path d="M21.0202 4.93457C20.7429 5.36623 20.3146 5.67902 19.8191 5.81184C19.3273 5.94194 18.8207 6.00809 18.312 6.00866C17.3555 6.04943 16.3358 6.06349 15.5185 5.56487C14.9274 6.16225 14.1676 6.56452 13.3413 6.71769C12.5199 6.86806 11.6842 6.92481 10.8501 6.88686C10.0281 6.87561 9.13959 6.82688 8.50695 6.30577C8.42714 6.22059 8.32338 6.16161 8.20937 6.13659C8.116 6.13859 8.02489 6.16562 7.94553 6.21485C7.90523 6.235 7.86352 6.25281 7.82229 6.27156C7.99337 6.54003 8.10795 6.84055 8.15903 7.15478C8.21011 7.46901 8.19663 7.79035 8.11939 8.09919C8.02952 8.82972 7.69115 9.50711 7.16106 10.0177C6.87108 10.2498 6.54807 10.4373 6.20272 10.574C5.66973 10.8068 5.12178 11.0038 4.56253 11.1635C4.28136 11.2437 3.99456 11.2943 3.7162 11.3749C3.47673 11.4442 3.4786 11.5862 3.34598 11.7887C3.09066 12.1444 2.75091 12.4312 2.35728 12.6231C1.96366 12.815 1.5285 12.906 1.09096 12.8881C0.711161 12.8816 0.34093 12.7679 0.0229663 12.56C0.00843894 12.7475 3.68762e-06 12.9349 3.68762e-06 13.1224C-0.00155637 14.6436 0.49191 16.124 1.40588 17.34H1.42931C1.72923 13.4129 5.79689 10.3106 10.7784 10.3106C11.8874 10.309 12.9908 10.4685 14.0541 10.7839L14.0587 10.7746C14.5731 9.81244 15.2795 8.96615 16.1342 8.28809C16.9889 7.61003 17.9736 7.11465 19.0275 6.83261C20.0814 6.55058 21.182 6.48789 22.2611 6.64845C23.3402 6.809 24.3749 7.18937 25.301 7.766C25.2742 6.9911 25.1054 6.22771 24.8029 5.51379C24.1668 5.68612 23.5017 5.72362 22.8503 5.62387C22.1989 5.52413 21.5755 5.28934 21.0202 4.93457Z" fill="#324D11"/>
<path d="M3.34315 11.7917C3.47578 11.5893 3.4739 11.4473 3.71337 11.3779C3.99173 11.2973 4.27994 11.2467 4.5597 11.1666C5.11895 11.0068 5.6669 10.8099 6.19989 10.5771C6.54524 10.4404 6.86825 10.2529 7.15823 10.0208C7.68832 9.51017 8.02669 8.83277 8.11656 8.10225C8.1938 7.79341 8.20728 7.47206 8.1562 7.15784C8.10512 6.84361 7.99054 6.54309 7.81946 6.27461C7.17667 6.6106 6.44012 6.72242 5.72658 6.59234C5.442 6.52345 5.17608 6.39273 4.94773 6.20947C4.9257 6.28398 4.89711 6.35662 4.8779 6.43207C4.62897 6.51371 4.38489 6.60946 4.14685 6.71887C4.27146 6.80257 4.39072 6.89397 4.50394 6.99254C4.90346 7.32015 5.16714 7.78439 5.2439 8.29532C5.26028 8.65263 5.17513 9.00727 4.99832 9.31819C4.8215 9.62911 4.56024 9.8836 4.24479 10.0522C3.60378 10.3795 2.86806 10.4709 2.16644 10.3104C2.17312 10.5283 2.09822 10.7408 1.95641 10.9064C1.8146 11.072 1.6161 11.1786 1.39977 11.2055C1.03113 11.2464 0.658129 11.1935 0.315371 11.0518C0.162436 11.5429 0.0643645 12.0494 0.0229492 12.5621C0.340913 12.77 0.711143 12.8837 1.09094 12.8902C1.52794 12.9078 1.96247 12.8167 2.35556 12.6249C2.74864 12.4332 3.08799 12.1469 3.34315 11.7917Z" fill="#5C8500"/>
<path d="M1.39983 11.2057C1.61616 11.1788 1.81466 11.0721 1.95647 10.9066C2.09828 10.741 2.17318 10.5285 2.1665 10.3106C2.868 10.4714 3.60373 10.3803 4.24485 10.0533C4.56045 9.88466 4.8218 9.63002 4.99863 9.31892C5.17546 9.00782 5.26052 8.65298 5.24395 8.29552C5.16832 7.78314 4.90471 7.31724 4.50447 6.98852C4.39125 6.88995 4.27199 6.79854 4.14737 6.71484C3.23799 7.12464 2.42609 7.72303 1.76546 8.47034C1.10484 9.21766 0.610574 10.0968 0.31543 11.0496C0.657982 11.1921 1.03099 11.2458 1.39983 11.2057Z" fill="#6D9E00"/>
<path d="M6.95581 11.529C7.32947 11.7293 7.74654 11.8348 8.17048 11.8364C8.15177 12.0621 8.19488 12.2886 8.2952 12.4916C8.39551 12.6947 8.54924 12.8665 8.73986 12.9888C8.96132 13.1608 9.21814 13.2816 9.49185 13.3425C9.76556 13.4035 10.0494 13.403 10.3229 13.3412C10.595 13.2726 10.8412 13.1259 11.031 12.9192C11.2207 12.7124 11.3459 12.4546 11.3909 12.1776C11.7642 12.4312 12.2188 12.5363 12.6655 12.4724C12.8863 12.4342 13.0881 12.3236 13.2391 12.1581C13.39 11.9925 13.4816 11.7814 13.4992 11.5581C13.789 11.6073 14.0869 11.5597 14.347 11.4226C14.4945 11.3138 14.6007 11.1579 14.6478 10.9807C14.4533 10.91 14.2556 10.8439 14.0541 10.7839C12.9908 10.4684 11.8874 10.309 10.7784 10.3106C9.35638 10.3068 7.94659 10.5731 6.62402 11.0955C6.62817 11.1664 6.64785 11.2355 6.68166 11.298C6.74982 11.3989 6.84475 11.4789 6.95581 11.529Z" fill="#CCF27A"/>
<path d="M23.9228 9.29695C24.0948 9.73584 24.3406 10.1421 24.6496 10.498C24.7482 10.6557 24.8322 10.8222 24.9003 10.9952C25.0711 10.9946 25.2411 10.9735 25.4069 10.9325C25.7174 10.8482 26.0039 10.6927 26.2436 10.4783C26.4834 10.2638 26.6698 9.99634 26.7879 9.69716C26.831 9.58156 26.8624 9.46193 26.8817 9.34007C26.5653 9.03958 26.2245 8.7659 25.8629 8.52185C25.5922 8.28304 25.277 8.10006 24.9355 7.9834C24.7236 8.12665 24.4825 8.22094 24.2297 8.25942C24.1017 8.3968 24.0074 8.56201 23.9541 8.74206C23.9009 8.9221 23.8901 9.11205 23.9228 9.29695Z" fill="#97DB00"/>
<path d="M26.8803 9.33838C26.861 9.46024 26.8296 9.57987 26.7865 9.69547C26.6684 9.99465 26.482 10.2621 26.2422 10.4766C26.0025 10.691 25.716 10.8465 25.4055 10.9308C25.2398 10.9718 25.0697 10.9929 24.8989 10.9936C25.1247 11.6842 25.2872 12.394 25.3844 13.1141C26.0665 13.2491 26.7734 13.1762 27.4136 12.9046C27.8566 12.6963 28.2195 12.3491 28.4474 11.9158C28.3704 11.599 28.2605 11.2912 28.1193 10.9973C27.8088 10.3747 27.3891 9.81286 26.8803 9.33838Z" fill="#89C700"/>
<path d="M27.4144 12.9048C26.7743 13.1764 26.0673 13.2493 25.3853 13.1143C25.3923 13.1476 25.3979 13.1813 25.4049 13.2146C25.605 14.1387 26.0896 15.1327 27.0226 15.4124C27.1363 15.4543 27.2573 15.4724 27.3782 15.4655C27.4992 15.4587 27.6174 15.427 27.7256 15.3726C27.8491 15.2879 27.9511 15.1756 28.0236 15.0446C28.3004 14.5781 28.4806 14.0608 28.5536 13.5234C28.6266 12.986 28.5909 12.4394 28.4487 11.916C28.2207 12.3494 27.8576 12.6966 27.4144 12.9048Z" fill="#7FB800"/>
<path d="M24.5298 8.03289C24.416 8.088 24.3137 8.16435 24.2285 8.25783C24.4813 8.21935 24.7224 8.12506 24.9343 7.98181C24.7975 7.95507 24.6557 7.97297 24.5298 8.03289Z" fill="#BDFF2B"/>
<path d="M15.8938 13.361C16.14 13.1355 16.3047 12.835 16.3625 12.5062C15.7477 12.2371 15.0726 12.1357 14.406 12.2124C14.1539 12.2202 13.9148 12.3262 13.7396 12.5076C13.6582 12.6323 13.6081 12.7747 13.5934 12.9228C13.5787 13.071 13.5999 13.2204 13.6552 13.3586C13.7414 13.5747 13.9584 13.7022 14.1238 13.854C14.7558 13.9295 15.3919 13.7523 15.8938 13.361Z" fill="#BDFF2B"/>
<path d="M16.7019 12.661C16.5927 12.6005 16.4765 12.5556 16.3621 12.5063C16.3044 12.8351 16.1396 13.1356 15.8935 13.3611C15.3914 13.7527 14.7548 13.9299 14.1226 13.8541L14.1432 13.8719C14.5666 14.2947 14.9639 14.7427 15.333 15.2136C15.684 15.6443 16.0388 16.0852 16.4254 16.4897C16.6865 16.4841 16.9431 16.4196 17.1758 16.3009C17.4085 16.1823 17.6114 16.0126 17.7694 15.8045C17.863 15.6671 17.9253 15.5109 17.952 15.3469C17.9787 15.1828 17.9691 15.0149 17.9239 14.8549C17.8788 14.695 17.7991 14.5469 17.6906 14.421C17.582 14.2951 17.4472 14.1946 17.2956 14.1264C17.571 14.0581 17.8125 13.8927 17.9756 13.6606C17.6084 13.2601 17.1781 12.9225 16.7019 12.661Z" fill="#9FDE14"/>
<path d="M17.296 14.1265C17.4476 14.1946 17.5824 14.2952 17.691 14.4211C17.7995 14.5469 17.8792 14.6951 17.9243 14.855C17.9695 15.015 17.9791 15.1829 17.9524 15.3469C17.9257 15.511 17.8634 15.6672 17.7698 15.8046C17.6119 16.0127 17.4089 16.1824 17.1762 16.301C16.9435 16.4196 16.6869 16.4842 16.4258 16.4897C16.8441 16.9474 17.3349 17.3331 17.8785 17.6313C18.0939 17.7542 18.3398 17.8134 18.5875 17.8019C18.5407 17.7128 18.4938 17.6238 18.4432 17.538C18.6704 17.4574 18.8666 17.3076 19.0043 17.1096C19.1419 16.9116 19.2139 16.6755 19.2103 16.4344C19.1998 16.261 19.1758 16.0887 19.1386 15.9189C19.018 15.5577 18.8229 15.2258 18.566 14.9447C18.6312 14.914 18.6915 14.8739 18.745 14.8256C18.5469 14.402 18.288 14.0095 17.9765 13.6606C17.8132 13.8929 17.5716 14.0583 17.296 14.1265Z" fill="#87BD11"/>
<path d="M23.0958 4.86942C24.1675 4.00013 22.3792 2.68751 21.8052 2.23763C21.5566 2.0437 21.2975 1.86363 21.0291 1.69824C20.9649 1.81971 20.8911 1.93583 20.8084 2.04549C20.5349 2.37048 20.1972 2.6355 19.8165 2.82394C19.4358 3.01239 19.0203 3.12022 18.596 3.14067C17.7459 3.17645 16.8982 3.02594 16.1123 2.69969C16.1171 2.85426 16.0975 3.00862 16.0542 3.15707L16.0922 3.18144C17.5459 4.14847 19.189 4.79483 20.912 5.07749C20.9508 5.03169 20.987 4.98365 21.0202 4.93363C21.1285 5.00533 21.2419 5.06812 21.3553 5.12951C21.5896 5.14732 21.8239 5.15763 22.0624 5.15341C22.429 5.17767 22.7931 5.07761 23.0958 4.86942Z" fill="#7DB500"/>
<path d="M18.596 3.14067C19.0201 3.12003 19.4353 3.01212 19.8157 2.82367C20.1962 2.63523 20.5336 2.37032 20.807 2.0455C20.8897 1.93583 20.9635 1.81971 21.0277 1.69825C20.2878 1.23702 19.4796 0.89585 18.633 0.687424C18.1261 0.564554 17.6079 0.493737 17.0866 0.476074C16.9104 0.636983 16.7118 0.771474 16.4971 0.875342C16.086 1.06556 15.6324 1.14505 15.1812 1.10591C15.0871 1.24247 15.0255 1.39877 15.0012 1.56281C14.9857 1.74067 15.0055 1.91982 15.0593 2.09004C15.1131 2.26027 15.1999 2.41823 15.3147 2.55489C15.5248 2.79554 15.7736 2.99939 16.0509 3.15801C16.0942 3.00956 16.1138 2.8552 16.109 2.70064C16.896 3.02704 17.7448 3.17723 18.596 3.14067Z" fill="#90D100"/>
<path d="M16.5005 0.87509C16.7153 0.771221 16.9138 0.63673 17.09 0.475822C16.9494 0.470667 16.8088 0.467855 16.6682 0.471135C16.3159 0.460439 15.9659 0.531664 15.6457 0.679205C15.4587 0.780437 15.3001 0.927085 15.1846 1.10565C15.6358 1.14479 16.0894 1.06531 16.5005 0.87509Z" fill="#99DE00"/>
<path d="M20.9121 5.07844C21.0597 5.09765 21.2073 5.11921 21.3554 5.13046C21.242 5.06907 21.1286 5.00627 21.0204 4.93457C20.9871 4.9846 20.951 5.03264 20.9121 5.07844Z" fill="#4C6D00"/>
</svg>
