<svg width="39" height="42" viewBox="0 0 39 42" fill="none" xmlns="http://www.w3.org/2000/svg">
<path d="M26.939 29.6201V33.2633C26.9393 33.9612 26.7551 34.6469 26.4051 35.2507C26.055 35.8546 25.5516 36.3552 24.9458 36.7019L22.319 38.2001L20.999 35.5601L23.4674 34.5701C23.712 34.4727 23.9218 34.3044 24.07 34.0868C24.2182 33.8692 24.298 33.6123 24.299 33.3491V30.9401L24.2594 30.9071C24.64 30.5291 24.9506 30.0866 25.1768 29.6003C25.322 29.6069 25.4672 29.6201 25.619 29.6201C26.0482 29.6204 26.4758 29.5694 26.8928 29.4683L26.939 29.6201Z" fill="#9A6948"/>
<path d="M17.8244 34.2005L20.999 35.5601L22.319 38.2001L23.639 41.5001H18.359V36.8801L16.1414 35.9297C15.4298 35.6222 14.8234 35.1137 14.3967 34.4665C13.9699 33.8194 13.7413 33.0617 13.739 32.2865V30.2801L13.7456 30.2273C13.9613 30.2651 14.18 30.2827 14.399 30.2801C15.0841 30.2787 15.7603 30.1254 16.379 29.8313V32.7089C16.3799 32.967 16.4558 33.2193 16.5976 33.4349C16.7394 33.6506 16.941 33.8203 17.1776 33.9233L17.8244 34.2005Z" fill="#9A6948"/>
<path d="M16.3001 18.8291C15.6648 19.4343 15.2471 20.2325 15.1121 21.0995C14.8762 21.0631 14.638 21.0432 14.3993 21.0401C13.4089 21.0393 12.4444 21.3568 11.6482 21.9458C10.8519 22.5348 10.266 23.3641 9.97685 24.3114C9.68771 25.2587 9.71065 26.2738 10.0423 27.207C10.3739 28.1403 10.9967 28.9423 11.8187 29.4947L11.7593 29.6201C11.2726 30.2699 10.5626 30.7166 9.76613 30.8741C9.55358 30.9196 9.33669 30.9417 9.11933 30.9401C8.44922 30.9388 7.7954 30.7335 7.24483 30.3515C6.69425 29.9695 6.27301 29.4289 6.03713 28.8017C5.75507 28.9018 5.45859 28.9553 5.15933 28.9601C4.45916 28.9601 3.78767 28.682 3.29257 28.1869C2.79747 27.6918 2.51933 27.0203 2.51933 26.3201C2.51933 26.2277 2.53913 26.1419 2.54573 26.0561C1.95045 25.8025 1.44285 25.3795 1.08606 24.8397C0.729283 24.2999 0.539063 23.6672 0.539062 23.0201C0.539062 22.3731 0.729283 21.7403 1.08606 21.2005C1.44285 20.6607 1.95045 20.2377 2.54573 19.9841C2.53913 19.8983 2.51933 19.8125 2.51933 19.7201C2.51486 19.1541 2.65718 18.5967 2.93241 18.1021C3.20764 17.6075 3.60637 17.1927 4.08971 16.8982C4.57304 16.6037 5.12447 16.4395 5.69018 16.4216C6.2559 16.4038 6.81659 16.5329 7.31753 16.7963C7.5088 16.2982 7.8463 15.8696 8.28568 15.5669C8.72506 15.2641 9.24576 15.1014 9.77933 15.1001L9.83213 15.0935C9.98663 16.1945 10.5341 17.2025 11.3735 17.9315C12.2129 18.6605 13.2876 19.0613 14.3993 19.0601C14.999 19.0591 15.5928 18.9426 16.1483 18.7169C16.1961 18.758 16.2469 18.7955 16.3001 18.8291Z" fill="#2F5224"/>
<path d="M32.879 10.4802C32.8795 11.1673 32.7263 11.8457 32.4305 12.4659C32.1347 13.086 31.7039 13.632 31.1696 14.064C30.6607 13.8749 30.1219 13.7788 29.579 13.7802C28.3537 13.7802 27.1786 14.267 26.3122 15.1334C25.4458 15.9998 24.959 17.1749 24.959 18.4002C24.9621 18.6345 24.982 18.8683 25.0184 19.0998C24.1474 19.1954 23.3144 19.5086 22.5962 20.0106C22.3303 19.4443 21.9336 18.9492 21.4388 18.5663C20.9441 18.1833 20.3654 17.9235 19.7504 17.8081C19.1355 17.6927 18.502 17.7251 17.902 17.9026C17.3021 18.0802 16.7529 18.3978 16.2998 18.8292C16.2465 18.7956 16.1958 18.7581 16.148 18.717C15.5925 18.9427 14.9986 19.0592 14.399 19.0602C13.2872 19.0614 12.2125 18.6606 11.3731 17.9316C10.5337 17.2026 9.9863 16.1946 9.8318 15.0936C9.79404 14.8779 9.77636 14.6592 9.779 14.4402C9.77992 14.217 9.79757 13.9942 9.8318 13.7736C9.812 13.7736 9.7988 13.7802 9.779 13.7802C8.90379 13.7802 8.06442 13.4325 7.44555 12.8137C6.82668 12.1948 6.479 11.3554 6.479 10.4802C6.479 9.605 6.82668 8.76563 7.44555 8.14676C8.06442 7.52789 8.90379 7.18021 9.779 7.18021C9.8054 7.18021 9.8252 7.18681 9.845 7.18681C9.80279 6.96708 9.7807 6.74396 9.779 6.52021C9.779 5.645 10.1267 4.80563 10.7456 4.18676C11.3644 3.56789 12.2038 3.22021 13.079 3.22021C13.5314 3.2196 13.9789 3.31404 14.3924 3.49741C14.999 2.47558 15.9766 1.72739 17.1215 1.40891C18.2663 1.09042 19.4899 1.22623 20.537 1.78801C21.1976 1.18398 22.0198 0.78531 22.9032 0.640669C23.7866 0.496028 24.693 0.611666 25.5118 0.973471C26.3306 1.33528 27.0264 1.9276 27.5142 2.67816C28.002 3.42872 28.2608 4.30505 28.259 5.20021C28.2584 5.42124 28.2407 5.64189 28.2062 5.86021H28.259C29.4843 5.86021 30.6594 6.34696 31.5258 7.21338C32.3923 8.0798 32.879 9.25491 32.879 10.4802Z" fill="#5CB34F"/>
<path d="M19.6795 32.0687C19.0556 31.8793 18.4783 31.5612 17.9849 31.1349C17.4915 30.7086 17.093 30.1836 16.8151 29.5937C16.6743 29.6807 16.5289 29.76 16.3795 29.8313C15.7608 30.1254 15.0846 30.2787 14.3995 30.2801C14.1805 30.2827 13.9618 30.2651 13.7461 30.2273C13.0549 30.1386 12.3945 29.8876 11.8189 29.4947C10.9968 28.9423 10.3741 28.1403 10.0424 27.207C9.71081 26.2738 9.68787 25.2586 9.97701 24.3113C10.2662 23.3641 10.8521 22.5348 11.6483 21.9458C12.4446 21.3568 13.4091 21.0393 14.3995 21.0401C14.6382 21.0432 14.8764 21.0631 15.1123 21.0995C15.2473 20.2325 15.6649 19.4343 16.3003 18.8291C16.7534 18.3976 17.3026 18.0801 17.9025 17.9025C18.5024 17.725 19.136 17.6926 19.7509 17.8079C20.3659 17.9233 20.9446 18.1832 21.4393 18.5661C21.9341 18.9491 22.3308 19.4441 22.5967 20.0105C23.3149 19.5085 24.1479 19.1953 25.0189 19.0997C24.9825 18.8682 24.9626 18.6344 24.9595 18.4001C24.9595 17.1748 25.4462 15.9997 26.3127 15.1333C27.1791 14.2668 28.3542 13.7801 29.5795 13.7801C30.1224 13.7787 30.6612 13.8748 31.1701 14.0639C31.285 14.1032 31.3974 14.1495 31.5067 14.2025C32.06 13.9086 32.6799 13.7629 33.3061 13.7796C33.9324 13.7963 34.5437 13.9748 35.0805 14.2977C35.6174 14.6206 36.0615 15.0769 36.3697 15.6223C36.678 16.1677 36.8398 16.7836 36.8395 17.4101C36.8381 18.1615 36.6054 18.8944 36.1729 19.5089C36.8107 19.8081 37.3717 20.2492 37.8129 20.7985C38.254 21.3478 38.5638 21.9907 38.7183 22.678C38.8729 23.3654 38.8682 24.079 38.7046 24.7643C38.541 25.4495 38.2229 26.0883 37.7745 26.6318C37.3262 27.1752 36.7594 27.6089 36.1177 27.8997C35.476 28.1905 34.7763 28.3306 34.0721 28.3095C33.3679 28.2883 32.6779 28.1064 32.0548 27.7776C31.4317 27.4488 30.892 26.9819 30.4771 26.4125C30.2539 26.9275 29.951 27.4041 29.5795 27.8249C28.8737 28.6351 27.936 29.2088 26.8933 29.4683C26.4763 29.5695 26.0486 29.6204 25.6195 29.6201C25.4677 29.6201 25.3225 29.6069 25.1773 29.6003C24.8052 30.3945 24.2147 31.0663 23.4749 31.5373C22.7351 32.0083 21.8765 32.259 20.9995 32.2601C20.5526 32.2604 20.1079 32.1959 19.6795 32.0687Z" fill="#7BC24F"/>
<path d="M34.1991 25C33.474 24.9995 32.7592 24.8284 32.1126 24.5005C31.4659 24.1725 30.9055 23.697 30.4767 23.1124C30.2535 23.6274 29.9506 24.104 29.5791 24.5248C28.8733 25.3349 27.9355 25.9086 26.8929 26.1682C26.4758 26.2693 26.0482 26.3203 25.6191 26.32C25.4673 26.32 25.3221 26.3068 25.1769 26.3002C24.8048 27.0943 24.2143 27.7662 23.4745 28.2372C22.7347 28.7082 21.8761 28.9589 20.9991 28.96C20.1199 28.9611 19.2587 28.7106 18.5173 28.2381C17.7758 27.7657 17.185 27.0909 16.8147 26.2936C16.6739 26.3806 16.5284 26.4599 16.3791 26.5312C15.7604 26.8253 15.0841 26.9786 14.3991 26.98C14.1801 26.9826 13.9614 26.9649 13.7457 26.9272C13.0544 26.8385 12.394 26.5875 11.8185 26.1946C11.0308 25.6638 10.4256 24.9033 10.0853 24.0166C9.71167 24.991 9.67965 26.0634 9.99447 27.0585C10.3093 28.0535 10.9523 28.9123 11.8185 29.4946C12.394 29.8875 13.0544 30.1385 13.7457 30.2272C13.9614 30.2649 14.1801 30.2826 14.3991 30.28C15.0841 30.2786 15.7604 30.1253 16.3791 29.8312C16.5284 29.7599 16.6739 29.6806 16.8147 29.5936C17.185 30.3909 17.7758 31.0657 18.5173 31.5381C19.2587 32.0106 20.1199 32.2611 20.9991 32.26C21.8761 32.2589 22.7347 32.0082 23.4745 31.5372C24.2143 31.0662 24.8048 30.3943 25.1769 29.6002C25.3221 29.6068 25.4673 29.62 25.6191 29.62C26.0482 29.6203 26.4758 29.5693 26.8929 29.4682C27.9355 29.2086 28.8733 28.6349 29.5791 27.8248C29.9506 27.404 30.2535 26.9274 30.4767 26.4124C31.1338 27.3198 32.099 27.9568 33.1917 28.2042C34.2844 28.4517 35.4299 28.2927 36.4139 27.757C37.3979 27.2213 38.1531 26.3455 38.5383 25.2934C38.9235 24.2413 38.9123 23.085 38.5069 22.0405C38.1724 22.9116 37.5817 23.6609 36.8125 24.1892C36.0434 24.7176 35.1322 25.0003 34.1991 25Z" fill="#44853B"/>
<path d="M36.1887 19.5176L36.159 19.5222C36.0209 20.4347 35.5494 21.2637 34.8357 21.8488C34.1219 22.434 33.2166 22.7337 32.2947 22.6902C31.701 22.698 31.1129 22.5753 30.572 22.3306C30.031 22.086 29.5505 21.7254 29.1643 21.2745C28.9723 21.6665 28.7172 22.0244 28.4093 22.3338C27.7914 22.9544 27.0069 23.3827 26.1507 23.5667C25.7987 23.6424 25.4396 23.6804 25.0796 23.6802C24.9515 23.6802 24.8294 23.6703 24.7073 23.665C24.5126 24.0362 24.2513 24.3684 23.9364 24.6451C23.1793 25.3087 22.2042 25.67 21.1974 25.6602C20.8229 25.6606 20.45 25.6123 20.088 25.5163C19.5809 25.3882 19.1054 25.1574 18.691 24.8382C18.2767 24.5189 17.9322 24.1181 17.679 23.6604C17.5622 23.7264 17.4401 23.7838 17.3127 23.8386C16.7855 24.0605 16.2194 24.1749 15.6475 24.1752C15.4637 24.1772 15.28 24.164 15.0984 24.1356C14.5247 24.0716 13.9717 23.884 13.4774 23.5858C12.7693 23.1708 12.2283 22.5216 11.9475 21.7504C11.099 22.2838 10.4467 23.0785 10.089 24.0148C10.4293 24.9016 11.0345 25.662 11.8221 26.1928C12.3977 26.5857 13.0581 26.8367 13.7493 26.9254C13.9639 26.9636 14.1815 26.982 14.3994 26.9802C15.0845 26.9788 15.7607 26.8255 16.3794 26.5314C16.5288 26.4601 16.6742 26.3808 16.815 26.2938C17.1854 27.0912 17.7762 27.7659 18.5177 28.2384C19.2591 28.7108 20.1203 28.9613 20.9994 28.9602C21.8765 28.9591 22.7351 28.7084 23.4749 28.2374C24.2147 27.7664 24.8051 27.0946 25.1772 26.3004C25.3224 26.307 25.4676 26.3202 25.6194 26.3202C26.0486 26.3205 26.4762 26.2696 26.8932 26.1684C27.9359 25.9089 28.8737 25.3352 29.5794 24.525C29.9509 24.1042 30.2538 23.6276 30.477 23.1126C30.9665 23.7809 31.6268 24.3051 32.3886 24.6302C33.1505 24.9553 33.9858 25.0694 34.8069 24.9603C35.6281 24.8513 36.4047 24.5233 37.0553 24.0106C37.706 23.4979 38.2066 22.8196 38.5046 22.0467C38.0875 20.9367 37.2578 20.0306 36.1887 19.5176Z" fill="#5CB34F"/>
<path d="M14.2142 34.1611C14.067 33.8876 13.9527 33.5976 13.8737 33.2972L10.8423 31.9963C10.7236 31.9449 10.6223 31.8602 10.5507 31.7524C10.4792 31.6446 10.4404 31.5185 10.439 31.3891V30.6565C10.2233 30.7535 9.99751 30.8265 9.76582 30.8743C9.55326 30.9198 9.33638 30.9419 9.11902 30.9403V31.3891C9.11984 31.7763 9.2337 32.1548 9.44661 32.4781C9.65953 32.8015 9.96224 33.0556 10.3176 33.2094L13.9548 34.7683C14.026 34.7989 14.1019 34.8168 14.1792 34.8211L14.6934 34.8482C14.5096 34.6369 14.349 34.4066 14.2142 34.1611Z" fill="#5D241D"/>
<path d="M19.0193 31.8054V33.105L17.6155 33.5749C17.5274 33.6046 17.4466 33.6526 17.3784 33.7157C17.3101 33.7788 17.256 33.8557 17.2195 33.9412L17.824 34.2006L18.7368 34.5913L19.8879 34.2058C20.0192 34.1621 20.1335 34.0781 20.2145 33.9658C20.2955 33.8535 20.3392 33.7186 20.3393 33.5802V32.2126C19.8799 32.1506 19.4338 32.013 19.0193 31.8054Z" fill="#5D241D"/>
<path d="M30.2218 26.8936C30.042 27.2263 29.8267 27.5385 29.5796 27.8248C29.3785 28.0526 29.1576 28.2622 28.9196 28.4512V30.7816C28.9199 30.9052 28.8856 31.0264 28.8205 31.1314C28.7554 31.2364 28.6621 31.321 28.5513 31.3756L26.9396 32.1815V33.2632C26.9396 33.3701 26.927 33.4744 26.9185 33.58H26.9396C27.0423 33.5802 27.1435 33.5562 27.2353 33.5101L29.142 32.5531C29.4722 32.3899 29.7501 32.1374 29.9441 31.8243C30.1381 31.5112 30.2405 31.15 30.2396 30.7816V26.98C30.236 26.9508 30.23 26.9218 30.2218 26.8936Z" fill="#5D241D"/>
<path d="M22.0814 40.1801C21.7761 40.1802 21.4803 40.0745 21.2442 39.881C21.0081 39.6875 20.8463 39.4182 20.7865 39.1188L20.339 36.8801L15.5666 34.4935C15.4141 34.4174 15.2859 34.3003 15.1962 34.1554C15.1066 34.0105 15.0591 33.8435 15.059 33.6732V33.1782C15.059 32.9347 15.1557 32.7012 15.3279 32.529C15.5001 32.3568 15.7336 32.2601 15.9771 32.2601H16.379V29.8313C15.7603 30.1254 15.0841 30.2787 14.399 30.2801C14.18 30.2827 13.9613 30.2651 13.7456 30.2273L13.739 30.2801V32.2865C13.7413 33.0617 13.9699 33.8194 14.3967 34.4665C14.8234 35.1137 15.4298 35.6222 16.1414 35.9297L18.359 36.8801V41.5001H23.639L23.111 40.1801H22.0814Z" fill="#714226"/>
<path d="M26.8928 29.4683C26.4758 29.5694 26.0482 29.6204 25.619 29.6201C25.4672 29.6201 25.322 29.6069 25.1768 29.6003C24.9506 30.0866 24.64 30.5291 24.2594 30.9071L24.299 30.9401V33.3491C24.298 33.6123 24.2182 33.8692 24.07 34.0868C23.9218 34.3044 23.712 34.4727 23.4674 34.5701L20.999 35.5601L22.319 38.2001L23.7539 37.3817L23.6714 37.2589C23.4843 36.9781 23.4119 36.6364 23.469 36.3039C23.5261 35.9713 23.7083 35.6733 23.9783 35.471L24.827 34.8341C25.0729 34.6496 25.2725 34.4105 25.41 34.1355C25.5475 33.8606 25.619 33.5574 25.619 33.2501V32.2601C25.619 31.91 25.7581 31.5742 26.0056 31.3267C26.2532 31.0791 26.5889 30.9401 26.939 30.9401V29.6201L26.8928 29.4683Z" fill="#714226"/>
<path d="M33.2091 13.7801C32.6154 13.779 32.0306 13.924 31.5063 14.2025C31.397 14.1496 31.2846 14.1033 31.1697 14.0639C30.6608 13.8748 30.122 13.7787 29.5791 13.7801C28.3538 13.7801 27.1787 14.2669 26.3122 15.1333C25.4458 15.9997 24.9591 17.1748 24.9591 18.4001C24.9622 18.6345 24.982 18.8683 25.0185 19.0997C24.1475 19.1953 23.3145 19.5085 22.5963 20.0105C22.2348 19.2446 21.6369 18.6149 20.8907 18.2142C20.1444 17.8136 19.2892 17.6632 18.4511 17.7852C17.6129 17.9071 16.836 18.295 16.2349 18.8917C15.6337 19.4884 15.2401 20.2623 15.1119 21.0995L15.0591 21.0929V23.0729L15.1119 23.0795C15.2469 22.2125 15.6645 21.4144 16.2999 20.8091C16.753 20.3777 17.3022 20.0601 17.9021 19.8826C18.502 19.705 19.1356 19.6726 19.7505 19.788C20.3654 19.9034 20.9441 20.1633 21.4389 20.5462C21.9337 20.9291 22.3304 21.4242 22.5963 21.9905C23.3145 21.4885 24.1475 21.1753 25.0185 21.0797C24.982 20.8483 24.9622 20.6145 24.9591 20.3801C24.9591 19.1548 25.4458 17.9797 26.3122 17.1133C27.1787 16.2469 28.3538 15.7601 29.5791 15.7601C30.122 15.7587 30.6608 15.8548 31.1697 16.0439C31.2846 16.0833 31.397 16.1296 31.5063 16.1825C31.9836 15.9294 32.5114 15.7861 33.0512 15.7629C33.591 15.7397 34.1292 15.8373 34.6264 16.0486C35.1237 16.2599 35.5675 16.5795 35.9255 16.9842C36.2836 17.3888 36.5467 17.8683 36.6959 18.3876C36.8526 17.8486 36.8813 17.2805 36.7795 16.7284C36.6777 16.1764 36.4482 15.6559 36.1095 15.2083C35.7708 14.7607 35.3321 14.3984 34.8285 14.1505C34.325 13.9025 33.7704 13.7757 33.2091 13.7801Z" fill="#8EE05B"/>
<path d="M27.6534 12.0641C26.8983 11.4933 26.0212 11.1052 25.0909 10.9304C24.1605 10.7555 23.2024 10.7986 22.2915 11.0563C21.3807 11.314 20.542 11.7793 19.8412 12.4156C19.1403 13.052 18.5965 13.842 18.2524 14.7239C18.2775 13.8355 17.3046 13.2719 16.4387 13.0699C15.0705 12.7614 13.6425 12.8531 12.3249 13.3339C12.0427 13.4691 11.7472 13.5746 11.4432 13.6487C11.1039 13.6969 10.7535 13.6553 10.4096 13.7147C10.2122 13.7501 10.0171 13.7975 9.82551 13.8566C9.79724 14.0499 9.78181 14.2448 9.77931 14.4401C9.77667 14.659 9.79434 14.8778 9.83211 15.0935C9.98661 16.1944 10.5341 17.2024 11.3734 17.9314C12.2128 18.6604 13.2875 19.0613 14.3993 19.0601C14.9989 19.0591 15.5928 18.9426 16.1483 18.7169C16.1961 18.7579 16.2468 18.7954 16.3001 18.8291C16.7532 18.3976 17.3024 18.08 17.9023 17.9025C18.5023 17.725 19.1358 17.6925 19.7507 17.8079C20.3657 17.9233 20.9444 18.1832 21.4392 18.5661C21.9339 18.9491 22.3306 19.4441 22.5965 20.0105C23.3147 19.5084 24.1477 19.1952 25.0187 19.0997C24.9823 18.8682 24.9624 18.6344 24.9593 18.4001C24.9593 17.1748 25.4461 15.9997 26.3125 15.1332C27.1789 14.2668 28.354 13.7801 29.5793 13.7801C30.1222 13.7786 30.661 13.8748 31.1699 14.0639C32.0344 13.3616 32.615 12.3697 32.8041 11.2721C31.9519 10.9383 31.0267 10.8358 30.1222 10.9749C29.2176 11.114 28.3659 11.4897 27.6534 12.0641Z" fill="#44853B"/>
<path d="M31.6176 7.31213C31.3998 7.31213 31.182 7.30223 30.9635 7.31675C29.5222 7.36329 28.1545 7.96429 27.1454 8.99447C26.6659 8.5176 26.0932 8.14479 25.4631 7.89937C24.8329 7.65394 24.1589 7.54118 23.4832 7.56812C22.8075 7.59507 22.1446 7.76115 21.536 8.05598C20.9274 8.3508 20.3862 8.76803 19.9462 9.28157C19.4482 8.86665 18.8667 8.56387 18.2413 8.39384C17.6158 8.22381 16.961 8.19052 16.3216 8.29623C15.6821 8.40195 15.0729 8.64419 14.5354 9.00646C13.9979 9.36874 13.5448 9.84255 13.2069 10.3957C12.8364 10.079 12.4071 9.83853 11.9436 9.68802C11.48 9.53751 10.9914 9.47991 10.5055 9.51851C9.53283 9.60208 8.5994 9.94085 7.79952 10.5006C7.3845 10.7858 6.9997 11.1126 6.65112 11.4761C6.86055 12.1424 7.27658 12.7249 7.839 13.1391C8.40141 13.5533 9.08104 13.7778 9.77952 13.7801C9.79932 13.7801 9.81252 13.7735 9.83232 13.7735C9.82836 13.8006 9.83232 13.8283 9.82572 13.8554C10.0173 13.7962 10.2124 13.7488 10.4098 13.7135C10.7537 13.6541 11.1041 13.6957 11.4434 13.6475C11.7474 13.5733 12.0429 13.4678 12.3251 13.3327C13.6427 12.8518 15.0707 12.7602 16.4389 13.0687C17.3048 13.2667 18.2777 13.8343 18.2526 14.7226C18.5969 13.8409 19.1408 13.051 19.8417 12.4148C20.5425 11.7786 21.3813 11.3135 22.2921 11.0559C23.2029 10.7983 24.1611 10.7553 25.0913 10.9302C26.0215 11.1052 26.8986 11.4933 27.6536 12.0641C28.3659 11.4903 29.2171 11.1148 30.1211 10.9757C31.0251 10.8366 31.9499 10.9389 32.8016 11.2721C32.9323 10.5652 32.8926 9.83724 32.686 9.14861C32.4794 8.45999 32.1118 7.83047 31.6136 7.31213H31.6176Z" fill="#52A147"/>
<path d="M3.89279 26.8732C4.0348 26.2756 4.21535 25.6879 4.43333 25.1137C4.07724 25.0272 3.76366 24.8166 3.54893 24.5197C3.28342 24.1882 3.10581 23.7951 3.03256 23.3768C2.9593 22.9585 2.99276 22.5285 3.12983 22.1265C3.28128 21.7235 3.54459 21.372 3.88883 21.1134C4.05856 20.984 4.24621 20.8799 4.44587 20.8045C4.57787 20.755 4.98575 20.7332 5.03195 20.6164C5.07287 20.5128 4.74947 20.0515 4.70195 19.9406C4.58203 19.6812 4.48057 19.4137 4.39835 19.14C4.23002 18.5987 4.17212 18.029 4.22807 17.4649C4.25737 17.2242 4.31224 16.9872 4.39175 16.7581C3.83237 17.0253 3.35984 17.4452 3.02858 17.9692C2.69732 18.4932 2.52079 19.1002 2.51933 19.7201C2.51933 19.8125 2.53913 19.8983 2.54573 19.9841C1.95045 20.2377 1.44285 20.6607 1.08606 21.2005C0.729283 21.7403 0.539062 22.3731 0.539062 23.0201C0.539062 23.6672 0.729283 24.3 1.08606 24.8398C1.44285 25.3795 1.95045 25.8025 2.54573 26.0561C2.53913 26.1419 2.51933 26.2277 2.51933 26.3201C2.5193 26.7707 2.63504 27.2137 2.85543 27.6066C3.07583 27.9995 3.39349 28.3293 3.77795 28.5641C3.73902 27.9979 3.77766 27.429 3.89279 26.8732Z" fill="#39632C"/>
<path d="M16.1481 18.7169C15.5926 18.9426 14.9987 19.0591 14.3991 19.0601C13.2873 19.0613 12.2126 18.6605 11.3732 17.9315C10.5339 17.2025 9.98641 16.1945 9.83191 15.0935L9.77911 15.1001C9.25686 15.1018 8.74683 15.2583 8.31356 15.5499C7.88028 15.8415 7.54323 16.255 7.34503 16.7382C7.55161 17.416 7.81957 18.0767 8.08885 18.7327C8.17597 18.9466 8.26375 19.1604 8.36869 19.3663C8.53204 19.717 8.74768 20.0408 9.00823 20.3266C8.74569 20.4958 8.49835 20.6875 8.26903 20.8995C8.04658 21.1256 7.85203 21.3775 7.68955 21.6499C7.36514 22.1956 7.15665 22.8022 7.07707 23.4319C6.95964 24.6958 7.17559 25.9683 7.70341 27.1227C6.98287 27.5843 6.44295 28.2797 6.17419 29.0921C6.44328 29.6446 6.86183 30.1106 7.38237 30.4373C7.90291 30.7639 8.50458 30.9381 9.11911 30.9401C9.33647 30.9417 9.55336 30.9196 9.76591 30.8741C10.5624 30.7166 11.2724 30.2699 11.7591 29.6201L11.8185 29.4947C10.9965 28.9423 10.3737 28.1403 10.0421 27.207C9.71043 26.2738 9.68749 25.2587 9.97663 24.3114C10.2658 23.3641 10.8517 22.5348 11.6479 21.9458C12.4442 21.3568 13.4087 21.0393 14.3991 21.0401C14.6378 21.0432 14.876 21.0631 15.1119 21.0995C15.2469 20.2325 15.6646 19.4343 16.2999 18.8291C16.2466 18.7955 16.1959 18.758 16.1481 18.7169Z" fill="#233D1B"/>
<path d="M7.7037 27.1254C7.17588 25.9711 6.95992 24.6985 7.07736 23.4347C7.15693 22.8049 7.36543 22.1983 7.68984 21.6527C7.85232 21.3803 8.04686 21.1283 8.26932 20.9023C8.49864 20.6902 8.74597 20.4985 9.00852 20.3294C8.74797 20.0435 8.53233 19.7197 8.36898 19.3691C8.26404 19.1632 8.17626 18.9493 8.08914 18.7355C7.81986 18.0794 7.5519 17.4155 7.34532 16.741C7.33674 16.7608 7.32552 16.7792 7.3176 16.799C6.86832 16.5586 6.36783 16.4297 5.85831 16.4231C5.34878 16.4166 4.84514 16.5326 4.38984 16.7614C4.31033 16.9906 4.25546 17.2275 4.22616 17.4683C4.1702 18.0324 4.22811 18.602 4.39644 19.1434C4.47866 19.417 4.58011 19.6846 4.70004 19.9439C4.75086 20.0548 5.07426 20.5162 5.03004 20.6198C4.98384 20.7366 4.57596 20.7584 4.44396 20.8079C4.24429 20.8833 4.05665 20.9873 3.88692 21.1168C3.54267 21.3754 3.27937 21.7268 3.12792 22.1299C2.99084 22.5318 2.95738 22.9618 3.03064 23.3802C3.1039 23.7985 3.2815 24.1916 3.54702 24.523C3.76175 24.8199 4.07533 25.0306 4.43142 25.117C4.21299 25.6912 4.03199 26.279 3.88956 26.8766C3.77583 27.4314 3.7383 27.9992 3.77802 28.5642C4.19252 28.8225 4.67101 28.9596 5.1594 28.9602C5.45866 28.9554 5.75513 28.9019 6.0372 28.8018C6.07614 28.9034 6.12696 28.9998 6.17448 29.0948C6.44323 28.2824 6.98315 27.587 7.7037 27.1254Z" fill="#2F5224"/>
<path d="M7.799 10.5007C8.40577 10.0867 9.08406 9.78883 9.79946 9.62221C9.84775 8.78456 10.2141 7.99698 10.8237 7.42042C11.4332 6.84386 12.24 6.52185 13.079 6.52021C13.5314 6.5196 13.9789 6.61404 14.3924 6.79741C14.999 5.77558 15.9766 5.02739 17.1215 4.70891C18.2663 4.39042 19.4899 4.52623 20.537 5.08801C21.0574 4.61114 21.6805 4.26027 22.3581 4.06248C23.0357 3.86469 23.7497 3.82529 24.445 3.94731C25.1403 4.06933 25.7982 4.34951 26.3679 4.76621C26.9377 5.18292 27.404 5.725 27.731 6.35059C28.0531 6.06481 28.259 5.86021 28.259 5.86021H28.2062C28.2407 5.64189 28.2584 5.42124 28.259 5.20021C28.2608 4.30505 28.002 3.42872 27.5142 2.67816C27.0264 1.9276 26.3306 1.33528 25.5118 0.973471C24.693 0.611666 23.7866 0.496028 22.9032 0.640669C22.0198 0.78531 21.1976 1.18398 20.537 1.78801C19.4899 1.22623 18.2663 1.09042 17.1215 1.40891C15.9766 1.72739 14.999 2.47558 14.3924 3.49741C13.9789 3.31404 13.5314 3.2196 13.079 3.22021C12.2038 3.22021 11.3644 3.56789 10.7456 4.18676C10.1267 4.80563 9.779 5.645 9.779 6.52021C9.7807 6.74396 9.80279 6.96708 9.845 7.18681C9.8252 7.18681 9.8054 7.18021 9.779 7.18021C8.90379 7.18021 8.06442 7.52789 7.44555 8.14676C6.82668 8.76563 6.479 9.605 6.479 10.4802C6.48228 10.9764 6.60067 11.4651 6.82484 11.9078C6.75624 11.7681 6.69736 11.6239 6.64862 11.4762C6.99782 11.1126 7.38329 10.7858 7.799 10.5007Z" fill="#7BC24F"/>
<path d="M32.8793 7.84009C33.4044 7.84009 33.9081 8.0487 34.2794 8.42002C34.6507 8.79134 34.8593 9.29496 34.8593 9.82009C34.8593 10.3452 34.6507 10.8488 34.2794 11.2202C33.9081 11.5915 33.4044 11.8001 32.8793 11.8001L32.6945 11.7539C32.82 11.341 32.8823 10.9116 32.8793 10.4801C32.8819 9.59809 32.6298 8.73409 32.1533 7.99189L32.2193 7.95229C32.4314 7.8777 32.6545 7.83976 32.8793 7.84009Z" fill="#FFB746"/>
<path d="M13.0262 18.8556L12.9668 19.0602C12.8451 19.4067 12.6294 19.7126 12.3438 19.9436C12.0583 20.1746 11.7141 20.3216 11.3497 20.3681C10.9854 20.4147 10.6153 20.359 10.2808 20.2073C9.94629 20.0556 9.66059 19.8138 9.45563 19.509C9.23631 19.1808 9.11918 18.7949 9.11903 18.4002C9.11788 18.0155 9.2299 17.6389 9.44113 17.3174C9.65236 16.9958 9.95348 16.7435 10.307 16.5918C10.8785 17.6762 11.8562 18.4901 13.0262 18.8556Z" fill="#D67C16"/>
<path d="M4.22886 21.8388L4.21566 21.6936C4.68559 21.6343 5.11456 21.3961 5.41329 21.0285C5.71202 20.661 5.8575 20.1923 5.81946 19.7202C5.7865 20.1714 5.91811 20.6192 6.18991 20.9808C6.46172 21.3424 6.85531 21.5933 7.29786 21.687V21.7002C7.54692 21.9797 7.71166 22.324 7.77298 22.6933C7.83429 23.0625 7.78968 23.4416 7.64431 23.7866C7.49893 24.1315 7.25875 24.4282 6.95162 24.6422C6.6445 24.8562 6.283 24.9787 5.90905 24.9956C5.5351 25.0125 5.16403 24.923 4.83886 24.7376C4.51369 24.5521 4.24775 24.2783 4.07188 23.9479C3.896 23.6175 3.8174 23.2439 3.84518 22.8706C3.87297 22.4973 4.006 22.1396 4.22886 21.8388Z" fill="#D67C16"/>
<path d="M6.03679 28.8016C6.31794 29.5495 6.86241 30.1691 7.56799 30.544C7.36101 30.9341 7.02958 31.2438 6.62638 31.4238C6.22319 31.6039 5.77138 31.644 5.34277 31.5378C4.91416 31.4316 4.53335 31.1852 4.26087 30.8377C3.9884 30.4902 3.83991 30.0616 3.83899 29.62C3.83904 29.3056 3.91369 28.9957 4.05679 28.7158C4.40175 28.8773 4.7781 28.9607 5.15899 28.96C5.45825 28.9552 5.75472 28.9017 6.03679 28.8016Z" fill="#D67C16"/>
<path d="M35.4069 28.3C35.5025 28.5718 35.5377 28.8612 35.5099 29.1479C35.4821 29.4347 35.3921 29.7119 35.2461 29.9603C35.1002 30.2087 34.9017 30.4222 34.6647 30.586C34.4277 30.7498 34.1578 30.8599 33.8738 30.9086C33.5899 30.9573 33.2987 30.9434 33.0207 30.868C32.7426 30.7926 32.4844 30.6574 32.264 30.4718C32.0436 30.2863 31.8663 30.0549 31.7446 29.7938C31.6228 29.5327 31.5595 29.2481 31.5591 28.96C31.5567 28.5137 31.7082 28.0801 31.9881 27.7324C33.0194 28.2997 34.2293 28.4486 35.3673 28.1482L35.4069 28.3Z" fill="#D67C16"/>
<path d="M13.079 13.7801C14.1725 13.7801 15.059 12.8936 15.059 11.8001C15.059 10.7065 14.1725 9.82007 13.079 9.82007C11.9855 9.82007 11.099 10.7065 11.099 11.8001C11.099 12.8936 11.9855 13.7801 13.079 13.7801Z" fill="#D9882B"/>
<path d="M17.0391 7.84013C18.1326 7.84013 19.0191 6.95365 19.0191 5.86013C19.0191 4.7666 18.1326 3.88013 17.0391 3.88013C15.9456 3.88013 15.0591 4.7666 15.0591 5.86013C15.0591 6.95365 15.9456 7.84013 17.0391 7.84013Z" fill="#D9882B"/>
<path d="M24.959 11.1402C26.0525 11.1402 26.939 10.2537 26.939 9.16018C26.939 8.06665 26.0525 7.18018 24.959 7.18018C23.8655 7.18018 22.979 8.06665 22.979 9.16018C22.979 10.2537 23.8655 11.1402 24.959 11.1402Z" fill="#D9882B"/>
<path d="M21.6591 15.1001C22.7526 15.1001 23.6391 14.2137 23.6391 13.1201C23.6391 12.0266 22.7526 11.1401 21.6591 11.1401C20.5656 11.1401 19.6791 12.0266 19.6791 13.1201C19.6791 14.2137 20.5656 15.1001 21.6591 15.1001Z" fill="#D9882B"/>
<path d="M31.2888 21.8388L31.2756 21.6936C31.7455 21.6343 32.1745 21.3961 32.4732 21.0285C32.772 20.661 32.9174 20.1923 32.8794 19.7202C32.8464 20.1714 32.978 20.6192 33.2498 20.9808C33.5217 21.3424 33.9153 21.5933 34.3578 21.687V21.7002C34.6069 21.9797 34.7716 22.324 34.8329 22.6933C34.8942 23.0625 34.8496 23.4416 34.7042 23.7866C34.5589 24.1315 34.3187 24.4282 34.0116 24.6422C33.7044 24.8562 33.3429 24.9787 32.969 24.9956C32.595 25.0125 32.224 24.923 31.8988 24.7376C31.5736 24.5521 31.3077 24.2783 31.1318 23.9479C30.9559 23.6175 30.8773 23.2439 30.9051 22.8706C30.9329 22.4973 31.0659 22.1396 31.2888 21.8388Z" fill="#FFB746"/>
<path d="M29.579 19.7203C30.6725 19.7203 31.559 18.8338 31.559 17.7403C31.559 16.6467 30.6725 15.7603 29.579 15.7603C28.4855 15.7603 27.599 16.6467 27.599 17.7403C27.599 18.8338 28.4855 19.7203 29.579 19.7203Z" fill="#FFB746"/>
<path d="M15.719 26.9803C16.8125 26.9803 17.699 26.0938 17.699 25.0003C17.699 23.9067 16.8125 23.0203 15.719 23.0203C14.6255 23.0203 13.739 23.9067 13.739 25.0003C13.739 26.0938 14.6255 26.9803 15.719 26.9803Z" fill="#FFB746"/>
<path d="M19.4088 27.1188L19.3956 26.9736C19.8655 26.9144 20.2945 26.6761 20.5932 26.3086C20.8919 25.941 21.0374 25.4724 20.9994 25.0002C20.9664 25.4514 21.098 25.8992 21.3698 26.2608C21.6416 26.6224 22.0352 26.8733 22.4778 26.967V26.9802C22.7268 27.2597 22.8916 27.604 22.9529 27.9733C23.0142 28.3426 22.9696 28.7216 22.8242 29.0666C22.6789 29.4115 22.4387 29.7082 22.1316 29.9222C21.8244 30.1362 21.4629 30.2587 21.089 30.2756C20.715 30.2925 20.344 30.203 20.0188 30.0176C19.6936 29.8322 19.4277 29.5584 19.2518 29.2279C19.0759 28.8975 18.9973 28.524 19.0251 28.1507C19.0529 27.7774 19.1859 27.4196 19.4088 27.1188Z" fill="#FFB746"/>
<path d="M15.0591 10.7277C14.65 10.7272 14.249 10.6143 13.8998 10.4013C13.5506 10.1883 13.2667 9.88339 13.0791 9.51989C12.8503 9.96378 12.479 10.3179 12.0248 10.5255C11.5705 10.733 11.0598 10.7819 10.5744 10.6642C10.0891 10.5466 9.65736 10.2693 9.34855 9.87687C9.03973 9.48441 8.87175 8.99957 8.87158 8.50019C8.87158 8.43454 8.89766 8.37159 8.94407 8.32518C8.99049 8.27876 9.05344 8.25269 9.11908 8.25269C9.18472 8.25269 9.24768 8.27876 9.29409 8.32518C9.34051 8.37159 9.36658 8.43454 9.36658 8.50019C9.36658 8.95967 9.54911 9.40034 9.87402 9.72525C10.1989 10.0502 10.6396 10.2327 11.0991 10.2327C11.5586 10.2327 11.9992 10.0502 12.3241 9.72525C12.6491 9.40034 12.8316 8.95967 12.8316 8.50019C12.8316 8.43454 12.8577 8.37159 12.9041 8.32518C12.9505 8.27876 13.0134 8.25269 13.0791 8.25269C13.1447 8.25269 13.2077 8.27876 13.2541 8.32518C13.3005 8.37159 13.3266 8.43454 13.3266 8.50019C13.3266 8.95967 13.5091 9.40034 13.834 9.72525C14.1589 10.0502 14.5996 10.2327 15.0591 10.2327C15.5186 10.2327 15.9592 10.0502 16.2841 9.72525C16.6091 9.40034 16.7916 8.95967 16.7916 8.50019C16.7916 8.43454 16.8177 8.37159 16.8641 8.32518C16.9105 8.27876 16.9734 8.25269 17.0391 8.25269C17.1047 8.25269 17.1677 8.27876 17.2141 8.32518C17.2605 8.37159 17.2866 8.43454 17.2866 8.50019C17.2859 9.09074 17.051 9.65691 16.6334 10.0745C16.2158 10.4921 15.6496 10.727 15.0591 10.7277Z" fill="#233D1B"/>
<path d="M26.6093 8.08755C26.2558 8.07453 25.9131 7.96161 25.6211 7.76187C25.3291 7.56213 25.0996 7.28374 24.9593 6.95895C24.819 7.28374 24.5896 7.56213 24.2975 7.76187C24.0055 7.96161 23.6629 8.07453 23.3093 8.08755C22.7639 8.03976 22.2592 7.77935 21.9042 7.36258C21.5491 6.94581 21.3723 6.40611 21.4118 5.86005C21.4118 5.79441 21.4379 5.73145 21.4843 5.68504C21.5307 5.63862 21.5937 5.61255 21.6593 5.61255C21.725 5.61255 21.7879 5.63862 21.8343 5.68504C21.8807 5.73145 21.9068 5.79441 21.9068 5.86005C21.8683 6.27473 21.9934 6.68804 22.2555 7.01173C22.5175 7.33543 22.8957 7.54387 23.3093 7.59255C23.7229 7.54387 24.1011 7.33543 24.3632 7.01173C24.6252 6.68804 24.7503 6.27473 24.7118 5.86005C24.7118 5.79441 24.7379 5.73145 24.7843 5.68504C24.8307 5.63862 24.8937 5.61255 24.9593 5.61255C25.025 5.61255 25.0879 5.63862 25.1343 5.68504C25.1807 5.73145 25.2068 5.79441 25.2068 5.86005C25.1683 6.27473 25.2934 6.68804 25.5555 7.01173C25.8175 7.33543 26.1957 7.54387 26.6093 7.59255C26.9905 7.55428 27.3441 7.37639 27.602 7.09311C27.86 6.80982 28.0041 6.44116 28.0065 6.05805C28.0118 5.99205 28.0118 5.92605 28.0118 5.86335C28.0118 5.79771 28.0379 5.73476 28.0843 5.68834C28.1307 5.64192 28.1937 5.61585 28.2593 5.61585C28.325 5.61585 28.3879 5.64192 28.4343 5.68834C28.4807 5.73476 28.5068 5.79771 28.5068 5.86335C28.5068 5.94321 28.5068 6.02307 28.4996 6.10293C28.4871 6.60938 28.2867 7.0931 27.9373 7.45994C27.588 7.82678 27.1146 8.0505 26.6093 8.08755Z" fill="#233D1B"/>
<path d="M34.5294 21.9477C34.4682 21.9469 34.4072 21.9425 34.3465 21.9345C34.0283 21.8886 33.7268 21.7628 33.4702 21.5689C33.2137 21.375 33.0104 21.1193 32.8794 20.8257C32.7428 21.1388 32.5229 21.4084 32.2435 21.6049C31.9642 21.8015 31.6362 21.9176 31.2954 21.9404C31.2736 21.9447 31.2515 21.9471 31.2294 21.9477C30.684 21.8999 30.1792 21.6395 29.8242 21.2227C29.4692 20.8059 29.2923 20.2662 29.3319 19.7202C29.3319 19.6545 29.3579 19.5916 29.4044 19.5451C29.4508 19.4987 29.5137 19.4727 29.5794 19.4727C29.645 19.4727 29.708 19.4987 29.7544 19.5451C29.8008 19.5916 29.8269 19.6545 29.8269 19.7202C29.7889 20.1332 29.9129 20.5448 30.1727 20.8681C30.4326 21.1914 30.8079 21.401 31.2195 21.4527C31.2355 21.4488 31.2518 21.4466 31.2683 21.4461C31.6723 21.3853 32.038 21.1731 32.2912 20.8526C32.5444 20.5321 32.6662 20.1272 32.6319 19.7202C32.6319 19.6545 32.6579 19.5916 32.7044 19.5451C32.7508 19.4987 32.8137 19.4727 32.8794 19.4727C32.945 19.4727 33.008 19.4987 33.0544 19.5451C33.1008 19.5916 33.1269 19.6545 33.1269 19.7202C33.0939 20.1109 33.2034 20.5003 33.4351 20.8167C33.6668 21.133 34.005 21.3549 34.3875 21.4414C34.4345 21.4476 34.4819 21.4514 34.5294 21.4527C34.943 21.404 35.3212 21.1955 35.5832 20.8718C35.8452 20.5481 35.9704 20.1348 35.9319 19.7202C35.9319 19.6545 35.9579 19.5916 36.0044 19.5451C36.0508 19.4987 36.1137 19.4727 36.1794 19.4727C36.245 19.4727 36.308 19.4987 36.3544 19.5451C36.4008 19.5916 36.4269 19.6545 36.4269 19.7202C36.4664 20.2662 36.2895 20.8059 35.9345 21.2227C35.5795 21.6395 35.0748 21.8999 34.5294 21.9477Z" fill="#2F5224"/>
<path d="M22.6494 27.2277C22.5882 27.2269 22.5272 27.2225 22.4665 27.2145C22.1482 27.1686 21.8468 27.0428 21.5902 26.849C21.3337 26.6551 21.1304 26.3994 20.9994 26.1057C20.8628 26.4188 20.6429 26.6884 20.3635 26.885C20.0842 27.0816 19.7562 27.1976 19.4154 27.2204C19.3936 27.2247 19.3715 27.2271 19.3494 27.2277C18.804 27.1799 18.2992 26.9195 17.9442 26.5027C17.5892 26.0859 17.4123 25.5462 17.4519 25.0002C17.4519 24.9345 17.4779 24.8716 17.5243 24.8252C17.5708 24.7788 17.6337 24.7527 17.6994 24.7527C17.765 24.7527 17.8279 24.7788 17.8744 24.8252C17.9208 24.8716 17.9469 24.9345 17.9469 25.0002C17.9089 25.4132 18.0329 25.8248 18.2927 26.1481C18.5526 26.4714 18.9279 26.681 19.3395 26.7327C19.3555 26.7288 19.3718 26.7266 19.3883 26.7261C19.7923 26.6653 20.158 26.4532 20.4112 26.1326C20.6644 25.8121 20.7862 25.4072 20.7519 25.0002C20.7519 24.9345 20.7779 24.8716 20.8243 24.8252C20.8708 24.7788 20.9337 24.7527 20.9994 24.7527C21.065 24.7527 21.1279 24.7788 21.1744 24.8252C21.2208 24.8716 21.2469 24.9345 21.2469 25.0002C21.2139 25.3909 21.3234 25.7804 21.5551 26.0967C21.7868 26.413 22.125 26.6349 22.5075 26.7215C22.5545 26.7276 22.6019 26.7314 22.6494 26.7327C23.063 26.684 23.4412 26.4756 23.7032 26.1519C23.9652 25.8282 24.0904 25.4149 24.0519 25.0002C24.0519 24.9345 24.0779 24.8716 24.1243 24.8252C24.1708 24.7788 24.2337 24.7527 24.2994 24.7527C24.365 24.7527 24.4279 24.7788 24.4744 24.8252C24.5208 24.8716 24.5469 24.9345 24.5469 25.0002C24.5864 25.5462 24.4095 26.0859 24.0545 26.5027C23.6995 26.9195 23.1948 27.1799 22.6494 27.2277Z" fill="#2F5224"/>
<path d="M9.11927 19.4727C9.05363 19.4727 8.99068 19.4987 8.94426 19.5451C8.89785 19.5916 8.87177 19.6545 8.87177 19.7202C8.91028 20.1348 8.78516 20.5481 8.52312 20.8718C8.26108 21.1955 7.88288 21.404 7.46927 21.4527C7.42181 21.4514 7.37444 21.4476 7.32737 21.4414C6.94493 21.3549 6.60668 21.133 6.375 20.8167C6.14333 20.5003 6.03385 20.1109 6.06677 19.7202C6.06677 19.6545 6.04069 19.5916 5.99428 19.5451C5.94786 19.4987 5.88491 19.4727 5.81927 19.4727C5.75363 19.4727 5.69068 19.4987 5.64426 19.5451C5.59785 19.5916 5.57177 19.6545 5.57177 19.7202C5.60615 20.1272 5.48436 20.5321 5.23112 20.8526C4.97788 21.1731 4.61217 21.3853 4.20821 21.4461C4.19175 21.4466 4.17538 21.4488 4.15937 21.4527C3.78888 21.412 3.44544 21.2392 3.19189 20.966C2.93834 20.6929 2.79165 20.3375 2.77865 19.965C2.77865 19.9505 2.77865 19.936 2.77865 19.9215L2.31665 20.1531C2.36588 20.622 2.57843 21.0587 2.9171 21.3868C3.25577 21.7148 3.69901 21.9134 4.16927 21.9477C4.19144 21.9471 4.21352 21.9447 4.23527 21.9404C4.5761 21.9176 4.9041 21.8015 5.18345 21.6049C5.46279 21.4084 5.68274 21.1388 5.81927 20.8257C5.95024 21.1192 6.15341 21.3749 6.40984 21.5688C6.66627 21.7627 6.96762 21.8885 7.28579 21.9345C7.34641 21.9425 7.40746 21.9469 7.46861 21.9477C8.01413 21.9 8.51901 21.6397 8.87418 21.2229C9.22935 20.8061 9.40629 20.2663 9.36677 19.7202C9.36677 19.6545 9.34069 19.5916 9.29428 19.5451C9.24786 19.4987 9.18491 19.4727 9.11927 19.4727Z" fill="#192B13"/>
<path d="M29.579 18.4001C29.1705 18.3999 28.7722 18.2727 28.4391 18.0363C28.106 17.7998 27.8547 17.4657 27.7198 17.0801C27.6102 17.3793 27.5744 17.7005 27.6155 18.0165C27.6567 18.3325 27.7734 18.6339 27.9559 18.8951C28.1384 19.1563 28.3813 19.3696 28.6639 19.5169C28.9464 19.6641 29.2604 19.741 29.579 19.741C29.8976 19.741 30.2116 19.6641 30.4941 19.5169C30.7767 19.3696 31.0196 19.1563 31.2021 18.8951C31.3846 18.6339 31.5013 18.3325 31.5425 18.0165C31.5836 17.7005 31.5478 17.3793 31.4382 17.0801C31.3033 17.4657 31.052 17.7998 30.7189 18.0363C30.3858 18.2727 29.9875 18.3999 29.579 18.4001Z" fill="#F29E18"/>
<path d="M30.048 16.4202C29.9242 16.4123 29.8021 16.4522 29.7068 16.5317C29.6537 16.5833 29.6154 16.6481 29.5958 16.7195C29.5762 16.7908 29.576 16.8662 29.5953 16.9376C29.6329 17.0324 29.6991 17.1131 29.7847 17.1686L30.3272 17.593C30.4519 17.6907 30.6031 17.791 30.7351 17.7111C30.7907 17.6629 30.8344 17.6025 30.8629 17.5346C30.8914 17.4667 30.9039 17.3932 30.8994 17.3198C30.9087 17.2033 30.8934 17.0863 30.8546 16.9762C30.8157 16.866 30.7542 16.7653 30.6739 16.6805C30.5936 16.5957 30.4964 16.5287 30.3886 16.4838C30.2808 16.439 30.1648 16.4173 30.048 16.4202Z" fill="#FFE7C2"/>
<path d="M21.6591 13.7802C21.2506 13.78 20.8523 13.6529 20.5192 13.4164C20.1861 13.1799 19.9347 12.8458 19.7999 12.4602C19.6903 12.7594 19.6545 13.0806 19.6956 13.3966C19.7367 13.7126 19.8535 14.014 20.036 14.2752C20.2185 14.5364 20.4614 14.7497 20.7439 14.897C21.0265 15.0443 21.3404 15.1212 21.6591 15.1212C21.9777 15.1212 22.2917 15.0443 22.5742 14.897C22.8568 14.7497 23.0996 14.5364 23.2821 14.2752C23.4647 14.014 23.5814 13.7126 23.6225 13.3966C23.6636 13.0806 23.6279 12.7594 23.5183 12.4602C23.3834 12.8458 23.132 13.1799 22.799 13.4164C22.4659 13.6529 22.0676 13.78 21.6591 13.7802Z" fill="#C7710E"/>
<path d="M22.1281 11.8003C22.0043 11.7924 21.8821 11.8323 21.7869 11.9118C21.7338 11.9634 21.6955 12.0282 21.6758 12.0996C21.6562 12.171 21.6561 12.2463 21.6753 12.3177C21.713 12.4125 21.7792 12.4932 21.8648 12.5487L22.4073 12.9731C22.532 13.0708 22.6832 13.1711 22.8152 13.0913C22.8707 13.043 22.9145 12.9826 22.943 12.9147C22.9715 12.8469 22.984 12.7733 22.9795 12.6999C22.9888 12.5835 22.9735 12.4664 22.9347 12.3563C22.8958 12.2462 22.8342 12.1454 22.754 12.0606C22.6737 11.9758 22.5765 11.9088 22.4687 11.864C22.3609 11.8191 22.2448 11.7974 22.1281 11.8003Z" fill="#FFE7C2"/>
<path d="M24.959 9.82024C24.5505 9.82004 24.1522 9.6929 23.8191 9.45643C23.486 9.21995 23.2347 8.88582 23.0998 8.50024C22.9902 8.79945 22.9544 9.12069 22.9956 9.43667C23.0367 9.75265 23.1534 10.054 23.3359 10.3152C23.5184 10.5764 23.7613 10.7897 24.0439 10.937C24.3264 11.0843 24.6404 11.1612 24.959 11.1612C25.2776 11.1612 25.5916 11.0843 25.8742 10.937C26.1567 10.7897 26.3996 10.5764 26.5821 10.3152C26.7646 10.054 26.8813 9.75265 26.9225 9.43667C26.9636 9.12069 26.9278 8.79945 26.8182 8.50024C26.6833 8.88582 26.432 9.21995 26.0989 9.45643C25.7658 9.6929 25.3675 9.82004 24.959 9.82024Z" fill="#C7710E"/>
<path d="M25.428 7.84009C25.3042 7.8322 25.1821 7.87213 25.0868 7.95163C25.0337 8.0032 24.9954 8.06803 24.9758 8.1394C24.9562 8.21076 24.956 8.28608 24.9753 8.35753C25.0129 8.45231 25.0791 8.53304 25.1647 8.58853L25.7072 9.01291C25.8319 9.11059 25.9831 9.21091 26.1151 9.13105C26.1707 9.08279 26.2144 9.02239 26.2429 8.95452C26.2714 8.88666 26.2839 8.81314 26.2794 8.73967C26.2887 8.62327 26.2734 8.50621 26.2346 8.39609C26.1957 8.28597 26.1342 8.18524 26.0539 8.10043C25.9736 8.01562 25.8764 7.94861 25.7686 7.90377C25.6608 7.85892 25.5448 7.83723 25.428 7.84009Z" fill="#FFE7C2"/>
<path d="M13.079 12.4601C12.6705 12.4599 12.2722 12.3328 11.9391 12.0963C11.606 11.8598 11.3547 11.5257 11.2198 11.1401C11.1102 11.4393 11.0744 11.7606 11.1155 12.0766C11.1567 12.3925 11.2734 12.6939 11.4559 12.9551C11.6384 13.2163 11.8813 13.4296 12.1639 13.5769C12.4464 13.7242 12.7604 13.8011 13.079 13.8011C13.3976 13.8011 13.7116 13.7242 13.9941 13.5769C14.2767 13.4296 14.5196 13.2163 14.7021 12.9551C14.8846 12.6939 15.0013 12.3925 15.0424 12.0766C15.0836 11.7606 15.0478 11.4393 14.9382 11.1401C14.8033 11.5257 14.552 11.8598 14.2189 12.0963C13.8858 12.3328 13.4875 12.4599 13.079 12.4601Z" fill="#C7710E"/>
<path d="M13.548 10.4802C13.4242 10.4723 13.3021 10.5123 13.2068 10.5918C13.1537 10.6433 13.1154 10.7082 13.0958 10.7795C13.0762 10.8509 13.076 10.9262 13.0953 10.9977C13.1329 11.0925 13.1991 11.1732 13.2847 11.2287L13.8272 11.653C13.9519 11.7507 14.1031 11.851 14.2351 11.7712C14.2907 11.7229 14.3344 11.6625 14.3629 11.5947C14.3914 11.5268 14.4039 11.4533 14.3994 11.3798C14.4087 11.2634 14.3934 11.1463 14.3546 11.0362C14.3157 10.9261 14.2542 10.8254 14.1739 10.7406C14.0936 10.6558 13.9964 10.5888 13.8886 10.5439C13.7808 10.4991 13.6648 10.4774 13.548 10.4802Z" fill="#FFE7C2"/>
<path d="M5.81899 23.6801C5.4105 23.6799 5.01217 23.5528 4.6791 23.3163C4.34602 23.0798 4.09465 22.7457 3.95977 22.3601C3.85018 22.6593 3.81443 22.9805 3.85554 23.2965C3.89665 23.6125 4.01342 23.9139 4.19592 24.1751C4.37843 24.4363 4.62127 24.6496 4.90384 24.7969C5.18641 24.9442 5.50034 25.0211 5.81899 25.0211C6.13763 25.0211 6.45157 24.9442 6.73414 24.7969C7.01671 24.6496 7.25955 24.4363 7.44206 24.1751C7.62456 23.9139 7.74133 23.6125 7.78244 23.2965C7.82355 22.9805 7.7878 22.6593 7.67821 22.3601C7.54332 22.7457 7.29196 23.0798 6.95888 23.3163C6.6258 23.5528 6.22748 23.6799 5.81899 23.6801Z" fill="#C7710E"/>
<path d="M6.28801 21.7002C6.16419 21.6923 6.04205 21.7322 5.94679 21.8117C5.89371 21.8633 5.85537 21.9281 5.83576 21.9995C5.81615 22.0709 5.81597 22.1462 5.83525 22.2176C5.87291 22.3124 5.9391 22.3931 6.02467 22.4486L6.56719 22.873C6.69193 22.9707 6.84307 23.071 6.97507 22.9912C7.03065 22.9429 7.07438 22.8825 7.10288 22.8146C7.13137 22.7468 7.14388 22.6733 7.13941 22.5998C7.14869 22.4834 7.13341 22.3663 7.09456 22.2562C7.05571 22.1461 6.99416 22.0453 6.91389 21.9605C6.83362 21.8757 6.73643 21.8087 6.62861 21.7639C6.52079 21.719 6.40475 21.6973 6.28801 21.7002Z" fill="#FFE7C2"/>
<path d="M17.0391 6.5202C16.6306 6.51999 16.2323 6.39286 15.8992 6.15638C15.5661 5.9199 15.3147 5.58577 15.1799 5.2002C15.0703 5.4994 15.0345 5.82064 15.0756 6.13662C15.1167 6.4526 15.2335 6.75399 15.416 7.01519C15.5985 7.2764 15.8414 7.48969 16.1239 7.63697C16.4065 7.78425 16.7204 7.86115 17.0391 7.86115C17.3577 7.86115 17.6717 7.78425 17.9542 7.63697C18.2368 7.48969 18.4796 7.2764 18.6621 7.01519C18.8447 6.75399 18.9614 6.4526 19.0025 6.13662C19.0436 5.82064 19.0079 5.4994 18.8983 5.2002C18.7634 5.58577 18.5121 5.9199 18.179 6.15638C17.8459 6.39286 17.4476 6.51999 17.0391 6.5202Z" fill="#C7710E"/>
<path d="M17.5081 4.54029C17.3843 4.5324 17.2621 4.57232 17.1669 4.65183C17.1138 4.7034 17.0755 4.76823 17.0559 4.83959C17.0362 4.91096 17.0361 4.98627 17.0553 5.05773C17.093 5.15251 17.1592 5.23324 17.2448 5.28873L17.7873 5.71311C17.912 5.81079 18.0632 5.91111 18.1952 5.83125C18.2507 5.78299 18.2945 5.72259 18.323 5.65472C18.3515 5.58685 18.364 5.51334 18.3595 5.43987C18.3688 5.32346 18.3535 5.20641 18.3147 5.09629C18.2758 4.98616 18.2143 4.88543 18.134 4.80062C18.0537 4.71581 17.9565 4.64881 17.8487 4.60396C17.7409 4.55912 17.6248 4.53742 17.5081 4.54029Z" fill="#FFE7C2"/>
<path d="M32.879 23.6801C32.4706 23.6799 32.0722 23.5528 31.7392 23.3163C31.4061 23.0798 31.1547 22.7457 31.0198 22.3601C30.9102 22.6593 30.8745 22.9805 30.9156 23.2965C30.9567 23.6125 31.0735 23.9139 31.256 24.1751C31.4385 24.4363 31.6813 24.6496 31.9639 24.7969C32.2465 24.9442 32.5604 25.0211 32.879 25.0211C33.1977 25.0211 33.5116 24.9442 33.7942 24.7969C34.0768 24.6496 34.3196 24.4363 34.5021 24.1751C34.6846 23.9139 34.8014 23.6125 34.8425 23.2965C34.8836 22.9805 34.8479 22.6593 34.7383 22.3601C34.6034 22.7457 34.352 23.0798 34.0189 23.3163C33.6859 23.5528 33.2875 23.6799 32.879 23.6801Z" fill="#F29E18"/>
<path d="M33.3481 21.7002C33.2242 21.6923 33.1021 21.7322 33.0069 21.8117C32.9538 21.8633 32.9154 21.9281 32.8958 21.9995C32.8762 22.0709 32.876 22.1462 32.8953 22.2176C32.933 22.3124 32.9992 22.3931 33.0847 22.4486L33.6273 22.873C33.752 22.9707 33.9031 23.071 34.0351 22.9912C34.0907 22.9429 34.1344 22.8825 34.1629 22.8146C34.1914 22.7468 34.2039 22.6733 34.1995 22.5998C34.2088 22.4834 34.1935 22.3663 34.1546 22.2562C34.1158 22.1461 34.0542 22.0453 33.974 21.9605C33.8937 21.8757 33.7965 21.8087 33.6887 21.7639C33.5809 21.719 33.4648 21.6973 33.3481 21.7002Z" fill="#FFE7C2"/>
<path d="M20.999 28.9601C20.5906 28.9599 20.1922 28.8328 19.8591 28.5963C19.5261 28.3598 19.2747 28.0257 19.1398 27.6401C19.0302 27.9393 18.9945 28.2606 19.0356 28.5766C19.0767 28.8925 19.1935 29.1939 19.376 29.4551C19.5585 29.7163 19.8013 29.9296 20.0839 30.0769C20.3665 30.2242 20.6804 30.3011 20.999 30.3011C21.3177 30.3011 21.6316 30.2242 21.9142 30.0769C22.1968 29.9296 22.4396 29.7163 22.6221 29.4551C22.8046 29.1939 22.9214 28.8925 22.9625 28.5766C23.0036 28.2606 22.9679 27.9393 22.8583 27.6401C22.7234 28.0257 22.472 28.3598 22.1389 28.5963C21.8059 28.8328 21.4075 28.9599 20.999 28.9601Z" fill="#F29E18"/>
<path d="M21.4681 26.9802C21.3442 26.9723 21.2221 27.0123 21.1268 27.0918C21.0738 27.1433 21.0354 27.2082 21.0158 27.2795C20.9962 27.3509 20.996 27.4262 21.0153 27.4977C21.053 27.5925 21.1192 27.6732 21.2047 27.7287L21.7472 28.153C21.872 28.2507 22.0231 28.3511 22.1551 28.2712C22.2107 28.2229 22.2544 28.1625 22.2829 28.0947C22.3114 28.0268 22.3239 27.9533 22.3195 27.8798C22.3287 27.7634 22.3135 27.6463 22.2746 27.5362C22.2358 27.4261 22.1742 27.3254 22.0939 27.2406C22.0137 27.1558 21.9165 27.0888 21.8087 27.0439C21.7008 26.9991 21.5848 26.9774 21.4681 26.9802Z" fill="#FFE7C2"/>
<path d="M15.719 25.6601C15.3105 25.6599 14.9122 25.5327 14.5791 25.2963C14.246 25.0598 13.9947 24.7257 13.8598 24.3401C13.7502 24.6393 13.7145 24.9605 13.7556 25.2765C13.7967 25.5925 13.9134 25.8939 14.0959 26.1551C14.2785 26.4163 14.5213 26.6296 14.8039 26.7769C15.0864 26.9241 15.4004 27.001 15.719 27.001C16.0377 27.001 16.3516 26.9241 16.6342 26.7769C16.9167 26.6296 17.1596 26.4163 17.3421 26.1551C17.5246 25.8939 17.6414 25.5925 17.6825 25.2765C17.7236 24.9605 17.6878 24.6393 17.5782 24.3401C17.4433 24.7257 17.192 25.0598 16.8589 25.2963C16.5258 25.5327 16.1275 25.6599 15.719 25.6601Z" fill="#F29E18"/>
<path d="M16.188 23.6802C16.0642 23.6723 15.9421 23.7122 15.8468 23.7917C15.7937 23.8433 15.7554 23.9081 15.7358 23.9795C15.7162 24.0509 15.716 24.1262 15.7353 24.1976C15.7729 24.2924 15.8391 24.3731 15.9247 24.4286L16.4672 24.853C16.592 24.9507 16.7431 25.051 16.8751 24.9711C16.9307 24.9229 16.9744 24.8625 17.0029 24.7946C17.0314 24.7267 17.0439 24.6532 17.0394 24.5798C17.0487 24.4634 17.0334 24.3463 16.9946 24.2362C16.9557 24.1261 16.8942 24.0253 16.8139 23.9405C16.7336 23.8557 16.6365 23.7887 16.5286 23.7439C16.4208 23.699 16.3048 23.6773 16.188 23.6802Z" fill="#FFE7C2"/>
</svg>
