<svg width="57" height="59" viewBox="0 0 57 59" fill="none" xmlns="http://www.w3.org/2000/svg">
<path d="M33.2337 56.9871C33.2337 56.9871 31.073 47.971 32.4049 42.4148C33.7405 36.8623 35.8505 35.6944 35.6442 34.8494C35.4379 34.0044 34.3702 34.3997 34.0264 35.1831C33.6862 35.9665 32.2891 37.6565 31.0043 37.3845C29.7194 37.1125 29.3756 31.8283 28.4345 31.2988C27.4971 30.7693 27.8229 33.2137 28.1848 35.3281C28.5504 37.4462 26.7516 36.2675 25.6296 33.7287C24.5076 31.19 23.8525 31.9335 23.7294 32.2925C23.6064 32.6516 26.1942 37.1814 26.0024 37.399C25.8105 37.6166 22.5676 33.8593 22.2528 33.9681C21.9379 34.0769 21.3986 34.3743 22.1731 35.5566C22.9477 36.739 25.3798 38.73 25.2278 39.0601C25.0722 39.3937 23.0599 37.584 22.3251 37.5405C21.5904 37.4969 21.8908 38.5342 23.2046 39.4808C24.5221 40.4237 27.7433 41.4574 27.8446 45.0261C27.9496 48.5948 27.0194 56.9763 27.0194 56.9763C27.0194 56.9763 29.3068 60.1098 33.2301 56.9908L33.2337 56.9871Z" fill="#75B904"/>
<path fill-rule="evenodd" clip-rule="evenodd" d="M31.1431 33.0682C31.1431 33.0682 22.8874 20.8968 36.905 7.77881C36.905 7.77881 49.7391 22.9205 33.3183 33.206C33.3183 33.206 33.7055 23.4428 35.5478 19.4642C35.5478 19.4642 30.611 28.1177 31.1431 33.0646V33.0682Z" fill="#75B904"/>
<path fill-rule="evenodd" clip-rule="evenodd" d="M36.7177 34.2399C36.7177 34.2399 41.7884 23.5373 56.5913 27.9511C56.5913 27.9511 51.3253 43.0493 37.5067 35.8103C37.5067 35.8103 44.4341 32.1074 47.9376 31.7701C47.9376 31.7701 39.928 31.8607 36.7177 34.2435V34.2399Z" fill="#75B904"/>
<path fill-rule="evenodd" clip-rule="evenodd" d="M21.2937 34.4544C21.2937 34.4544 11.5397 41.3271 0.732422 30.0877C0.732422 30.0877 12.8354 19.4541 21.3806 32.6845C21.3806 32.6845 13.4652 32.4923 10.2186 31.0452C10.2186 31.0452 17.2908 34.9512 21.2937 34.4544Z" fill="#75B904"/>
<path fill-rule="evenodd" clip-rule="evenodd" d="M23.7456 31.2263C23.7456 31.2263 11.1105 26.9104 14.1399 9.70508C14.1399 9.70508 31.7189 13.6727 25.3996 30.1382C25.3996 30.1382 20.3615 22.8339 19.5291 18.9352C19.5291 18.9352 20.6655 27.9259 23.7492 31.2263H23.7456Z" fill="#75B904"/>
<path fill-rule="evenodd" clip-rule="evenodd" d="M43.5603 24.3576C43.5603 24.3576 43.2056 16.3897 53.3976 14.3369C53.3976 14.3369 55.019 24.9778 44.523 25.0395C44.523 25.0395 47.4764 20.6475 49.4525 19.3382C49.4525 19.3382 44.7185 21.9241 43.5603 24.3576Z" fill="#75B904"/>
<path fill-rule="evenodd" clip-rule="evenodd" d="M12.2646 24.6764C12.2646 24.6764 4.83779 25.8478 1.841 16.4763C1.841 16.4763 11.6421 13.8324 12.8039 23.6971C12.8039 23.6971 8.37748 21.3833 6.94423 19.6606C6.94423 19.6606 9.8614 23.8422 12.2646 24.6764Z" fill="#75B904"/>
<path fill-rule="evenodd" clip-rule="evenodd" d="M26.7923 15.1599C26.7923 15.1599 20.9073 8.87468 27.8238 0C27.8238 0 36.626 7.58718 28.059 15.0402C28.059 15.0402 27.3967 9.35704 28.1025 6.88721C28.1025 6.88721 26.0322 12.3491 26.7923 15.1599Z" fill="#75B904"/>
<path fill-rule="evenodd" clip-rule="evenodd" d="M37.0818 39.136C37.0818 39.136 44.6389 36.6408 49.3693 45.9144C49.3693 45.9144 39.5827 50.3572 36.6873 40.2494C36.6873 40.2494 41.7036 41.9105 43.4988 43.4663C43.4988 43.4663 39.7347 39.5966 37.0854 39.1396L37.0818 39.136Z" fill="#75B904"/>
<path fill-rule="evenodd" clip-rule="evenodd" d="M21.6518 40.5799C21.6518 40.5799 18.7057 48.4173 8.01788 46.1796C8.01788 46.1796 10.8446 35.2341 21.004 39.5209C21.004 39.5209 16.3423 42.5384 13.892 42.9845C13.892 42.9845 19.5273 42.4513 21.6518 40.5799Z" fill="#75B904"/>
<path d="M33.2337 56.9871C33.2337 56.9871 31.073 47.971 32.4049 42.4148C33.7405 36.8623 35.8505 35.6944 35.6442 34.8494C35.4379 34.0044 34.3702 34.3997 34.0264 35.1831C33.6862 35.9665 32.2891 37.6565 31.0043 37.3845C29.7194 37.1125 29.3756 31.8283 28.4345 31.2988C27.4971 30.7693 27.8229 33.2137 28.1848 35.3281C28.5504 37.4462 26.7516 36.2675 25.6296 33.7287C24.5076 31.19 23.8525 31.9335 23.7294 32.2925C23.6064 32.6516 26.1942 37.1814 26.0024 37.399C25.8105 37.6166 22.5676 33.8593 22.2528 33.9681C21.9379 34.0769 21.3986 34.3743 22.1731 35.5566C22.9477 36.739 25.3798 38.73 25.2278 39.0601C25.0722 39.3937 23.0599 37.584 22.3251 37.5405C21.5904 37.4969 21.8908 38.5342 23.2046 39.4808C24.5221 40.4237 27.7433 41.4574 27.8446 45.0261C27.9496 48.5948 27.0194 56.9763 27.0194 56.9763C27.0194 56.9763 29.3068 60.1098 33.2301 56.9908L33.2337 56.9871Z" fill="#75B904"/>
<path fill-rule="evenodd" clip-rule="evenodd" d="M31.1431 33.0682C31.1431 33.0682 22.8874 20.8968 36.905 7.77881C36.905 7.77881 49.7391 22.9205 33.3183 33.206C33.3183 33.206 33.7055 23.4428 35.5478 19.4642C35.5478 19.4642 30.611 28.1177 31.1431 33.0646V33.0682Z" fill="#75B904"/>
<path fill-rule="evenodd" clip-rule="evenodd" d="M36.7177 34.2399C36.7177 34.2399 41.7884 23.5373 56.5913 27.9511C56.5913 27.9511 51.3253 43.0493 37.5067 35.8103C37.5067 35.8103 44.4341 32.1074 47.9376 31.7701C47.9376 31.7701 39.928 31.8607 36.7177 34.2435V34.2399Z" fill="#75B904"/>
<path fill-rule="evenodd" clip-rule="evenodd" d="M21.2937 34.4544C21.2937 34.4544 11.5397 41.3271 0.732422 30.0877C0.732422 30.0877 12.8354 19.4541 21.3806 32.6845C21.3806 32.6845 13.4652 32.4923 10.2186 31.0452C10.2186 31.0452 17.2908 34.9512 21.2937 34.4544Z" fill="#75B904"/>
<path fill-rule="evenodd" clip-rule="evenodd" d="M23.7456 31.2263C23.7456 31.2263 11.1105 26.9104 14.1399 9.70508C14.1399 9.70508 31.7189 13.6727 25.3996 30.1382C25.3996 30.1382 20.3615 22.8339 19.5291 18.9352C19.5291 18.9352 20.6655 27.9259 23.7492 31.2263H23.7456Z" fill="#75B904"/>
<path fill-rule="evenodd" clip-rule="evenodd" d="M43.5603 24.3576C43.5603 24.3576 43.2056 16.3897 53.3976 14.3369C53.3976 14.3369 55.019 24.9778 44.523 25.0395C44.523 25.0395 47.4764 20.6475 49.4525 19.3382C49.4525 19.3382 44.7185 21.9241 43.5603 24.3576Z" fill="#75B904"/>
<path fill-rule="evenodd" clip-rule="evenodd" d="M12.2646 24.6764C12.2646 24.6764 4.83779 25.8478 1.841 16.4763C1.841 16.4763 11.6421 13.8324 12.8039 23.6971C12.8039 23.6971 8.37748 21.3833 6.94423 19.6606C6.94423 19.6606 9.8614 23.8422 12.2646 24.6764Z" fill="#75B904"/>
<path fill-rule="evenodd" clip-rule="evenodd" d="M26.7923 15.1599C26.7923 15.1599 20.9073 8.87468 27.8238 0C27.8238 0 36.626 7.58718 28.059 15.0402C28.059 15.0402 27.3967 9.35704 28.1025 6.88721C28.1025 6.88721 26.0322 12.3491 26.7923 15.1599Z" fill="#75B904"/>
<path fill-rule="evenodd" clip-rule="evenodd" d="M37.0818 39.136C37.0818 39.136 44.6389 36.6408 49.3693 45.9144C49.3693 45.9144 39.5827 50.3572 36.6873 40.2494C36.6873 40.2494 41.7036 41.9105 43.4988 43.4663C43.4988 43.4663 39.7347 39.5966 37.0854 39.1396L37.0818 39.136Z" fill="#75B904"/>
<path fill-rule="evenodd" clip-rule="evenodd" d="M21.6518 40.5799C21.6518 40.5799 18.7057 48.4173 8.01788 46.1796C8.01788 46.1796 10.8446 35.2341 21.004 39.5209C21.004 39.5209 16.3423 42.5384 13.892 42.9845C13.892 42.9845 19.5273 42.4513 21.6518 40.5799Z" fill="#75B904"/>
<path d="M33.2337 56.9871C33.2337 56.9871 31.073 47.971 32.4049 42.4148C33.7405 36.8623 35.8505 35.6944 35.6442 34.8494C35.4379 34.0044 34.3702 34.3997 34.0264 35.1831C33.6862 35.9665 32.2891 37.6565 31.0043 37.3845C29.7194 37.1125 29.3756 31.8283 28.4345 31.2988C27.4971 30.7693 27.8229 33.2137 28.1848 35.3281C28.5504 37.4462 26.7516 36.2675 25.6296 33.7287C24.5076 31.19 23.8525 31.9335 23.7294 32.2925C23.6064 32.6516 26.1942 37.1814 26.0024 37.399C25.8105 37.6166 22.5676 33.8593 22.2528 33.9681C21.9379 34.0769 21.3986 34.3743 22.1731 35.5566C22.9477 36.739 25.3798 38.73 25.2278 39.0601C25.0722 39.3937 23.0599 37.584 22.3251 37.5405C21.5904 37.4969 21.8908 38.5342 23.2046 39.4808C24.5221 40.4237 27.7433 41.4574 27.8446 45.0261C27.9496 48.5948 27.0194 56.9763 27.0194 56.9763C27.0194 56.9763 29.3068 60.1098 33.2301 56.9908L33.2337 56.9871Z" fill="#75B904"/>
<path fill-rule="evenodd" clip-rule="evenodd" d="M31.1431 33.0682C31.1431 33.0682 22.8874 20.8968 36.905 7.77881C36.905 7.77881 49.7391 22.9205 33.3183 33.206C33.3183 33.206 33.7055 23.4428 35.5478 19.4642C35.5478 19.4642 30.611 28.1177 31.1431 33.0646V33.0682Z" fill="#75B904"/>
<path fill-rule="evenodd" clip-rule="evenodd" d="M36.7177 34.2399C36.7177 34.2399 41.7884 23.5373 56.5913 27.9511C56.5913 27.9511 51.3253 43.0493 37.5067 35.8103C37.5067 35.8103 44.4341 32.1074 47.9376 31.7701C47.9376 31.7701 39.928 31.8607 36.7177 34.2435V34.2399Z" fill="#75B904"/>
<path fill-rule="evenodd" clip-rule="evenodd" d="M21.2937 34.4544C21.2937 34.4544 11.5397 41.3271 0.732422 30.0877C0.732422 30.0877 12.8354 19.4541 21.3806 32.6845C21.3806 32.6845 13.4652 32.4923 10.2186 31.0452C10.2186 31.0452 17.2908 34.9512 21.2937 34.4544Z" fill="#75B904"/>
<path fill-rule="evenodd" clip-rule="evenodd" d="M23.7456 31.2263C23.7456 31.2263 11.1105 26.9104 14.1399 9.70508C14.1399 9.70508 31.7189 13.6727 25.3996 30.1382C25.3996 30.1382 20.3615 22.8339 19.5291 18.9352C19.5291 18.9352 20.6655 27.9259 23.7492 31.2263H23.7456Z" fill="#75B904"/>
<path fill-rule="evenodd" clip-rule="evenodd" d="M43.5603 24.3576C43.5603 24.3576 43.2056 16.3897 53.3976 14.3369C53.3976 14.3369 55.019 24.9778 44.523 25.0395C44.523 25.0395 47.4764 20.6475 49.4525 19.3382C49.4525 19.3382 44.7185 21.9241 43.5603 24.3576Z" fill="#75B904"/>
<path fill-rule="evenodd" clip-rule="evenodd" d="M12.2646 24.6764C12.2646 24.6764 4.83779 25.8478 1.841 16.4763C1.841 16.4763 11.6421 13.8324 12.8039 23.6971C12.8039 23.6971 8.37748 21.3833 6.94423 19.6606C6.94423 19.6606 9.8614 23.8422 12.2646 24.6764Z" fill="#75B904"/>
<path fill-rule="evenodd" clip-rule="evenodd" d="M26.7923 15.1599C26.7923 15.1599 20.9073 8.87468 27.8238 0C27.8238 0 36.626 7.58718 28.059 15.0402C28.059 15.0402 27.3967 9.35704 28.1025 6.88721C28.1025 6.88721 26.0322 12.3491 26.7923 15.1599Z" fill="#75B904"/>
<path fill-rule="evenodd" clip-rule="evenodd" d="M37.0818 39.136C37.0818 39.136 44.6389 36.6408 49.3693 45.9144C49.3693 45.9144 39.5827 50.3572 36.6873 40.2494C36.6873 40.2494 41.7036 41.9105 43.4988 43.4663C43.4988 43.4663 39.7347 39.5966 37.0854 39.1396L37.0818 39.136Z" fill="#75B904"/>
<path fill-rule="evenodd" clip-rule="evenodd" d="M21.6518 40.5799C21.6518 40.5799 18.7057 48.4173 8.01788 46.1796C8.01788 46.1796 10.8446 35.2341 21.004 39.5209C21.004 39.5209 16.3423 42.5384 13.892 42.9845C13.892 42.9845 19.5273 42.4513 21.6518 40.5799Z" fill="#75B904"/>
<path d="M33.2337 56.9871C33.2337 56.9871 31.073 47.971 32.4049 42.4148C33.7405 36.8623 35.8505 35.6944 35.6442 34.8494C35.4379 34.0044 34.3702 34.3997 34.0264 35.1831C33.6862 35.9665 32.2891 37.6565 31.0043 37.3845C29.7194 37.1125 29.3756 31.8283 28.4345 31.2988C27.4971 30.7693 27.8229 33.2137 28.1848 35.3281C28.5504 37.4462 26.7516 36.2675 25.6296 33.7287C24.5076 31.19 23.8525 31.9335 23.7294 32.2925C23.6064 32.6516 26.1942 37.1814 26.0024 37.399C25.8105 37.6166 22.5676 33.8593 22.2528 33.9681C21.9379 34.0769 21.3986 34.3743 22.1731 35.5566C22.9477 36.739 25.3798 38.73 25.2278 39.0601C25.0722 39.3937 23.0599 37.584 22.3251 37.5405C21.5904 37.4969 21.8908 38.5342 23.2046 39.4808C24.5221 40.4237 27.7433 41.4574 27.8446 45.0261C27.9496 48.5948 27.0194 56.9763 27.0194 56.9763C27.0194 56.9763 29.3068 60.1098 33.2301 56.9908L33.2337 56.9871Z" fill="#75B904"/>
<path fill-rule="evenodd" clip-rule="evenodd" d="M31.1431 33.0682C31.1431 33.0682 22.8874 20.8968 36.905 7.77881C36.905 7.77881 49.7391 22.9205 33.3183 33.206C33.3183 33.206 33.7055 23.4428 35.5478 19.4642C35.5478 19.4642 30.611 28.1177 31.1431 33.0646V33.0682Z" fill="#75B904"/>
<path fill-rule="evenodd" clip-rule="evenodd" d="M36.7177 34.2399C36.7177 34.2399 41.7884 23.5373 56.5913 27.9511C56.5913 27.9511 51.3253 43.0493 37.5067 35.8103C37.5067 35.8103 44.4341 32.1074 47.9376 31.7701C47.9376 31.7701 39.928 31.8607 36.7177 34.2435V34.2399Z" fill="#75B904"/>
<path fill-rule="evenodd" clip-rule="evenodd" d="M21.2937 34.4544C21.2937 34.4544 11.5397 41.3271 0.732422 30.0877C0.732422 30.0877 12.8354 19.4541 21.3806 32.6845C21.3806 32.6845 13.4652 32.4923 10.2186 31.0452C10.2186 31.0452 17.2908 34.9512 21.2937 34.4544Z" fill="#75B904"/>
<path fill-rule="evenodd" clip-rule="evenodd" d="M23.7456 31.2263C23.7456 31.2263 11.1105 26.9104 14.1399 9.70508C14.1399 9.70508 31.7189 13.6727 25.3996 30.1382C25.3996 30.1382 20.3615 22.8339 19.5291 18.9352C19.5291 18.9352 20.6655 27.9259 23.7492 31.2263H23.7456Z" fill="#75B904"/>
<path fill-rule="evenodd" clip-rule="evenodd" d="M43.5603 24.3576C43.5603 24.3576 43.2056 16.3897 53.3976 14.3369C53.3976 14.3369 55.019 24.9778 44.523 25.0395C44.523 25.0395 47.4764 20.6475 49.4525 19.3382C49.4525 19.3382 44.7185 21.9241 43.5603 24.3576Z" fill="#75B904"/>
<path fill-rule="evenodd" clip-rule="evenodd" d="M12.2646 24.6764C12.2646 24.6764 4.83779 25.8478 1.841 16.4763C1.841 16.4763 11.6421 13.8324 12.8039 23.6971C12.8039 23.6971 8.37748 21.3833 6.94423 19.6606C6.94423 19.6606 9.8614 23.8422 12.2646 24.6764Z" fill="#75B904"/>
<path fill-rule="evenodd" clip-rule="evenodd" d="M26.7923 15.1599C26.7923 15.1599 20.9073 8.87468 27.8238 0C27.8238 0 36.626 7.58718 28.059 15.0402C28.059 15.0402 27.3967 9.35704 28.1025 6.88721C28.1025 6.88721 26.0322 12.3491 26.7923 15.1599Z" fill="#75B904"/>
<path fill-rule="evenodd" clip-rule="evenodd" d="M37.0818 39.136C37.0818 39.136 44.6389 36.6408 49.3693 45.9144C49.3693 45.9144 39.5827 50.3572 36.6873 40.2494C36.6873 40.2494 41.7036 41.9105 43.4988 43.4663C43.4988 43.4663 39.7347 39.5966 37.0854 39.1396L37.0818 39.136Z" fill="#75B904"/>
<path fill-rule="evenodd" clip-rule="evenodd" d="M21.6518 40.5799C21.6518 40.5799 18.7057 48.4173 8.01788 46.1796C8.01788 46.1796 10.8446 35.2341 21.004 39.5209C21.004 39.5209 16.3423 42.5384 13.892 42.9845C13.892 42.9845 19.5273 42.4513 21.6518 40.5799Z" fill="#75B904"/>
</svg>
