<svg width="153" height="160" viewBox="0 0 153 160" fill="none" xmlns="http://www.w3.org/2000/svg">
<path d="M89.0237 155.277C89.0237 155.277 83.0979 130.715 86.7467 115.562C90.3954 100.436 96.184 97.2632 95.6079 94.9382C95.0318 92.6407 92.1237 93.7074 91.191 95.8409C90.2582 97.9743 86.4174 102.569 82.9059 101.831C79.3943 101.092 78.4341 86.7053 75.8553 85.2556C73.2765 83.806 74.1818 90.4799 75.1695 96.2511C76.1571 102.022 71.2464 98.8222 68.1738 91.9022C65.1011 84.9821 63.2905 87.0062 62.9613 87.9908C62.6321 88.9755 69.7101 101.311 69.1888 101.913C68.6676 102.515 59.7789 92.2578 58.901 92.5586C58.0231 92.8595 56.5691 93.6527 58.6816 96.8802C60.794 100.108 67.4605 105.523 67.049 106.426C66.6375 107.329 61.1232 102.405 59.0931 102.296C57.0904 102.187 57.886 105.004 61.5073 107.575C65.1011 110.146 73.9349 112.963 74.2093 122.673C74.4836 132.41 71.9597 155.222 71.9597 155.222C71.9597 155.222 78.2146 163.756 88.9688 155.249L89.0237 155.277Z" fill="#75B904"/>
<path fill-rule="evenodd" clip-rule="evenodd" d="M83.2901 90.0979C83.2901 90.0979 60.6844 56.9473 99.0647 21.1982C99.0647 21.1982 134.208 62.445 89.2433 90.4808C89.2433 90.4808 90.3132 63.8673 95.3611 53.0359C95.3611 53.0359 81.8361 76.6133 83.2901 90.0979Z" fill="#75B904"/>
<path fill-rule="evenodd" clip-rule="evenodd" d="M98.5706 93.2976C98.5706 93.2976 112.452 64.1404 153 76.148C153 76.148 138.569 117.285 100.71 97.5645C100.71 97.5645 119.695 87.4717 129.297 86.5417C129.297 86.5417 107.349 86.7879 98.5706 93.2703V93.2976Z" fill="#75B904"/>
<path fill-rule="evenodd" clip-rule="evenodd" d="M56.3222 93.8719C56.3222 93.8719 29.6014 112.608 0 81.9738C0 81.9738 33.1678 53.0081 56.5691 89.0579C56.5691 89.0579 34.8962 88.5383 26.0075 84.5996C26.0075 84.5996 45.376 95.2395 56.3497 93.8992L56.3222 93.8719Z" fill="#75B904"/>
<path fill-rule="evenodd" clip-rule="evenodd" d="M64.086 84.9825C64.086 84.9825 29.4642 73.2211 37.7767 26.3398C37.7767 26.3398 85.9236 37.1439 68.6126 82.0011C68.6126 82.0011 54.8133 62.0889 52.5363 51.4763C52.5363 51.4763 55.6363 75.9837 64.086 84.9551V84.9825Z" fill="#75B904"/>
<path fill-rule="evenodd" clip-rule="evenodd" d="M117.308 66.3559C117.308 66.3559 116.348 44.6384 144.248 39.0586C144.248 39.0586 148.693 68.0517 119.942 68.2158C119.942 68.2158 128.035 56.263 133.439 52.6799C133.439 52.6799 120.463 59.7367 117.308 66.3559Z" fill="#75B904"/>
<path fill-rule="evenodd" clip-rule="evenodd" d="M31.6041 67.2315C31.6041 67.2315 11.248 70.4317 3.04517 44.885C3.04517 44.885 29.8757 37.6914 33.0855 64.551C33.0855 64.551 20.9596 58.2327 17.0366 53.5556C17.0366 53.5556 25.0199 64.9613 31.6041 67.2315Z" fill="#75B904"/>
<path fill-rule="evenodd" clip-rule="evenodd" d="M71.3836 41.3015C71.3836 41.3015 55.2524 24.1791 74.2093 0C74.2093 0 98.3239 20.6781 74.8677 40.9732C74.8677 40.9732 73.0571 25.492 74.9775 18.7635C74.9775 18.7635 69.2986 33.6429 71.3836 41.3015Z" fill="#75B904"/>
<path fill-rule="evenodd" clip-rule="evenodd" d="M99.5585 106.618C99.5585 106.618 120.271 99.8074 133.22 125.081C133.22 125.081 106.417 137.17 98.4885 109.654C98.4885 109.654 112.233 114.167 117.144 118.407C117.144 118.407 106.828 107.876 99.5859 106.618H99.5585Z" fill="#75B904"/>
<path fill-rule="evenodd" clip-rule="evenodd" d="M57.31 110.557C57.31 110.557 49.2444 131.919 19.9722 125.819C19.9722 125.819 27.7086 96.0056 55.5542 107.685C55.5542 107.685 42.7973 115.918 36.076 117.121C36.076 117.121 51.5214 115.672 57.3374 110.584L57.31 110.557Z" fill="#75B904"/>
<path fill-rule="evenodd" clip-rule="evenodd" d="M57.31 110.557C57.31 110.557 49.2444 131.919 19.9722 125.819C19.9722 125.819 27.7086 96.0056 55.5542 107.685C55.5542 107.685 42.7973 115.918 36.076 117.121C36.076 117.121 51.5214 115.672 57.3374 110.584L57.31 110.557Z" fill="#75B904"/>
</svg>
