<svg width="55" height="15" viewBox="0 0 55 15" fill="none" xmlns="http://www.w3.org/2000/svg">
<path d="M54.5192 10.492L53.9928 11.9749C53.9928 11.9749 53.3996 11.7673 52.3171 11.4262C51.2346 11.0852 49.6776 10.6329 47.7944 10.1584C43.1803 8.97456 38.4946 8.09041 33.7664 7.51145C29.0417 6.93382 24.2825 6.68607 19.5234 6.77002C17.5808 6.8664 15.9571 6.87382 14.8301 6.99986L13.0581 7.17781L12.9024 5.62821L14.7115 5.45026C15.8607 5.32422 17.5067 5.31681 19.4863 5.21301C24.3194 5.12928 29.1526 5.37701 33.9518 5.95444C38.7466 6.54667 43.4989 7.44314 48.1799 8.63844C50.0928 9.12037 51.6795 9.58748 52.7768 9.93595C53.8742 10.2844 54.5192 10.492 54.5192 10.492Z" fill="#108F6E"/>
<path d="M5.65829 2.44723C7.21589 2.1657 8.82293 2.42743 10.2107 3.18867C10.7956 3.53445 11.2934 4.0096 11.6662 4.57768C12.0389 5.14575 12.2765 5.79164 12.3609 6.46582C12.4218 7.12285 12.3408 7.78529 12.1233 8.40827C11.9058 9.03126 11.557 9.60022 11.1004 10.0766C10.1745 11.1692 8.88868 11.895 7.47481 12.123C6.76175 12.2407 6.0362 12.2632 5.31723 12.1897C4.63585 12.0976 3.97588 11.8868 3.36725 11.5669C2.76841 11.2698 2.23658 10.8535 1.80438 10.3435C1.37217 9.8335 1.04869 9.24062 0.85378 8.60117C0.681792 7.95313 0.666737 7.27342 0.809861 6.6184C0.952986 5.96338 1.25017 5.3519 1.67677 4.83466C2.14621 4.24523 2.71597 3.74324 3.35984 3.35179C4.05484 2.89388 4.83762 2.58582 5.65829 2.44723Z" fill="#FCE300"/>
<path d="M7.8901 4.96063C7.36528 5.16863 6.85715 5.4165 6.37016 5.70207C5.45157 6.19273 4.68294 6.92292 4.14585 7.81516C5.01433 8.33466 5.9725 8.68676 6.97072 8.85318C7.50116 8.96344 8.03886 9.03528 8.57964 9.06818C7.7945 10.7339 7.56326 12.6073 7.91976 14.414C9.22675 13.8658 10.4077 13.0558 11.3897 12.0339C12.1798 11.2805 12.8322 10.3947 13.3174 9.41666C13.8261 8.42937 14.1455 7.35557 14.259 6.25074C13.9637 5.17997 13.4316 4.18923 12.702 3.35172C11.942 2.4614 11.0151 1.72843 9.97354 1.19413C8.4774 0.533476 6.86368 0.180478 5.22835 0.156128C5.32753 0.708956 5.48921 1.24872 5.71028 1.76504C6.20598 2.97065 6.94851 4.05918 7.8901 4.96063Z" fill="#108F6E"/>
</svg>
