<svg width="68" height="75" viewBox="0 0 68 75" fill="none" xmlns="http://www.w3.org/2000/svg">
<path d="M67.245 11.5606C67.245 11.5606 62.2922 0.698522 52.0753 0.705936C41.8583 0.713351 40.3902 11.4864 46.3588 19.4939C39.1933 15.0763 30.8735 12.895 22.4623 13.2288C8.375 13.77 -2.00511 24.1872 1.01995 35.8278C4.04501 47.4683 19.8079 50.1227 24.3011 48.8993C24.3011 48.8993 8.78279 59.9245 14.9071 69.9338C21.0313 79.9432 40.2345 69.9338 40.2345 69.9338L67.245 11.5606Z" fill="#BCE13E"/>
<path d="M46.6329 39.8389C46.4624 39.7648 29.0831 32.6025 20.2007 31.7202L20.2822 30.8898C29.2833 31.7869 46.7812 38.9937 46.9739 39.0456L46.6329 39.8389Z" fill="white"/>
<path d="M20.4831 39.7872L19.9937 39.1199C23.4785 36.5619 30.3738 33.9965 30.6556 33.9298L30.9448 34.6712C30.8706 34.7306 23.8789 37.3034 20.4831 39.7872Z" fill="white"/>
<path d="M38.6257 36.6136C38.5293 36.3392 36.2308 30 36.0306 27.4198L36.8611 27.353C37.0538 29.822 39.3819 36.2503 39.4042 36.3244L38.6257 36.6136Z" fill="white"/>
<path d="M23.7967 65.2332L23.3815 64.4918C32.0267 59.45 38.8924 58.4268 38.9517 58.412L39.0629 59.2424C39.011 59.272 32.301 60.2804 23.7967 65.2332Z" fill="white"/>
<path d="M61.0166 22.9196C60.7422 22.6156 54.2843 15.5719 52.5197 9.84061L53.3205 9.59595C55.0258 15.1493 61.5652 22.2819 61.6246 22.3486L61.0166 22.9196Z" fill="white"/>
</svg>
