<svg width="48" height="73" viewBox="0 0 48 73" fill="none" xmlns="http://www.w3.org/2000/svg">
<path d="M0.0214844 70.4745C0.0214844 70.4745 7.03549 50.9673 6.1606 32.0607C5.2857 13.1541 10.839 -1.04442 19.9068 0.0603211C28.9746 1.16506 36.8709 35.3749 2.35703 72.5209L0.0214844 70.4745Z" fill="#BCE13E"/>
<path d="M3.05386 69.7626L2.34949 69.3177C2.47553 69.1176 15.0874 48.7874 15.5767 26.3663H16.4071C15.9178 49.0395 3.17991 69.555 3.05386 69.7626Z" fill="white"/>
<path d="M1.60151 72.7953C1.60151 72.7953 14.2059 66.2336 27.0921 65.0843C39.9783 63.9351 49.1202 58.8563 47.5335 52.8062C45.9468 46.756 22.0132 44.5614 0 71.394L1.60151 72.7953Z" fill="#91B31E"/>
<path d="M2.25344 71.2083L1.7196 70.5707C1.84565 70.4595 14.6206 59.9088 29.9832 57.4769L30.1092 58.2999C14.9839 60.6948 2.37948 71.1045 2.25344 71.2083Z" fill="white"/>
</svg>
