<svg width="24" height="24" viewBox="0 0 24 24" fill="none" xmlns="http://www.w3.org/2000/svg">
<path d="M6.82892 17.0806L5.97142 17.5951C6.05587 17.7358 6.17367 17.8536 6.31442 17.9381L6.82892 17.0806ZM18.8498 5.05981L19.8475 4.99329C19.8142 4.49342 19.4161 4.09535 18.9163 4.06202L18.8498 5.05981ZM7.68641 16.5661C6.70502 14.9305 6.34042 13.4515 6.4236 12.1854C6.50603 10.9306 7.0323 9.80614 7.97796 8.86048C9.9005 6.93796 13.6245 5.71366 18.7832 6.05759L18.9163 4.06202C13.4684 3.69882 9.06065 4.94938 6.56375 7.44627C5.2997 8.71031 4.54434 10.2817 4.4279 12.0542C4.3122 13.8154 4.83149 15.6952 5.97142 17.5951L7.68641 16.5661ZM17.852 5.12632C18.1959 10.2851 16.9715 14.009 15.049 15.9315C14.1034 16.8772 12.9789 17.4035 11.7242 17.4859C10.458 17.5691 8.97906 17.2045 7.34341 16.2231L6.31442 17.9381C8.21431 19.078 10.0941 19.5973 11.8553 19.4816C13.6278 19.3652 15.1992 18.6098 16.4632 17.3457C18.9601 14.8489 20.2107 10.4411 19.8475 4.99329L17.852 5.12632Z" fill="#86B738"/>
<path d="M5 18.9093L10.6569 13.2524" stroke="#86B738" stroke-width="2" stroke-linecap="round" stroke-linejoin="round"/>
</svg>
