<svg width="93" height="104" viewBox="0 0 93 104" fill="none" xmlns="http://www.w3.org/2000/svg">
<g filter="url(#filter0_d_1945_1286)">
<g filter="url(#filter1_d_1945_1286)">
<mask id="path-1-inside-1_1945_1286" fill="white">
<path fill-rule="evenodd" clip-rule="evenodd" d="M52.9589 88.409C73.3621 85.3216 89 67.7093 89 46.4445C89 23.003 69.997 4 46.5555 4C23.1141 4 4.11108 23.003 4.11108 46.4445C4.11108 67.7093 19.749 85.3217 40.1522 88.409L46.5555 99.5L52.9589 88.409Z"/>
</mask>
<path fill-rule="evenodd" clip-rule="evenodd" d="M52.9589 88.409C73.3621 85.3216 89 67.7093 89 46.4445C89 23.003 69.997 4 46.5555 4C23.1141 4 4.11108 23.003 4.11108 46.4445C4.11108 67.7093 19.749 85.3217 40.1522 88.409L46.5555 99.5L52.9589 88.409Z" fill="#FDFFF9"/>
<path d="M52.9589 88.409L51.9116 81.4878L48.581 81.9918L46.8967 84.909L52.9589 88.409ZM40.1522 88.409L46.2144 84.909L44.5301 81.9918L41.1995 81.4878L40.1522 88.409ZM46.5555 99.5L40.4934 103L46.5555 113.5L52.6177 103L46.5555 99.5ZM82 46.4445C82 64.1959 68.9437 78.9106 51.9116 81.4878L54.0062 95.3303C77.7805 91.7327 96 71.2226 96 46.4445H82ZM46.5555 11C66.131 11 82 26.869 82 46.4445H96C96 19.137 73.8629 -3 46.5555 -3V11ZM11.1111 46.4445C11.1111 26.869 26.9801 11 46.5555 11V-3C19.2481 -3 -2.88892 19.137 -2.88892 46.4445H11.1111ZM41.1995 81.4878C24.1674 78.9106 11.1111 64.1959 11.1111 46.4445H-2.88892C-2.88892 71.2226 15.3306 91.7327 39.1049 95.3303L41.1995 81.4878ZM52.6177 96L46.2144 84.909L34.09 91.909L40.4934 103L52.6177 96ZM46.8967 84.909L40.4934 96L52.6177 103L59.0211 91.909L46.8967 84.909Z" fill="#75B904" mask="url(#path-1-inside-1_1945_1286)"/>
</g>
<g clip-path="url(#clip0_1945_1286)">
<path d="M49.682 64.639C49.682 64.639 48.2034 58.7379 49.116 55.1036C50.0288 51.4692 51.4729 50.706 51.3305 50.1517C51.1883 49.5975 50.458 49.8581 50.2245 50.3707C49.9909 50.8832 49.0353 51.9885 48.157 51.8105C47.2788 51.6321 47.0427 48.1746 46.4003 47.829C45.758 47.4835 45.981 49.0814 46.2303 50.4667C46.4797 51.8521 45.2498 51.081 44.4827 49.4195C43.7155 47.7579 43.2668 48.2448 43.1821 48.4799C43.0974 48.7151 44.8684 51.679 44.7377 51.821C44.6066 51.9631 42.388 49.5051 42.1727 49.5756C41.9571 49.6458 41.5895 49.8402 42.1195 50.6143C42.6494 51.3884 44.3136 52.6899 44.2076 52.9072C44.1014 53.1247 42.7252 51.9403 42.2233 51.9124C41.7215 51.8845 41.9251 52.5629 42.825 53.181C43.7251 53.7991 45.9288 54.474 45.9993 56.8099C46.0698 59.1457 45.4362 64.6297 45.4362 64.6297C45.4362 64.6297 47.0009 66.6812 49.6824 64.6389L49.682 64.639Z" fill="#75B904"/>
<path fill-rule="evenodd" clip-rule="evenodd" d="M48.251 48.9855C48.251 48.9855 42.6045 41.0213 52.1908 32.4355C52.1908 32.4355 60.9669 42.3444 49.7371 49.0761C49.7371 49.0761 50.0028 42.6869 51.2629 40.0839C51.2629 40.0839 47.8867 45.7464 48.251 48.9853V48.9855Z" fill="#75B904"/>
<path fill-rule="evenodd" clip-rule="evenodd" d="M52.0652 49.7523C52.0652 49.7523 55.5328 42.7475 65.6555 45.6359C65.6555 45.6359 62.0541 55.5161 52.6043 50.7781C52.6043 50.7781 57.3407 48.3549 59.7385 48.1333C59.7385 48.1333 54.2602 48.1921 52.065 49.7524L52.0652 49.7523Z" fill="#75B904"/>
<path fill-rule="evenodd" clip-rule="evenodd" d="M41.5168 49.8919C41.5168 49.8919 34.8461 54.3888 27.4554 47.0352C27.4554 47.0352 35.7331 40.077 41.575 48.7339C41.575 48.7339 36.1624 48.6081 33.9427 47.6603C33.9427 47.6603 38.7795 50.2166 41.5168 49.8919Z" fill="#75B904"/>
<path fill-rule="evenodd" clip-rule="evenodd" d="M43.1916 47.7785C43.1916 47.7785 34.5509 44.9539 36.6219 33.6943C36.6219 33.6943 48.6429 36.2912 44.3215 47.066C44.3215 47.066 40.8759 42.2854 40.3068 39.7353C40.3068 39.7353 41.0832 45.6194 43.1916 47.7785Z" fill="#75B904"/>
<path fill-rule="evenodd" clip-rule="evenodd" d="M56.7425 43.2828C56.7425 43.2828 56.4999 38.069 63.4687 36.7246C63.4687 36.7246 64.5776 43.6883 57.4005 43.7297C57.4005 43.7297 59.4195 40.8563 60.7721 39.9992C60.7721 39.9992 57.5343 41.6913 56.7425 43.2829V43.2828Z" fill="#75B904"/>
<path fill-rule="evenodd" clip-rule="evenodd" d="M35.3421 43.4931C35.3421 43.4931 30.2634 44.2586 28.2144 38.1271C28.2144 38.1271 34.9158 36.3973 35.7107 42.8533C35.7107 42.8533 32.6846 41.3388 31.7035 40.2107C31.7035 40.2107 33.6992 42.9468 35.3421 43.4931Z" fill="#75B904"/>
<path fill-rule="evenodd" clip-rule="evenodd" d="M45.2763 37.264C45.2763 37.264 41.2512 33.1497 45.9822 27.3442C45.9822 27.3442 52.0028 32.3096 46.1442 37.1865C46.1442 37.1865 45.6921 33.4665 46.173 31.8505C46.173 31.8505 44.7582 35.4239 45.2764 37.264H45.2763Z" fill="#75B904"/>
<path fill-rule="evenodd" clip-rule="evenodd" d="M52.3127 52.9544C52.3127 52.9544 57.4816 51.3207 60.7158 57.3908C60.7158 57.3908 54.0239 60.2974 52.042 53.6827C52.042 53.6827 55.4728 54.7699 56.6991 55.7868C56.6991 55.7868 54.1249 53.2552 52.3127 52.9546V52.9544Z" fill="#75B904"/>
<path fill-rule="evenodd" clip-rule="evenodd" d="M41.7618 53.9C41.7618 53.9 39.7471 59.0296 32.4387 57.5654C32.4387 57.5654 34.3717 50.4016 41.3189 53.2072C41.3189 53.2072 38.131 55.1822 36.4547 55.4729C36.4547 55.4729 40.3093 55.124 41.7618 53.9Z" fill="#75B904"/>
<path fill-rule="evenodd" clip-rule="evenodd" d="M41.7618 53.9C41.7618 53.9 39.7471 59.0296 32.4387 57.5654C32.4387 57.5654 34.3717 50.4016 41.3189 53.2072C41.3189 53.2072 38.131 55.1822 36.4547 55.4729C36.4547 55.4729 40.3093 55.124 41.7618 53.9Z" fill="#75B904"/>
</g>
</g>
<defs>
<filter id="filter0_d_1945_1286" x="0.111084" y="0" width="92.8889" height="103.5" filterUnits="userSpaceOnUse" color-interpolation-filters="sRGB">
<feFlood flood-opacity="0" result="BackgroundImageFix"/>
<feColorMatrix in="SourceAlpha" type="matrix" values="0 0 0 0 0 0 0 0 0 0 0 0 0 0 0 0 0 0 127 0" result="hardAlpha"/>
<feOffset/>
<feGaussianBlur stdDeviation="2"/>
<feComposite in2="hardAlpha" operator="out"/>
<feColorMatrix type="matrix" values="0 0 0 0 0 0 0 0 0 0 0 0 0 0 0 0 0 0 0.25 0"/>
<feBlend mode="normal" in2="BackgroundImageFix" result="effect1_dropShadow_1945_1286"/>
<feBlend mode="normal" in="SourceGraphic" in2="effect1_dropShadow_1945_1286" result="shape"/>
</filter>
<filter id="filter1_d_1945_1286" x="3.11108" y="4" width="86.8889" height="97.5" filterUnits="userSpaceOnUse" color-interpolation-filters="sRGB">
<feFlood flood-opacity="0" result="BackgroundImageFix"/>
<feColorMatrix in="SourceAlpha" type="matrix" values="0 0 0 0 0 0 0 0 0 0 0 0 0 0 0 0 0 0 127 0" result="hardAlpha"/>
<feOffset dy="1"/>
<feGaussianBlur stdDeviation="0.5"/>
<feColorMatrix type="matrix" values="0 0 0 0 0 0 0 0 0 0 0 0 0 0 0 0 0 0 0.1 0"/>
<feBlend mode="normal" in2="BackgroundImageFix" result="effect1_dropShadow_1945_1286"/>
<feBlend mode="normal" in="SourceGraphic" in2="effect1_dropShadow_1945_1286" result="shape"/>
</filter>
<clipPath id="clip0_1945_1286">
<rect width="38.2" height="38.2" fill="white" transform="translate(27.4555 27.3442)"/>
</clipPath>
</defs>
</svg>