<svg width="16" height="16" viewBox="0 0 16 16" fill="none" xmlns="http://www.w3.org/2000/svg">
<path fill-rule="evenodd" clip-rule="evenodd" d="M12 7C12 9.76142 9.76142 12 7 12C4.23858 12 2 9.76142 2 7C2 4.23858 4.23858 2 7 2C9.76142 2 12 4.23858 12 7ZM11.1922 12.6064C10.0236 13.4816 8.57233 14 7 14C3.13401 14 0 10.866 0 7C0 3.13401 3.13401 0 7 0C10.866 0 14 3.13401 14 7C14 8.57234 13.4816 10.0236 12.6064 11.1922L15.6568 14.2426C16.0473 14.6332 16.0473 15.2663 15.6568 15.6569C15.2663 16.0474 14.6331 16.0474 14.2426 15.6569L11.1922 12.6064Z" fill="white"/>
</svg>
