<svg width="44" height="50" viewBox="0 0 44 50" fill="none" xmlns="http://www.w3.org/2000/svg">
<path d="M43.1469 1.30494C38.7191 0.776262 34.2589 0.56811 29.8011 0.682129C24.1581 0.84765 18.6009 2.10665 13.4376 4.38931C7.66178 6.96209 4.54032 11.5887 2.74605 15.6369C1.68956 18.0228 0.966072 20.5425 0.595886 23.1254C2.68257 24.741 5.02605 25.9942 7.52832 26.8326C10.1609 27.7919 12.9631 28.1975 15.7596 28.0239C18.5562 27.8504 21.2868 27.1016 23.7806 25.8242C29.2276 23.019 33.8945 18.9075 37.3637 13.8575C39.9724 10.0219 41.9267 5.78017 43.1469 1.30494Z" fill="#BCE13E"/>
<path d="M0.632822 23.2663L0.543854 23.0216C0.543854 23.0216 2.84971 22.1022 6.28256 20.6193C9.71541 19.1365 14.253 17.0901 18.7313 14.9251C23.2096 12.7601 27.6285 10.4765 30.8983 8.63772C32.5368 7.74058 33.864 6.96208 34.8205 6.41341L36.3033 5.55334L36.4368 5.77578L34.9539 6.63585C34.0197 7.19192 32.6703 7.97785 31.0317 8.86016C27.762 10.6767 23.343 12.9825 18.8499 15.1475C14.3568 17.3125 9.81923 19.3663 6.38638 20.8492C2.95353 22.3321 0.632822 23.2663 0.632822 23.2663Z" fill="white"/>
<path d="M25.3149 11.7075C25.2272 11.0562 25.2472 10.3949 25.3742 9.75014C25.6985 7.95864 26.3441 6.24052 27.2797 4.67871L27.4948 4.80477C26.5866 6.34336 25.9566 8.02997 25.6338 9.78722C25.5607 10.2432 25.5259 10.7045 25.53 11.1663C25.5319 11.33 25.5443 11.4935 25.567 11.6556L25.3149 11.7075Z" fill="white"/>
<path d="M18.8943 15.0141L19.0871 14.8362C19.2265 14.9746 19.3751 15.1034 19.5319 15.2217C19.9688 15.5532 20.4354 15.8436 20.9258 16.0892C22.8851 17.0246 25.0142 17.5518 27.1835 17.6388V17.8983C24.9811 17.8149 22.8189 17.2825 20.8294 16.3339C20.1143 16.0068 19.4599 15.5605 18.8943 15.0141Z" fill="white"/>
<path d="M6.91327 20.5157L7.10605 20.3452C7.2611 20.5118 7.42704 20.6678 7.6028 20.8123C8.09003 21.2103 8.61101 21.565 9.15982 21.8726C11.3593 23.0331 13.7699 23.7391 16.2479 23.9486V24.2007C13.7364 23.9967 11.2922 23.2854 9.06343 22.1098C8.25886 21.7085 7.53107 21.169 6.91327 20.5157Z" fill="white"/>
<path d="M12.0511 18.1432C11.9722 17.1708 12.0498 16.192 12.281 15.2442C12.9074 12.6046 13.9914 10.0952 15.484 7.82983L15.699 7.97071C14.2233 10.2094 13.1564 12.6921 12.5479 15.3035C12.3978 15.9785 12.3109 16.6661 12.2884 17.3573C12.2726 17.6042 12.2726 17.8518 12.2884 18.0987L12.0511 18.1432Z" fill="white"/>
<path d="M29.8232 9.40911L30.0012 9.22375C30.3348 9.51045 30.713 9.74084 31.1207 9.90587C32.2962 10.3925 33.5556 10.6444 34.8279 10.6473V10.9142C33.5142 10.9175 32.2124 10.6657 30.9947 10.1728C30.5635 9.98693 30.1673 9.72865 29.8232 9.40911Z" fill="white"/>
<path d="M32.3143 49.313C30.9278 43.2629 28.1548 34.0394 19.6506 27.1515C11.1463 20.2635 0.58823 25.068 0.58823 25.068C0.58823 25.068 -1.30983 36.4787 7.64672 42.9366C16.6033 49.3946 26.1826 49.6244 32.3143 49.313Z" fill="#91B31E"/>
<path d="M0.521729 25.1498L0.655182 24.9792L27.0429 45.1537L26.9169 45.3243L0.521729 25.1498Z" fill="white"/>
<path d="M18.6425 38.8365C19.1 38.5453 19.6004 38.3277 20.1254 38.1914C21.6029 37.8055 23.1409 37.7073 24.6555 37.9023V38.1173C23.1678 37.9291 21.6578 38.0273 20.2069 38.4065C19.8366 38.5053 19.4766 38.6394 19.1318 38.8068C19.0078 38.8663 18.8888 38.9358 18.7759 39.0144L18.6425 38.8365Z" fill="white"/>
<path d="M13.8304 35.2257L14.0306 35.3073C13.9797 35.4624 13.94 35.621 13.9119 35.7818C13.8305 36.232 13.7883 36.6885 13.7859 37.146C13.8166 38.9415 14.1864 40.715 14.8758 42.3732L14.6756 42.4547C13.9714 40.7717 13.594 38.9701 13.5634 37.146C13.5439 36.4955 13.6341 35.8463 13.8304 35.2257Z" fill="white"/>
<path d="M5.0959 28.5527L5.3035 28.6269C5.24163 28.8056 5.19452 28.9891 5.16262 29.1755C5.06376 29.6911 5.0141 30.215 5.01433 30.74C5.03905 32.7954 5.45945 34.8269 6.25254 36.7234L6.05233 36.8049C5.2461 34.8828 4.81573 32.8241 4.78448 30.74C4.76767 29.9987 4.87289 29.2598 5.0959 28.5527Z" fill="white"/>
<path d="M8.8847 31.3702C9.56633 30.9255 10.3184 30.5996 11.109 30.4064C13.3183 29.8382 15.6155 29.6948 17.8783 29.9837V30.1988C15.6469 29.9177 13.3823 30.0636 11.2054 30.6288C10.6492 30.7817 10.1082 30.9853 9.58908 31.2368C9.40086 31.3235 9.21986 31.4252 9.04782 31.5408L8.8847 31.3702Z" fill="white"/>
<path d="M21.9637 41.4392L22.1639 41.5208C22.0585 41.8741 22.0109 42.2422 22.023 42.6107C22.0453 43.6675 22.264 44.7109 22.6681 45.6876L22.4679 45.7692C22.0517 44.7616 21.8254 43.6857 21.8006 42.5959C21.7902 42.2039 21.8454 41.813 21.9637 41.4392Z" fill="white"/>
</svg>
