<svg width="21" height="30" viewBox="0 0 21 30" fill="none" xmlns="http://www.w3.org/2000/svg">
<path d="M13.5125 26.2476V28.9548C13.5117 29.2106 13.4098 29.4556 13.2289 29.6365C13.0481 29.8173 12.8031 29.9192 12.5473 29.92H7.72151C7.46577 29.9192 7.22072 29.8173 7.03988 29.6365C6.85904 29.4556 6.75711 29.2106 6.75635 28.9548V26.2476C6.93549 26.5276 7.15318 26.781 7.40301 27.0004C8.16405 27.6493 9.13432 28.0007 10.1344 27.9897C10.7982 28.0045 11.4551 27.8528 12.0451 27.5485C12.6352 27.2442 13.1397 26.7969 13.5125 26.2476Z" fill="#915041"/>
<path d="M7.91919 1.43326L6.50041 4.0778C6.34979 4.36332 6.27189 4.68156 6.27359 5.00436C6.26758 5.47447 6.43608 5.93011 6.74652 6.2832C6.87528 6.42949 7.03329 6.54716 7.21034 6.62862C7.38739 6.71008 7.57955 6.75352 7.77442 6.75612H8.24252C8.53611 6.74439 8.81978 6.64666 9.05829 6.47507C9.2968 6.30348 9.47964 6.06559 9.58409 5.79096L10.1342 4.50247V0C9.66938 0.0140082 9.21722 0.154975 8.82677 0.407623C8.43631 0.660271 8.12245 1.01496 7.91919 1.43326Z" fill="#007145"/>
<path d="M13.7681 4.0778L12.3493 1.43326C12.1461 1.01496 11.8322 0.660271 11.4417 0.407623C11.0513 0.154975 10.5991 0.0140082 10.1343 0V4.50247L10.6844 5.79096C10.7889 6.06559 10.9717 6.30348 11.2102 6.47507C11.4487 6.64666 11.7324 6.74439 12.026 6.75612H12.4941C12.689 6.75352 12.8811 6.71008 13.0582 6.62862C13.2352 6.54716 13.3932 6.42949 13.522 6.2832C13.5316 6.26872 13.5461 6.25907 13.5558 6.24459C13.8444 5.89623 14 5.45673 13.9949 5.00436C13.9966 4.68156 13.9187 4.36332 13.7681 4.0778Z" fill="#009E60"/>
<path d="M12.0258 6.75609C11.7322 6.74436 11.4485 6.64663 11.21 6.47504C10.9715 6.30345 10.7887 6.06556 10.6842 5.79093L10.1341 4.50244L9.58395 5.79093C9.4795 6.06556 9.29666 6.30345 9.05815 6.47504C8.81964 6.64663 8.53597 6.74436 8.24238 6.75609H8.20377L7.72119 10.6167L8.2279 11.6543C8.36154 12.0543 8.61743 12.4022 8.95945 12.649C9.30147 12.8958 9.71234 13.0289 10.1341 13.0296C10.5555 13.0298 10.966 12.8963 11.3068 12.6484C11.6482 12.4009 11.9045 12.0536 12.0403 11.6543L12.547 10.6167L12.0644 6.75609H12.0258Z" fill="#009E60"/>
<path d="M7.77457 6.75613C7.57969 6.75352 7.38753 6.71009 7.21049 6.62863C7.03344 6.54717 6.87543 6.4295 6.74667 6.2832L4.32412 9.61301C4.02582 9.94787 3.86095 10.3807 3.86084 10.8291V11.2007C3.86153 11.6594 4.03454 12.1012 4.34558 12.4384C4.65662 12.7756 5.08298 12.9836 5.54017 13.0212C5.99737 13.0589 6.45202 12.9234 6.81402 12.6416C7.17602 12.3598 7.41895 11.9523 7.49467 11.4999L7.72148 10.6168L8.20406 6.75613H7.77457Z" fill="#007145"/>
<path d="M15.9444 9.61301L13.5218 6.2832C13.3931 6.4295 13.2351 6.54717 13.058 6.62863C12.881 6.71009 12.6888 6.75352 12.4939 6.75613H12.0645L12.547 10.6168L12.7738 11.4999C12.8139 11.7431 12.9028 11.9757 13.0352 12.1836C13.1675 12.3915 13.3406 12.5706 13.5439 12.7099C13.7472 12.8492 13.9766 12.9459 14.2183 12.9942C14.46 13.0426 14.709 13.0415 14.9503 12.9911C15.2816 12.8745 15.5926 12.7068 15.872 12.494C16.0424 12.3246 16.1776 12.1231 16.2695 11.9011C16.3615 11.679 16.4084 11.441 16.4077 11.2007V10.8291C16.4076 10.3807 16.2427 9.94787 15.9444 9.61301Z" fill="#00C477"/>
<path d="M7.49434 11.4998C7.45424 11.743 7.36534 11.9756 7.23301 12.1835C7.10067 12.3915 6.92763 12.5705 6.72429 12.7098C6.52096 12.8491 6.29154 12.9458 6.04984 12.9942C5.80814 13.0425 5.55917 13.0414 5.3179 12.991L5.30825 13.0296L2.3259 17.286C2.06887 17.6576 1.93087 18.0985 1.93018 18.5503C1.92939 18.8393 1.98616 19.1255 2.09719 19.3923C2.20821 19.6591 2.37127 19.9011 2.57684 20.1042C2.68213 20.2094 2.79681 20.3047 2.91947 20.389C3.27933 20.6251 3.70035 20.7509 4.13075 20.7509H4.20314C4.66541 20.7511 5.11602 20.6058 5.49107 20.3355C5.86612 20.0653 6.14659 19.6838 6.29271 19.2452L6.75599 18.338L7.72115 10.6167L7.49434 11.4998Z" fill="#007145"/>
<path d="M12.0406 11.6542C11.9048 12.0535 11.6486 12.4009 11.3071 12.6484C10.9663 12.8963 10.5558 13.0297 10.1344 13.0296C9.71266 13.0289 9.30178 12.8958 8.95976 12.649C8.61775 12.4022 8.36186 12.0543 8.22822 11.6542L7.72151 10.6167L6.75635 18.338L6.95903 18.946C7.41266 20.3117 8.69149 20.7509 10.1344 20.7509C10.8089 20.7729 11.4793 20.6391 12.0937 20.36C12.3821 20.2197 12.6387 20.0218 12.8478 19.7787C13.057 19.5355 13.2142 19.2522 13.3098 18.946L13.5125 18.338L12.5473 10.6167L12.0406 11.6542Z" fill="#009E60"/>
<path d="M17.9421 17.286L14.9598 13.0296L14.9501 12.991C14.7089 13.0414 14.4599 13.0425 14.2182 12.9942C13.9765 12.9458 13.7471 12.8491 13.5437 12.7098C13.3404 12.5705 13.1674 12.3915 13.035 12.1835C12.9027 11.9756 12.8138 11.743 12.7737 11.4998L12.5469 10.6167L13.512 18.338L13.9753 19.2452C14.1214 19.6838 14.4019 20.0653 14.777 20.3355C15.152 20.6058 15.6026 20.7511 16.0649 20.7509H16.1373C16.5398 20.7502 16.9345 20.6393 17.2785 20.4303C17.6226 20.2212 17.9028 19.9219 18.0887 19.5649C18.2747 19.2078 18.3594 18.8067 18.3335 18.4049C18.3077 18.0032 18.1723 17.6162 17.9421 17.286Z" fill="#00C477"/>
<path d="M6.29296 19.2451C6.14684 19.6837 5.86637 20.0652 5.49132 20.3354C5.11627 20.6057 4.66566 20.751 4.20339 20.7508H4.131C3.7006 20.7508 3.27958 20.625 2.91972 20.3889L0.608163 23.4339C0.29728 23.7889 0.0952817 24.226 0.026344 24.6928C-0.0425937 25.1597 0.0244495 25.6365 0.21945 26.0662C0.414451 26.4959 0.729147 26.8603 1.12588 27.1158C1.5226 27.3713 1.98456 27.5071 2.45645 27.5069H2.85699C3.67697 27.5065 4.47024 27.2153 5.0958 26.6851C5.72136 26.155 6.13871 25.4202 6.27366 24.6114L6.75624 18.3379L6.29296 19.2451Z" fill="#00613B"/>
<path d="M19.6603 23.4339L17.3487 20.3889C16.9889 20.625 16.5678 20.7508 16.1374 20.7508H16.0651C15.6028 20.751 15.1522 20.6057 14.7771 20.3354C14.4021 20.0652 14.1216 19.6837 13.9755 19.2451L13.5122 18.3379L13.9948 24.6114C14.1289 25.4206 14.546 26.1559 15.1718 26.6862C15.7975 27.2165 16.5912 27.5073 17.4115 27.5069H17.812C18.2839 27.5071 18.7458 27.3713 19.1426 27.1158C19.5393 26.8603 19.854 26.4959 20.049 26.0662C20.244 25.6365 20.311 25.1597 20.2421 24.6928C20.1732 24.226 19.9712 23.7889 19.6603 23.4339Z" fill="#00C477"/>
<path d="M13.3095 18.9459C13.2138 19.2521 13.0566 19.5354 12.8475 19.7786C12.6384 20.0217 12.3817 20.2196 12.0934 20.3599C11.479 20.639 10.8085 20.7728 10.1341 20.7508C8.69117 20.7508 7.41233 20.3116 6.9587 18.9459L6.75602 18.3379L6.27344 24.6114C6.27382 25.1918 6.44136 25.7597 6.75602 26.2474C6.93516 26.5274 7.15285 26.7809 7.40268 27.0002C8.16372 27.6491 9.13399 28.0006 10.1341 27.9895C10.7978 28.0043 11.4547 27.8526 12.0448 27.5483C12.6349 27.244 13.1393 26.7967 13.5121 26.2474C13.8268 25.7597 13.9943 25.1918 13.9947 24.6114L13.5121 18.3379L13.3095 18.9459Z" fill="#007145"/>
<path d="M12.0403 10.2067C11.9045 10.606 11.6482 10.9534 11.3068 11.2008C10.966 11.4488 10.5555 11.5822 10.1341 11.5821C9.71234 11.5814 9.30147 11.4482 8.95945 11.2015C8.61743 10.9547 8.36154 10.6067 8.2279 10.2067L7.82736 9.76807L7.72119 10.6169L8.2279 11.6545C8.36154 12.0545 8.61743 12.4024 8.95945 12.6492C9.30147 12.896 9.71234 13.0291 10.1341 13.0298C10.5555 13.03 10.966 12.8965 11.3068 12.6486C11.6482 12.4011 11.9045 12.0538 12.0403 11.6545L12.547 10.6169L12.4408 9.76807L12.0403 10.2067Z" fill="#00824F"/>
<path d="M7.72148 9.65186L7.49467 10.0524C7.42806 10.4587 7.22609 10.8305 6.92155 11.1075C6.61701 11.3845 6.22778 11.5505 5.81704 11.5784C5.40631 11.6064 4.99819 11.4946 4.65893 11.2614C4.31968 11.0282 4.06921 10.6872 3.94819 10.2937C3.8925 10.4669 3.86306 10.6474 3.86084 10.8294V11.2009C3.86153 11.6597 4.03454 12.1014 4.34558 12.4386C4.65662 12.7758 5.08298 12.9838 5.54017 13.0215C5.99737 13.0591 6.45202 12.9236 6.81402 12.6418C7.17602 12.3601 7.41895 11.9526 7.49467 11.5001L7.72148 10.617L7.82765 9.76816L7.72148 9.65186Z" fill="#004A2D"/>
<path d="M14.9503 11.5436C14.7091 11.594 14.4601 11.5951 14.2184 11.5467C13.9767 11.4984 13.7473 11.4017 13.5439 11.2624C13.3406 11.1231 13.1676 10.944 13.0352 10.7361C12.9029 10.5282 12.814 10.2956 12.7739 10.0524L12.5471 9.65186L12.4409 9.76816L12.5471 10.617L12.7739 11.5001C12.814 11.7433 12.9029 11.9759 13.0352 12.1838C13.1676 12.3918 13.3406 12.5708 13.5439 12.7101C13.7473 12.8494 13.9767 12.9462 14.2184 12.9945C14.4601 13.0428 14.7091 13.0417 14.9503 12.9913C15.2817 12.8748 15.5927 12.7071 15.8721 12.4943C16.0425 12.3249 16.1776 12.1233 16.2696 11.9013C16.3615 11.6793 16.4085 11.4412 16.4077 11.2009V10.8294C16.4055 10.6459 16.3756 10.4638 16.3189 10.2893C16.2342 10.5745 16.0807 10.8345 15.8721 11.0465C15.5927 11.2593 15.2817 11.427 14.9503 11.5436Z" fill="#009E60"/>
<path d="M12.0258 6.75609C11.7322 6.74436 11.4485 6.64663 11.21 6.47504C10.9715 6.30345 10.7887 6.06556 10.6842 5.79093L10.1341 4.50244L9.58392 5.79093C9.47947 6.06556 9.29663 6.30345 9.05811 6.47504C8.8196 6.64663 8.53593 6.74436 8.24234 6.75609H8.20374L7.96631 8.65456C8.23584 8.60697 8.49083 8.49806 8.71157 8.33623C8.93231 8.1744 9.11289 7.96399 9.23936 7.72125L9.89277 6.43276L10.5462 7.72125C10.6976 8.01269 10.9263 8.25687 11.2071 8.4271C11.488 8.59732 11.8103 8.68703 12.1387 8.68641H12.3057L12.0644 6.75609H12.0258Z" fill="#00824F"/>
<path d="M7.09069 8.68645H7.64662C7.754 8.68539 7.86108 8.67473 7.96657 8.6546L8.204 6.75613H7.7745C7.57963 6.75352 7.38747 6.71009 7.21042 6.62863C7.03337 6.54717 6.87537 6.4295 6.74661 6.2832L5.59131 7.87089C5.66947 7.9964 5.76319 8.11153 5.87024 8.21352C6.2033 8.51873 6.63894 8.68754 7.09069 8.68645Z" fill="#004A2D"/>
<path d="M12.4939 6.75613H12.0645L12.3057 8.68645H12.6952C13.1469 8.68754 13.5826 8.51873 13.9156 8.21352C13.9272 8.19905 13.9446 8.1894 13.9557 8.17492C14.1527 7.97686 14.2996 7.73465 14.3842 7.46842L13.5218 6.2832C13.3931 6.4295 13.2351 6.54717 13.058 6.62863C12.881 6.71009 12.6888 6.75352 12.4939 6.75613Z" fill="#009E60"/>
<path d="M10.1341 4.34331C10.1341 4.87656 9.27079 5.30847 8.2038 5.30847C7.83466 5.30823 7.47337 5.20188 7.16296 5.0021C6.85255 4.80232 6.60611 4.51753 6.453 4.18164C6.33472 4.43982 6.27349 4.72046 6.27348 5.00444C6.27177 5.26605 6.32265 5.52534 6.42308 5.76692C6.42308 5.77174 6.4279 5.77657 6.4279 5.78139C6.53116 6.05856 6.71408 6.299 6.95365 6.47246C7.19323 6.64591 7.47875 6.74464 7.7743 6.75621H8.24241C8.53599 6.74448 8.81967 6.64674 9.05818 6.47515C9.29669 6.30356 9.47953 6.06567 9.58398 5.79105L9.65154 5.63179C9.69156 5.537 9.75874 5.45616 9.84461 5.39949C9.93049 5.34281 10.0312 5.31281 10.1341 5.31329V4.34331Z" fill="#009E60"/>
<path d="M13.8154 4.18164C13.6623 4.51753 13.4158 4.80232 13.1054 5.0021C12.795 5.20188 12.4337 5.30823 12.0646 5.30847C10.9976 5.30847 10.1343 4.87656 10.1343 4.34331V5.31329C10.2372 5.31281 10.3379 5.34281 10.4238 5.39949C10.5097 5.45616 10.5768 5.537 10.6169 5.63179L10.6844 5.79105C10.7889 6.06567 10.9717 6.30356 11.2102 6.47515C11.4487 6.64674 11.7324 6.74448 12.026 6.75621H12.4941C12.6977 6.754 12.8984 6.70703 13.0819 6.61863C13.2654 6.53023 13.4271 6.40256 13.5558 6.24467C13.6728 6.10498 13.7687 5.9489 13.8405 5.78139C13.8405 5.77657 13.8453 5.77174 13.8453 5.76692C13.9458 5.52534 13.9966 5.26605 13.9949 5.00444C13.9949 4.72046 13.9337 4.43982 13.8154 4.18164Z" fill="#00C477"/>
<path d="M3.37831 26.0593C1.93539 26.0593 0.707708 25.5063 0.223198 24.0518C0.0543026 24.4247 -0.0182735 24.8341 0.0121217 25.2424C0.0425169 25.6507 0.174911 26.0449 0.397169 26.3887C0.619427 26.7326 0.924438 27.0152 1.28425 27.2105C1.64405 27.4059 2.04715 27.5079 2.45658 27.507H2.85712C3.66427 27.5063 4.44582 27.2237 5.06681 26.7081C5.6878 26.1925 6.10924 25.4762 6.25835 24.683C5.66574 25.7948 4.60068 26.0593 3.37831 26.0593Z" fill="#004A2D"/>
<path d="M10.2012 26.5369C9.44017 26.5661 8.68444 26.399 8.00664 26.0517C7.32885 25.7045 6.75177 25.1887 6.3309 24.554C6.31449 24.5878 6.29374 24.6177 6.27637 24.6505C6.2833 25.2172 6.44952 25.7706 6.75605 26.2474C6.9352 26.5274 7.15289 26.7808 7.40271 27.0002C8.16375 27.6491 9.13402 28.0005 10.1341 27.9895C10.7979 28.0043 11.4548 27.8526 12.0448 27.5483C12.6349 27.244 13.1394 26.7967 13.5122 26.2474C13.8187 25.7708 13.9849 25.2176 13.9919 24.651C13.9716 24.6119 13.947 24.5757 13.9277 24.5356C13.5208 25.1517 12.9674 25.6571 12.3169 26.0064C11.6665 26.3557 10.9395 26.538 10.2012 26.5369Z" fill="#00613B"/>
<path d="M16.8904 26.0593C15.6723 26.0593 14.6111 25.8001 14.0166 24.6955C14.1651 25.4869 14.5858 26.2013 15.206 26.7148C15.8261 27.2284 16.6064 27.5087 17.4116 27.507H17.8121C18.2224 27.5103 18.6269 27.4099 18.9881 27.2151C19.3492 27.0204 19.6554 26.7376 19.8781 26.393C20.1008 26.0484 20.233 25.6531 20.2622 25.2439C20.2915 24.8346 20.2169 24.4245 20.0455 24.0518C19.561 25.5063 18.3333 26.0593 16.8904 26.0593Z" fill="#008F57"/>
<path d="M7.72151 29.2975C7.72006 29.2056 7.73931 29.1146 7.77783 29.0311C7.81634 28.9477 7.87314 28.874 7.944 28.8155C8.01487 28.757 8.09799 28.7153 8.1872 28.6933C8.27642 28.6713 8.36944 28.6696 8.45937 28.6885C10.149 29.0854 11.9216 28.9249 13.5125 28.231V26.2524C13.1391 26.8009 12.6344 27.2472 12.0444 27.5506C11.4543 27.854 10.7977 28.005 10.1344 27.9897C9.13432 28.0007 8.16405 27.6493 7.40301 27.0004C7.15318 26.781 6.93549 26.5276 6.75635 26.2476V28.9548C6.75635 29.2108 6.85803 29.4563 7.03904 29.6373C7.22004 29.8183 7.46553 29.92 7.72151 29.92H8.34404C8.26227 29.9201 8.18129 29.904 8.10573 29.8727C8.03017 29.8415 7.96152 29.7956 7.9037 29.7378C7.84588 29.68 7.80003 29.6113 7.76877 29.5358C7.7375 29.4602 7.72144 29.3792 7.72151 29.2975Z" fill="#61362B"/>
<path d="M7.72099 10.6167L7.49418 11.4998C7.45408 11.743 7.36518 11.9756 7.23285 12.1835C7.10051 12.3915 6.92747 12.5705 6.72413 12.7098C6.5208 12.8491 6.29138 12.9458 6.04968 12.9942C5.80798 13.0425 5.55901 13.0414 5.31774 12.991L5.30809 13.0296L3.28125 15.9212C4.57109 15.9095 5.85591 15.7587 7.11342 15.4715L7.72099 10.6167Z" fill="#00613B"/>
<path d="M7.76382 15.3127C9.04362 14.9749 10.2935 14.5077 11.5912 14.2563C12.0499 14.1689 12.5128 14.1055 12.9781 14.0662L12.5472 10.6167L12.0404 11.6542C11.9047 12.0535 11.6484 12.4009 11.3069 12.6484C10.9662 12.8963 10.5556 13.0297 10.1343 13.0296C9.7125 13.0289 9.30162 12.8958 8.95961 12.649C8.61759 12.4022 8.3617 12.0543 8.22806 11.6542L7.72135 10.6167L7.11475 15.4715C7.33191 15.4218 7.5481 15.3696 7.76382 15.3127Z" fill="#008F57"/>
<path d="M15.6446 14.0068L14.9598 13.0296L14.9501 12.991C14.7089 13.0414 14.4599 13.0425 14.2182 12.9942C13.9765 12.9458 13.7471 12.8491 13.5437 12.7098C13.3404 12.5705 13.1674 12.3915 13.035 12.1835C12.9027 11.9756 12.8138 11.743 12.7737 11.4998L12.5469 10.6167L12.9778 14.0662C13.8649 13.9964 14.7552 13.9766 15.6446 14.0068Z" fill="#009E60"/>
<path d="M7.39108 13.2554L7.72117 10.6167L7.49435 11.4998C7.45425 11.743 7.36536 11.9756 7.23302 12.1835C7.10069 12.3915 6.92764 12.5705 6.72431 12.7098C6.52097 12.8491 6.29155 12.9458 6.04986 12.9942C5.80816 13.0425 5.55918 13.0414 5.31792 12.991L5.30826 13.0296L4.82568 13.7182C5.26103 13.8344 5.71662 13.8531 6.16003 13.7731C6.60344 13.6931 7.02376 13.5164 7.39108 13.2554Z" fill="#004A2D"/>
<path d="M7.72169 13.0296C7.72169 13.0296 8.20427 13.9948 10.1346 13.9948C12.0649 13.9948 12.5475 13.0296 12.5475 13.0296C12.6594 13.1136 12.769 13.1874 12.8776 13.2554L12.5475 10.6167L12.0408 11.6542C11.905 12.0535 11.6487 12.4009 11.3073 12.6484C10.9665 12.8963 10.556 13.0297 10.1346 13.0296C9.71284 13.0289 9.30196 12.8958 8.95994 12.649C8.61792 12.4022 8.36204 12.0543 8.2284 11.6542L7.72169 10.6167L7.3916 13.2554C7.50018 13.1874 7.60973 13.1136 7.72169 13.0296Z" fill="#00613B"/>
<path d="M15.4424 13.7182L14.9598 13.0296L14.9501 12.991C14.7089 13.0414 14.4599 13.0425 14.2182 12.9942C13.9765 12.9458 13.7471 12.8491 13.5437 12.7098C13.3404 12.5705 13.1674 12.3915 13.035 12.1835C12.9027 11.9756 12.8138 11.743 12.7737 11.4998L12.5469 10.6167L12.877 13.2554C13.2443 13.5164 13.6646 13.6931 14.108 13.7731C14.5514 13.8531 15.007 13.8344 15.4424 13.7182Z" fill="#007145"/>
<path d="M6.77292 18.1147C6.54472 18.506 6.23995 18.8472 5.87682 19.118C5.5137 19.3887 5.0997 19.5835 4.65957 19.6905C4.21945 19.7976 3.76226 19.8147 3.31535 19.741C2.86844 19.6672 2.441 19.5041 2.05859 19.2614C2.1642 19.5786 2.34175 19.8672 2.57737 20.1044C2.68265 20.2096 2.79734 20.3049 2.92 20.3891C3.27986 20.6253 3.70087 20.7511 4.13128 20.7511H4.20366C4.66594 20.7513 5.11654 20.6059 5.4916 20.3357C5.86665 20.0655 6.14712 19.684 6.29324 19.2454L6.75651 18.3382L6.78402 18.1244L6.77292 18.1147Z" fill="#00613B"/>
<path d="M13.4222 17.6406C13.0053 18.1748 12.4687 18.6036 11.8557 18.8923C11.2427 19.1811 10.5705 19.3218 9.89312 19.3031C8.7441 19.3221 7.63146 18.9002 6.78385 18.1242L6.75635 18.338L6.95903 18.946C7.41266 20.3117 8.69149 20.7509 10.1344 20.7509C10.8089 20.7728 11.4793 20.6391 12.0937 20.36C12.3821 20.2196 12.6387 20.0218 12.8478 19.7786C13.057 19.5355 13.2142 19.2521 13.3098 18.946L13.5125 18.338L13.4261 17.645L13.4222 17.6406Z" fill="#008F57"/>
<path d="M13.4258 17.645L13.5122 18.338L13.9754 19.2453C14.1216 19.6838 14.402 20.0653 14.7771 20.3355C15.1521 20.6058 15.6027 20.7511 16.065 20.7509H16.1374C16.4265 20.7513 16.7128 20.6946 16.98 20.5842C17.2471 20.4737 17.4899 20.3116 17.6943 20.1072C17.8987 19.9028 18.0608 19.6601 18.1712 19.3929C18.2817 19.1258 18.3383 18.8394 18.338 18.5503C18.3371 18.4208 18.3247 18.2916 18.3008 18.1643C17.8554 19.3032 16.9655 19.3032 16.1664 19.3032C15.0699 19.3032 14.0913 18.3636 13.4258 17.645Z" fill="#009E60"/>
<path d="M5.03912 21.7825C5.52103 21.8285 6.00023 21.8993 6.4748 21.9949L6.75614 18.3379L6.29287 19.2451C6.14675 19.6837 5.86628 20.0652 5.49123 20.3354C5.11617 20.6057 4.66557 20.751 4.20329 20.7508H4.13091C3.7005 20.7508 3.27949 20.625 2.91963 20.3889L1.57227 22.1633C2.69255 21.8142 3.86976 21.6849 5.03912 21.7825Z" fill="#004A2D"/>
<path d="M15.9077 22.8259C16.7928 22.6391 17.6175 22.2352 18.3076 21.6503L17.3487 20.3889C16.9889 20.625 16.5678 20.7508 16.1374 20.7508H16.0651C15.6028 20.751 15.1522 20.6057 14.7771 20.3354C14.4021 20.0652 14.1216 19.6837 13.9755 19.2451L13.5122 18.3379L13.8717 23.0136C14.5554 23.0298 15.2386 22.9668 15.9077 22.8259Z" fill="#008F57"/>
<path d="M7.33022 22.1623C8.86338 22.4649 10.4081 22.7101 11.963 22.8804C12.5961 22.9499 13.236 23.0054 13.873 23.0136L13.5121 18.3379L13.3094 18.9459C13.2138 19.2521 13.0566 19.5354 12.8474 19.7786C12.6383 20.0217 12.3817 20.2196 12.0933 20.3599C11.4789 20.639 10.8085 20.7728 10.134 20.7508C8.6911 20.7508 7.41226 20.3116 6.95864 18.9459L6.75595 18.3379L6.47461 21.9949C6.7603 22.0489 7.0455 22.1059 7.33022 22.1623Z" fill="#00613B"/>
</svg>
